<?xml version="1.0" encoding="utf-8" standalone="no"?>
<!DOCTYPE svg PUBLIC "-//W3C//DTD SVG 1.1//EN"
  "http://www.w3.org/Graphics/SVG/1.1/DTD/svg11.dtd">
<svg xmlns:xlink="http://www.w3.org/1999/xlink" width="711.663097pt" height="379.965284pt" viewBox="0 0 711.663097 379.965284" xmlns="http://www.w3.org/2000/svg" version="1.1">
 <metadata>
  <rdf:RDF xmlns:dc="http://purl.org/dc/elements/1.1/" xmlns:cc="http://creativecommons.org/ns#" xmlns:rdf="http://www.w3.org/1999/02/22-rdf-syntax-ns#">
   <cc:Work>
    <dc:type rdf:resource="http://purl.org/dc/dcmitype/StillImage"/>
    <dc:date>2026-07-01T03:10:26.110055</dc:date>
    <dc:format>image/svg+xml</dc:format>
    <dc:creator>
     <cc:Agent>
      <dc:title>Matplotlib v3.10.8, https://matplotlib.org/</dc:title>
     </cc:Agent>
    </dc:creator>
   </cc:Work>
  </rdf:RDF>
 </metadata>
 <defs>
  <style type="text/css">*{stroke-linejoin: round; stroke-linecap: butt}</style>
 </defs>
 <g id="figure_1">
  <g id="patch_1">
   <path d="M 0 379.965284 
L 711.663097 379.965284 
L 711.663097 0 
L 0 0 
z
" style="fill: #ffffff"/>
  </g>
  <g id="axes_1">
   <g id="patch_2">
    <path d="M 34.572188 342.409034 
L 704.463097 342.409034 
L 704.463097 22.318125 
L 34.572188 22.318125 
z
" style="fill: #ffffff"/>
   </g>
   <g id="patch_3">
    <path d="M 34.572188 342.409034 
L 187.920709 342.409034 
L 187.920709 22.318125 
L 34.572188 22.318125 
z
" clip-path="url(#pef57de973e)" style="fill: #c49464; opacity: 0.3; stroke: #c49464; stroke-linejoin: miter"/>
   </g>
   <g id="patch_4">
    <path d="M 187.920709 342.409034 
L 389.695079 342.409034 
L 389.695079 22.318125 
L 187.920709 22.318125 
z
" clip-path="url(#pef57de973e)" style="fill: #f4c95d; opacity: 0.3; stroke: #f4c95d; stroke-linejoin: miter"/>
   </g>
   <g id="patch_5">
    <path d="M 389.695079 342.409034 
L 551.114575 342.409034 
L 551.114575 22.318125 
L 389.695079 22.318125 
z
" clip-path="url(#pef57de973e)" style="fill: #94bd7a; opacity: 0.3; stroke: #94bd7a; stroke-linejoin: miter"/>
   </g>
   <g id="patch_6">
    <path d="M 551.114575 342.409034 
L 704.463097 342.409034 
L 704.463097 22.318125 
L 551.114575 22.318125 
z
" clip-path="url(#pef57de973e)" style="fill: #6fa8dc; opacity: 0.3; stroke: #6fa8dc; stroke-linejoin: miter"/>
   </g>
   <g id="line2d_1">
    <path d="M 187.920709 342.409034 
L 187.920709 22.318125 
" clip-path="url(#pef57de973e)" style="fill: none; stroke-dasharray: 0.8,1.32; stroke-dashoffset: 0; stroke: #666666; stroke-width: 0.8"/>
   </g>
   <g id="line2d_2">
    <path d="M 389.695079 342.409034 
L 389.695079 22.318125 
" clip-path="url(#pef57de973e)" style="fill: none; stroke-dasharray: 0.8,1.32; stroke-dashoffset: 0; stroke: #666666; stroke-width: 0.8"/>
   </g>
   <g id="line2d_3">
    <path d="M 551.114575 342.409034 
L 551.114575 22.318125 
" clip-path="url(#pef57de973e)" style="fill: none; stroke-dasharray: 0.8,1.32; stroke-dashoffset: 0; stroke: #666666; stroke-width: 0.8"/>
   </g>
   <g id="matplotlib.axis_1">
    <g id="xtick_1">
     <g id="line2d_4">
      <path d="M 66.856087 342.409034 
L 66.856087 22.318125 
" clip-path="url(#pef57de973e)" style="fill: none; stroke-dasharray: 0.4,0.66; stroke-dashoffset: 0; stroke: #b0b0b0; stroke-opacity: 0.5; stroke-width: 0.4"/>
     </g>
     <g id="line2d_5">
      <defs>
       <path id="m2abe00f6e2" d="M 0 0 
L 0 3.5 
" style="stroke: #000000; stroke-width: 0.8"/>
      </defs>
      <g>
       <use xlink:href="#m2abe00f6e2" x="66.856087" y="342.409034" style="stroke: #000000; stroke-width: 0.8"/>
      </g>
     </g>
     <g id="text_1">
      <!-- −4 -->
      <g transform="translate(60.222102 356.247628) scale(0.09 -0.09)">
       <defs>
        <path id="DejaVuSans-2212" d="M 678 2272 
L 4684 2272 
L 4684 1741 
L 678 1741 
L 678 2272 
z
" transform="scale(0.015625)"/>
        <path id="DejaVuSans-34" d="M 2419 4116 
L 825 1625 
L 2419 1625 
L 2419 4116 
z
M 2253 4666 
L 3047 4666 
L 3047 1625 
L 3713 1625 
L 3713 1100 
L 3047 1100 
L 3047 0 
L 2419 0 
L 2419 1100 
L 313 1100 
L 313 1709 
L 2253 4666 
z
" transform="scale(0.015625)"/>
       </defs>
       <use xlink:href="#DejaVuSans-2212"/>
       <use xlink:href="#DejaVuSans-34" transform="translate(83.789062 0)"/>
      </g>
     </g>
    </g>
    <g id="xtick_2">
     <g id="line2d_6">
      <path d="M 147.565835 342.409034 
L 147.565835 22.318125 
" clip-path="url(#pef57de973e)" style="fill: none; stroke-dasharray: 0.4,0.66; stroke-dashoffset: 0; stroke: #b0b0b0; stroke-opacity: 0.5; stroke-width: 0.4"/>
     </g>
     <g id="line2d_7">
      <g>
       <use xlink:href="#m2abe00f6e2" x="147.565835" y="342.409034" style="stroke: #000000; stroke-width: 0.8"/>
      </g>
     </g>
     <g id="text_2">
      <!-- −2 -->
      <g transform="translate(140.93185 356.247628) scale(0.09 -0.09)">
       <defs>
        <path id="DejaVuSans-32" d="M 1228 531 
L 3431 531 
L 3431 0 
L 469 0 
L 469 531 
Q 828 903 1448 1529 
Q 2069 2156 2228 2338 
Q 2531 2678 2651 2914 
Q 2772 3150 2772 3378 
Q 2772 3750 2511 3984 
Q 2250 4219 1831 4219 
Q 1534 4219 1204 4116 
Q 875 4013 500 3803 
L 500 4441 
Q 881 4594 1212 4672 
Q 1544 4750 1819 4750 
Q 2544 4750 2975 4387 
Q 3406 4025 3406 3419 
Q 3406 3131 3298 2873 
Q 3191 2616 2906 2266 
Q 2828 2175 2409 1742 
Q 1991 1309 1228 531 
z
" transform="scale(0.015625)"/>
       </defs>
       <use xlink:href="#DejaVuSans-2212"/>
       <use xlink:href="#DejaVuSans-32" transform="translate(83.789062 0)"/>
      </g>
     </g>
    </g>
    <g id="xtick_3">
     <g id="line2d_8">
      <path d="M 228.275583 342.409034 
L 228.275583 22.318125 
" clip-path="url(#pef57de973e)" style="fill: none; stroke-dasharray: 0.4,0.66; stroke-dashoffset: 0; stroke: #b0b0b0; stroke-opacity: 0.5; stroke-width: 0.4"/>
     </g>
     <g id="line2d_9">
      <g>
       <use xlink:href="#m2abe00f6e2" x="228.275583" y="342.409034" style="stroke: #000000; stroke-width: 0.8"/>
      </g>
     </g>
     <g id="text_3">
      <!-- 0 -->
      <g transform="translate(225.412458 356.247628) scale(0.09 -0.09)">
       <defs>
        <path id="DejaVuSans-30" d="M 2034 4250 
Q 1547 4250 1301 3770 
Q 1056 3291 1056 2328 
Q 1056 1369 1301 889 
Q 1547 409 2034 409 
Q 2525 409 2770 889 
Q 3016 1369 3016 2328 
Q 3016 3291 2770 3770 
Q 2525 4250 2034 4250 
z
M 2034 4750 
Q 2819 4750 3233 4129 
Q 3647 3509 3647 2328 
Q 3647 1150 3233 529 
Q 2819 -91 2034 -91 
Q 1250 -91 836 529 
Q 422 1150 422 2328 
Q 422 3509 836 4129 
Q 1250 4750 2034 4750 
z
" transform="scale(0.015625)"/>
       </defs>
       <use xlink:href="#DejaVuSans-30"/>
      </g>
     </g>
    </g>
    <g id="xtick_4">
     <g id="line2d_10">
      <path d="M 308.985331 342.409034 
L 308.985331 22.318125 
" clip-path="url(#pef57de973e)" style="fill: none; stroke-dasharray: 0.4,0.66; stroke-dashoffset: 0; stroke: #b0b0b0; stroke-opacity: 0.5; stroke-width: 0.4"/>
     </g>
     <g id="line2d_11">
      <g>
       <use xlink:href="#m2abe00f6e2" x="308.985331" y="342.409034" style="stroke: #000000; stroke-width: 0.8"/>
      </g>
     </g>
     <g id="text_4">
      <!-- 2 -->
      <g transform="translate(306.122206 356.247628) scale(0.09 -0.09)">
       <use xlink:href="#DejaVuSans-32"/>
      </g>
     </g>
    </g>
    <g id="xtick_5">
     <g id="line2d_12">
      <path d="M 389.695079 342.409034 
L 389.695079 22.318125 
" clip-path="url(#pef57de973e)" style="fill: none; stroke-dasharray: 0.4,0.66; stroke-dashoffset: 0; stroke: #b0b0b0; stroke-opacity: 0.5; stroke-width: 0.4"/>
     </g>
     <g id="line2d_13">
      <g>
       <use xlink:href="#m2abe00f6e2" x="389.695079" y="342.409034" style="stroke: #000000; stroke-width: 0.8"/>
      </g>
     </g>
     <g id="text_5">
      <!-- 4 -->
      <g transform="translate(386.831954 356.247628) scale(0.09 -0.09)">
       <use xlink:href="#DejaVuSans-34"/>
      </g>
     </g>
    </g>
    <g id="xtick_6">
     <g id="line2d_14">
      <path d="M 470.404827 342.409034 
L 470.404827 22.318125 
" clip-path="url(#pef57de973e)" style="fill: none; stroke-dasharray: 0.4,0.66; stroke-dashoffset: 0; stroke: #b0b0b0; stroke-opacity: 0.5; stroke-width: 0.4"/>
     </g>
     <g id="line2d_15">
      <g>
       <use xlink:href="#m2abe00f6e2" x="470.404827" y="342.409034" style="stroke: #000000; stroke-width: 0.8"/>
      </g>
     </g>
     <g id="text_6">
      <!-- 6 -->
      <g transform="translate(467.541702 356.247628) scale(0.09 -0.09)">
       <defs>
        <path id="DejaVuSans-36" d="M 2113 2584 
Q 1688 2584 1439 2293 
Q 1191 2003 1191 1497 
Q 1191 994 1439 701 
Q 1688 409 2113 409 
Q 2538 409 2786 701 
Q 3034 994 3034 1497 
Q 3034 2003 2786 2293 
Q 2538 2584 2113 2584 
z
M 3366 4563 
L 3366 3988 
Q 3128 4100 2886 4159 
Q 2644 4219 2406 4219 
Q 1781 4219 1451 3797 
Q 1122 3375 1075 2522 
Q 1259 2794 1537 2939 
Q 1816 3084 2150 3084 
Q 2853 3084 3261 2657 
Q 3669 2231 3669 1497 
Q 3669 778 3244 343 
Q 2819 -91 2113 -91 
Q 1303 -91 875 529 
Q 447 1150 447 2328 
Q 447 3434 972 4092 
Q 1497 4750 2381 4750 
Q 2619 4750 2861 4703 
Q 3103 4656 3366 4563 
z
" transform="scale(0.015625)"/>
       </defs>
       <use xlink:href="#DejaVuSans-36"/>
      </g>
     </g>
    </g>
    <g id="xtick_7">
     <g id="line2d_16">
      <path d="M 551.114575 342.409034 
L 551.114575 22.318125 
" clip-path="url(#pef57de973e)" style="fill: none; stroke-dasharray: 0.4,0.66; stroke-dashoffset: 0; stroke: #b0b0b0; stroke-opacity: 0.5; stroke-width: 0.4"/>
     </g>
     <g id="line2d_17">
      <g>
       <use xlink:href="#m2abe00f6e2" x="551.114575" y="342.409034" style="stroke: #000000; stroke-width: 0.8"/>
      </g>
     </g>
     <g id="text_7">
      <!-- 8 -->
      <g transform="translate(548.25145 356.247628) scale(0.09 -0.09)">
       <defs>
        <path id="DejaVuSans-38" d="M 2034 2216 
Q 1584 2216 1326 1975 
Q 1069 1734 1069 1313 
Q 1069 891 1326 650 
Q 1584 409 2034 409 
Q 2484 409 2743 651 
Q 3003 894 3003 1313 
Q 3003 1734 2745 1975 
Q 2488 2216 2034 2216 
z
M 1403 2484 
Q 997 2584 770 2862 
Q 544 3141 544 3541 
Q 544 4100 942 4425 
Q 1341 4750 2034 4750 
Q 2731 4750 3128 4425 
Q 3525 4100 3525 3541 
Q 3525 3141 3298 2862 
Q 3072 2584 2669 2484 
Q 3125 2378 3379 2068 
Q 3634 1759 3634 1313 
Q 3634 634 3220 271 
Q 2806 -91 2034 -91 
Q 1263 -91 848 271 
Q 434 634 434 1313 
Q 434 1759 690 2068 
Q 947 2378 1403 2484 
z
M 1172 3481 
Q 1172 3119 1398 2916 
Q 1625 2713 2034 2713 
Q 2441 2713 2670 2916 
Q 2900 3119 2900 3481 
Q 2900 3844 2670 4047 
Q 2441 4250 2034 4250 
Q 1625 4250 1398 4047 
Q 1172 3844 1172 3481 
z
" transform="scale(0.015625)"/>
       </defs>
       <use xlink:href="#DejaVuSans-38"/>
      </g>
     </g>
    </g>
    <g id="xtick_8">
     <g id="line2d_18">
      <path d="M 631.824323 342.409034 
L 631.824323 22.318125 
" clip-path="url(#pef57de973e)" style="fill: none; stroke-dasharray: 0.4,0.66; stroke-dashoffset: 0; stroke: #b0b0b0; stroke-opacity: 0.5; stroke-width: 0.4"/>
     </g>
     <g id="line2d_19">
      <g>
       <use xlink:href="#m2abe00f6e2" x="631.824323" y="342.409034" style="stroke: #000000; stroke-width: 0.8"/>
      </g>
     </g>
     <g id="text_8">
      <!-- 10 -->
      <g transform="translate(626.098073 356.247628) scale(0.09 -0.09)">
       <defs>
        <path id="DejaVuSans-31" d="M 794 531 
L 1825 531 
L 1825 4091 
L 703 3866 
L 703 4441 
L 1819 4666 
L 2450 4666 
L 2450 531 
L 3481 531 
L 3481 0 
L 794 0 
L 794 531 
z
" transform="scale(0.015625)"/>
       </defs>
       <use xlink:href="#DejaVuSans-31"/>
       <use xlink:href="#DejaVuSans-30" transform="translate(63.623047 0)"/>
      </g>
     </g>
    </g>
    <g id="text_9">
     <!-- Grain size (phi) -->
     <g transform="translate(327.654048 370.477628) scale(0.11 -0.11)">
      <defs>
       <path id="DejaVuSans-47" d="M 3809 666 
L 3809 1919 
L 2778 1919 
L 2778 2438 
L 4434 2438 
L 4434 434 
Q 4069 175 3628 42 
Q 3188 -91 2688 -91 
Q 1594 -91 976 548 
Q 359 1188 359 2328 
Q 359 3472 976 4111 
Q 1594 4750 2688 4750 
Q 3144 4750 3555 4637 
Q 3966 4525 4313 4306 
L 4313 3634 
Q 3963 3931 3569 4081 
Q 3175 4231 2741 4231 
Q 1884 4231 1454 3753 
Q 1025 3275 1025 2328 
Q 1025 1384 1454 906 
Q 1884 428 2741 428 
Q 3075 428 3337 486 
Q 3600 544 3809 666 
z
" transform="scale(0.015625)"/>
       <path id="DejaVuSans-72" d="M 2631 2963 
Q 2534 3019 2420 3045 
Q 2306 3072 2169 3072 
Q 1681 3072 1420 2755 
Q 1159 2438 1159 1844 
L 1159 0 
L 581 0 
L 581 3500 
L 1159 3500 
L 1159 2956 
Q 1341 3275 1631 3429 
Q 1922 3584 2338 3584 
Q 2397 3584 2469 3576 
Q 2541 3569 2628 3553 
L 2631 2963 
z
" transform="scale(0.015625)"/>
       <path id="DejaVuSans-61" d="M 2194 1759 
Q 1497 1759 1228 1600 
Q 959 1441 959 1056 
Q 959 750 1161 570 
Q 1363 391 1709 391 
Q 2188 391 2477 730 
Q 2766 1069 2766 1631 
L 2766 1759 
L 2194 1759 
z
M 3341 1997 
L 3341 0 
L 2766 0 
L 2766 531 
Q 2569 213 2275 61 
Q 1981 -91 1556 -91 
Q 1019 -91 701 211 
Q 384 513 384 1019 
Q 384 1609 779 1909 
Q 1175 2209 1959 2209 
L 2766 2209 
L 2766 2266 
Q 2766 2663 2505 2880 
Q 2244 3097 1772 3097 
Q 1472 3097 1187 3025 
Q 903 2953 641 2809 
L 641 3341 
Q 956 3463 1253 3523 
Q 1550 3584 1831 3584 
Q 2591 3584 2966 3190 
Q 3341 2797 3341 1997 
z
" transform="scale(0.015625)"/>
       <path id="DejaVuSans-69" d="M 603 3500 
L 1178 3500 
L 1178 0 
L 603 0 
L 603 3500 
z
M 603 4863 
L 1178 4863 
L 1178 4134 
L 603 4134 
L 603 4863 
z
" transform="scale(0.015625)"/>
       <path id="DejaVuSans-6e" d="M 3513 2113 
L 3513 0 
L 2938 0 
L 2938 2094 
Q 2938 2591 2744 2837 
Q 2550 3084 2163 3084 
Q 1697 3084 1428 2787 
Q 1159 2491 1159 1978 
L 1159 0 
L 581 0 
L 581 3500 
L 1159 3500 
L 1159 2956 
Q 1366 3272 1645 3428 
Q 1925 3584 2291 3584 
Q 2894 3584 3203 3211 
Q 3513 2838 3513 2113 
z
" transform="scale(0.015625)"/>
       <path id="DejaVuSans-20" transform="scale(0.015625)"/>
       <path id="DejaVuSans-73" d="M 2834 3397 
L 2834 2853 
Q 2591 2978 2328 3040 
Q 2066 3103 1784 3103 
Q 1356 3103 1142 2972 
Q 928 2841 928 2578 
Q 928 2378 1081 2264 
Q 1234 2150 1697 2047 
L 1894 2003 
Q 2506 1872 2764 1633 
Q 3022 1394 3022 966 
Q 3022 478 2636 193 
Q 2250 -91 1575 -91 
Q 1294 -91 989 -36 
Q 684 19 347 128 
L 347 722 
Q 666 556 975 473 
Q 1284 391 1588 391 
Q 1994 391 2212 530 
Q 2431 669 2431 922 
Q 2431 1156 2273 1281 
Q 2116 1406 1581 1522 
L 1381 1569 
Q 847 1681 609 1914 
Q 372 2147 372 2553 
Q 372 3047 722 3315 
Q 1072 3584 1716 3584 
Q 2034 3584 2315 3537 
Q 2597 3491 2834 3397 
z
" transform="scale(0.015625)"/>
       <path id="DejaVuSans-7a" d="M 353 3500 
L 3084 3500 
L 3084 2975 
L 922 459 
L 3084 459 
L 3084 0 
L 275 0 
L 275 525 
L 2438 3041 
L 353 3041 
L 353 3500 
z
" transform="scale(0.015625)"/>
       <path id="DejaVuSans-65" d="M 3597 1894 
L 3597 1613 
L 953 1613 
Q 991 1019 1311 708 
Q 1631 397 2203 397 
Q 2534 397 2845 478 
Q 3156 559 3463 722 
L 3463 178 
Q 3153 47 2828 -22 
Q 2503 -91 2169 -91 
Q 1331 -91 842 396 
Q 353 884 353 1716 
Q 353 2575 817 3079 
Q 1281 3584 2069 3584 
Q 2775 3584 3186 3129 
Q 3597 2675 3597 1894 
z
M 3022 2063 
Q 3016 2534 2758 2815 
Q 2500 3097 2075 3097 
Q 1594 3097 1305 2825 
Q 1016 2553 972 2059 
L 3022 2063 
z
" transform="scale(0.015625)"/>
       <path id="DejaVuSans-28" d="M 1984 4856 
Q 1566 4138 1362 3434 
Q 1159 2731 1159 2009 
Q 1159 1288 1364 580 
Q 1569 -128 1984 -844 
L 1484 -844 
Q 1016 -109 783 600 
Q 550 1309 550 2009 
Q 550 2706 781 3412 
Q 1013 4119 1484 4856 
L 1984 4856 
z
" transform="scale(0.015625)"/>
       <path id="DejaVuSans-70" d="M 1159 525 
L 1159 -1331 
L 581 -1331 
L 581 3500 
L 1159 3500 
L 1159 2969 
Q 1341 3281 1617 3432 
Q 1894 3584 2278 3584 
Q 2916 3584 3314 3078 
Q 3713 2572 3713 1747 
Q 3713 922 3314 415 
Q 2916 -91 2278 -91 
Q 1894 -91 1617 61 
Q 1341 213 1159 525 
z
M 3116 1747 
Q 3116 2381 2855 2742 
Q 2594 3103 2138 3103 
Q 1681 3103 1420 2742 
Q 1159 2381 1159 1747 
Q 1159 1113 1420 752 
Q 1681 391 2138 391 
Q 2594 391 2855 752 
Q 3116 1113 3116 1747 
z
" transform="scale(0.015625)"/>
       <path id="DejaVuSans-68" d="M 3513 2113 
L 3513 0 
L 2938 0 
L 2938 2094 
Q 2938 2591 2744 2837 
Q 2550 3084 2163 3084 
Q 1697 3084 1428 2787 
Q 1159 2491 1159 1978 
L 1159 0 
L 581 0 
L 581 4863 
L 1159 4863 
L 1159 2956 
Q 1366 3272 1645 3428 
Q 1925 3584 2291 3584 
Q 2894 3584 3203 3211 
Q 3513 2838 3513 2113 
z
" transform="scale(0.015625)"/>
       <path id="DejaVuSans-29" d="M 513 4856 
L 1013 4856 
Q 1481 4119 1714 3412 
Q 1947 2706 1947 2009 
Q 1947 1309 1714 600 
Q 1481 -109 1013 -844 
L 513 -844 
Q 928 -128 1133 580 
Q 1338 1288 1338 2009 
Q 1338 2731 1133 3434 
Q 928 4138 513 4856 
z
" transform="scale(0.015625)"/>
      </defs>
      <use xlink:href="#DejaVuSans-47"/>
      <use xlink:href="#DejaVuSans-72" transform="translate(77.490234 0)"/>
      <use xlink:href="#DejaVuSans-61" transform="translate(118.603516 0)"/>
      <use xlink:href="#DejaVuSans-69" transform="translate(179.882812 0)"/>
      <use xlink:href="#DejaVuSans-6e" transform="translate(207.666016 0)"/>
      <use xlink:href="#DejaVuSans-20" transform="translate(271.044922 0)"/>
      <use xlink:href="#DejaVuSans-73" transform="translate(302.832031 0)"/>
      <use xlink:href="#DejaVuSans-69" transform="translate(354.931641 0)"/>
      <use xlink:href="#DejaVuSans-7a" transform="translate(382.714844 0)"/>
      <use xlink:href="#DejaVuSans-65" transform="translate(435.205078 0)"/>
      <use xlink:href="#DejaVuSans-20" transform="translate(496.728516 0)"/>
      <use xlink:href="#DejaVuSans-28" transform="translate(528.515625 0)"/>
      <use xlink:href="#DejaVuSans-70" transform="translate(567.529297 0)"/>
      <use xlink:href="#DejaVuSans-68" transform="translate(631.005859 0)"/>
      <use xlink:href="#DejaVuSans-69" transform="translate(694.384766 0)"/>
      <use xlink:href="#DejaVuSans-29" transform="translate(722.167969 0)"/>
     </g>
    </g>
   </g>
   <g id="matplotlib.axis_2">
    <g id="ytick_1">
     <g id="line2d_20">
      <path d="M 34.572188 342.409034 
L 704.463097 342.409034 
" clip-path="url(#pef57de973e)" style="fill: none; stroke-dasharray: 0.4,0.66; stroke-dashoffset: 0; stroke: #b0b0b0; stroke-opacity: 0.5; stroke-width: 0.4"/>
     </g>
     <g id="line2d_21">
      <defs>
       <path id="mbe4fa854af" d="M 0 0 
L -3.5 0 
" style="stroke: #000000; stroke-width: 0.8"/>
      </defs>
      <g>
       <use xlink:href="#mbe4fa854af" x="34.572188" y="342.409034" style="stroke: #000000; stroke-width: 0.8"/>
      </g>
     </g>
     <g id="text_10">
      <!-- 0 -->
      <g transform="translate(21.845938 345.828331) scale(0.09 -0.09)">
       <use xlink:href="#DejaVuSans-30"/>
      </g>
     </g>
    </g>
    <g id="ytick_2">
     <g id="line2d_22">
      <path d="M 34.572188 283.143377 
L 704.463097 283.143377 
" clip-path="url(#pef57de973e)" style="fill: none; stroke-dasharray: 0.4,0.66; stroke-dashoffset: 0; stroke: #b0b0b0; stroke-opacity: 0.5; stroke-width: 0.4"/>
     </g>
     <g id="line2d_23">
      <g>
       <use xlink:href="#mbe4fa854af" x="34.572188" y="283.143377" style="stroke: #000000; stroke-width: 0.8"/>
      </g>
     </g>
     <g id="text_11">
      <!-- 1 -->
      <g transform="translate(21.845938 286.562674) scale(0.09 -0.09)">
       <use xlink:href="#DejaVuSans-31"/>
      </g>
     </g>
    </g>
    <g id="ytick_3">
     <g id="line2d_24">
      <path d="M 34.572188 223.87772 
L 704.463097 223.87772 
" clip-path="url(#pef57de973e)" style="fill: none; stroke-dasharray: 0.4,0.66; stroke-dashoffset: 0; stroke: #b0b0b0; stroke-opacity: 0.5; stroke-width: 0.4"/>
     </g>
     <g id="line2d_25">
      <g>
       <use xlink:href="#mbe4fa854af" x="34.572188" y="223.87772" style="stroke: #000000; stroke-width: 0.8"/>
      </g>
     </g>
     <g id="text_12">
      <!-- 2 -->
      <g transform="translate(21.845938 227.297017) scale(0.09 -0.09)">
       <use xlink:href="#DejaVuSans-32"/>
      </g>
     </g>
    </g>
    <g id="ytick_4">
     <g id="line2d_26">
      <path d="M 34.572188 164.612063 
L 704.463097 164.612063 
" clip-path="url(#pef57de973e)" style="fill: none; stroke-dasharray: 0.4,0.66; stroke-dashoffset: 0; stroke: #b0b0b0; stroke-opacity: 0.5; stroke-width: 0.4"/>
     </g>
     <g id="line2d_27">
      <g>
       <use xlink:href="#mbe4fa854af" x="34.572188" y="164.612063" style="stroke: #000000; stroke-width: 0.8"/>
      </g>
     </g>
     <g id="text_13">
      <!-- 3 -->
      <g transform="translate(21.845938 168.03136) scale(0.09 -0.09)">
       <defs>
        <path id="DejaVuSans-33" d="M 2597 2516 
Q 3050 2419 3304 2112 
Q 3559 1806 3559 1356 
Q 3559 666 3084 287 
Q 2609 -91 1734 -91 
Q 1441 -91 1130 -33 
Q 819 25 488 141 
L 488 750 
Q 750 597 1062 519 
Q 1375 441 1716 441 
Q 2309 441 2620 675 
Q 2931 909 2931 1356 
Q 2931 1769 2642 2001 
Q 2353 2234 1838 2234 
L 1294 2234 
L 1294 2753 
L 1863 2753 
Q 2328 2753 2575 2939 
Q 2822 3125 2822 3475 
Q 2822 3834 2567 4026 
Q 2313 4219 1838 4219 
Q 1578 4219 1281 4162 
Q 984 4106 628 3988 
L 628 4550 
Q 988 4650 1302 4700 
Q 1616 4750 1894 4750 
Q 2613 4750 3031 4423 
Q 3450 4097 3450 3541 
Q 3450 3153 3228 2886 
Q 3006 2619 2597 2516 
z
" transform="scale(0.015625)"/>
       </defs>
       <use xlink:href="#DejaVuSans-33"/>
      </g>
     </g>
    </g>
    <g id="ytick_5">
     <g id="line2d_28">
      <path d="M 34.572188 105.346406 
L 704.463097 105.346406 
" clip-path="url(#pef57de973e)" style="fill: none; stroke-dasharray: 0.4,0.66; stroke-dashoffset: 0; stroke: #b0b0b0; stroke-opacity: 0.5; stroke-width: 0.4"/>
     </g>
     <g id="line2d_29">
      <g>
       <use xlink:href="#mbe4fa854af" x="34.572188" y="105.346406" style="stroke: #000000; stroke-width: 0.8"/>
      </g>
     </g>
     <g id="text_14">
      <!-- 4 -->
      <g transform="translate(21.845938 108.765703) scale(0.09 -0.09)">
       <use xlink:href="#DejaVuSans-34"/>
      </g>
     </g>
    </g>
    <g id="ytick_6">
     <g id="line2d_30">
      <path d="M 34.572188 46.080749 
L 704.463097 46.080749 
" clip-path="url(#pef57de973e)" style="fill: none; stroke-dasharray: 0.4,0.66; stroke-dashoffset: 0; stroke: #b0b0b0; stroke-opacity: 0.5; stroke-width: 0.4"/>
     </g>
     <g id="line2d_31">
      <g>
       <use xlink:href="#mbe4fa854af" x="34.572188" y="46.080749" style="stroke: #000000; stroke-width: 0.8"/>
      </g>
     </g>
     <g id="text_15">
      <!-- 5 -->
      <g transform="translate(21.845938 49.500046) scale(0.09 -0.09)">
       <defs>
        <path id="DejaVuSans-35" d="M 691 4666 
L 3169 4666 
L 3169 4134 
L 1269 4134 
L 1269 2991 
Q 1406 3038 1543 3061 
Q 1681 3084 1819 3084 
Q 2600 3084 3056 2656 
Q 3513 2228 3513 1497 
Q 3513 744 3044 326 
Q 2575 -91 1722 -91 
Q 1428 -91 1123 -41 
Q 819 9 494 109 
L 494 744 
Q 775 591 1075 516 
Q 1375 441 1709 441 
Q 2250 441 2565 725 
Q 2881 1009 2881 1497 
Q 2881 1984 2565 2268 
Q 2250 2553 1709 2553 
Q 1456 2553 1204 2497 
Q 953 2441 691 2322 
L 691 4666 
z
" transform="scale(0.015625)"/>
       </defs>
       <use xlink:href="#DejaVuSans-35"/>
      </g>
     </g>
    </g>
    <g id="text_16">
     <!-- Weight % -->
     <g transform="translate(15.558281 208.498033) rotate(-90) scale(0.11 -0.11)">
      <defs>
       <path id="DejaVuSans-57" d="M 213 4666 
L 850 4666 
L 1831 722 
L 2809 4666 
L 3519 4666 
L 4500 722 
L 5478 4666 
L 6119 4666 
L 4947 0 
L 4153 0 
L 3169 4050 
L 2175 0 
L 1381 0 
L 213 4666 
z
" transform="scale(0.015625)"/>
       <path id="DejaVuSans-67" d="M 2906 1791 
Q 2906 2416 2648 2759 
Q 2391 3103 1925 3103 
Q 1463 3103 1205 2759 
Q 947 2416 947 1791 
Q 947 1169 1205 825 
Q 1463 481 1925 481 
Q 2391 481 2648 825 
Q 2906 1169 2906 1791 
z
M 3481 434 
Q 3481 -459 3084 -895 
Q 2688 -1331 1869 -1331 
Q 1566 -1331 1297 -1286 
Q 1028 -1241 775 -1147 
L 775 -588 
Q 1028 -725 1275 -790 
Q 1522 -856 1778 -856 
Q 2344 -856 2625 -561 
Q 2906 -266 2906 331 
L 2906 616 
Q 2728 306 2450 153 
Q 2172 0 1784 0 
Q 1141 0 747 490 
Q 353 981 353 1791 
Q 353 2603 747 3093 
Q 1141 3584 1784 3584 
Q 2172 3584 2450 3431 
Q 2728 3278 2906 2969 
L 2906 3500 
L 3481 3500 
L 3481 434 
z
" transform="scale(0.015625)"/>
       <path id="DejaVuSans-74" d="M 1172 4494 
L 1172 3500 
L 2356 3500 
L 2356 3053 
L 1172 3053 
L 1172 1153 
Q 1172 725 1289 603 
Q 1406 481 1766 481 
L 2356 481 
L 2356 0 
L 1766 0 
Q 1100 0 847 248 
Q 594 497 594 1153 
L 594 3053 
L 172 3053 
L 172 3500 
L 594 3500 
L 594 4494 
L 1172 4494 
z
" transform="scale(0.015625)"/>
       <path id="DejaVuSans-25" d="M 4653 2053 
Q 4381 2053 4226 1822 
Q 4072 1591 4072 1178 
Q 4072 772 4226 539 
Q 4381 306 4653 306 
Q 4919 306 5073 539 
Q 5228 772 5228 1178 
Q 5228 1588 5073 1820 
Q 4919 2053 4653 2053 
z
M 4653 2450 
Q 5147 2450 5437 2106 
Q 5728 1763 5728 1178 
Q 5728 594 5436 251 
Q 5144 -91 4653 -91 
Q 4153 -91 3862 251 
Q 3572 594 3572 1178 
Q 3572 1766 3864 2108 
Q 4156 2450 4653 2450 
z
M 1428 4353 
Q 1159 4353 1004 4120 
Q 850 3888 850 3481 
Q 850 3069 1003 2837 
Q 1156 2606 1428 2606 
Q 1700 2606 1854 2837 
Q 2009 3069 2009 3481 
Q 2009 3884 1853 4118 
Q 1697 4353 1428 4353 
z
M 4250 4750 
L 4750 4750 
L 1831 -91 
L 1331 -91 
L 4250 4750 
z
M 1428 4750 
Q 1922 4750 2215 4408 
Q 2509 4066 2509 3481 
Q 2509 2891 2217 2550 
Q 1925 2209 1428 2209 
Q 931 2209 642 2551 
Q 353 2894 353 3481 
Q 353 4063 643 4406 
Q 934 4750 1428 4750 
z
" transform="scale(0.015625)"/>
      </defs>
      <use xlink:href="#DejaVuSans-57"/>
      <use xlink:href="#DejaVuSans-65" transform="translate(93.001953 0)"/>
      <use xlink:href="#DejaVuSans-69" transform="translate(154.525391 0)"/>
      <use xlink:href="#DejaVuSans-67" transform="translate(182.308594 0)"/>
      <use xlink:href="#DejaVuSans-68" transform="translate(245.785156 0)"/>
      <use xlink:href="#DejaVuSans-74" transform="translate(309.164062 0)"/>
      <use xlink:href="#DejaVuSans-20" transform="translate(348.373047 0)"/>
      <use xlink:href="#DejaVuSans-25" transform="translate(380.160156 0)"/>
     </g>
    </g>
   </g>
   <g id="patch_7">
    <path d="M 62.568381 342.409034 
L 71.143792 342.409034 
L 71.143792 342.409034 
L 62.568381 342.409034 
z
" clip-path="url(#pef57de973e)" style="fill: #ffffff; opacity: 0.65; stroke: #4c4c4c; stroke-width: 0.6; stroke-linejoin: miter"/>
   </g>
   <g id="patch_8">
    <path d="M 72.6571 342.409034 
L 81.232511 342.409034 
L 81.232511 342.403108 
L 72.6571 342.403108 
z
" clip-path="url(#pef57de973e)" style="fill: #ffffff; opacity: 0.65; stroke: #4c4c4c; stroke-width: 0.6; stroke-linejoin: miter"/>
   </g>
   <g id="patch_9">
    <path d="M 82.745818 342.409034 
L 91.321229 342.409034 
L 91.321229 342.397181 
L 82.745818 342.397181 
z
" clip-path="url(#pef57de973e)" style="fill: #ffffff; opacity: 0.65; stroke: #4c4c4c; stroke-width: 0.6; stroke-linejoin: miter"/>
   </g>
   <g id="patch_10">
    <path d="M 92.834537 342.409034 
L 101.409948 342.409034 
L 101.409948 342.385328 
L 92.834537 342.385328 
z
" clip-path="url(#pef57de973e)" style="fill: #ffffff; opacity: 0.65; stroke: #4c4c4c; stroke-width: 0.6; stroke-linejoin: miter"/>
   </g>
   <g id="patch_11">
    <path d="M 102.923255 342.409034 
L 111.498666 342.409034 
L 111.498666 342.367548 
L 102.923255 342.367548 
z
" clip-path="url(#pef57de973e)" style="fill: #ffffff; opacity: 0.65; stroke: #4c4c4c; stroke-width: 0.6; stroke-linejoin: miter"/>
   </g>
   <g id="patch_12">
    <path d="M 113.011974 342.409034 
L 121.587385 342.409034 
L 121.587385 342.331989 
L 113.011974 342.331989 
z
" clip-path="url(#pef57de973e)" style="fill: #ffffff; opacity: 0.65; stroke: #4c4c4c; stroke-width: 0.6; stroke-linejoin: miter"/>
   </g>
   <g id="patch_13">
    <path d="M 123.100692 342.409034 
L 131.676103 342.409034 
L 131.676103 342.254944 
L 123.100692 342.254944 
z
" clip-path="url(#pef57de973e)" style="fill: #ffffff; opacity: 0.65; stroke: #4c4c4c; stroke-width: 0.6; stroke-linejoin: miter"/>
   </g>
   <g id="patch_14">
    <path d="M 133.189411 342.409034 
L 141.764822 342.409034 
L 141.764822 342.16012 
L 133.189411 342.16012 
z
" clip-path="url(#pef57de973e)" style="fill: #ffffff; opacity: 0.65; stroke: #4c4c4c; stroke-width: 0.6; stroke-linejoin: miter"/>
   </g>
   <g id="patch_15">
    <path d="M 143.278129 342.409034 
L 151.85354 342.409034 
L 151.85354 341.952691 
L 143.278129 341.952691 
z
" clip-path="url(#pef57de973e)" style="fill: #ffffff; opacity: 0.65; stroke: #4c4c4c; stroke-width: 0.6; stroke-linejoin: miter"/>
   </g>
   <g id="patch_16">
    <path d="M 153.366848 342.409034 
L 161.942259 342.409034 
L 161.942259 341.555613 
L 153.366848 341.555613 
z
" clip-path="url(#pef57de973e)" style="fill: #ffffff; opacity: 0.65; stroke: #4c4c4c; stroke-width: 0.6; stroke-linejoin: miter"/>
   </g>
   <g id="patch_17">
    <path d="M 163.455566 342.409034 
L 172.030977 342.409034 
L 172.030977 340.672559 
L 163.455566 340.672559 
z
" clip-path="url(#pef57de973e)" style="fill: #ffffff; opacity: 0.65; stroke: #4c4c4c; stroke-width: 0.6; stroke-linejoin: miter"/>
   </g>
   <g id="patch_18">
    <path d="M 173.544285 342.409034 
L 182.119696 342.409034 
L 182.119696 339.084247 
L 173.544285 339.084247 
z
" clip-path="url(#pef57de973e)" style="fill: #ffffff; opacity: 0.65; stroke: #4c4c4c; stroke-width: 0.6; stroke-linejoin: miter"/>
   </g>
   <g id="patch_19">
    <path d="M 183.633003 342.409034 
L 192.208414 342.409034 
L 192.208414 336.061714 
L 183.633003 336.061714 
z
" clip-path="url(#pef57de973e)" style="fill: #ffffff; opacity: 0.65; stroke: #4c4c4c; stroke-width: 0.6; stroke-linejoin: miter"/>
   </g>
   <g id="patch_20">
    <path d="M 193.721722 342.409034 
L 202.297133 342.409034 
L 202.297133 328.07867 
L 193.721722 328.07867 
z
" clip-path="url(#pef57de973e)" style="fill: #ffffff; opacity: 0.65; stroke: #4c4c4c; stroke-width: 0.6; stroke-linejoin: miter"/>
   </g>
   <g id="patch_21">
    <path d="M 203.810441 342.409034 
L 212.385851 342.409034 
L 212.385851 313.57051 
L 203.810441 313.57051 
z
" clip-path="url(#pef57de973e)" style="fill: #ffffff; opacity: 0.65; stroke: #4c4c4c; stroke-width: 0.6; stroke-linejoin: miter"/>
   </g>
   <g id="patch_22">
    <path d="M 213.899159 342.409034 
L 222.47457 342.409034 
L 222.47457 296.187979 
L 213.899159 296.187979 
z
" clip-path="url(#pef57de973e)" style="fill: #ffffff; opacity: 0.65; stroke: #4c4c4c; stroke-width: 0.6; stroke-linejoin: miter"/>
   </g>
   <g id="patch_23">
    <path d="M 223.987878 342.409034 
L 232.563288 342.409034 
L 232.563288 266.199707 
L 223.987878 266.199707 
z
" clip-path="url(#pef57de973e)" style="fill: #ffffff; opacity: 0.65; stroke: #4c4c4c; stroke-width: 0.6; stroke-linejoin: miter"/>
   </g>
   <g id="patch_24">
    <path d="M 234.076596 342.409034 
L 242.652007 342.409034 
L 242.652007 236.934472 
L 234.076596 236.934472 
z
" clip-path="url(#pef57de973e)" style="fill: #ffffff; opacity: 0.65; stroke: #4c4c4c; stroke-width: 0.6; stroke-linejoin: miter"/>
   </g>
   <g id="patch_25">
    <path d="M 244.165315 342.409034 
L 252.740725 342.409034 
L 252.740725 192.633615 
L 244.165315 192.633615 
z
" clip-path="url(#pef57de973e)" style="fill: #ffffff; opacity: 0.65; stroke: #4c4c4c; stroke-width: 0.6; stroke-linejoin: miter"/>
   </g>
   <g id="patch_26">
    <path d="M 254.254033 342.409034 
L 262.829444 342.409034 
L 262.829444 176.240816 
L 254.254033 176.240816 
z
" clip-path="url(#pef57de973e)" style="fill: #ffffff; opacity: 0.65; stroke: #4c4c4c; stroke-width: 0.6; stroke-linejoin: miter"/>
   </g>
   <g id="patch_27">
    <path d="M 264.342752 342.409034 
L 272.918162 342.409034 
L 272.918162 168.96303 
L 264.342752 168.96303 
z
" clip-path="url(#pef57de973e)" style="fill: #ffffff; opacity: 0.65; stroke: #4c4c4c; stroke-width: 0.6; stroke-linejoin: miter"/>
   </g>
   <g id="patch_28">
    <path d="M 274.43147 342.409034 
L 283.006881 342.409034 
L 283.006881 173.129384 
L 274.43147 173.129384 
z
" clip-path="url(#pef57de973e)" style="fill: #ffffff; opacity: 0.65; stroke: #4c4c4c; stroke-width: 0.6; stroke-linejoin: miter"/>
   </g>
   <g id="patch_29">
    <path d="M 284.520189 342.409034 
L 293.095599 342.409034 
L 293.095599 187.969431 
L 284.520189 187.969431 
z
" clip-path="url(#pef57de973e)" style="fill: #ffffff; opacity: 0.65; stroke: #4c4c4c; stroke-width: 0.6; stroke-linejoin: miter"/>
   </g>
   <g id="patch_30">
    <path d="M 294.608907 342.409034 
L 303.184318 342.409034 
L 303.184318 194.133028 
L 294.608907 194.133028 
z
" clip-path="url(#pef57de973e)" style="fill: #ffffff; opacity: 0.65; stroke: #4c4c4c; stroke-width: 0.6; stroke-linejoin: miter"/>
   </g>
   <g id="patch_31">
    <path d="M 304.697626 342.409034 
L 313.273036 342.409034 
L 313.273036 205.464565 
L 304.697626 205.464565 
z
" clip-path="url(#pef57de973e)" style="fill: #ffffff; opacity: 0.65; stroke: #4c4c4c; stroke-width: 0.6; stroke-linejoin: miter"/>
   </g>
   <g id="patch_32">
    <path d="M 314.786344 342.409034 
L 323.361755 342.409034 
L 323.361755 206.62024 
L 314.786344 206.62024 
z
" clip-path="url(#pef57de973e)" style="fill: #ffffff; opacity: 0.65; stroke: #4c4c4c; stroke-width: 0.6; stroke-linejoin: miter"/>
   </g>
   <g id="patch_33">
    <path d="M 324.875063 342.409034 
L 333.450473 342.409034 
L 333.450473 175.126627 
L 324.875063 175.126627 
z
" clip-path="url(#pef57de973e)" style="fill: #ffffff; opacity: 0.65; stroke: #4c4c4c; stroke-width: 0.6; stroke-linejoin: miter"/>
   </g>
   <g id="patch_34">
    <path d="M 334.963781 342.409034 
L 343.539192 342.409034 
L 343.539192 155.983916 
L 334.963781 155.983916 
z
" clip-path="url(#pef57de973e)" style="fill: #ffffff; opacity: 0.65; stroke: #4c4c4c; stroke-width: 0.6; stroke-linejoin: miter"/>
   </g>
   <g id="patch_35">
    <path d="M 345.0525 342.409034 
L 353.62791 342.409034 
L 353.62791 128.407743 
L 345.0525 128.407743 
z
" clip-path="url(#pef57de973e)" style="fill: #ffffff; opacity: 0.65; stroke: #4c4c4c; stroke-width: 0.6; stroke-linejoin: miter"/>
   </g>
   <g id="patch_36">
    <path d="M 355.141218 342.409034 
L 363.716629 342.409034 
L 363.716629 106.473633 
L 355.141218 106.473633 
z
" clip-path="url(#pef57de973e)" style="fill: #ffffff; opacity: 0.65; stroke: #4c4c4c; stroke-width: 0.6; stroke-linejoin: miter"/>
   </g>
   <g id="patch_37">
    <path d="M 365.229937 342.409034 
L 373.805347 342.409034 
L 373.805347 91.538762 
L 365.229937 91.538762 
z
" clip-path="url(#pef57de973e)" style="fill: #ffffff; opacity: 0.65; stroke: #4c4c4c; stroke-width: 0.6; stroke-linejoin: miter"/>
   </g>
   <g id="patch_38">
    <path d="M 375.318655 342.409034 
L 383.894066 342.409034 
L 383.894066 112.246079 
L 375.318655 112.246079 
z
" clip-path="url(#pef57de973e)" style="fill: #ffffff; opacity: 0.65; stroke: #4c4c4c; stroke-width: 0.6; stroke-linejoin: miter"/>
   </g>
   <g id="patch_39">
    <path d="M 385.407374 342.409034 
L 393.982784 342.409034 
L 393.982784 99.800354 
L 385.407374 99.800354 
z
" clip-path="url(#pef57de973e)" style="fill: #ffffff; opacity: 0.65; stroke: #4c4c4c; stroke-width: 0.6; stroke-linejoin: miter"/>
   </g>
   <g id="patch_40">
    <path d="M 395.496092 342.409034 
L 404.071503 342.409034 
L 404.071503 90.051202 
L 395.496092 90.051202 
z
" clip-path="url(#pef57de973e)" style="fill: #ffffff; opacity: 0.65; stroke: #4c4c4c; stroke-width: 0.6; stroke-linejoin: miter"/>
   </g>
   <g id="patch_41">
    <path d="M 405.584811 342.409034 
L 414.160221 342.409034 
L 414.160221 71.145552 
L 405.584811 71.145552 
z
" clip-path="url(#pef57de973e)" style="fill: #ffffff; opacity: 0.65; stroke: #4c4c4c; stroke-width: 0.6; stroke-linejoin: miter"/>
   </g>
   <g id="patch_42">
    <path d="M 415.673529 342.409034 
L 424.24894 342.409034 
L 424.24894 94.839843 
L 415.673529 94.839843 
z
" clip-path="url(#pef57de973e)" style="fill: #ffffff; opacity: 0.65; stroke: #4c4c4c; stroke-width: 0.6; stroke-linejoin: miter"/>
   </g>
   <g id="patch_43">
    <path d="M 425.762248 342.409034 
L 434.337658 342.409034 
L 434.337658 113.739567 
L 425.762248 113.739567 
z
" clip-path="url(#pef57de973e)" style="fill: #ffffff; opacity: 0.65; stroke: #4c4c4c; stroke-width: 0.6; stroke-linejoin: miter"/>
   </g>
   <g id="patch_44">
    <path d="M 435.850966 342.409034 
L 444.426377 342.409034 
L 444.426377 146.092527 
L 435.850966 146.092527 
z
" clip-path="url(#pef57de973e)" style="fill: #ffffff; opacity: 0.65; stroke: #4c4c4c; stroke-width: 0.6; stroke-linejoin: miter"/>
   </g>
   <g id="patch_45">
    <path d="M 445.939685 342.409034 
L 454.515095 342.409034 
L 454.515095 167.428057 
L 445.939685 167.428057 
z
" clip-path="url(#pef57de973e)" style="fill: #ffffff; opacity: 0.65; stroke: #4c4c4c; stroke-width: 0.6; stroke-linejoin: miter"/>
   </g>
   <g id="patch_46">
    <path d="M 456.028403 342.409034 
L 464.603814 342.409034 
L 464.603814 168.94525 
L 456.028403 168.94525 
z
" clip-path="url(#pef57de973e)" style="fill: #ffffff; opacity: 0.65; stroke: #4c4c4c; stroke-width: 0.6; stroke-linejoin: miter"/>
   </g>
   <g id="patch_47">
    <path d="M 466.117122 342.409034 
L 474.692533 342.409034 
L 474.692533 197.641538 
L 466.117122 197.641538 
z
" clip-path="url(#pef57de973e)" style="fill: #ffffff; opacity: 0.65; stroke: #4c4c4c; stroke-width: 0.6; stroke-linejoin: miter"/>
   </g>
   <g id="patch_48">
    <path d="M 476.20584 342.409034 
L 484.781251 342.409034 
L 484.781251 201.067075 
L 476.20584 201.067075 
z
" clip-path="url(#pef57de973e)" style="fill: #ffffff; opacity: 0.65; stroke: #4c4c4c; stroke-width: 0.6; stroke-linejoin: miter"/>
   </g>
   <g id="patch_49">
    <path d="M 486.294559 342.409034 
L 494.86997 342.409034 
L 494.86997 206.632093 
L 486.294559 206.632093 
z
" clip-path="url(#pef57de973e)" style="fill: #ffffff; opacity: 0.65; stroke: #4c4c4c; stroke-width: 0.6; stroke-linejoin: miter"/>
   </g>
   <g id="patch_50">
    <path d="M 496.383277 342.409034 
L 504.958688 342.409034 
L 504.958688 199.052053 
L 496.383277 199.052053 
z
" clip-path="url(#pef57de973e)" style="fill: #ffffff; opacity: 0.65; stroke: #4c4c4c; stroke-width: 0.6; stroke-linejoin: miter"/>
   </g>
   <g id="patch_51">
    <path d="M 506.471996 342.409034 
L 515.047407 342.409034 
L 515.047407 214.881831 
L 506.471996 214.881831 
z
" clip-path="url(#pef57de973e)" style="fill: #ffffff; opacity: 0.65; stroke: #4c4c4c; stroke-width: 0.6; stroke-linejoin: miter"/>
   </g>
   <g id="patch_52">
    <path d="M 516.560714 342.409034 
L 525.136125 342.409034 
L 525.136125 232.270288 
L 516.560714 232.270288 
z
" clip-path="url(#pef57de973e)" style="fill: #ffffff; opacity: 0.65; stroke: #4c4c4c; stroke-width: 0.6; stroke-linejoin: miter"/>
   </g>
   <g id="patch_53">
    <path d="M 526.649433 342.409034 
L 535.224844 342.409034 
L 535.224844 221.74476 
L 526.649433 221.74476 
z
" clip-path="url(#pef57de973e)" style="fill: #ffffff; opacity: 0.65; stroke: #4c4c4c; stroke-width: 0.6; stroke-linejoin: miter"/>
   </g>
   <g id="patch_54">
    <path d="M 536.738151 342.409034 
L 545.313562 342.409034 
L 545.313562 240.371863 
L 536.738151 240.371863 
z
" clip-path="url(#pef57de973e)" style="fill: #ffffff; opacity: 0.65; stroke: #4c4c4c; stroke-width: 0.6; stroke-linejoin: miter"/>
   </g>
   <g id="patch_55">
    <path d="M 546.82687 342.409034 
L 555.402281 342.409034 
L 555.402281 252.207155 
L 546.82687 252.207155 
z
" clip-path="url(#pef57de973e)" style="fill: #ffffff; opacity: 0.65; stroke: #4c4c4c; stroke-width: 0.6; stroke-linejoin: miter"/>
   </g>
   <g id="patch_56">
    <path d="M 556.915588 342.409034 
L 565.490999 342.409034 
L 565.490999 270.60905 
L 556.915588 270.60905 
z
" clip-path="url(#pef57de973e)" style="fill: #ffffff; opacity: 0.65; stroke: #4c4c4c; stroke-width: 0.6; stroke-linejoin: miter"/>
   </g>
   <g id="patch_57">
    <path d="M 567.004307 342.409034 
L 575.579718 342.409034 
L 575.579718 289.010944 
L 567.004307 289.010944 
z
" clip-path="url(#pef57de973e)" style="fill: #ffffff; opacity: 0.65; stroke: #4c4c4c; stroke-width: 0.6; stroke-linejoin: miter"/>
   </g>
   <g id="patch_58">
    <path d="M 577.093025 342.409034 
L 585.668436 342.409034 
L 585.668436 302.914598 
L 577.093025 302.914598 
z
" clip-path="url(#pef57de973e)" style="fill: #ffffff; opacity: 0.65; stroke: #4c4c4c; stroke-width: 0.6; stroke-linejoin: miter"/>
   </g>
   <g id="patch_59">
    <path d="M 587.181744 342.409034 
L 595.757155 342.409034 
L 595.757155 319.420001 
L 587.181744 319.420001 
z
" clip-path="url(#pef57de973e)" style="fill: #ffffff; opacity: 0.65; stroke: #4c4c4c; stroke-width: 0.6; stroke-linejoin: miter"/>
   </g>
   <g id="patch_60">
    <path d="M 597.270462 342.409034 
L 605.845873 342.409034 
L 605.845873 327.563061 
L 597.270462 327.563061 
z
" clip-path="url(#pef57de973e)" style="fill: #ffffff; opacity: 0.65; stroke: #4c4c4c; stroke-width: 0.6; stroke-linejoin: miter"/>
   </g>
   <g id="patch_61">
    <path d="M 607.359181 342.409034 
L 615.934592 342.409034 
L 615.934592 333.388846 
L 607.359181 333.388846 
z
" clip-path="url(#pef57de973e)" style="fill: #ffffff; opacity: 0.65; stroke: #4c4c4c; stroke-width: 0.6; stroke-linejoin: miter"/>
   </g>
   <g id="patch_62">
    <path d="M 617.447899 342.409034 
L 626.02331 342.409034 
L 626.02331 337.863381 
L 617.447899 337.863381 
z
" clip-path="url(#pef57de973e)" style="fill: #ffffff; opacity: 0.65; stroke: #4c4c4c; stroke-width: 0.6; stroke-linejoin: miter"/>
   </g>
   <g id="patch_63">
    <path d="M 627.536618 342.409034 
L 636.112029 342.409034 
L 636.112029 340.222142 
L 627.536618 340.222142 
z
" clip-path="url(#pef57de973e)" style="fill: #ffffff; opacity: 0.65; stroke: #4c4c4c; stroke-width: 0.6; stroke-linejoin: miter"/>
   </g>
   <g id="patch_64">
    <path d="M 637.625336 342.409034 
L 646.200747 342.409034 
L 646.200747 341.223727 
L 637.625336 341.223727 
z
" clip-path="url(#pef57de973e)" style="fill: #ffffff; opacity: 0.65; stroke: #4c4c4c; stroke-width: 0.6; stroke-linejoin: miter"/>
   </g>
   <g id="patch_65">
    <path d="M 647.714055 342.409034 
L 656.289466 342.409034 
L 656.289466 341.846013 
L 647.714055 341.846013 
z
" clip-path="url(#pef57de973e)" style="fill: #ffffff; opacity: 0.65; stroke: #4c4c4c; stroke-width: 0.6; stroke-linejoin: miter"/>
   </g>
   <g id="patch_66">
    <path d="M 657.802773 342.409034 
L 666.378184 342.409034 
L 666.378184 342.166046 
L 657.802773 342.166046 
z
" clip-path="url(#pef57de973e)" style="fill: #ffffff; opacity: 0.65; stroke: #4c4c4c; stroke-width: 0.6; stroke-linejoin: miter"/>
   </g>
   <g id="patch_67">
    <path d="M 667.891492 342.409034 
L 676.466903 342.409034 
L 676.466903 342.308283 
L 667.891492 342.308283 
z
" clip-path="url(#pef57de973e)" style="fill: #ffffff; opacity: 0.65; stroke: #4c4c4c; stroke-width: 0.6; stroke-linejoin: miter"/>
   </g>
   <g id="patch_68">
    <path d="M 34.572188 342.409034 
L 34.572188 22.318125 
" style="fill: none; stroke: #404040; stroke-width: 0.9; stroke-linejoin: miter; stroke-linecap: square"/>
   </g>
   <g id="patch_69">
    <path d="M 704.463097 342.409034 
L 704.463097 22.318125 
" style="fill: none; stroke: #404040; stroke-width: 0.9; stroke-linejoin: miter; stroke-linecap: square"/>
   </g>
   <g id="patch_70">
    <path d="M 34.572188 342.409034 
L 704.463097 342.409034 
" style="fill: none; stroke: #404040; stroke-width: 0.9; stroke-linejoin: miter; stroke-linecap: square"/>
   </g>
   <g id="patch_71">
    <path d="M 34.572188 22.318125 
L 704.463097 22.318125 
" style="fill: none; stroke: #404040; stroke-width: 0.9; stroke-linejoin: miter; stroke-linecap: square"/>
   </g>
   <g id="FillBetweenPolyCollection_1">
    <defs>
     <path id="m24d0a696af" d="M 46.67865 -37.5573 
L 46.67865 -37.55625 
L 48.29689 -37.55625 
L 49.915131 -37.55625 
L 51.533371 -37.55625 
L 53.151612 -37.55625 
L 54.769853 -37.55625 
L 56.388093 -37.55625 
L 58.006334 -37.55625 
L 59.624574 -37.55625 
L 61.242815 -37.55625 
L 62.861055 -37.55625 
L 64.479296 -37.55625 
L 66.097536 -37.55625 
L 67.715777 -37.55625 
L 69.334018 -37.55625 
L 70.952258 -37.55625 
L 72.570499 -37.55625 
L 74.188739 -37.55625 
L 75.80698 -37.55625 
L 77.42522 -37.55625 
L 79.043461 -37.55625 
L 80.661702 -37.55625 
L 82.279942 -37.55625 
L 83.898183 -37.55625 
L 85.516423 -37.55625 
L 87.134664 -37.55625 
L 88.752904 -37.55625 
L 90.371145 -37.55625 
L 91.989385 -37.55625 
L 93.607626 -37.55625 
L 95.225867 -37.55625 
L 96.844107 -37.55625 
L 98.462348 -37.55625 
L 100.080588 -37.55625 
L 101.698829 -37.55625 
L 103.317069 -37.55625 
L 104.93531 -37.55625 
L 106.553551 -37.55625 
L 108.171791 -37.55625 
L 109.790032 -37.55625 
L 111.408272 -37.55625 
L 113.026513 -37.55625 
L 114.644753 -37.55625 
L 116.262994 -37.55625 
L 117.881234 -37.55625 
L 119.499475 -37.55625 
L 121.117716 -37.55625 
L 122.735956 -37.55625 
L 124.354197 -37.55625 
L 125.972437 -37.55625 
L 127.590678 -37.55625 
L 129.208918 -37.55625 
L 130.827159 -37.55625 
L 132.4454 -37.55625 
L 134.06364 -37.55625 
L 135.681881 -37.55625 
L 137.300121 -37.55625 
L 138.918362 -37.55625 
L 140.536602 -37.55625 
L 142.154843 -37.55625 
L 143.773083 -37.55625 
L 145.391324 -37.55625 
L 147.009565 -37.55625 
L 148.627805 -37.55625 
L 150.246046 -37.55625 
L 151.864286 -37.55625 
L 153.482527 -37.55625 
L 155.100767 -37.55625 
L 156.719008 -37.55625 
L 158.337249 -37.55625 
L 159.955489 -37.55625 
L 161.57373 -37.55625 
L 163.19197 -37.55625 
L 164.810211 -37.55625 
L 166.428451 -37.55625 
L 168.046692 -37.55625 
L 169.664933 -37.55625 
L 171.283173 -37.55625 
L 172.901414 -37.55625 
L 174.519654 -37.55625 
L 176.137895 -37.55625 
L 177.756135 -37.55625 
L 179.374376 -37.55625 
L 180.992616 -37.55625 
L 182.610857 -37.55625 
L 184.229098 -37.55625 
L 185.847338 -37.55625 
L 187.465579 -37.55625 
L 189.083819 -37.55625 
L 190.70206 -37.55625 
L 192.3203 -37.55625 
L 193.938541 -37.55625 
L 195.556782 -37.55625 
L 197.175022 -37.55625 
L 198.793263 -37.55625 
L 200.411503 -37.55625 
L 202.029744 -37.55625 
L 203.647984 -37.55625 
L 205.266225 -37.55625 
L 206.884465 -37.55625 
L 208.502706 -37.55625 
L 210.120947 -37.55625 
L 211.739187 -37.55625 
L 213.357428 -37.55625 
L 214.975668 -37.55625 
L 216.593909 -37.55625 
L 218.212149 -37.55625 
L 219.83039 -37.55625 
L 221.448631 -37.55625 
L 223.066871 -37.55625 
L 224.685112 -37.55625 
L 226.303352 -37.55625 
L 227.921593 -37.55625 
L 229.539833 -37.55625 
L 231.158074 -37.55625 
L 232.776314 -37.55625 
L 234.394555 -37.55625 
L 236.012796 -37.55625 
L 237.631036 -37.55625 
L 239.249277 -37.55625 
L 240.867517 -37.55625 
L 242.485758 -37.55625 
L 244.103998 -37.55625 
L 245.722239 -37.55625 
L 247.34048 -37.55625 
L 248.95872 -37.55625 
L 250.576961 -37.55625 
L 252.195201 -37.55625 
L 253.813442 -37.55625 
L 255.431682 -37.55625 
L 257.049923 -37.55625 
L 258.668163 -37.55625 
L 260.286404 -37.55625 
L 261.904645 -37.55625 
L 263.522885 -37.55625 
L 265.141126 -37.55625 
L 266.759366 -37.55625 
L 268.377607 -37.55625 
L 269.995847 -37.55625 
L 271.614088 -37.55625 
L 273.232329 -37.55625 
L 274.850569 -37.55625 
L 276.46881 -37.55625 
L 278.08705 -37.55625 
L 279.705291 -37.55625 
L 281.323531 -37.55625 
L 282.941772 -37.55625 
L 284.560012 -37.55625 
L 286.178253 -37.55625 
L 287.796494 -37.55625 
L 289.414734 -37.55625 
L 291.032975 -37.55625 
L 292.651215 -37.55625 
L 294.269456 -37.55625 
L 295.887696 -37.55625 
L 297.505937 -37.55625 
L 299.124178 -37.55625 
L 300.742418 -37.55625 
L 302.360659 -37.55625 
L 303.978899 -37.55625 
L 305.59714 -37.55625 
L 307.21538 -37.55625 
L 308.833621 -37.55625 
L 310.451861 -37.55625 
L 312.070102 -37.55625 
L 313.688343 -37.55625 
L 315.306583 -37.55625 
L 316.924824 -37.55625 
L 318.543064 -37.55625 
L 320.161305 -37.55625 
L 321.779545 -37.55625 
L 323.397786 -37.55625 
L 325.016027 -37.55625 
L 326.634267 -37.55625 
L 328.252508 -37.55625 
L 329.870748 -37.55625 
L 331.488989 -37.55625 
L 333.107229 -37.55625 
L 334.72547 -37.55625 
L 336.343711 -37.55625 
L 337.961951 -37.55625 
L 339.580192 -37.55625 
L 341.198432 -37.55625 
L 342.816673 -37.55625 
L 344.434913 -37.55625 
L 346.053154 -37.55625 
L 347.671394 -37.55625 
L 349.289635 -37.55625 
L 350.907876 -37.55625 
L 352.526116 -37.55625 
L 354.144357 -37.55625 
L 355.762597 -37.55625 
L 357.380838 -37.55625 
L 358.999078 -37.55625 
L 360.617319 -37.55625 
L 362.23556 -37.55625 
L 363.8538 -37.55625 
L 365.472041 -37.55625 
L 367.090281 -37.55625 
L 368.708522 -37.55625 
L 370.326762 -37.55625 
L 371.945003 -37.55625 
L 373.563243 -37.55625 
L 375.181484 -37.55625 
L 376.799725 -37.55625 
L 378.417965 -37.55625 
L 380.036206 -37.55625 
L 381.654446 -37.55625 
L 383.272687 -37.55625 
L 384.890927 -37.55625 
L 386.509168 -37.55625 
L 388.127409 -37.55625 
L 389.745649 -37.55625 
L 391.36389 -37.55625 
L 392.98213 -37.55625 
L 394.600371 -37.55625 
L 396.218611 -37.55625 
L 397.836852 -37.55625 
L 399.455092 -37.55625 
L 401.073333 -37.55625 
L 402.691574 -37.55625 
L 404.309814 -37.55625 
L 405.928055 -37.55625 
L 407.546295 -37.55625 
L 409.164536 -37.55625 
L 410.782776 -37.55625 
L 412.401017 -37.55625 
L 414.019258 -37.55625 
L 415.637498 -37.55625 
L 417.255739 -37.55625 
L 418.873979 -37.55625 
L 420.49222 -37.55625 
L 422.11046 -37.55625 
L 423.728701 -37.55625 
L 425.346941 -37.55625 
L 426.965182 -37.55625 
L 428.583423 -37.55625 
L 430.201663 -37.55625 
L 431.819904 -37.55625 
L 433.438144 -37.55625 
L 435.056385 -37.55625 
L 436.674625 -37.55625 
L 438.292866 -37.55625 
L 439.911107 -37.55625 
L 441.529347 -37.55625 
L 443.147588 -37.55625 
L 444.765828 -37.55625 
L 446.384069 -37.55625 
L 448.002309 -37.55625 
L 449.62055 -37.55625 
L 451.23879 -37.55625 
L 452.857031 -37.55625 
L 454.475272 -37.55625 
L 456.093512 -37.55625 
L 457.711753 -37.55625 
L 459.329993 -37.55625 
L 460.948234 -37.55625 
L 462.566474 -37.55625 
L 464.184715 -37.55625 
L 465.802956 -37.55625 
L 467.421196 -37.55625 
L 469.039437 -37.55625 
L 470.657677 -37.55625 
L 472.275918 -37.55625 
L 473.894158 -37.55625 
L 475.512399 -37.55625 
L 477.130639 -37.55625 
L 478.74888 -37.55625 
L 480.367121 -37.55625 
L 481.985361 -37.55625 
L 483.603602 -37.55625 
L 485.221842 -37.55625 
L 486.840083 -37.55625 
L 488.458323 -37.55625 
L 490.076564 -37.55625 
L 491.694805 -37.55625 
L 493.313045 -37.55625 
L 494.931286 -37.55625 
L 496.549526 -37.55625 
L 498.167767 -37.55625 
L 499.786007 -37.55625 
L 501.404248 -37.55625 
L 503.022488 -37.55625 
L 504.640729 -37.55625 
L 506.25897 -37.55625 
L 507.87721 -37.55625 
L 509.495451 -37.55625 
L 511.113691 -37.55625 
L 512.731932 -37.55625 
L 514.350172 -37.55625 
L 515.968413 -37.55625 
L 517.586654 -37.55625 
L 519.204894 -37.55625 
L 520.823135 -37.55625 
L 522.441375 -37.55625 
L 524.059616 -37.55625 
L 525.677856 -37.55625 
L 527.296097 -37.55625 
L 528.914338 -37.55625 
L 530.532578 -37.55625 
L 532.150819 -37.55625 
L 533.769059 -37.55625 
L 535.3873 -37.55625 
L 537.00554 -37.55625 
L 538.623781 -37.55625 
L 540.242021 -37.55625 
L 541.860262 -37.55625 
L 543.478503 -37.55625 
L 545.096743 -37.55625 
L 546.714984 -37.55625 
L 548.333224 -37.55625 
L 549.951465 -37.55625 
L 551.569705 -37.55625 
L 553.187946 -37.55625 
L 554.806187 -37.55625 
L 556.424427 -37.55625 
L 558.042668 -37.55625 
L 559.660908 -37.55625 
L 561.279149 -37.55625 
L 562.897389 -37.55625 
L 564.51563 -37.55625 
L 566.13387 -37.55625 
L 567.752111 -37.55625 
L 569.370352 -37.55625 
L 570.988592 -37.55625 
L 572.606833 -37.55625 
L 574.225073 -37.55625 
L 575.843314 -37.55625 
L 577.461554 -37.55625 
L 579.079795 -37.55625 
L 580.698036 -37.55625 
L 582.316276 -37.55625 
L 583.934517 -37.55625 
L 585.552757 -37.55625 
L 587.170998 -37.55625 
L 588.789238 -37.55625 
L 590.407479 -37.55625 
L 592.025719 -37.55625 
L 593.64396 -37.55625 
L 595.262201 -37.55625 
L 596.880441 -37.55625 
L 598.498682 -37.55625 
L 600.116922 -37.55625 
L 601.735163 -37.55625 
L 603.353403 -37.55625 
L 604.971644 -37.55625 
L 606.589885 -37.55625 
L 608.208125 -37.55625 
L 609.826366 -37.55625 
L 611.444606 -37.55625 
L 613.062847 -37.55625 
L 614.681087 -37.55625 
L 616.299328 -37.55625 
L 617.917568 -37.55625 
L 619.535809 -37.55625 
L 621.15405 -37.55625 
L 622.77229 -37.55625 
L 624.390531 -37.55625 
L 626.008771 -37.55625 
L 627.627012 -37.55625 
L 629.245252 -37.55625 
L 630.863493 -37.55625 
L 632.481734 -37.55625 
L 634.099974 -37.55625 
L 635.718215 -37.55625 
L 637.336455 -37.55625 
L 638.954696 -37.55625 
L 640.572936 -37.55625 
L 642.191177 -37.55625 
L 643.809417 -37.55625 
L 645.427658 -37.55625 
L 647.045899 -37.55625 
L 648.664139 -37.55625 
L 650.28238 -37.55625 
L 651.90062 -37.55625 
L 653.518861 -37.55625 
L 655.137101 -37.55625 
L 656.755342 -37.55625 
L 658.373583 -37.55625 
L 659.991823 -37.55625 
L 661.610064 -37.55625 
L 663.228304 -37.55625 
L 664.846545 -37.55625 
L 666.464785 -37.55625 
L 668.083026 -37.55625 
L 669.701266 -37.55625 
L 671.319507 -37.55625 
L 672.937748 -37.55625 
L 674.555988 -37.55625 
L 676.174229 -37.55625 
L 677.792469 -37.55625 
L 679.41071 -37.55625 
L 681.02895 -37.55625 
L 682.647191 -37.55625 
L 684.265432 -37.55625 
L 685.883672 -37.55625 
L 687.501913 -37.55625 
L 689.120153 -37.55625 
L 690.738394 -37.55625 
L 692.356634 -37.55625 
L 692.356634 -37.617333 
L 692.356634 -37.617333 
L 690.738394 -37.627335 
L 689.120153 -37.638722 
L 687.501913 -37.651651 
L 685.883672 -37.666298 
L 684.265432 -37.682852 
L 682.647191 -37.701521 
L 681.02895 -37.722534 
L 679.41071 -37.746143 
L 677.792469 -37.772621 
L 676.174229 -37.802271 
L 674.555988 -37.835424 
L 672.937748 -37.872442 
L 671.319507 -37.913722 
L 669.701266 -37.959699 
L 668.083026 -38.010847 
L 666.464785 -38.067686 
L 664.846545 -38.130781 
L 663.228304 -38.200746 
L 661.610064 -38.278251 
L 659.991823 -38.364017 
L 658.373583 -38.458826 
L 656.755342 -38.56352 
L 655.137101 -38.679005 
L 653.518861 -38.806248 
L 651.90062 -38.946285 
L 650.28238 -39.100218 
L 648.664139 -39.269217 
L 647.045899 -39.454519 
L 645.427658 -39.657431 
L 643.809417 -39.879325 
L 642.191177 -40.12164 
L 640.572936 -40.385881 
L 638.954696 -40.673616 
L 637.336455 -40.986472 
L 635.718215 -41.326138 
L 634.099974 -41.694358 
L 632.481734 -42.092927 
L 630.863493 -42.523692 
L 629.245252 -42.988542 
L 627.627012 -43.489405 
L 626.008771 -44.028244 
L 624.390531 -44.607047 
L 622.77229 -45.227819 
L 621.15405 -45.892574 
L 619.535809 -46.603324 
L 617.917568 -47.362065 
L 616.299328 -48.170763 
L 614.681087 -49.031339 
L 613.062847 -49.94565 
L 611.444606 -50.915475 
L 609.826366 -51.942485 
L 608.208125 -53.028232 
L 606.589885 -54.174121 
L 604.971644 -55.381388 
L 603.353403 -56.651077 
L 601.735163 -57.984022 
L 600.116922 -59.380818 
L 598.498682 -60.841809 
L 596.880441 -62.367063 
L 595.262201 -63.956361 
L 593.64396 -65.60918 
L 592.025719 -67.324681 
L 590.407479 -69.101705 
L 588.789238 -70.938765 
L 587.170998 -72.834045 
L 585.552757 -74.785398 
L 583.934517 -76.790355 
L 582.316276 -78.846127 
L 580.698036 -80.949618 
L 579.079795 -83.097438 
L 577.461554 -85.285915 
L 575.843314 -87.511115 
L 574.225073 -89.768862 
L 572.606833 -92.054761 
L 570.988592 -94.364224 
L 569.370352 -96.692497 
L 567.752111 -99.034695 
L 566.13387 -101.385832 
L 564.51563 -103.740861 
L 562.897389 -106.094714 
L 561.279149 -108.442342 
L 559.660908 -110.778767 
L 558.042668 -113.09912 
L 556.424427 -115.398699 
L 554.806187 -117.673012 
L 553.187946 -119.917828 
L 551.569705 -122.129227 
L 549.951465 -124.303637 
L 548.333224 -126.437883 
L 546.714984 -128.529215 
L 545.096743 -130.575338 
L 543.478503 -132.574428 
L 541.860262 -134.525145 
L 540.242021 -136.426631 
L 538.623781 -138.278496 
L 537.00554 -140.080798 
L 535.3873 -141.83401 
L 533.769059 -143.53898 
L 532.150819 -145.19688 
L 530.532578 -146.809155 
L 528.914338 -148.377458 
L 527.296097 -149.903602 
L 525.677856 -151.389494 
L 524.059616 -152.837087 
L 522.441375 -154.248338 
L 520.823135 -155.62517 
L 519.204894 -156.969452 
L 517.586654 -158.282987 
L 515.968413 -159.567515 
L 514.350172 -160.824731 
L 512.731932 -162.056312 
L 511.113691 -163.263958 
L 509.495451 -164.449438 
L 507.87721 -165.614641 
L 506.25897 -166.761633 
L 504.640729 -167.892708 
L 503.022488 -169.010436 
L 501.404248 -170.117704 
L 499.786007 -171.217744 
L 498.167767 -172.31415 
L 496.549526 -173.410878 
L 494.931286 -174.512232 
L 493.313045 -175.622833 
L 491.694805 -176.747578 
L 490.076564 -177.891582 
L 488.458323 -179.060111 
L 486.840083 -180.258505 
L 485.221842 -181.492104 
L 483.603602 -182.766163 
L 481.985361 -184.085773 
L 480.367121 -185.455789 
L 478.74888 -186.880764 
L 477.130639 -188.364883 
L 475.512399 -189.911925 
L 473.894158 -191.525214 
L 472.275918 -193.207598 
L 470.657677 -194.961424 
L 469.039437 -196.788529 
L 467.421196 -198.690234 
L 465.802956 -200.667335 
L 464.184715 -202.720105 
L 462.566474 -204.848289 
L 460.948234 -207.051096 
L 459.329993 -209.327187 
L 457.711753 -211.674656 
L 456.093512 -214.09101 
L 454.475272 -216.573135 
L 452.857031 -219.117268 
L 451.23879 -221.71896 
L 449.62055 -224.37304 
L 448.002309 -227.073585 
L 446.384069 -229.813894 
L 444.765828 -232.586474 
L 443.147588 -235.383037 
L 441.529347 -238.194515 
L 439.911107 -241.011095 
L 438.292866 -243.822272 
L 436.674625 -246.616925 
L 435.056385 -249.383419 
L 433.438144 -252.109727 
L 431.819904 -254.783567 
L 430.201663 -257.392571 
L 428.583423 -259.924453 
L 426.965182 -262.367199 
L 425.346941 -264.709262 
L 423.728701 -266.939749 
L 422.11046 -269.048615 
L 420.49222 -271.026835 
L 418.873979 -272.866567 
L 417.255739 -274.561292 
L 415.637498 -276.10592 
L 414.019258 -277.49687 
L 412.401017 -278.732115 
L 410.782776 -279.811186 
L 409.164536 -280.735136 
L 407.546295 -281.506471 
L 405.928055 -282.129034 
L 404.309814 -282.607862 
L 402.691574 -282.949004 
L 401.073333 -283.15932 
L 399.455092 -283.246252 
L 397.836852 -283.217589 
L 396.218611 -283.08122 
L 394.600371 -282.844892 
L 392.98213 -282.515982 
L 391.36389 -282.101275 
L 389.745649 -281.606782 
L 388.127409 -281.037577 
L 386.509168 -280.397677 
L 384.890927 -279.689963 
L 383.272687 -278.916136 
L 381.654446 -278.076726 
L 380.036206 -277.171144 
L 378.417965 -276.197763 
L 376.799725 -275.154053 
L 375.181484 -274.036736 
L 373.563243 -272.841975 
L 371.945003 -271.56558 
L 370.326762 -270.203224 
L 368.708522 -268.750672 
L 367.090281 -267.204004 
L 365.472041 -265.559826 
L 363.8538 -263.815471 
L 362.23556 -261.969181 
L 360.617319 -260.020258 
L 358.999078 -257.969195 
L 357.380838 -255.817765 
L 355.762597 -253.569094 
L 354.144357 -251.227688 
L 352.526116 -248.799436 
L 350.907876 -246.291581 
L 349.289635 -243.712666 
L 347.671394 -241.072453 
L 346.053154 -238.381817 
L 344.434913 -235.652626 
L 342.816673 -232.897599 
L 341.198432 -230.13016 
L 339.580192 -227.364265 
L 337.961951 -224.614239 
L 336.343711 -221.894595 
L 334.72547 -219.219855 
L 333.107229 -216.60437 
L 331.488989 -214.062139 
L 329.870748 -211.606636 
L 328.252508 -209.250632 
L 326.634267 -207.006044 
L 325.016027 -204.883771 
L 323.397786 -202.893558 
L 321.779545 -201.04387 
L 320.161305 -199.34178 
L 318.543064 -197.792875 
L 316.924824 -196.401181 
L 315.306583 -195.169111 
L 313.688343 -194.097431 
L 312.070102 -193.185247 
L 310.451861 -192.430016 
L 308.833621 -191.827572 
L 307.21538 -191.372176 
L 305.59714 -191.056583 
L 303.978899 -190.872123 
L 302.360659 -190.808793 
L 300.742418 -190.855373 
L 299.124178 -190.999535 
L 297.505937 -191.227967 
L 295.887696 -191.52651 
L 294.269456 -191.880282 
L 292.651215 -192.273817 
L 291.032975 -192.6912 
L 289.414734 -193.1162 
L 287.796494 -193.532405 
L 286.178253 -193.923355 
L 284.560012 -194.27267 
L 282.941772 -194.564183 
L 281.323531 -194.782064 
L 279.705291 -194.910946 
L 278.08705 -194.936051 
L 276.46881 -194.843309 
L 274.850569 -194.61948 
L 273.232329 -194.25227 
L 271.614088 -193.730441 
L 269.995847 -193.043924 
L 268.377607 -192.183916 
L 266.759366 -191.142976 
L 265.141126 -189.915106 
L 263.522885 -188.495826 
L 261.904645 -186.882234 
L 260.286404 -185.073043 
L 258.668163 -183.068613 
L 257.049923 -180.870958 
L 255.431682 -178.48373 
L 253.813442 -175.912191 
L 252.195201 -173.163153 
L 250.576961 -170.244912 
L 248.95872 -167.167145 
L 247.34048 -163.9408 
L 245.722239 -160.577965 
L 244.103998 -157.091721 
L 242.485758 -153.495986 
L 240.867517 -149.805345 
L 239.249277 -146.034877 
L 237.631036 -142.19998 
L 236.012796 -138.316195 
L 234.394555 -134.399033 
L 232.776314 -130.463816 
L 231.158074 -126.525516 
L 229.539833 -122.598619 
L 227.921593 -118.697 
L 226.303352 -114.833804 
L 224.685112 -111.021364 
L 223.066871 -107.271117 
L 221.448631 -103.59355 
L 219.83039 -99.998163 
L 218.212149 -96.493439 
L 216.593909 -93.086841 
L 214.975668 -89.784814 
L 213.357428 -86.592808 
L 211.739187 -83.515302 
L 210.120947 -80.555843 
L 208.502706 -77.717094 
L 206.884465 -75.000876 
L 205.266225 -72.408229 
L 203.647984 -69.939467 
L 202.029744 -67.594231 
L 200.411503 -65.37155 
L 198.793263 -63.269896 
L 197.175022 -61.287243 
L 195.556782 -59.421115 
L 193.938541 -57.668645 
L 192.3203 -56.026618 
L 190.70206 -54.491524 
L 189.083819 -53.0596 
L 187.465579 -51.726876 
L 185.847338 -50.489212 
L 184.229098 -49.342342 
L 182.610857 -48.281909 
L 180.992616 -47.303497 
L 179.374376 -46.40267 
L 177.756135 -45.574997 
L 176.137895 -44.816086 
L 174.519654 -44.121606 
L 172.901414 -43.487314 
L 171.283173 -42.909077 
L 169.664933 -42.38289 
L 168.046692 -41.904893 
L 166.428451 -41.471384 
L 164.810211 -41.078831 
L 163.19197 -40.723883 
L 161.57373 -40.403372 
L 159.955489 -40.114319 
L 158.337249 -39.853933 
L 156.719008 -39.619615 
L 155.100767 -39.408947 
L 153.482527 -39.219698 
L 151.864286 -39.049806 
L 150.246046 -38.897384 
L 148.627805 -38.7607 
L 147.009565 -38.638175 
L 145.391324 -38.528374 
L 143.773083 -38.429993 
L 142.154843 -38.341853 
L 140.536602 -38.262888 
L 138.918362 -38.192137 
L 137.300121 -38.128735 
L 135.681881 -38.071906 
L 134.06364 -38.020954 
L 132.4454 -37.975252 
L 130.827159 -37.934244 
L 129.208918 -37.897427 
L 127.590678 -37.864356 
L 125.972437 -37.834633 
L 124.354197 -37.8079 
L 122.735956 -37.783842 
L 121.117716 -37.762174 
L 119.499475 -37.742646 
L 117.881234 -37.725033 
L 116.262994 -37.709134 
L 114.644753 -37.694774 
L 113.026513 -37.681792 
L 111.408272 -37.670048 
L 109.790032 -37.659417 
L 108.171791 -37.649787 
L 106.553551 -37.641058 
L 104.93531 -37.633141 
L 103.317069 -37.625956 
L 101.698829 -37.619433 
L 100.080588 -37.613508 
L 98.462348 -37.608124 
L 96.844107 -37.60323 
L 95.225867 -37.59878 
L 93.607626 -37.594732 
L 91.989385 -37.59105 
L 90.371145 -37.5877 
L 88.752904 -37.584651 
L 87.134664 -37.581877 
L 85.516423 -37.579353 
L 83.898183 -37.577056 
L 82.279942 -37.574966 
L 80.661702 -37.573065 
L 79.043461 -37.571337 
L 77.42522 -37.569766 
L 75.80698 -37.56834 
L 74.188739 -37.567045 
L 72.570499 -37.56587 
L 70.952258 -37.564806 
L 69.334018 -37.563844 
L 67.715777 -37.562974 
L 66.097536 -37.562189 
L 64.479296 -37.561482 
L 62.861055 -37.560846 
L 61.242815 -37.560277 
L 59.624574 -37.559767 
L 58.006334 -37.559312 
L 56.388093 -37.558906 
L 54.769853 -37.558547 
L 53.151612 -37.558229 
L 51.533371 -37.557949 
L 49.915131 -37.557703 
L 48.29689 -37.557488 
L 46.67865 -37.5573 
z
" style="stroke: #1f4e79; stroke-opacity: 0.1"/>
    </defs>
    <g clip-path="url(#pef57de973e)">
     <use xlink:href="#m24d0a696af" x="0" y="379.965284" style="fill: #1f4e79; fill-opacity: 0.1; stroke: #1f4e79; stroke-opacity: 0.1"/>
    </g>
   </g>
   <g id="text_17">
    <!-- TRB-01 - Frequency distribution curve (unimodal) -->
    <g transform="translate(202.022017 16.318125) scale(0.12 -0.12)">
     <defs>
      <path id="DejaVuSans-Bold-54" d="M 31 4666 
L 4331 4666 
L 4331 3756 
L 2784 3756 
L 2784 0 
L 1581 0 
L 1581 3756 
L 31 3756 
L 31 4666 
z
" transform="scale(0.015625)"/>
      <path id="DejaVuSans-Bold-52" d="M 2297 2597 
Q 2675 2597 2839 2737 
Q 3003 2878 3003 3200 
Q 3003 3519 2839 3656 
Q 2675 3794 2297 3794 
L 1791 3794 
L 1791 2597 
L 2297 2597 
z
M 1791 1766 
L 1791 0 
L 588 0 
L 588 4666 
L 2425 4666 
Q 3347 4666 3776 4356 
Q 4206 4047 4206 3378 
Q 4206 2916 3982 2619 
Q 3759 2322 3309 2181 
Q 3556 2125 3751 1926 
Q 3947 1728 4147 1325 
L 4800 0 
L 3519 0 
L 2950 1159 
Q 2778 1509 2601 1637 
Q 2425 1766 2131 1766 
L 1791 1766 
z
" transform="scale(0.015625)"/>
      <path id="DejaVuSans-Bold-42" d="M 2456 2859 
Q 2741 2859 2887 2984 
Q 3034 3109 3034 3353 
Q 3034 3594 2887 3720 
Q 2741 3847 2456 3847 
L 1791 3847 
L 1791 2859 
L 2456 2859 
z
M 2497 819 
Q 2859 819 3042 972 
Q 3225 1125 3225 1434 
Q 3225 1738 3044 1889 
Q 2863 2041 2497 2041 
L 1791 2041 
L 1791 819 
L 2497 819 
z
M 3616 2497 
Q 4003 2384 4215 2081 
Q 4428 1778 4428 1338 
Q 4428 663 3972 331 
Q 3516 0 2584 0 
L 588 0 
L 588 4666 
L 2394 4666 
Q 3366 4666 3802 4372 
Q 4238 4078 4238 3431 
Q 4238 3091 4078 2852 
Q 3919 2613 3616 2497 
z
" transform="scale(0.015625)"/>
      <path id="DejaVuSans-Bold-2d" d="M 347 2297 
L 2309 2297 
L 2309 1388 
L 347 1388 
L 347 2297 
z
" transform="scale(0.015625)"/>
      <path id="DejaVuSans-Bold-30" d="M 2944 2338 
Q 2944 3213 2780 3570 
Q 2616 3928 2228 3928 
Q 1841 3928 1675 3570 
Q 1509 3213 1509 2338 
Q 1509 1453 1675 1090 
Q 1841 728 2228 728 
Q 2613 728 2778 1090 
Q 2944 1453 2944 2338 
z
M 4147 2328 
Q 4147 1169 3647 539 
Q 3147 -91 2228 -91 
Q 1306 -91 806 539 
Q 306 1169 306 2328 
Q 306 3491 806 4120 
Q 1306 4750 2228 4750 
Q 3147 4750 3647 4120 
Q 4147 3491 4147 2328 
z
" transform="scale(0.015625)"/>
      <path id="DejaVuSans-Bold-31" d="M 750 831 
L 1813 831 
L 1813 3847 
L 722 3622 
L 722 4441 
L 1806 4666 
L 2950 4666 
L 2950 831 
L 4013 831 
L 4013 0 
L 750 0 
L 750 831 
z
" transform="scale(0.015625)"/>
      <path id="DejaVuSans-Bold-20" transform="scale(0.015625)"/>
      <path id="DejaVuSans-Bold-46" d="M 588 4666 
L 3834 4666 
L 3834 3756 
L 1791 3756 
L 1791 2888 
L 3713 2888 
L 3713 1978 
L 1791 1978 
L 1791 0 
L 588 0 
L 588 4666 
z
" transform="scale(0.015625)"/>
      <path id="DejaVuSans-Bold-72" d="M 3138 2547 
Q 2991 2616 2845 2648 
Q 2700 2681 2553 2681 
Q 2122 2681 1889 2404 
Q 1656 2128 1656 1613 
L 1656 0 
L 538 0 
L 538 3500 
L 1656 3500 
L 1656 2925 
Q 1872 3269 2151 3426 
Q 2431 3584 2822 3584 
Q 2878 3584 2943 3579 
Q 3009 3575 3134 3559 
L 3138 2547 
z
" transform="scale(0.015625)"/>
      <path id="DejaVuSans-Bold-65" d="M 4031 1759 
L 4031 1441 
L 1416 1441 
Q 1456 1047 1700 850 
Q 1944 653 2381 653 
Q 2734 653 3104 758 
Q 3475 863 3866 1075 
L 3866 213 
Q 3469 63 3072 -14 
Q 2675 -91 2278 -91 
Q 1328 -91 801 392 
Q 275 875 275 1747 
Q 275 2603 792 3093 
Q 1309 3584 2216 3584 
Q 3041 3584 3536 3087 
Q 4031 2591 4031 1759 
z
M 2881 2131 
Q 2881 2450 2695 2645 
Q 2509 2841 2209 2841 
Q 1884 2841 1681 2658 
Q 1478 2475 1428 2131 
L 2881 2131 
z
" transform="scale(0.015625)"/>
      <path id="DejaVuSans-Bold-71" d="M 2181 2772 
Q 1825 2772 1636 2509 
Q 1447 2247 1447 1747 
Q 1447 1247 1636 984 
Q 1825 722 2181 722 
Q 2541 722 2730 984 
Q 2919 1247 2919 1747 
Q 2919 2247 2730 2509 
Q 2541 2772 2181 2772 
z
M 2919 506 
Q 2688 197 2409 53 
Q 2131 -91 1766 -91 
Q 1119 -91 703 423 
Q 288 938 288 1747 
Q 288 2556 703 3067 
Q 1119 3578 1766 3578 
Q 2131 3578 2409 3434 
Q 2688 3291 2919 2981 
L 2919 3500 
L 4044 3500 
L 4044 -1331 
L 2919 -1331 
L 2919 506 
z
" transform="scale(0.015625)"/>
      <path id="DejaVuSans-Bold-75" d="M 500 1363 
L 500 3500 
L 1625 3500 
L 1625 3150 
Q 1625 2866 1622 2436 
Q 1619 2006 1619 1863 
Q 1619 1441 1641 1255 
Q 1663 1069 1716 984 
Q 1784 875 1895 815 
Q 2006 756 2150 756 
Q 2500 756 2700 1025 
Q 2900 1294 2900 1772 
L 2900 3500 
L 4019 3500 
L 4019 0 
L 2900 0 
L 2900 506 
Q 2647 200 2364 54 
Q 2081 -91 1741 -91 
Q 1134 -91 817 281 
Q 500 653 500 1363 
z
" transform="scale(0.015625)"/>
      <path id="DejaVuSans-Bold-6e" d="M 4056 2131 
L 4056 0 
L 2931 0 
L 2931 347 
L 2931 1631 
Q 2931 2084 2911 2256 
Q 2891 2428 2841 2509 
Q 2775 2619 2662 2680 
Q 2550 2741 2406 2741 
Q 2056 2741 1856 2470 
Q 1656 2200 1656 1722 
L 1656 0 
L 538 0 
L 538 3500 
L 1656 3500 
L 1656 2988 
Q 1909 3294 2193 3439 
Q 2478 3584 2822 3584 
Q 3428 3584 3742 3212 
Q 4056 2841 4056 2131 
z
" transform="scale(0.015625)"/>
      <path id="DejaVuSans-Bold-63" d="M 3366 3391 
L 3366 2478 
Q 3138 2634 2908 2709 
Q 2678 2784 2431 2784 
Q 1963 2784 1702 2511 
Q 1441 2238 1441 1747 
Q 1441 1256 1702 982 
Q 1963 709 2431 709 
Q 2694 709 2930 787 
Q 3166 866 3366 1019 
L 3366 103 
Q 3103 6 2833 -42 
Q 2563 -91 2291 -91 
Q 1344 -91 809 395 
Q 275 881 275 1747 
Q 275 2613 809 3098 
Q 1344 3584 2291 3584 
Q 2566 3584 2833 3536 
Q 3100 3488 3366 3391 
z
" transform="scale(0.015625)"/>
      <path id="DejaVuSans-Bold-79" d="M 78 3500 
L 1197 3500 
L 2138 1125 
L 2938 3500 
L 4056 3500 
L 2584 -331 
Q 2363 -916 2067 -1148 
Q 1772 -1381 1288 -1381 
L 641 -1381 
L 641 -647 
L 991 -647 
Q 1275 -647 1404 -556 
Q 1534 -466 1606 -231 
L 1638 -134 
L 78 3500 
z
" transform="scale(0.015625)"/>
      <path id="DejaVuSans-Bold-64" d="M 2919 2988 
L 2919 4863 
L 4044 4863 
L 4044 0 
L 2919 0 
L 2919 506 
Q 2688 197 2409 53 
Q 2131 -91 1766 -91 
Q 1119 -91 703 423 
Q 288 938 288 1747 
Q 288 2556 703 3070 
Q 1119 3584 1766 3584 
Q 2128 3584 2408 3439 
Q 2688 3294 2919 2988 
z
M 2181 722 
Q 2541 722 2730 984 
Q 2919 1247 2919 1747 
Q 2919 2247 2730 2509 
Q 2541 2772 2181 2772 
Q 1825 2772 1636 2509 
Q 1447 2247 1447 1747 
Q 1447 1247 1636 984 
Q 1825 722 2181 722 
z
" transform="scale(0.015625)"/>
      <path id="DejaVuSans-Bold-69" d="M 538 3500 
L 1656 3500 
L 1656 0 
L 538 0 
L 538 3500 
z
M 538 4863 
L 1656 4863 
L 1656 3950 
L 538 3950 
L 538 4863 
z
" transform="scale(0.015625)"/>
      <path id="DejaVuSans-Bold-73" d="M 3272 3391 
L 3272 2541 
Q 2913 2691 2578 2766 
Q 2244 2841 1947 2841 
Q 1628 2841 1473 2761 
Q 1319 2681 1319 2516 
Q 1319 2381 1436 2309 
Q 1553 2238 1856 2203 
L 2053 2175 
Q 2913 2066 3209 1816 
Q 3506 1566 3506 1031 
Q 3506 472 3093 190 
Q 2681 -91 1863 -91 
Q 1516 -91 1145 -36 
Q 775 19 384 128 
L 384 978 
Q 719 816 1070 734 
Q 1422 653 1784 653 
Q 2113 653 2278 743 
Q 2444 834 2444 1013 
Q 2444 1163 2330 1236 
Q 2216 1309 1875 1350 
L 1678 1375 
Q 931 1469 631 1722 
Q 331 1975 331 2491 
Q 331 3047 712 3315 
Q 1094 3584 1881 3584 
Q 2191 3584 2531 3537 
Q 2872 3491 3272 3391 
z
" transform="scale(0.015625)"/>
      <path id="DejaVuSans-Bold-74" d="M 1759 4494 
L 1759 3500 
L 2913 3500 
L 2913 2700 
L 1759 2700 
L 1759 1216 
Q 1759 972 1856 886 
Q 1953 800 2241 800 
L 2816 800 
L 2816 0 
L 1856 0 
Q 1194 0 917 276 
Q 641 553 641 1216 
L 641 2700 
L 84 2700 
L 84 3500 
L 641 3500 
L 641 4494 
L 1759 4494 
z
" transform="scale(0.015625)"/>
      <path id="DejaVuSans-Bold-62" d="M 2400 722 
Q 2759 722 2948 984 
Q 3138 1247 3138 1747 
Q 3138 2247 2948 2509 
Q 2759 2772 2400 2772 
Q 2041 2772 1848 2508 
Q 1656 2244 1656 1747 
Q 1656 1250 1848 986 
Q 2041 722 2400 722 
z
M 1656 2988 
Q 1888 3294 2169 3439 
Q 2450 3584 2816 3584 
Q 3463 3584 3878 3070 
Q 4294 2556 4294 1747 
Q 4294 938 3878 423 
Q 3463 -91 2816 -91 
Q 2450 -91 2169 54 
Q 1888 200 1656 506 
L 1656 0 
L 538 0 
L 538 4863 
L 1656 4863 
L 1656 2988 
z
" transform="scale(0.015625)"/>
      <path id="DejaVuSans-Bold-6f" d="M 2203 2784 
Q 1831 2784 1636 2517 
Q 1441 2250 1441 1747 
Q 1441 1244 1636 976 
Q 1831 709 2203 709 
Q 2569 709 2762 976 
Q 2956 1244 2956 1747 
Q 2956 2250 2762 2517 
Q 2569 2784 2203 2784 
z
M 2203 3584 
Q 3106 3584 3614 3096 
Q 4122 2609 4122 1747 
Q 4122 884 3614 396 
Q 3106 -91 2203 -91 
Q 1297 -91 786 396 
Q 275 884 275 1747 
Q 275 2609 786 3096 
Q 1297 3584 2203 3584 
z
" transform="scale(0.015625)"/>
      <path id="DejaVuSans-Bold-76" d="M 97 3500 
L 1216 3500 
L 2088 1081 
L 2956 3500 
L 4078 3500 
L 2700 0 
L 1472 0 
L 97 3500 
z
" transform="scale(0.015625)"/>
      <path id="DejaVuSans-Bold-28" d="M 2413 -844 
L 1484 -844 
Q 1006 -72 778 623 
Q 550 1319 550 2003 
Q 550 2688 779 3389 
Q 1009 4091 1484 4856 
L 2413 4856 
Q 2013 4116 1813 3408 
Q 1613 2700 1613 2009 
Q 1613 1319 1811 609 
Q 2009 -100 2413 -844 
z
" transform="scale(0.015625)"/>
      <path id="DejaVuSans-Bold-6d" d="M 3781 2919 
Q 3994 3244 4286 3414 
Q 4578 3584 4928 3584 
Q 5531 3584 5847 3212 
Q 6163 2841 6163 2131 
L 6163 0 
L 5038 0 
L 5038 1825 
Q 5041 1866 5042 1909 
Q 5044 1953 5044 2034 
Q 5044 2406 4934 2573 
Q 4825 2741 4581 2741 
Q 4263 2741 4089 2478 
Q 3916 2216 3909 1719 
L 3909 0 
L 2784 0 
L 2784 1825 
Q 2784 2406 2684 2573 
Q 2584 2741 2328 2741 
Q 2006 2741 1831 2477 
Q 1656 2213 1656 1722 
L 1656 0 
L 531 0 
L 531 3500 
L 1656 3500 
L 1656 2988 
Q 1863 3284 2130 3434 
Q 2397 3584 2719 3584 
Q 3081 3584 3359 3409 
Q 3638 3234 3781 2919 
z
" transform="scale(0.015625)"/>
      <path id="DejaVuSans-Bold-61" d="M 2106 1575 
Q 1756 1575 1579 1456 
Q 1403 1338 1403 1106 
Q 1403 894 1545 773 
Q 1688 653 1941 653 
Q 2256 653 2472 879 
Q 2688 1106 2688 1447 
L 2688 1575 
L 2106 1575 
z
M 3816 1997 
L 3816 0 
L 2688 0 
L 2688 519 
Q 2463 200 2181 54 
Q 1900 -91 1497 -91 
Q 953 -91 614 226 
Q 275 544 275 1050 
Q 275 1666 698 1953 
Q 1122 2241 2028 2241 
L 2688 2241 
L 2688 2328 
Q 2688 2594 2478 2717 
Q 2269 2841 1825 2841 
Q 1466 2841 1156 2769 
Q 847 2697 581 2553 
L 581 3406 
Q 941 3494 1303 3539 
Q 1666 3584 2028 3584 
Q 2975 3584 3395 3211 
Q 3816 2838 3816 1997 
z
" transform="scale(0.015625)"/>
      <path id="DejaVuSans-Bold-6c" d="M 538 4863 
L 1656 4863 
L 1656 0 
L 538 0 
L 538 4863 
z
" transform="scale(0.015625)"/>
      <path id="DejaVuSans-Bold-29" d="M 513 -844 
Q 913 -100 1113 609 
Q 1313 1319 1313 2009 
Q 1313 2700 1113 3408 
Q 913 4116 513 4856 
L 1441 4856 
Q 1916 4091 2145 3389 
Q 2375 2688 2375 2003 
Q 2375 1319 2147 623 
Q 1919 -72 1441 -844 
L 513 -844 
z
" transform="scale(0.015625)"/>
     </defs>
     <use xlink:href="#DejaVuSans-Bold-54"/>
     <use xlink:href="#DejaVuSans-Bold-52" transform="translate(68.212891 0)"/>
     <use xlink:href="#DejaVuSans-Bold-42" transform="translate(145.214844 0)"/>
     <use xlink:href="#DejaVuSans-Bold-2d" transform="translate(221.435547 0)"/>
     <use xlink:href="#DejaVuSans-Bold-30" transform="translate(262.939453 0)"/>
     <use xlink:href="#DejaVuSans-Bold-31" transform="translate(332.519531 0)"/>
     <use xlink:href="#DejaVuSans-Bold-20" transform="translate(402.099609 0)"/>
     <use xlink:href="#DejaVuSans-Bold-2d" transform="translate(436.914062 0)"/>
     <use xlink:href="#DejaVuSans-Bold-20" transform="translate(478.417969 0)"/>
     <use xlink:href="#DejaVuSans-Bold-46" transform="translate(513.232422 0)"/>
     <use xlink:href="#DejaVuSans-Bold-72" transform="translate(575.167969 0)"/>
     <use xlink:href="#DejaVuSans-Bold-65" transform="translate(624.484375 0)"/>
     <use xlink:href="#DejaVuSans-Bold-71" transform="translate(692.306641 0)"/>
     <use xlink:href="#DejaVuSans-Bold-75" transform="translate(763.888672 0)"/>
     <use xlink:href="#DejaVuSans-Bold-65" transform="translate(835.080078 0)"/>
     <use xlink:href="#DejaVuSans-Bold-6e" transform="translate(902.902344 0)"/>
     <use xlink:href="#DejaVuSans-Bold-63" transform="translate(974.09375 0)"/>
     <use xlink:href="#DejaVuSans-Bold-79" transform="translate(1033.371094 0)"/>
     <use xlink:href="#DejaVuSans-Bold-20" transform="translate(1098.556641 0)"/>
     <use xlink:href="#DejaVuSans-Bold-64" transform="translate(1133.371094 0)"/>
     <use xlink:href="#DejaVuSans-Bold-69" transform="translate(1204.953125 0)"/>
     <use xlink:href="#DejaVuSans-Bold-73" transform="translate(1239.230469 0)"/>
     <use xlink:href="#DejaVuSans-Bold-74" transform="translate(1298.751953 0)"/>
     <use xlink:href="#DejaVuSans-Bold-72" transform="translate(1346.554688 0)"/>
     <use xlink:href="#DejaVuSans-Bold-69" transform="translate(1395.871094 0)"/>
     <use xlink:href="#DejaVuSans-Bold-62" transform="translate(1430.148438 0)"/>
     <use xlink:href="#DejaVuSans-Bold-75" transform="translate(1501.730469 0)"/>
     <use xlink:href="#DejaVuSans-Bold-74" transform="translate(1572.921875 0)"/>
     <use xlink:href="#DejaVuSans-Bold-69" transform="translate(1620.724609 0)"/>
     <use xlink:href="#DejaVuSans-Bold-6f" transform="translate(1655.001953 0)"/>
     <use xlink:href="#DejaVuSans-Bold-6e" transform="translate(1723.703125 0)"/>
     <use xlink:href="#DejaVuSans-Bold-20" transform="translate(1794.894531 0)"/>
     <use xlink:href="#DejaVuSans-Bold-63" transform="translate(1829.708984 0)"/>
     <use xlink:href="#DejaVuSans-Bold-75" transform="translate(1888.986328 0)"/>
     <use xlink:href="#DejaVuSans-Bold-72" transform="translate(1960.177734 0)"/>
     <use xlink:href="#DejaVuSans-Bold-76" transform="translate(2009.494141 0)"/>
     <use xlink:href="#DejaVuSans-Bold-65" transform="translate(2074.679688 0)"/>
     <use xlink:href="#DejaVuSans-Bold-20" transform="translate(2142.501953 0)"/>
     <use xlink:href="#DejaVuSans-Bold-28" transform="translate(2177.316406 0)"/>
     <use xlink:href="#DejaVuSans-Bold-75" transform="translate(2223.019531 0)"/>
     <use xlink:href="#DejaVuSans-Bold-6e" transform="translate(2294.210938 0)"/>
     <use xlink:href="#DejaVuSans-Bold-69" transform="translate(2365.402344 0)"/>
     <use xlink:href="#DejaVuSans-Bold-6d" transform="translate(2399.679688 0)"/>
     <use xlink:href="#DejaVuSans-Bold-6f" transform="translate(2503.878906 0)"/>
     <use xlink:href="#DejaVuSans-Bold-64" transform="translate(2572.580078 0)"/>
     <use xlink:href="#DejaVuSans-Bold-61" transform="translate(2644.162109 0)"/>
     <use xlink:href="#DejaVuSans-Bold-6c" transform="translate(2711.642578 0)"/>
     <use xlink:href="#DejaVuSans-Bold-29" transform="translate(2745.919922 0)"/>
    </g>
   </g>
   <g id="line2d_32">
    <path d="M 46.67865 342.407984 
L 111.408272 342.295236 
L 129.208918 342.067857 
L 140.536602 341.702396 
L 148.627805 341.204584 
L 155.100767 340.556337 
L 159.955489 339.850965 
L 164.810211 338.886453 
L 168.046692 338.060391 
L 171.283173 337.056207 
L 174.519654 335.843679 
L 177.756135 334.390287 
L 180.992616 332.661787 
L 184.229098 330.622942 
L 187.465579 328.238408 
L 190.70206 325.47376 
L 193.938541 322.296639 
L 197.175022 318.678041 
L 200.411503 314.593734 
L 203.647984 310.025817 
L 206.884465 304.964408 
L 210.120947 299.409441 
L 213.357428 293.372476 
L 216.593909 286.878443 
L 219.83039 279.967121 
L 224.685112 268.94392 
L 231.158074 253.439769 
L 239.249277 233.930407 
L 244.103998 222.873563 
L 247.34048 216.024484 
L 250.576961 209.720372 
L 253.813442 204.053093 
L 257.049923 199.094326 
L 258.668163 196.896671 
L 260.286404 194.892241 
L 261.904645 193.08305 
L 263.522885 191.469458 
L 265.141126 190.050179 
L 266.759366 188.822309 
L 268.377607 187.781368 
L 269.995847 186.92136 
L 271.614088 186.234843 
L 273.232329 185.713014 
L 274.850569 185.345804 
L 276.46881 185.121975 
L 278.08705 185.029233 
L 281.323531 185.18322 
L 284.560012 185.692614 
L 289.414734 186.849084 
L 295.887696 188.438774 
L 299.124178 188.96575 
L 302.360659 189.156491 
L 303.978899 189.093162 
L 305.59714 188.908701 
L 307.21538 188.593108 
L 308.833621 188.137712 
L 310.451861 187.535268 
L 312.070102 186.780037 
L 313.688343 185.867853 
L 315.306583 184.796173 
L 316.924824 183.564103 
L 318.543064 182.172409 
L 321.779545 178.921414 
L 325.016027 175.081514 
L 328.252508 170.714652 
L 331.488989 165.903145 
L 336.343711 158.070689 
L 350.907876 133.673703 
L 354.144357 128.737596 
L 357.380838 124.147519 
L 360.617319 119.945026 
L 363.8538 116.149813 
L 367.090281 112.76128 
L 370.326762 109.76206 
L 373.563243 107.123309 
L 376.799725 104.811231 
L 380.036206 102.79414 
L 383.272687 101.049149 
L 386.509168 99.567607 
L 389.745649 98.358502 
L 392.98213 97.449302 
L 396.218611 96.884064 
L 399.455092 96.719032 
L 401.073333 96.805964 
L 402.691574 97.01628 
L 404.309814 97.357422 
L 405.928055 97.83625 
L 407.546295 98.458813 
L 409.164536 99.230148 
L 410.782776 100.154098 
L 412.401017 101.233169 
L 414.019258 102.468414 
L 415.637498 103.859364 
L 418.873979 107.098717 
L 422.11046 110.916669 
L 425.346941 115.256022 
L 428.583423 120.040832 
L 431.819904 125.181717 
L 436.674625 133.348359 
L 449.62055 155.592244 
L 454.475272 163.392149 
L 459.329993 170.638097 
L 462.566474 175.116995 
L 465.802956 179.29795 
L 469.039437 183.176755 
L 472.275918 186.757686 
L 475.512399 190.053359 
L 478.74888 193.08452 
L 481.985361 195.879511 
L 486.840083 199.706779 
L 491.694805 203.217706 
L 501.404248 209.847581 
L 509.495451 215.515846 
L 514.350172 219.140554 
L 519.204894 222.995832 
L 524.059616 227.128197 
L 528.914338 231.587826 
L 533.769059 236.426304 
L 538.623781 241.686788 
L 543.478503 247.390856 
L 548.333224 253.527401 
L 553.187946 260.047456 
L 559.660908 269.186517 
L 575.843314 292.454169 
L 580.698036 299.015666 
L 585.552757 305.179886 
L 590.407479 310.863579 
L 593.64396 314.356105 
L 596.880441 317.598221 
L 600.116922 320.584466 
L 603.353403 323.314207 
L 606.589885 325.791163 
L 609.826366 328.022799 
L 613.062847 330.019634 
L 616.299328 331.794521 
L 619.535809 333.36196 
L 622.77229 334.737465 
L 626.008771 335.93704 
L 630.863493 337.441592 
L 635.718215 338.639146 
L 640.572936 339.579403 
L 645.427658 340.307853 
L 651.90062 341.019 
L 658.373583 341.506458 
L 666.464785 341.897598 
L 677.792469 342.192663 
L 692.356634 342.347951 
L 692.356634 342.347951 
" clip-path="url(#pef57de973e)" style="fill: none; stroke: #1f4e79; stroke-width: 2.2; stroke-linecap: square"/>
   </g>
   <g id="legend_1">
    <g id="patch_72">
     <path d="M 40.522188 54.070937 
L 138.15 54.070937 
Q 139.85 54.070937 139.85 52.370937 
L 139.85 28.268125 
Q 139.85 26.568125 138.15 26.568125 
L 40.522188 26.568125 
Q 38.822188 26.568125 38.822188 28.268125 
L 38.822188 52.370937 
Q 38.822188 54.070937 40.522188 54.070937 
z
" style="fill: #ffffff; opacity: 0.92; stroke: #cccccc; stroke-linejoin: miter"/>
    </g>
    <g id="line2d_33">
     <path d="M 42.222188 33.451797 
L 50.722188 33.451797 
L 59.222188 33.451797 
" style="fill: none; stroke: #1f4e79; stroke-width: 2.2; stroke-linecap: square"/>
    </g>
    <g id="text_18">
     <!-- Frequency curve -->
     <g transform="translate(66.022188 36.426797) scale(0.085 -0.085)">
      <defs>
       <path id="DejaVuSans-46" d="M 628 4666 
L 3309 4666 
L 3309 4134 
L 1259 4134 
L 1259 2759 
L 3109 2759 
L 3109 2228 
L 1259 2228 
L 1259 0 
L 628 0 
L 628 4666 
z
" transform="scale(0.015625)"/>
       <path id="DejaVuSans-71" d="M 947 1747 
Q 947 1113 1208 752 
Q 1469 391 1925 391 
Q 2381 391 2643 752 
Q 2906 1113 2906 1747 
Q 2906 2381 2643 2742 
Q 2381 3103 1925 3103 
Q 1469 3103 1208 2742 
Q 947 2381 947 1747 
z
M 2906 525 
Q 2725 213 2448 61 
Q 2172 -91 1784 -91 
Q 1150 -91 751 415 
Q 353 922 353 1747 
Q 353 2572 751 3078 
Q 1150 3584 1784 3584 
Q 2172 3584 2448 3432 
Q 2725 3281 2906 2969 
L 2906 3500 
L 3481 3500 
L 3481 -1331 
L 2906 -1331 
L 2906 525 
z
" transform="scale(0.015625)"/>
       <path id="DejaVuSans-75" d="M 544 1381 
L 544 3500 
L 1119 3500 
L 1119 1403 
Q 1119 906 1312 657 
Q 1506 409 1894 409 
Q 2359 409 2629 706 
Q 2900 1003 2900 1516 
L 2900 3500 
L 3475 3500 
L 3475 0 
L 2900 0 
L 2900 538 
Q 2691 219 2414 64 
Q 2138 -91 1772 -91 
Q 1169 -91 856 284 
Q 544 659 544 1381 
z
M 1991 3584 
L 1991 3584 
z
" transform="scale(0.015625)"/>
       <path id="DejaVuSans-63" d="M 3122 3366 
L 3122 2828 
Q 2878 2963 2633 3030 
Q 2388 3097 2138 3097 
Q 1578 3097 1268 2742 
Q 959 2388 959 1747 
Q 959 1106 1268 751 
Q 1578 397 2138 397 
Q 2388 397 2633 464 
Q 2878 531 3122 666 
L 3122 134 
Q 2881 22 2623 -34 
Q 2366 -91 2075 -91 
Q 1284 -91 818 406 
Q 353 903 353 1747 
Q 353 2603 823 3093 
Q 1294 3584 2113 3584 
Q 2378 3584 2631 3529 
Q 2884 3475 3122 3366 
z
" transform="scale(0.015625)"/>
       <path id="DejaVuSans-79" d="M 2059 -325 
Q 1816 -950 1584 -1140 
Q 1353 -1331 966 -1331 
L 506 -1331 
L 506 -850 
L 844 -850 
Q 1081 -850 1212 -737 
Q 1344 -625 1503 -206 
L 1606 56 
L 191 3500 
L 800 3500 
L 1894 763 
L 2988 3500 
L 3597 3500 
L 2059 -325 
z
" transform="scale(0.015625)"/>
       <path id="DejaVuSans-76" d="M 191 3500 
L 800 3500 
L 1894 563 
L 2988 3500 
L 3597 3500 
L 2284 0 
L 1503 0 
L 191 3500 
z
" transform="scale(0.015625)"/>
      </defs>
      <use xlink:href="#DejaVuSans-46"/>
      <use xlink:href="#DejaVuSans-72" transform="translate(50.269531 0)"/>
      <use xlink:href="#DejaVuSans-65" transform="translate(89.132812 0)"/>
      <use xlink:href="#DejaVuSans-71" transform="translate(150.65625 0)"/>
      <use xlink:href="#DejaVuSans-75" transform="translate(214.132812 0)"/>
      <use xlink:href="#DejaVuSans-65" transform="translate(277.511719 0)"/>
      <use xlink:href="#DejaVuSans-6e" transform="translate(339.035156 0)"/>
      <use xlink:href="#DejaVuSans-63" transform="translate(402.414062 0)"/>
      <use xlink:href="#DejaVuSans-79" transform="translate(457.394531 0)"/>
      <use xlink:href="#DejaVuSans-20" transform="translate(516.574219 0)"/>
      <use xlink:href="#DejaVuSans-63" transform="translate(548.361328 0)"/>
      <use xlink:href="#DejaVuSans-75" transform="translate(603.341797 0)"/>
      <use xlink:href="#DejaVuSans-72" transform="translate(666.720703 0)"/>
      <use xlink:href="#DejaVuSans-76" transform="translate(707.833984 0)"/>
      <use xlink:href="#DejaVuSans-65" transform="translate(767.013672 0)"/>
     </g>
    </g>
    <g id="patch_73">
     <path d="M 42.222188 48.903203 
L 59.222188 48.903203 
L 59.222188 42.953203 
L 42.222188 42.953203 
z
" style="fill: #ffffff; opacity: 0.65; stroke: #4c4c4c; stroke-width: 0.6; stroke-linejoin: miter"/>
    </g>
    <g id="text_19">
     <!-- Histogram -->
     <g transform="translate(66.022188 48.903203) scale(0.085 -0.085)">
      <defs>
       <path id="DejaVuSans-48" d="M 628 4666 
L 1259 4666 
L 1259 2753 
L 3553 2753 
L 3553 4666 
L 4184 4666 
L 4184 0 
L 3553 0 
L 3553 2222 
L 1259 2222 
L 1259 0 
L 628 0 
L 628 4666 
z
" transform="scale(0.015625)"/>
       <path id="DejaVuSans-6f" d="M 1959 3097 
Q 1497 3097 1228 2736 
Q 959 2375 959 1747 
Q 959 1119 1226 758 
Q 1494 397 1959 397 
Q 2419 397 2687 759 
Q 2956 1122 2956 1747 
Q 2956 2369 2687 2733 
Q 2419 3097 1959 3097 
z
M 1959 3584 
Q 2709 3584 3137 3096 
Q 3566 2609 3566 1747 
Q 3566 888 3137 398 
Q 2709 -91 1959 -91 
Q 1206 -91 779 398 
Q 353 888 353 1747 
Q 353 2609 779 3096 
Q 1206 3584 1959 3584 
z
" transform="scale(0.015625)"/>
       <path id="DejaVuSans-6d" d="M 3328 2828 
Q 3544 3216 3844 3400 
Q 4144 3584 4550 3584 
Q 5097 3584 5394 3201 
Q 5691 2819 5691 2113 
L 5691 0 
L 5113 0 
L 5113 2094 
Q 5113 2597 4934 2840 
Q 4756 3084 4391 3084 
Q 3944 3084 3684 2787 
Q 3425 2491 3425 1978 
L 3425 0 
L 2847 0 
L 2847 2094 
Q 2847 2600 2669 2842 
Q 2491 3084 2119 3084 
Q 1678 3084 1418 2786 
Q 1159 2488 1159 1978 
L 1159 0 
L 581 0 
L 581 3500 
L 1159 3500 
L 1159 2956 
Q 1356 3278 1631 3431 
Q 1906 3584 2284 3584 
Q 2666 3584 2933 3390 
Q 3200 3197 3328 2828 
z
" transform="scale(0.015625)"/>
      </defs>
      <use xlink:href="#DejaVuSans-48"/>
      <use xlink:href="#DejaVuSans-69" transform="translate(75.195312 0)"/>
      <use xlink:href="#DejaVuSans-73" transform="translate(102.978516 0)"/>
      <use xlink:href="#DejaVuSans-74" transform="translate(155.078125 0)"/>
      <use xlink:href="#DejaVuSans-6f" transform="translate(194.287109 0)"/>
      <use xlink:href="#DejaVuSans-67" transform="translate(255.46875 0)"/>
      <use xlink:href="#DejaVuSans-72" transform="translate(318.945312 0)"/>
      <use xlink:href="#DejaVuSans-61" transform="translate(360.058594 0)"/>
      <use xlink:href="#DejaVuSans-6d" transform="translate(421.337891 0)"/>
     </g>
    </g>
   </g>
   <g id="line2d_34">
    <defs>
     <path id="m9f282190c1" d="M -0 5 
L 5 -5 
L -5 -5 
z
" style="stroke: #000000; stroke-linejoin: miter"/>
    </defs>
    <g clip-path="url(#pef57de973e)">
     <use xlink:href="#m9f282190c1" x="399.455092" y="96.719032" style="fill: #ff0000; stroke: #000000; stroke-linejoin: miter"/>
    </g>
   </g>
   <g id="text_20">
    <g id="patch_74">
     <path d="M 383.091967 88.382782 
L 415.818217 88.382782 
Q 417.818217 88.382782 417.818217 86.382782 
L 417.818217 69.682032 
Q 417.818217 67.682032 415.818217 67.682032 
L 383.091967 67.682032 
Q 381.091967 67.682032 381.091967 69.682032 
L 381.091967 86.382782 
Q 381.091967 88.382782 383.091967 88.382782 
z
" style="fill: #ffffff; stroke: #808080; stroke-linejoin: miter"/>
    </g>
    <!-- Mode 1 -->
    <g transform="translate(384.739467 75.760782) scale(0.08 -0.08)">
     <defs>
      <path id="DejaVuSans-4d" d="M 628 4666 
L 1569 4666 
L 2759 1491 
L 3956 4666 
L 4897 4666 
L 4897 0 
L 4281 0 
L 4281 4097 
L 3078 897 
L 2444 897 
L 1241 4097 
L 1241 0 
L 628 0 
L 628 4666 
z
" transform="scale(0.015625)"/>
      <path id="DejaVuSans-64" d="M 2906 2969 
L 2906 4863 
L 3481 4863 
L 3481 0 
L 2906 0 
L 2906 525 
Q 2725 213 2448 61 
Q 2172 -91 1784 -91 
Q 1150 -91 751 415 
Q 353 922 353 1747 
Q 353 2572 751 3078 
Q 1150 3584 1784 3584 
Q 2172 3584 2448 3432 
Q 2725 3281 2906 2969 
z
M 947 1747 
Q 947 1113 1208 752 
Q 1469 391 1925 391 
Q 2381 391 2643 752 
Q 2906 1113 2906 1747 
Q 2906 2381 2643 2742 
Q 2381 3103 1925 3103 
Q 1469 3103 1208 2742 
Q 947 2381 947 1747 
z
" transform="scale(0.015625)"/>
     </defs>
     <use xlink:href="#DejaVuSans-4d"/>
     <use xlink:href="#DejaVuSans-6f" transform="translate(86.279297 0)"/>
     <use xlink:href="#DejaVuSans-64" transform="translate(147.460938 0)"/>
     <use xlink:href="#DejaVuSans-65" transform="translate(210.9375 0)"/>
     <use xlink:href="#DejaVuSans-20" transform="translate(272.460938 0)"/>
     <use xlink:href="#DejaVuSans-31" transform="translate(304.248047 0)"/>
    </g>
    <!-- 4.24 phi -->
    <g transform="translate(383.091967 84.719032) scale(0.08 -0.08)">
     <defs>
      <path id="DejaVuSans-2e" d="M 684 794 
L 1344 794 
L 1344 0 
L 684 0 
L 684 794 
z
" transform="scale(0.015625)"/>
     </defs>
     <use xlink:href="#DejaVuSans-34"/>
     <use xlink:href="#DejaVuSans-2e" transform="translate(63.623047 0)"/>
     <use xlink:href="#DejaVuSans-32" transform="translate(95.410156 0)"/>
     <use xlink:href="#DejaVuSans-34" transform="translate(159.033203 0)"/>
     <use xlink:href="#DejaVuSans-20" transform="translate(222.65625 0)"/>
     <use xlink:href="#DejaVuSans-70" transform="translate(254.443359 0)"/>
     <use xlink:href="#DejaVuSans-68" transform="translate(317.919922 0)"/>
     <use xlink:href="#DejaVuSans-69" transform="translate(381.298828 0)"/>
    </g>
   </g>
  </g>
 </g>
 <defs>
  <clipPath id="pef57de973e">
   <rect x="34.572188" y="22.318125" width="669.890909" height="320.090909"/>
  </clipPath>
 </defs>
</svg>
