<?xml version="1.0" encoding="utf-8" standalone="no"?>
<!DOCTYPE svg PUBLIC "-//W3C//DTD SVG 1.1//EN"
  "http://www.w3.org/Graphics/SVG/1.1/DTD/svg11.dtd">
<svg xmlns:xlink="http://www.w3.org/1999/xlink" width="711.663097pt" height="379.965284pt" viewBox="0 0 711.663097 379.965284" xmlns="http://www.w3.org/2000/svg" version="1.1">
 <metadata>
  <rdf:RDF xmlns:dc="http://purl.org/dc/elements/1.1/" xmlns:cc="http://creativecommons.org/ns#" xmlns:rdf="http://www.w3.org/1999/02/22-rdf-syntax-ns#">
   <cc:Work>
    <dc:type rdf:resource="http://purl.org/dc/dcmitype/StillImage"/>
    <dc:date>2026-07-01T03:10:30.528647</dc:date>
    <dc:format>image/svg+xml</dc:format>
    <dc:creator>
     <cc:Agent>
      <dc:title>Matplotlib v3.10.8, https://matplotlib.org/</dc:title>
     </cc:Agent>
    </dc:creator>
   </cc:Work>
  </rdf:RDF>
 </metadata>
 <defs>
  <style type="text/css">*{stroke-linejoin: round; stroke-linecap: butt}</style>
 </defs>
 <g id="figure_1">
  <g id="patch_1">
   <path d="M 0 379.965284 
L 711.663097 379.965284 
L 711.663097 0 
L 0 0 
z
" style="fill: #ffffff"/>
  </g>
  <g id="axes_1">
   <g id="patch_2">
    <path d="M 34.572188 342.409034 
L 704.463097 342.409034 
L 704.463097 22.318125 
L 34.572188 22.318125 
z
" style="fill: #ffffff"/>
   </g>
   <g id="patch_3">
    <path d="M 34.572188 342.409034 
L 187.920709 342.409034 
L 187.920709 22.318125 
L 34.572188 22.318125 
z
" clip-path="url(#p8dad1a203d)" style="fill: #c49464; opacity: 0.3; stroke: #c49464; stroke-linejoin: miter"/>
   </g>
   <g id="patch_4">
    <path d="M 187.920709 342.409034 
L 389.695079 342.409034 
L 389.695079 22.318125 
L 187.920709 22.318125 
z
" clip-path="url(#p8dad1a203d)" style="fill: #f4c95d; opacity: 0.3; stroke: #f4c95d; stroke-linejoin: miter"/>
   </g>
   <g id="patch_5">
    <path d="M 389.695079 342.409034 
L 551.114575 342.409034 
L 551.114575 22.318125 
L 389.695079 22.318125 
z
" clip-path="url(#p8dad1a203d)" style="fill: #94bd7a; opacity: 0.3; stroke: #94bd7a; stroke-linejoin: miter"/>
   </g>
   <g id="patch_6">
    <path d="M 551.114575 342.409034 
L 704.463097 342.409034 
L 704.463097 22.318125 
L 551.114575 22.318125 
z
" clip-path="url(#p8dad1a203d)" style="fill: #6fa8dc; opacity: 0.3; stroke: #6fa8dc; stroke-linejoin: miter"/>
   </g>
   <g id="line2d_1">
    <path d="M 187.920709 342.409034 
L 187.920709 22.318125 
" clip-path="url(#p8dad1a203d)" style="fill: none; stroke-dasharray: 0.8,1.32; stroke-dashoffset: 0; stroke: #666666; stroke-width: 0.8"/>
   </g>
   <g id="line2d_2">
    <path d="M 389.695079 342.409034 
L 389.695079 22.318125 
" clip-path="url(#p8dad1a203d)" style="fill: none; stroke-dasharray: 0.8,1.32; stroke-dashoffset: 0; stroke: #666666; stroke-width: 0.8"/>
   </g>
   <g id="line2d_3">
    <path d="M 551.114575 342.409034 
L 551.114575 22.318125 
" clip-path="url(#p8dad1a203d)" style="fill: none; stroke-dasharray: 0.8,1.32; stroke-dashoffset: 0; stroke: #666666; stroke-width: 0.8"/>
   </g>
   <g id="matplotlib.axis_1">
    <g id="xtick_1">
     <g id="line2d_4">
      <path d="M 66.856087 342.409034 
L 66.856087 22.318125 
" clip-path="url(#p8dad1a203d)" style="fill: none; stroke-dasharray: 0.4,0.66; stroke-dashoffset: 0; stroke: #b0b0b0; stroke-opacity: 0.5; stroke-width: 0.4"/>
     </g>
     <g id="line2d_5">
      <defs>
       <path id="mc1c3d6806d" d="M 0 0 
L 0 3.5 
" style="stroke: #000000; stroke-width: 0.8"/>
      </defs>
      <g>
       <use xlink:href="#mc1c3d6806d" x="66.856087" y="342.409034" style="stroke: #000000; stroke-width: 0.8"/>
      </g>
     </g>
     <g id="text_1">
      <!-- −4 -->
      <g transform="translate(60.222102 356.247628) scale(0.09 -0.09)">
       <defs>
        <path id="DejaVuSans-2212" d="M 678 2272 
L 4684 2272 
L 4684 1741 
L 678 1741 
L 678 2272 
z
" transform="scale(0.015625)"/>
        <path id="DejaVuSans-34" d="M 2419 4116 
L 825 1625 
L 2419 1625 
L 2419 4116 
z
M 2253 4666 
L 3047 4666 
L 3047 1625 
L 3713 1625 
L 3713 1100 
L 3047 1100 
L 3047 0 
L 2419 0 
L 2419 1100 
L 313 1100 
L 313 1709 
L 2253 4666 
z
" transform="scale(0.015625)"/>
       </defs>
       <use xlink:href="#DejaVuSans-2212"/>
       <use xlink:href="#DejaVuSans-34" transform="translate(83.789062 0)"/>
      </g>
     </g>
    </g>
    <g id="xtick_2">
     <g id="line2d_6">
      <path d="M 147.565835 342.409034 
L 147.565835 22.318125 
" clip-path="url(#p8dad1a203d)" style="fill: none; stroke-dasharray: 0.4,0.66; stroke-dashoffset: 0; stroke: #b0b0b0; stroke-opacity: 0.5; stroke-width: 0.4"/>
     </g>
     <g id="line2d_7">
      <g>
       <use xlink:href="#mc1c3d6806d" x="147.565835" y="342.409034" style="stroke: #000000; stroke-width: 0.8"/>
      </g>
     </g>
     <g id="text_2">
      <!-- −2 -->
      <g transform="translate(140.93185 356.247628) scale(0.09 -0.09)">
       <defs>
        <path id="DejaVuSans-32" d="M 1228 531 
L 3431 531 
L 3431 0 
L 469 0 
L 469 531 
Q 828 903 1448 1529 
Q 2069 2156 2228 2338 
Q 2531 2678 2651 2914 
Q 2772 3150 2772 3378 
Q 2772 3750 2511 3984 
Q 2250 4219 1831 4219 
Q 1534 4219 1204 4116 
Q 875 4013 500 3803 
L 500 4441 
Q 881 4594 1212 4672 
Q 1544 4750 1819 4750 
Q 2544 4750 2975 4387 
Q 3406 4025 3406 3419 
Q 3406 3131 3298 2873 
Q 3191 2616 2906 2266 
Q 2828 2175 2409 1742 
Q 1991 1309 1228 531 
z
" transform="scale(0.015625)"/>
       </defs>
       <use xlink:href="#DejaVuSans-2212"/>
       <use xlink:href="#DejaVuSans-32" transform="translate(83.789062 0)"/>
      </g>
     </g>
    </g>
    <g id="xtick_3">
     <g id="line2d_8">
      <path d="M 228.275583 342.409034 
L 228.275583 22.318125 
" clip-path="url(#p8dad1a203d)" style="fill: none; stroke-dasharray: 0.4,0.66; stroke-dashoffset: 0; stroke: #b0b0b0; stroke-opacity: 0.5; stroke-width: 0.4"/>
     </g>
     <g id="line2d_9">
      <g>
       <use xlink:href="#mc1c3d6806d" x="228.275583" y="342.409034" style="stroke: #000000; stroke-width: 0.8"/>
      </g>
     </g>
     <g id="text_3">
      <!-- 0 -->
      <g transform="translate(225.412458 356.247628) scale(0.09 -0.09)">
       <defs>
        <path id="DejaVuSans-30" d="M 2034 4250 
Q 1547 4250 1301 3770 
Q 1056 3291 1056 2328 
Q 1056 1369 1301 889 
Q 1547 409 2034 409 
Q 2525 409 2770 889 
Q 3016 1369 3016 2328 
Q 3016 3291 2770 3770 
Q 2525 4250 2034 4250 
z
M 2034 4750 
Q 2819 4750 3233 4129 
Q 3647 3509 3647 2328 
Q 3647 1150 3233 529 
Q 2819 -91 2034 -91 
Q 1250 -91 836 529 
Q 422 1150 422 2328 
Q 422 3509 836 4129 
Q 1250 4750 2034 4750 
z
" transform="scale(0.015625)"/>
       </defs>
       <use xlink:href="#DejaVuSans-30"/>
      </g>
     </g>
    </g>
    <g id="xtick_4">
     <g id="line2d_10">
      <path d="M 308.985331 342.409034 
L 308.985331 22.318125 
" clip-path="url(#p8dad1a203d)" style="fill: none; stroke-dasharray: 0.4,0.66; stroke-dashoffset: 0; stroke: #b0b0b0; stroke-opacity: 0.5; stroke-width: 0.4"/>
     </g>
     <g id="line2d_11">
      <g>
       <use xlink:href="#mc1c3d6806d" x="308.985331" y="342.409034" style="stroke: #000000; stroke-width: 0.8"/>
      </g>
     </g>
     <g id="text_4">
      <!-- 2 -->
      <g transform="translate(306.122206 356.247628) scale(0.09 -0.09)">
       <use xlink:href="#DejaVuSans-32"/>
      </g>
     </g>
    </g>
    <g id="xtick_5">
     <g id="line2d_12">
      <path d="M 389.695079 342.409034 
L 389.695079 22.318125 
" clip-path="url(#p8dad1a203d)" style="fill: none; stroke-dasharray: 0.4,0.66; stroke-dashoffset: 0; stroke: #b0b0b0; stroke-opacity: 0.5; stroke-width: 0.4"/>
     </g>
     <g id="line2d_13">
      <g>
       <use xlink:href="#mc1c3d6806d" x="389.695079" y="342.409034" style="stroke: #000000; stroke-width: 0.8"/>
      </g>
     </g>
     <g id="text_5">
      <!-- 4 -->
      <g transform="translate(386.831954 356.247628) scale(0.09 -0.09)">
       <use xlink:href="#DejaVuSans-34"/>
      </g>
     </g>
    </g>
    <g id="xtick_6">
     <g id="line2d_14">
      <path d="M 470.404827 342.409034 
L 470.404827 22.318125 
" clip-path="url(#p8dad1a203d)" style="fill: none; stroke-dasharray: 0.4,0.66; stroke-dashoffset: 0; stroke: #b0b0b0; stroke-opacity: 0.5; stroke-width: 0.4"/>
     </g>
     <g id="line2d_15">
      <g>
       <use xlink:href="#mc1c3d6806d" x="470.404827" y="342.409034" style="stroke: #000000; stroke-width: 0.8"/>
      </g>
     </g>
     <g id="text_6">
      <!-- 6 -->
      <g transform="translate(467.541702 356.247628) scale(0.09 -0.09)">
       <defs>
        <path id="DejaVuSans-36" d="M 2113 2584 
Q 1688 2584 1439 2293 
Q 1191 2003 1191 1497 
Q 1191 994 1439 701 
Q 1688 409 2113 409 
Q 2538 409 2786 701 
Q 3034 994 3034 1497 
Q 3034 2003 2786 2293 
Q 2538 2584 2113 2584 
z
M 3366 4563 
L 3366 3988 
Q 3128 4100 2886 4159 
Q 2644 4219 2406 4219 
Q 1781 4219 1451 3797 
Q 1122 3375 1075 2522 
Q 1259 2794 1537 2939 
Q 1816 3084 2150 3084 
Q 2853 3084 3261 2657 
Q 3669 2231 3669 1497 
Q 3669 778 3244 343 
Q 2819 -91 2113 -91 
Q 1303 -91 875 529 
Q 447 1150 447 2328 
Q 447 3434 972 4092 
Q 1497 4750 2381 4750 
Q 2619 4750 2861 4703 
Q 3103 4656 3366 4563 
z
" transform="scale(0.015625)"/>
       </defs>
       <use xlink:href="#DejaVuSans-36"/>
      </g>
     </g>
    </g>
    <g id="xtick_7">
     <g id="line2d_16">
      <path d="M 551.114575 342.409034 
L 551.114575 22.318125 
" clip-path="url(#p8dad1a203d)" style="fill: none; stroke-dasharray: 0.4,0.66; stroke-dashoffset: 0; stroke: #b0b0b0; stroke-opacity: 0.5; stroke-width: 0.4"/>
     </g>
     <g id="line2d_17">
      <g>
       <use xlink:href="#mc1c3d6806d" x="551.114575" y="342.409034" style="stroke: #000000; stroke-width: 0.8"/>
      </g>
     </g>
     <g id="text_7">
      <!-- 8 -->
      <g transform="translate(548.25145 356.247628) scale(0.09 -0.09)">
       <defs>
        <path id="DejaVuSans-38" d="M 2034 2216 
Q 1584 2216 1326 1975 
Q 1069 1734 1069 1313 
Q 1069 891 1326 650 
Q 1584 409 2034 409 
Q 2484 409 2743 651 
Q 3003 894 3003 1313 
Q 3003 1734 2745 1975 
Q 2488 2216 2034 2216 
z
M 1403 2484 
Q 997 2584 770 2862 
Q 544 3141 544 3541 
Q 544 4100 942 4425 
Q 1341 4750 2034 4750 
Q 2731 4750 3128 4425 
Q 3525 4100 3525 3541 
Q 3525 3141 3298 2862 
Q 3072 2584 2669 2484 
Q 3125 2378 3379 2068 
Q 3634 1759 3634 1313 
Q 3634 634 3220 271 
Q 2806 -91 2034 -91 
Q 1263 -91 848 271 
Q 434 634 434 1313 
Q 434 1759 690 2068 
Q 947 2378 1403 2484 
z
M 1172 3481 
Q 1172 3119 1398 2916 
Q 1625 2713 2034 2713 
Q 2441 2713 2670 2916 
Q 2900 3119 2900 3481 
Q 2900 3844 2670 4047 
Q 2441 4250 2034 4250 
Q 1625 4250 1398 4047 
Q 1172 3844 1172 3481 
z
" transform="scale(0.015625)"/>
       </defs>
       <use xlink:href="#DejaVuSans-38"/>
      </g>
     </g>
    </g>
    <g id="xtick_8">
     <g id="line2d_18">
      <path d="M 631.824323 342.409034 
L 631.824323 22.318125 
" clip-path="url(#p8dad1a203d)" style="fill: none; stroke-dasharray: 0.4,0.66; stroke-dashoffset: 0; stroke: #b0b0b0; stroke-opacity: 0.5; stroke-width: 0.4"/>
     </g>
     <g id="line2d_19">
      <g>
       <use xlink:href="#mc1c3d6806d" x="631.824323" y="342.409034" style="stroke: #000000; stroke-width: 0.8"/>
      </g>
     </g>
     <g id="text_8">
      <!-- 10 -->
      <g transform="translate(626.098073 356.247628) scale(0.09 -0.09)">
       <defs>
        <path id="DejaVuSans-31" d="M 794 531 
L 1825 531 
L 1825 4091 
L 703 3866 
L 703 4441 
L 1819 4666 
L 2450 4666 
L 2450 531 
L 3481 531 
L 3481 0 
L 794 0 
L 794 531 
z
" transform="scale(0.015625)"/>
       </defs>
       <use xlink:href="#DejaVuSans-31"/>
       <use xlink:href="#DejaVuSans-30" transform="translate(63.623047 0)"/>
      </g>
     </g>
    </g>
    <g id="text_9">
     <!-- Grain size (phi) -->
     <g transform="translate(327.654048 370.477628) scale(0.11 -0.11)">
      <defs>
       <path id="DejaVuSans-47" d="M 3809 666 
L 3809 1919 
L 2778 1919 
L 2778 2438 
L 4434 2438 
L 4434 434 
Q 4069 175 3628 42 
Q 3188 -91 2688 -91 
Q 1594 -91 976 548 
Q 359 1188 359 2328 
Q 359 3472 976 4111 
Q 1594 4750 2688 4750 
Q 3144 4750 3555 4637 
Q 3966 4525 4313 4306 
L 4313 3634 
Q 3963 3931 3569 4081 
Q 3175 4231 2741 4231 
Q 1884 4231 1454 3753 
Q 1025 3275 1025 2328 
Q 1025 1384 1454 906 
Q 1884 428 2741 428 
Q 3075 428 3337 486 
Q 3600 544 3809 666 
z
" transform="scale(0.015625)"/>
       <path id="DejaVuSans-72" d="M 2631 2963 
Q 2534 3019 2420 3045 
Q 2306 3072 2169 3072 
Q 1681 3072 1420 2755 
Q 1159 2438 1159 1844 
L 1159 0 
L 581 0 
L 581 3500 
L 1159 3500 
L 1159 2956 
Q 1341 3275 1631 3429 
Q 1922 3584 2338 3584 
Q 2397 3584 2469 3576 
Q 2541 3569 2628 3553 
L 2631 2963 
z
" transform="scale(0.015625)"/>
       <path id="DejaVuSans-61" d="M 2194 1759 
Q 1497 1759 1228 1600 
Q 959 1441 959 1056 
Q 959 750 1161 570 
Q 1363 391 1709 391 
Q 2188 391 2477 730 
Q 2766 1069 2766 1631 
L 2766 1759 
L 2194 1759 
z
M 3341 1997 
L 3341 0 
L 2766 0 
L 2766 531 
Q 2569 213 2275 61 
Q 1981 -91 1556 -91 
Q 1019 -91 701 211 
Q 384 513 384 1019 
Q 384 1609 779 1909 
Q 1175 2209 1959 2209 
L 2766 2209 
L 2766 2266 
Q 2766 2663 2505 2880 
Q 2244 3097 1772 3097 
Q 1472 3097 1187 3025 
Q 903 2953 641 2809 
L 641 3341 
Q 956 3463 1253 3523 
Q 1550 3584 1831 3584 
Q 2591 3584 2966 3190 
Q 3341 2797 3341 1997 
z
" transform="scale(0.015625)"/>
       <path id="DejaVuSans-69" d="M 603 3500 
L 1178 3500 
L 1178 0 
L 603 0 
L 603 3500 
z
M 603 4863 
L 1178 4863 
L 1178 4134 
L 603 4134 
L 603 4863 
z
" transform="scale(0.015625)"/>
       <path id="DejaVuSans-6e" d="M 3513 2113 
L 3513 0 
L 2938 0 
L 2938 2094 
Q 2938 2591 2744 2837 
Q 2550 3084 2163 3084 
Q 1697 3084 1428 2787 
Q 1159 2491 1159 1978 
L 1159 0 
L 581 0 
L 581 3500 
L 1159 3500 
L 1159 2956 
Q 1366 3272 1645 3428 
Q 1925 3584 2291 3584 
Q 2894 3584 3203 3211 
Q 3513 2838 3513 2113 
z
" transform="scale(0.015625)"/>
       <path id="DejaVuSans-20" transform="scale(0.015625)"/>
       <path id="DejaVuSans-73" d="M 2834 3397 
L 2834 2853 
Q 2591 2978 2328 3040 
Q 2066 3103 1784 3103 
Q 1356 3103 1142 2972 
Q 928 2841 928 2578 
Q 928 2378 1081 2264 
Q 1234 2150 1697 2047 
L 1894 2003 
Q 2506 1872 2764 1633 
Q 3022 1394 3022 966 
Q 3022 478 2636 193 
Q 2250 -91 1575 -91 
Q 1294 -91 989 -36 
Q 684 19 347 128 
L 347 722 
Q 666 556 975 473 
Q 1284 391 1588 391 
Q 1994 391 2212 530 
Q 2431 669 2431 922 
Q 2431 1156 2273 1281 
Q 2116 1406 1581 1522 
L 1381 1569 
Q 847 1681 609 1914 
Q 372 2147 372 2553 
Q 372 3047 722 3315 
Q 1072 3584 1716 3584 
Q 2034 3584 2315 3537 
Q 2597 3491 2834 3397 
z
" transform="scale(0.015625)"/>
       <path id="DejaVuSans-7a" d="M 353 3500 
L 3084 3500 
L 3084 2975 
L 922 459 
L 3084 459 
L 3084 0 
L 275 0 
L 275 525 
L 2438 3041 
L 353 3041 
L 353 3500 
z
" transform="scale(0.015625)"/>
       <path id="DejaVuSans-65" d="M 3597 1894 
L 3597 1613 
L 953 1613 
Q 991 1019 1311 708 
Q 1631 397 2203 397 
Q 2534 397 2845 478 
Q 3156 559 3463 722 
L 3463 178 
Q 3153 47 2828 -22 
Q 2503 -91 2169 -91 
Q 1331 -91 842 396 
Q 353 884 353 1716 
Q 353 2575 817 3079 
Q 1281 3584 2069 3584 
Q 2775 3584 3186 3129 
Q 3597 2675 3597 1894 
z
M 3022 2063 
Q 3016 2534 2758 2815 
Q 2500 3097 2075 3097 
Q 1594 3097 1305 2825 
Q 1016 2553 972 2059 
L 3022 2063 
z
" transform="scale(0.015625)"/>
       <path id="DejaVuSans-28" d="M 1984 4856 
Q 1566 4138 1362 3434 
Q 1159 2731 1159 2009 
Q 1159 1288 1364 580 
Q 1569 -128 1984 -844 
L 1484 -844 
Q 1016 -109 783 600 
Q 550 1309 550 2009 
Q 550 2706 781 3412 
Q 1013 4119 1484 4856 
L 1984 4856 
z
" transform="scale(0.015625)"/>
       <path id="DejaVuSans-70" d="M 1159 525 
L 1159 -1331 
L 581 -1331 
L 581 3500 
L 1159 3500 
L 1159 2969 
Q 1341 3281 1617 3432 
Q 1894 3584 2278 3584 
Q 2916 3584 3314 3078 
Q 3713 2572 3713 1747 
Q 3713 922 3314 415 
Q 2916 -91 2278 -91 
Q 1894 -91 1617 61 
Q 1341 213 1159 525 
z
M 3116 1747 
Q 3116 2381 2855 2742 
Q 2594 3103 2138 3103 
Q 1681 3103 1420 2742 
Q 1159 2381 1159 1747 
Q 1159 1113 1420 752 
Q 1681 391 2138 391 
Q 2594 391 2855 752 
Q 3116 1113 3116 1747 
z
" transform="scale(0.015625)"/>
       <path id="DejaVuSans-68" d="M 3513 2113 
L 3513 0 
L 2938 0 
L 2938 2094 
Q 2938 2591 2744 2837 
Q 2550 3084 2163 3084 
Q 1697 3084 1428 2787 
Q 1159 2491 1159 1978 
L 1159 0 
L 581 0 
L 581 4863 
L 1159 4863 
L 1159 2956 
Q 1366 3272 1645 3428 
Q 1925 3584 2291 3584 
Q 2894 3584 3203 3211 
Q 3513 2838 3513 2113 
z
" transform="scale(0.015625)"/>
       <path id="DejaVuSans-29" d="M 513 4856 
L 1013 4856 
Q 1481 4119 1714 3412 
Q 1947 2706 1947 2009 
Q 1947 1309 1714 600 
Q 1481 -109 1013 -844 
L 513 -844 
Q 928 -128 1133 580 
Q 1338 1288 1338 2009 
Q 1338 2731 1133 3434 
Q 928 4138 513 4856 
z
" transform="scale(0.015625)"/>
      </defs>
      <use xlink:href="#DejaVuSans-47"/>
      <use xlink:href="#DejaVuSans-72" transform="translate(77.490234 0)"/>
      <use xlink:href="#DejaVuSans-61" transform="translate(118.603516 0)"/>
      <use xlink:href="#DejaVuSans-69" transform="translate(179.882812 0)"/>
      <use xlink:href="#DejaVuSans-6e" transform="translate(207.666016 0)"/>
      <use xlink:href="#DejaVuSans-20" transform="translate(271.044922 0)"/>
      <use xlink:href="#DejaVuSans-73" transform="translate(302.832031 0)"/>
      <use xlink:href="#DejaVuSans-69" transform="translate(354.931641 0)"/>
      <use xlink:href="#DejaVuSans-7a" transform="translate(382.714844 0)"/>
      <use xlink:href="#DejaVuSans-65" transform="translate(435.205078 0)"/>
      <use xlink:href="#DejaVuSans-20" transform="translate(496.728516 0)"/>
      <use xlink:href="#DejaVuSans-28" transform="translate(528.515625 0)"/>
      <use xlink:href="#DejaVuSans-70" transform="translate(567.529297 0)"/>
      <use xlink:href="#DejaVuSans-68" transform="translate(631.005859 0)"/>
      <use xlink:href="#DejaVuSans-69" transform="translate(694.384766 0)"/>
      <use xlink:href="#DejaVuSans-29" transform="translate(722.167969 0)"/>
     </g>
    </g>
   </g>
   <g id="matplotlib.axis_2">
    <g id="ytick_1">
     <g id="line2d_20">
      <path d="M 34.572188 342.409034 
L 704.463097 342.409034 
" clip-path="url(#p8dad1a203d)" style="fill: none; stroke-dasharray: 0.4,0.66; stroke-dashoffset: 0; stroke: #b0b0b0; stroke-opacity: 0.5; stroke-width: 0.4"/>
     </g>
     <g id="line2d_21">
      <defs>
       <path id="m0c3b8cac51" d="M 0 0 
L -3.5 0 
" style="stroke: #000000; stroke-width: 0.8"/>
      </defs>
      <g>
       <use xlink:href="#m0c3b8cac51" x="34.572188" y="342.409034" style="stroke: #000000; stroke-width: 0.8"/>
      </g>
     </g>
     <g id="text_10">
      <!-- 0 -->
      <g transform="translate(21.845938 345.828331) scale(0.09 -0.09)">
       <use xlink:href="#DejaVuSans-30"/>
      </g>
     </g>
    </g>
    <g id="ytick_2">
     <g id="line2d_22">
      <path d="M 34.572188 282.794617 
L 704.463097 282.794617 
" clip-path="url(#p8dad1a203d)" style="fill: none; stroke-dasharray: 0.4,0.66; stroke-dashoffset: 0; stroke: #b0b0b0; stroke-opacity: 0.5; stroke-width: 0.4"/>
     </g>
     <g id="line2d_23">
      <g>
       <use xlink:href="#m0c3b8cac51" x="34.572188" y="282.794617" style="stroke: #000000; stroke-width: 0.8"/>
      </g>
     </g>
     <g id="text_11">
      <!-- 1 -->
      <g transform="translate(21.845938 286.213914) scale(0.09 -0.09)">
       <use xlink:href="#DejaVuSans-31"/>
      </g>
     </g>
    </g>
    <g id="ytick_3">
     <g id="line2d_24">
      <path d="M 34.572188 223.1802 
L 704.463097 223.1802 
" clip-path="url(#p8dad1a203d)" style="fill: none; stroke-dasharray: 0.4,0.66; stroke-dashoffset: 0; stroke: #b0b0b0; stroke-opacity: 0.5; stroke-width: 0.4"/>
     </g>
     <g id="line2d_25">
      <g>
       <use xlink:href="#m0c3b8cac51" x="34.572188" y="223.1802" style="stroke: #000000; stroke-width: 0.8"/>
      </g>
     </g>
     <g id="text_12">
      <!-- 2 -->
      <g transform="translate(21.845938 226.599497) scale(0.09 -0.09)">
       <use xlink:href="#DejaVuSans-32"/>
      </g>
     </g>
    </g>
    <g id="ytick_4">
     <g id="line2d_26">
      <path d="M 34.572188 163.565783 
L 704.463097 163.565783 
" clip-path="url(#p8dad1a203d)" style="fill: none; stroke-dasharray: 0.4,0.66; stroke-dashoffset: 0; stroke: #b0b0b0; stroke-opacity: 0.5; stroke-width: 0.4"/>
     </g>
     <g id="line2d_27">
      <g>
       <use xlink:href="#m0c3b8cac51" x="34.572188" y="163.565783" style="stroke: #000000; stroke-width: 0.8"/>
      </g>
     </g>
     <g id="text_13">
      <!-- 3 -->
      <g transform="translate(21.845938 166.98508) scale(0.09 -0.09)">
       <defs>
        <path id="DejaVuSans-33" d="M 2597 2516 
Q 3050 2419 3304 2112 
Q 3559 1806 3559 1356 
Q 3559 666 3084 287 
Q 2609 -91 1734 -91 
Q 1441 -91 1130 -33 
Q 819 25 488 141 
L 488 750 
Q 750 597 1062 519 
Q 1375 441 1716 441 
Q 2309 441 2620 675 
Q 2931 909 2931 1356 
Q 2931 1769 2642 2001 
Q 2353 2234 1838 2234 
L 1294 2234 
L 1294 2753 
L 1863 2753 
Q 2328 2753 2575 2939 
Q 2822 3125 2822 3475 
Q 2822 3834 2567 4026 
Q 2313 4219 1838 4219 
Q 1578 4219 1281 4162 
Q 984 4106 628 3988 
L 628 4550 
Q 988 4650 1302 4700 
Q 1616 4750 1894 4750 
Q 2613 4750 3031 4423 
Q 3450 4097 3450 3541 
Q 3450 3153 3228 2886 
Q 3006 2619 2597 2516 
z
" transform="scale(0.015625)"/>
       </defs>
       <use xlink:href="#DejaVuSans-33"/>
      </g>
     </g>
    </g>
    <g id="ytick_5">
     <g id="line2d_28">
      <path d="M 34.572188 103.951366 
L 704.463097 103.951366 
" clip-path="url(#p8dad1a203d)" style="fill: none; stroke-dasharray: 0.4,0.66; stroke-dashoffset: 0; stroke: #b0b0b0; stroke-opacity: 0.5; stroke-width: 0.4"/>
     </g>
     <g id="line2d_29">
      <g>
       <use xlink:href="#m0c3b8cac51" x="34.572188" y="103.951366" style="stroke: #000000; stroke-width: 0.8"/>
      </g>
     </g>
     <g id="text_14">
      <!-- 4 -->
      <g transform="translate(21.845938 107.370662) scale(0.09 -0.09)">
       <use xlink:href="#DejaVuSans-34"/>
      </g>
     </g>
    </g>
    <g id="ytick_6">
     <g id="line2d_30">
      <path d="M 34.572188 44.336948 
L 704.463097 44.336948 
" clip-path="url(#p8dad1a203d)" style="fill: none; stroke-dasharray: 0.4,0.66; stroke-dashoffset: 0; stroke: #b0b0b0; stroke-opacity: 0.5; stroke-width: 0.4"/>
     </g>
     <g id="line2d_31">
      <g>
       <use xlink:href="#m0c3b8cac51" x="34.572188" y="44.336948" style="stroke: #000000; stroke-width: 0.8"/>
      </g>
     </g>
     <g id="text_15">
      <!-- 5 -->
      <g transform="translate(21.845938 47.756245) scale(0.09 -0.09)">
       <defs>
        <path id="DejaVuSans-35" d="M 691 4666 
L 3169 4666 
L 3169 4134 
L 1269 4134 
L 1269 2991 
Q 1406 3038 1543 3061 
Q 1681 3084 1819 3084 
Q 2600 3084 3056 2656 
Q 3513 2228 3513 1497 
Q 3513 744 3044 326 
Q 2575 -91 1722 -91 
Q 1428 -91 1123 -41 
Q 819 9 494 109 
L 494 744 
Q 775 591 1075 516 
Q 1375 441 1709 441 
Q 2250 441 2565 725 
Q 2881 1009 2881 1497 
Q 2881 1984 2565 2268 
Q 2250 2553 1709 2553 
Q 1456 2553 1204 2497 
Q 953 2441 691 2322 
L 691 4666 
z
" transform="scale(0.015625)"/>
       </defs>
       <use xlink:href="#DejaVuSans-35"/>
      </g>
     </g>
    </g>
    <g id="text_16">
     <!-- Weight % -->
     <g transform="translate(15.558281 208.498033) rotate(-90) scale(0.11 -0.11)">
      <defs>
       <path id="DejaVuSans-57" d="M 213 4666 
L 850 4666 
L 1831 722 
L 2809 4666 
L 3519 4666 
L 4500 722 
L 5478 4666 
L 6119 4666 
L 4947 0 
L 4153 0 
L 3169 4050 
L 2175 0 
L 1381 0 
L 213 4666 
z
" transform="scale(0.015625)"/>
       <path id="DejaVuSans-67" d="M 2906 1791 
Q 2906 2416 2648 2759 
Q 2391 3103 1925 3103 
Q 1463 3103 1205 2759 
Q 947 2416 947 1791 
Q 947 1169 1205 825 
Q 1463 481 1925 481 
Q 2391 481 2648 825 
Q 2906 1169 2906 1791 
z
M 3481 434 
Q 3481 -459 3084 -895 
Q 2688 -1331 1869 -1331 
Q 1566 -1331 1297 -1286 
Q 1028 -1241 775 -1147 
L 775 -588 
Q 1028 -725 1275 -790 
Q 1522 -856 1778 -856 
Q 2344 -856 2625 -561 
Q 2906 -266 2906 331 
L 2906 616 
Q 2728 306 2450 153 
Q 2172 0 1784 0 
Q 1141 0 747 490 
Q 353 981 353 1791 
Q 353 2603 747 3093 
Q 1141 3584 1784 3584 
Q 2172 3584 2450 3431 
Q 2728 3278 2906 2969 
L 2906 3500 
L 3481 3500 
L 3481 434 
z
" transform="scale(0.015625)"/>
       <path id="DejaVuSans-74" d="M 1172 4494 
L 1172 3500 
L 2356 3500 
L 2356 3053 
L 1172 3053 
L 1172 1153 
Q 1172 725 1289 603 
Q 1406 481 1766 481 
L 2356 481 
L 2356 0 
L 1766 0 
Q 1100 0 847 248 
Q 594 497 594 1153 
L 594 3053 
L 172 3053 
L 172 3500 
L 594 3500 
L 594 4494 
L 1172 4494 
z
" transform="scale(0.015625)"/>
       <path id="DejaVuSans-25" d="M 4653 2053 
Q 4381 2053 4226 1822 
Q 4072 1591 4072 1178 
Q 4072 772 4226 539 
Q 4381 306 4653 306 
Q 4919 306 5073 539 
Q 5228 772 5228 1178 
Q 5228 1588 5073 1820 
Q 4919 2053 4653 2053 
z
M 4653 2450 
Q 5147 2450 5437 2106 
Q 5728 1763 5728 1178 
Q 5728 594 5436 251 
Q 5144 -91 4653 -91 
Q 4153 -91 3862 251 
Q 3572 594 3572 1178 
Q 3572 1766 3864 2108 
Q 4156 2450 4653 2450 
z
M 1428 4353 
Q 1159 4353 1004 4120 
Q 850 3888 850 3481 
Q 850 3069 1003 2837 
Q 1156 2606 1428 2606 
Q 1700 2606 1854 2837 
Q 2009 3069 2009 3481 
Q 2009 3884 1853 4118 
Q 1697 4353 1428 4353 
z
M 4250 4750 
L 4750 4750 
L 1831 -91 
L 1331 -91 
L 4250 4750 
z
M 1428 4750 
Q 1922 4750 2215 4408 
Q 2509 4066 2509 3481 
Q 2509 2891 2217 2550 
Q 1925 2209 1428 2209 
Q 931 2209 642 2551 
Q 353 2894 353 3481 
Q 353 4063 643 4406 
Q 934 4750 1428 4750 
z
" transform="scale(0.015625)"/>
      </defs>
      <use xlink:href="#DejaVuSans-57"/>
      <use xlink:href="#DejaVuSans-65" transform="translate(93.001953 0)"/>
      <use xlink:href="#DejaVuSans-69" transform="translate(154.525391 0)"/>
      <use xlink:href="#DejaVuSans-67" transform="translate(182.308594 0)"/>
      <use xlink:href="#DejaVuSans-68" transform="translate(245.785156 0)"/>
      <use xlink:href="#DejaVuSans-74" transform="translate(309.164062 0)"/>
      <use xlink:href="#DejaVuSans-20" transform="translate(348.373047 0)"/>
      <use xlink:href="#DejaVuSans-25" transform="translate(380.160156 0)"/>
     </g>
    </g>
   </g>
   <g id="patch_7">
    <path d="M 62.568381 342.409034 
L 71.143792 342.409034 
L 71.143792 342.403073 
L 62.568381 342.403073 
z
" clip-path="url(#p8dad1a203d)" style="fill: #ffffff; opacity: 0.65; stroke: #4c4c4c; stroke-width: 0.6; stroke-linejoin: miter"/>
   </g>
   <g id="patch_8">
    <path d="M 72.6571 342.409034 
L 81.232511 342.409034 
L 81.232511 342.397111 
L 72.6571 342.397111 
z
" clip-path="url(#p8dad1a203d)" style="fill: #ffffff; opacity: 0.65; stroke: #4c4c4c; stroke-width: 0.6; stroke-linejoin: miter"/>
   </g>
   <g id="patch_9">
    <path d="M 82.745818 342.409034 
L 91.321229 342.409034 
L 91.321229 342.39115 
L 82.745818 342.39115 
z
" clip-path="url(#p8dad1a203d)" style="fill: #ffffff; opacity: 0.65; stroke: #4c4c4c; stroke-width: 0.6; stroke-linejoin: miter"/>
   </g>
   <g id="patch_10">
    <path d="M 92.834537 342.409034 
L 101.409948 342.409034 
L 101.409948 342.367304 
L 92.834537 342.367304 
z
" clip-path="url(#p8dad1a203d)" style="fill: #ffffff; opacity: 0.65; stroke: #4c4c4c; stroke-width: 0.6; stroke-linejoin: miter"/>
   </g>
   <g id="patch_11">
    <path d="M 102.923255 342.409034 
L 111.498666 342.409034 
L 111.498666 342.337497 
L 102.923255 342.337497 
z
" clip-path="url(#p8dad1a203d)" style="fill: #ffffff; opacity: 0.65; stroke: #4c4c4c; stroke-width: 0.6; stroke-linejoin: miter"/>
   </g>
   <g id="patch_12">
    <path d="M 113.011974 342.409034 
L 121.587385 342.409034 
L 121.587385 342.277882 
L 113.011974 342.277882 
z
" clip-path="url(#p8dad1a203d)" style="fill: #ffffff; opacity: 0.65; stroke: #4c4c4c; stroke-width: 0.6; stroke-linejoin: miter"/>
   </g>
   <g id="patch_13">
    <path d="M 123.100692 342.409034 
L 131.676103 342.409034 
L 131.676103 342.164615 
L 123.100692 342.164615 
z
" clip-path="url(#p8dad1a203d)" style="fill: #ffffff; opacity: 0.65; stroke: #4c4c4c; stroke-width: 0.6; stroke-linejoin: miter"/>
   </g>
   <g id="patch_14">
    <path d="M 133.189411 342.409034 
L 141.764822 342.409034 
L 141.764822 342.009617 
L 133.189411 342.009617 
z
" clip-path="url(#p8dad1a203d)" style="fill: #ffffff; opacity: 0.65; stroke: #4c4c4c; stroke-width: 0.6; stroke-linejoin: miter"/>
   </g>
   <g id="patch_15">
    <path d="M 143.278129 342.409034 
L 151.85354 342.409034 
L 151.85354 341.663854 
L 143.278129 341.663854 
z
" clip-path="url(#p8dad1a203d)" style="fill: #ffffff; opacity: 0.65; stroke: #4c4c4c; stroke-width: 0.6; stroke-linejoin: miter"/>
   </g>
   <g id="patch_16">
    <path d="M 153.366848 342.409034 
L 161.942259 342.409034 
L 161.942259 341.139247 
L 153.366848 341.139247 
z
" clip-path="url(#p8dad1a203d)" style="fill: #ffffff; opacity: 0.65; stroke: #4c4c4c; stroke-width: 0.6; stroke-linejoin: miter"/>
   </g>
   <g id="patch_17">
    <path d="M 163.455566 342.409034 
L 172.030977 342.409034 
L 172.030977 340.209262 
L 163.455566 340.209262 
z
" clip-path="url(#p8dad1a203d)" style="fill: #ffffff; opacity: 0.65; stroke: #4c4c4c; stroke-width: 0.6; stroke-linejoin: miter"/>
   </g>
   <g id="patch_18">
    <path d="M 173.544285 342.409034 
L 182.119696 342.409034 
L 182.119696 338.259871 
L 173.544285 338.259871 
z
" clip-path="url(#p8dad1a203d)" style="fill: #ffffff; opacity: 0.65; stroke: #4c4c4c; stroke-width: 0.6; stroke-linejoin: miter"/>
   </g>
   <g id="patch_19">
    <path d="M 183.633003 342.409034 
L 192.208414 342.409034 
L 192.208414 334.629353 
L 183.633003 334.629353 
z
" clip-path="url(#p8dad1a203d)" style="fill: #ffffff; opacity: 0.65; stroke: #4c4c4c; stroke-width: 0.6; stroke-linejoin: miter"/>
   </g>
   <g id="patch_20">
    <path d="M 193.721722 342.409034 
L 202.297133 342.409034 
L 202.297133 325.716997 
L 193.721722 325.716997 
z
" clip-path="url(#p8dad1a203d)" style="fill: #ffffff; opacity: 0.65; stroke: #4c4c4c; stroke-width: 0.6; stroke-linejoin: miter"/>
   </g>
   <g id="patch_21">
    <path d="M 203.810441 342.409034 
L 212.385851 342.409034 
L 212.385851 312.452789 
L 203.810441 312.452789 
z
" clip-path="url(#p8dad1a203d)" style="fill: #ffffff; opacity: 0.65; stroke: #4c4c4c; stroke-width: 0.6; stroke-linejoin: miter"/>
   </g>
   <g id="patch_22">
    <path d="M 213.899159 342.409034 
L 222.47457 342.409034 
L 222.47457 296.118439 
L 213.899159 296.118439 
z
" clip-path="url(#p8dad1a203d)" style="fill: #ffffff; opacity: 0.65; stroke: #4c4c4c; stroke-width: 0.6; stroke-linejoin: miter"/>
   </g>
   <g id="patch_23">
    <path d="M 223.987878 342.409034 
L 232.563288 342.409034 
L 232.563288 262.108414 
L 223.987878 262.108414 
z
" clip-path="url(#p8dad1a203d)" style="fill: #ffffff; opacity: 0.65; stroke: #4c4c4c; stroke-width: 0.6; stroke-linejoin: miter"/>
   </g>
   <g id="patch_24">
    <path d="M 234.076596 342.409034 
L 242.652007 342.409034 
L 242.652007 230.471043 
L 234.076596 230.471043 
z
" clip-path="url(#p8dad1a203d)" style="fill: #ffffff; opacity: 0.65; stroke: #4c4c4c; stroke-width: 0.6; stroke-linejoin: miter"/>
   </g>
   <g id="patch_25">
    <path d="M 244.165315 342.409034 
L 252.740725 342.409034 
L 252.740725 180.317434 
L 244.165315 180.317434 
z
" clip-path="url(#p8dad1a203d)" style="fill: #ffffff; opacity: 0.65; stroke: #4c4c4c; stroke-width: 0.6; stroke-linejoin: miter"/>
   </g>
   <g id="patch_26">
    <path d="M 254.254033 342.409034 
L 262.829444 342.409034 
L 262.829444 182.785471 
L 254.254033 182.785471 
z
" clip-path="url(#p8dad1a203d)" style="fill: #ffffff; opacity: 0.65; stroke: #4c4c4c; stroke-width: 0.6; stroke-linejoin: miter"/>
   </g>
   <g id="patch_27">
    <path d="M 264.342752 342.409034 
L 272.918162 342.409034 
L 272.918162 170.153176 
L 264.342752 170.153176 
z
" clip-path="url(#p8dad1a203d)" style="fill: #ffffff; opacity: 0.65; stroke: #4c4c4c; stroke-width: 0.6; stroke-linejoin: miter"/>
   </g>
   <g id="patch_28">
    <path d="M 274.43147 342.409034 
L 283.006881 342.409034 
L 283.006881 147.38643 
L 274.43147 147.38643 
z
" clip-path="url(#p8dad1a203d)" style="fill: #ffffff; opacity: 0.65; stroke: #4c4c4c; stroke-width: 0.6; stroke-linejoin: miter"/>
   </g>
   <g id="patch_29">
    <path d="M 284.520189 342.409034 
L 293.095599 342.409034 
L 293.095599 152.775573 
L 284.520189 152.775573 
z
" clip-path="url(#p8dad1a203d)" style="fill: #ffffff; opacity: 0.65; stroke: #4c4c4c; stroke-width: 0.6; stroke-linejoin: miter"/>
   </g>
   <g id="patch_30">
    <path d="M 294.608907 342.409034 
L 303.184318 342.409034 
L 303.184318 177.527479 
L 294.608907 177.527479 
z
" clip-path="url(#p8dad1a203d)" style="fill: #ffffff; opacity: 0.65; stroke: #4c4c4c; stroke-width: 0.6; stroke-linejoin: miter"/>
   </g>
   <g id="patch_31">
    <path d="M 304.697626 342.409034 
L 313.273036 342.409034 
L 313.273036 176.883643 
L 304.697626 176.883643 
z
" clip-path="url(#p8dad1a203d)" style="fill: #ffffff; opacity: 0.65; stroke: #4c4c4c; stroke-width: 0.6; stroke-linejoin: miter"/>
   </g>
   <g id="patch_32">
    <path d="M 314.786344 342.409034 
L 323.361755 342.409034 
L 323.361755 158.814514 
L 314.786344 158.814514 
z
" clip-path="url(#p8dad1a203d)" style="fill: #ffffff; opacity: 0.65; stroke: #4c4c4c; stroke-width: 0.6; stroke-linejoin: miter"/>
   </g>
   <g id="patch_33">
    <path d="M 324.875063 342.409034 
L 333.450473 342.409034 
L 333.450473 173.408123 
L 324.875063 173.408123 
z
" clip-path="url(#p8dad1a203d)" style="fill: #ffffff; opacity: 0.65; stroke: #4c4c4c; stroke-width: 0.6; stroke-linejoin: miter"/>
   </g>
   <g id="patch_34">
    <path d="M 334.963781 342.409034 
L 343.539192 342.409034 
L 343.539192 154.331509 
L 334.963781 154.331509 
z
" clip-path="url(#p8dad1a203d)" style="fill: #ffffff; opacity: 0.65; stroke: #4c4c4c; stroke-width: 0.6; stroke-linejoin: miter"/>
   </g>
   <g id="patch_35">
    <path d="M 345.0525 342.409034 
L 353.62791 342.409034 
L 353.62791 122.08011 
L 345.0525 122.08011 
z
" clip-path="url(#p8dad1a203d)" style="fill: #ffffff; opacity: 0.65; stroke: #4c4c4c; stroke-width: 0.6; stroke-linejoin: miter"/>
   </g>
   <g id="patch_36">
    <path d="M 355.141218 342.409034 
L 363.716629 342.409034 
L 363.716629 86.865874 
L 355.141218 86.865874 
z
" clip-path="url(#p8dad1a203d)" style="fill: #ffffff; opacity: 0.65; stroke: #4c4c4c; stroke-width: 0.6; stroke-linejoin: miter"/>
   </g>
   <g id="patch_37">
    <path d="M 365.229937 342.409034 
L 373.805347 342.409034 
L 373.805347 100.893146 
L 365.229937 100.893146 
z
" clip-path="url(#p8dad1a203d)" style="fill: #ffffff; opacity: 0.65; stroke: #4c4c4c; stroke-width: 0.6; stroke-linejoin: miter"/>
   </g>
   <g id="patch_38">
    <path d="M 375.318655 342.409034 
L 383.894066 342.409034 
L 383.894066 89.423332 
L 375.318655 89.423332 
z
" clip-path="url(#p8dad1a203d)" style="fill: #ffffff; opacity: 0.65; stroke: #4c4c4c; stroke-width: 0.6; stroke-linejoin: miter"/>
   </g>
   <g id="patch_39">
    <path d="M 385.407374 342.409034 
L 393.982784 342.409034 
L 393.982784 76.957957 
L 385.407374 76.957957 
z
" clip-path="url(#p8dad1a203d)" style="fill: #ffffff; opacity: 0.65; stroke: #4c4c4c; stroke-width: 0.6; stroke-linejoin: miter"/>
   </g>
   <g id="patch_40">
    <path d="M 395.496092 342.409034 
L 404.071503 342.409034 
L 404.071503 71.145552 
L 395.496092 71.145552 
z
" clip-path="url(#p8dad1a203d)" style="fill: #ffffff; opacity: 0.65; stroke: #4c4c4c; stroke-width: 0.6; stroke-linejoin: miter"/>
   </g>
   <g id="patch_41">
    <path d="M 405.584811 342.409034 
L 414.160221 342.409034 
L 414.160221 114.43158 
L 405.584811 114.43158 
z
" clip-path="url(#p8dad1a203d)" style="fill: #ffffff; opacity: 0.65; stroke: #4c4c4c; stroke-width: 0.6; stroke-linejoin: miter"/>
   </g>
   <g id="patch_42">
    <path d="M 415.673529 342.409034 
L 424.24894 342.409034 
L 424.24894 122.551064 
L 415.673529 122.551064 
z
" clip-path="url(#p8dad1a203d)" style="fill: #ffffff; opacity: 0.65; stroke: #4c4c4c; stroke-width: 0.6; stroke-linejoin: miter"/>
   </g>
   <g id="patch_43">
    <path d="M 425.762248 342.409034 
L 434.337658 342.409034 
L 434.337658 121.489927 
L 425.762248 121.489927 
z
" clip-path="url(#p8dad1a203d)" style="fill: #ffffff; opacity: 0.65; stroke: #4c4c4c; stroke-width: 0.6; stroke-linejoin: miter"/>
   </g>
   <g id="patch_44">
    <path d="M 435.850966 342.409034 
L 444.426377 342.409034 
L 444.426377 172.877555 
L 435.850966 172.877555 
z
" clip-path="url(#p8dad1a203d)" style="fill: #ffffff; opacity: 0.65; stroke: #4c4c4c; stroke-width: 0.6; stroke-linejoin: miter"/>
   </g>
   <g id="patch_45">
    <path d="M 445.939685 342.409034 
L 454.515095 342.409034 
L 454.515095 169.133769 
L 445.939685 169.133769 
z
" clip-path="url(#p8dad1a203d)" style="fill: #ffffff; opacity: 0.65; stroke: #4c4c4c; stroke-width: 0.6; stroke-linejoin: miter"/>
   </g>
   <g id="patch_46">
    <path d="M 456.028403 342.409034 
L 464.603814 342.409034 
L 464.603814 201.850161 
L 456.028403 201.850161 
z
" clip-path="url(#p8dad1a203d)" style="fill: #ffffff; opacity: 0.65; stroke: #4c4c4c; stroke-width: 0.6; stroke-linejoin: miter"/>
   </g>
   <g id="patch_47">
    <path d="M 466.117122 342.409034 
L 474.692533 342.409034 
L 474.692533 206.857772 
L 466.117122 206.857772 
z
" clip-path="url(#p8dad1a203d)" style="fill: #ffffff; opacity: 0.65; stroke: #4c4c4c; stroke-width: 0.6; stroke-linejoin: miter"/>
   </g>
   <g id="patch_48">
    <path d="M 476.20584 342.409034 
L 484.781251 342.409034 
L 484.781251 217.993746 
L 476.20584 217.993746 
z
" clip-path="url(#p8dad1a203d)" style="fill: #ffffff; opacity: 0.65; stroke: #4c4c4c; stroke-width: 0.6; stroke-linejoin: miter"/>
   </g>
   <g id="patch_49">
    <path d="M 486.294559 342.409034 
L 494.86997 342.409034 
L 494.86997 226.94187 
L 486.294559 226.94187 
z
" clip-path="url(#p8dad1a203d)" style="fill: #ffffff; opacity: 0.65; stroke: #4c4c4c; stroke-width: 0.6; stroke-linejoin: miter"/>
   </g>
   <g id="patch_50">
    <path d="M 496.383277 342.409034 
L 504.958688 342.409034 
L 504.958688 228.611073 
L 496.383277 228.611073 
z
" clip-path="url(#p8dad1a203d)" style="fill: #ffffff; opacity: 0.65; stroke: #4c4c4c; stroke-width: 0.6; stroke-linejoin: miter"/>
   </g>
   <g id="patch_51">
    <path d="M 506.471996 342.409034 
L 515.047407 342.409034 
L 515.047407 221.713685 
L 506.471996 221.713685 
z
" clip-path="url(#p8dad1a203d)" style="fill: #ffffff; opacity: 0.65; stroke: #4c4c4c; stroke-width: 0.6; stroke-linejoin: miter"/>
   </g>
   <g id="patch_52">
    <path d="M 516.560714 342.409034 
L 525.136125 342.409034 
L 525.136125 219.686795 
L 516.560714 219.686795 
z
" clip-path="url(#p8dad1a203d)" style="fill: #ffffff; opacity: 0.65; stroke: #4c4c4c; stroke-width: 0.6; stroke-linejoin: miter"/>
   </g>
   <g id="patch_53">
    <path d="M 526.649433 342.409034 
L 535.224844 342.409034 
L 535.224844 231.949481 
L 526.649433 231.949481 
z
" clip-path="url(#p8dad1a203d)" style="fill: #ffffff; opacity: 0.65; stroke: #4c4c4c; stroke-width: 0.6; stroke-linejoin: miter"/>
   </g>
   <g id="patch_54">
    <path d="M 536.738151 342.409034 
L 545.313562 342.409034 
L 545.313562 241.147985 
L 536.738151 241.147985 
z
" clip-path="url(#p8dad1a203d)" style="fill: #ffffff; opacity: 0.65; stroke: #4c4c4c; stroke-width: 0.6; stroke-linejoin: miter"/>
   </g>
   <g id="patch_55">
    <path d="M 546.82687 342.409034 
L 555.402281 342.409034 
L 555.402281 253.416632 
L 546.82687 253.416632 
z
" clip-path="url(#p8dad1a203d)" style="fill: #ffffff; opacity: 0.65; stroke: #4c4c4c; stroke-width: 0.6; stroke-linejoin: miter"/>
   </g>
   <g id="patch_56">
    <path d="M 556.915588 342.409034 
L 565.490999 342.409034 
L 565.490999 276.159532 
L 556.915588 276.159532 
z
" clip-path="url(#p8dad1a203d)" style="fill: #ffffff; opacity: 0.65; stroke: #4c4c4c; stroke-width: 0.6; stroke-linejoin: miter"/>
   </g>
   <g id="patch_57">
    <path d="M 567.004307 342.409034 
L 575.579718 342.409034 
L 575.579718 288.094339 
L 567.004307 288.094339 
z
" clip-path="url(#p8dad1a203d)" style="fill: #ffffff; opacity: 0.65; stroke: #4c4c4c; stroke-width: 0.6; stroke-linejoin: miter"/>
   </g>
   <g id="patch_58">
    <path d="M 577.093025 342.409034 
L 585.668436 342.409034 
L 585.668436 304.160424 
L 577.093025 304.160424 
z
" clip-path="url(#p8dad1a203d)" style="fill: #ffffff; opacity: 0.65; stroke: #4c4c4c; stroke-width: 0.6; stroke-linejoin: miter"/>
   </g>
   <g id="patch_59">
    <path d="M 587.181744 342.409034 
L 595.757155 342.409034 
L 595.757155 315.272551 
L 587.181744 315.272551 
z
" clip-path="url(#p8dad1a203d)" style="fill: #ffffff; opacity: 0.65; stroke: #4c4c4c; stroke-width: 0.6; stroke-linejoin: miter"/>
   </g>
   <g id="patch_60">
    <path d="M 597.270462 342.409034 
L 605.845873 342.409034 
L 605.845873 328.071767 
L 597.270462 328.071767 
z
" clip-path="url(#p8dad1a203d)" style="fill: #ffffff; opacity: 0.65; stroke: #4c4c4c; stroke-width: 0.6; stroke-linejoin: miter"/>
   </g>
   <g id="patch_61">
    <path d="M 607.359181 342.409034 
L 615.934592 342.409034 
L 615.934592 334.307435 
L 607.359181 334.307435 
z
" clip-path="url(#p8dad1a203d)" style="fill: #ffffff; opacity: 0.65; stroke: #4c4c4c; stroke-width: 0.6; stroke-linejoin: miter"/>
   </g>
   <g id="patch_62">
    <path d="M 617.447899 342.409034 
L 626.02331 342.409034 
L 626.02331 337.848531 
L 617.447899 337.848531 
z
" clip-path="url(#p8dad1a203d)" style="fill: #ffffff; opacity: 0.65; stroke: #4c4c4c; stroke-width: 0.6; stroke-linejoin: miter"/>
   </g>
   <g id="patch_63">
    <path d="M 627.536618 342.409034 
L 636.112029 342.409034 
L 636.112029 340.143686 
L 627.536618 340.143686 
z
" clip-path="url(#p8dad1a203d)" style="fill: #ffffff; opacity: 0.65; stroke: #4c4c4c; stroke-width: 0.6; stroke-linejoin: miter"/>
   </g>
   <g id="patch_64">
    <path d="M 637.625336 342.409034 
L 646.200747 342.409034 
L 646.200747 341.419435 
L 637.625336 341.419435 
z
" clip-path="url(#p8dad1a203d)" style="fill: #ffffff; opacity: 0.65; stroke: #4c4c4c; stroke-width: 0.6; stroke-linejoin: miter"/>
   </g>
   <g id="patch_65">
    <path d="M 647.714055 342.409034 
L 656.289466 342.409034 
L 656.289466 341.967887 
L 647.714055 341.967887 
z
" clip-path="url(#p8dad1a203d)" style="fill: #ffffff; opacity: 0.65; stroke: #4c4c4c; stroke-width: 0.6; stroke-linejoin: miter"/>
   </g>
   <g id="patch_66">
    <path d="M 657.802773 342.409034 
L 666.378184 342.409034 
L 666.378184 342.212307 
L 657.802773 342.212307 
z
" clip-path="url(#p8dad1a203d)" style="fill: #ffffff; opacity: 0.65; stroke: #4c4c4c; stroke-width: 0.6; stroke-linejoin: miter"/>
   </g>
   <g id="patch_67">
    <path d="M 667.891492 342.409034 
L 676.466903 342.409034 
L 676.466903 342.331535 
L 667.891492 342.331535 
z
" clip-path="url(#p8dad1a203d)" style="fill: #ffffff; opacity: 0.65; stroke: #4c4c4c; stroke-width: 0.6; stroke-linejoin: miter"/>
   </g>
   <g id="patch_68">
    <path d="M 34.572188 342.409034 
L 34.572188 22.318125 
" style="fill: none; stroke: #404040; stroke-width: 0.9; stroke-linejoin: miter; stroke-linecap: square"/>
   </g>
   <g id="patch_69">
    <path d="M 704.463097 342.409034 
L 704.463097 22.318125 
" style="fill: none; stroke: #404040; stroke-width: 0.9; stroke-linejoin: miter; stroke-linecap: square"/>
   </g>
   <g id="patch_70">
    <path d="M 34.572188 342.409034 
L 704.463097 342.409034 
" style="fill: none; stroke: #404040; stroke-width: 0.9; stroke-linejoin: miter; stroke-linecap: square"/>
   </g>
   <g id="patch_71">
    <path d="M 34.572188 22.318125 
L 704.463097 22.318125 
" style="fill: none; stroke: #404040; stroke-width: 0.9; stroke-linejoin: miter; stroke-linecap: square"/>
   </g>
   <g id="FillBetweenPolyCollection_1">
    <defs>
     <path id="ma29a17e33d" d="M 46.67865 -37.558828 
L 46.67865 -37.55625 
L 48.29689 -37.55625 
L 49.915131 -37.55625 
L 51.533371 -37.55625 
L 53.151612 -37.55625 
L 54.769853 -37.55625 
L 56.388093 -37.55625 
L 58.006334 -37.55625 
L 59.624574 -37.55625 
L 61.242815 -37.55625 
L 62.861055 -37.55625 
L 64.479296 -37.55625 
L 66.097536 -37.55625 
L 67.715777 -37.55625 
L 69.334018 -37.55625 
L 70.952258 -37.55625 
L 72.570499 -37.55625 
L 74.188739 -37.55625 
L 75.80698 -37.55625 
L 77.42522 -37.55625 
L 79.043461 -37.55625 
L 80.661702 -37.55625 
L 82.279942 -37.55625 
L 83.898183 -37.55625 
L 85.516423 -37.55625 
L 87.134664 -37.55625 
L 88.752904 -37.55625 
L 90.371145 -37.55625 
L 91.989385 -37.55625 
L 93.607626 -37.55625 
L 95.225867 -37.55625 
L 96.844107 -37.55625 
L 98.462348 -37.55625 
L 100.080588 -37.55625 
L 101.698829 -37.55625 
L 103.317069 -37.55625 
L 104.93531 -37.55625 
L 106.553551 -37.55625 
L 108.171791 -37.55625 
L 109.790032 -37.55625 
L 111.408272 -37.55625 
L 113.026513 -37.55625 
L 114.644753 -37.55625 
L 116.262994 -37.55625 
L 117.881234 -37.55625 
L 119.499475 -37.55625 
L 121.117716 -37.55625 
L 122.735956 -37.55625 
L 124.354197 -37.55625 
L 125.972437 -37.55625 
L 127.590678 -37.55625 
L 129.208918 -37.55625 
L 130.827159 -37.55625 
L 132.4454 -37.55625 
L 134.06364 -37.55625 
L 135.681881 -37.55625 
L 137.300121 -37.55625 
L 138.918362 -37.55625 
L 140.536602 -37.55625 
L 142.154843 -37.55625 
L 143.773083 -37.55625 
L 145.391324 -37.55625 
L 147.009565 -37.55625 
L 148.627805 -37.55625 
L 150.246046 -37.55625 
L 151.864286 -37.55625 
L 153.482527 -37.55625 
L 155.100767 -37.55625 
L 156.719008 -37.55625 
L 158.337249 -37.55625 
L 159.955489 -37.55625 
L 161.57373 -37.55625 
L 163.19197 -37.55625 
L 164.810211 -37.55625 
L 166.428451 -37.55625 
L 168.046692 -37.55625 
L 169.664933 -37.55625 
L 171.283173 -37.55625 
L 172.901414 -37.55625 
L 174.519654 -37.55625 
L 176.137895 -37.55625 
L 177.756135 -37.55625 
L 179.374376 -37.55625 
L 180.992616 -37.55625 
L 182.610857 -37.55625 
L 184.229098 -37.55625 
L 185.847338 -37.55625 
L 187.465579 -37.55625 
L 189.083819 -37.55625 
L 190.70206 -37.55625 
L 192.3203 -37.55625 
L 193.938541 -37.55625 
L 195.556782 -37.55625 
L 197.175022 -37.55625 
L 198.793263 -37.55625 
L 200.411503 -37.55625 
L 202.029744 -37.55625 
L 203.647984 -37.55625 
L 205.266225 -37.55625 
L 206.884465 -37.55625 
L 208.502706 -37.55625 
L 210.120947 -37.55625 
L 211.739187 -37.55625 
L 213.357428 -37.55625 
L 214.975668 -37.55625 
L 216.593909 -37.55625 
L 218.212149 -37.55625 
L 219.83039 -37.55625 
L 221.448631 -37.55625 
L 223.066871 -37.55625 
L 224.685112 -37.55625 
L 226.303352 -37.55625 
L 227.921593 -37.55625 
L 229.539833 -37.55625 
L 231.158074 -37.55625 
L 232.776314 -37.55625 
L 234.394555 -37.55625 
L 236.012796 -37.55625 
L 237.631036 -37.55625 
L 239.249277 -37.55625 
L 240.867517 -37.55625 
L 242.485758 -37.55625 
L 244.103998 -37.55625 
L 245.722239 -37.55625 
L 247.34048 -37.55625 
L 248.95872 -37.55625 
L 250.576961 -37.55625 
L 252.195201 -37.55625 
L 253.813442 -37.55625 
L 255.431682 -37.55625 
L 257.049923 -37.55625 
L 258.668163 -37.55625 
L 260.286404 -37.55625 
L 261.904645 -37.55625 
L 263.522885 -37.55625 
L 265.141126 -37.55625 
L 266.759366 -37.55625 
L 268.377607 -37.55625 
L 269.995847 -37.55625 
L 271.614088 -37.55625 
L 273.232329 -37.55625 
L 274.850569 -37.55625 
L 276.46881 -37.55625 
L 278.08705 -37.55625 
L 279.705291 -37.55625 
L 281.323531 -37.55625 
L 282.941772 -37.55625 
L 284.560012 -37.55625 
L 286.178253 -37.55625 
L 287.796494 -37.55625 
L 289.414734 -37.55625 
L 291.032975 -37.55625 
L 292.651215 -37.55625 
L 294.269456 -37.55625 
L 295.887696 -37.55625 
L 297.505937 -37.55625 
L 299.124178 -37.55625 
L 300.742418 -37.55625 
L 302.360659 -37.55625 
L 303.978899 -37.55625 
L 305.59714 -37.55625 
L 307.21538 -37.55625 
L 308.833621 -37.55625 
L 310.451861 -37.55625 
L 312.070102 -37.55625 
L 313.688343 -37.55625 
L 315.306583 -37.55625 
L 316.924824 -37.55625 
L 318.543064 -37.55625 
L 320.161305 -37.55625 
L 321.779545 -37.55625 
L 323.397786 -37.55625 
L 325.016027 -37.55625 
L 326.634267 -37.55625 
L 328.252508 -37.55625 
L 329.870748 -37.55625 
L 331.488989 -37.55625 
L 333.107229 -37.55625 
L 334.72547 -37.55625 
L 336.343711 -37.55625 
L 337.961951 -37.55625 
L 339.580192 -37.55625 
L 341.198432 -37.55625 
L 342.816673 -37.55625 
L 344.434913 -37.55625 
L 346.053154 -37.55625 
L 347.671394 -37.55625 
L 349.289635 -37.55625 
L 350.907876 -37.55625 
L 352.526116 -37.55625 
L 354.144357 -37.55625 
L 355.762597 -37.55625 
L 357.380838 -37.55625 
L 358.999078 -37.55625 
L 360.617319 -37.55625 
L 362.23556 -37.55625 
L 363.8538 -37.55625 
L 365.472041 -37.55625 
L 367.090281 -37.55625 
L 368.708522 -37.55625 
L 370.326762 -37.55625 
L 371.945003 -37.55625 
L 373.563243 -37.55625 
L 375.181484 -37.55625 
L 376.799725 -37.55625 
L 378.417965 -37.55625 
L 380.036206 -37.55625 
L 381.654446 -37.55625 
L 383.272687 -37.55625 
L 384.890927 -37.55625 
L 386.509168 -37.55625 
L 388.127409 -37.55625 
L 389.745649 -37.55625 
L 391.36389 -37.55625 
L 392.98213 -37.55625 
L 394.600371 -37.55625 
L 396.218611 -37.55625 
L 397.836852 -37.55625 
L 399.455092 -37.55625 
L 401.073333 -37.55625 
L 402.691574 -37.55625 
L 404.309814 -37.55625 
L 405.928055 -37.55625 
L 407.546295 -37.55625 
L 409.164536 -37.55625 
L 410.782776 -37.55625 
L 412.401017 -37.55625 
L 414.019258 -37.55625 
L 415.637498 -37.55625 
L 417.255739 -37.55625 
L 418.873979 -37.55625 
L 420.49222 -37.55625 
L 422.11046 -37.55625 
L 423.728701 -37.55625 
L 425.346941 -37.55625 
L 426.965182 -37.55625 
L 428.583423 -37.55625 
L 430.201663 -37.55625 
L 431.819904 -37.55625 
L 433.438144 -37.55625 
L 435.056385 -37.55625 
L 436.674625 -37.55625 
L 438.292866 -37.55625 
L 439.911107 -37.55625 
L 441.529347 -37.55625 
L 443.147588 -37.55625 
L 444.765828 -37.55625 
L 446.384069 -37.55625 
L 448.002309 -37.55625 
L 449.62055 -37.55625 
L 451.23879 -37.55625 
L 452.857031 -37.55625 
L 454.475272 -37.55625 
L 456.093512 -37.55625 
L 457.711753 -37.55625 
L 459.329993 -37.55625 
L 460.948234 -37.55625 
L 462.566474 -37.55625 
L 464.184715 -37.55625 
L 465.802956 -37.55625 
L 467.421196 -37.55625 
L 469.039437 -37.55625 
L 470.657677 -37.55625 
L 472.275918 -37.55625 
L 473.894158 -37.55625 
L 475.512399 -37.55625 
L 477.130639 -37.55625 
L 478.74888 -37.55625 
L 480.367121 -37.55625 
L 481.985361 -37.55625 
L 483.603602 -37.55625 
L 485.221842 -37.55625 
L 486.840083 -37.55625 
L 488.458323 -37.55625 
L 490.076564 -37.55625 
L 491.694805 -37.55625 
L 493.313045 -37.55625 
L 494.931286 -37.55625 
L 496.549526 -37.55625 
L 498.167767 -37.55625 
L 499.786007 -37.55625 
L 501.404248 -37.55625 
L 503.022488 -37.55625 
L 504.640729 -37.55625 
L 506.25897 -37.55625 
L 507.87721 -37.55625 
L 509.495451 -37.55625 
L 511.113691 -37.55625 
L 512.731932 -37.55625 
L 514.350172 -37.55625 
L 515.968413 -37.55625 
L 517.586654 -37.55625 
L 519.204894 -37.55625 
L 520.823135 -37.55625 
L 522.441375 -37.55625 
L 524.059616 -37.55625 
L 525.677856 -37.55625 
L 527.296097 -37.55625 
L 528.914338 -37.55625 
L 530.532578 -37.55625 
L 532.150819 -37.55625 
L 533.769059 -37.55625 
L 535.3873 -37.55625 
L 537.00554 -37.55625 
L 538.623781 -37.55625 
L 540.242021 -37.55625 
L 541.860262 -37.55625 
L 543.478503 -37.55625 
L 545.096743 -37.55625 
L 546.714984 -37.55625 
L 548.333224 -37.55625 
L 549.951465 -37.55625 
L 551.569705 -37.55625 
L 553.187946 -37.55625 
L 554.806187 -37.55625 
L 556.424427 -37.55625 
L 558.042668 -37.55625 
L 559.660908 -37.55625 
L 561.279149 -37.55625 
L 562.897389 -37.55625 
L 564.51563 -37.55625 
L 566.13387 -37.55625 
L 567.752111 -37.55625 
L 569.370352 -37.55625 
L 570.988592 -37.55625 
L 572.606833 -37.55625 
L 574.225073 -37.55625 
L 575.843314 -37.55625 
L 577.461554 -37.55625 
L 579.079795 -37.55625 
L 580.698036 -37.55625 
L 582.316276 -37.55625 
L 583.934517 -37.55625 
L 585.552757 -37.55625 
L 587.170998 -37.55625 
L 588.789238 -37.55625 
L 590.407479 -37.55625 
L 592.025719 -37.55625 
L 593.64396 -37.55625 
L 595.262201 -37.55625 
L 596.880441 -37.55625 
L 598.498682 -37.55625 
L 600.116922 -37.55625 
L 601.735163 -37.55625 
L 603.353403 -37.55625 
L 604.971644 -37.55625 
L 606.589885 -37.55625 
L 608.208125 -37.55625 
L 609.826366 -37.55625 
L 611.444606 -37.55625 
L 613.062847 -37.55625 
L 614.681087 -37.55625 
L 616.299328 -37.55625 
L 617.917568 -37.55625 
L 619.535809 -37.55625 
L 621.15405 -37.55625 
L 622.77229 -37.55625 
L 624.390531 -37.55625 
L 626.008771 -37.55625 
L 627.627012 -37.55625 
L 629.245252 -37.55625 
L 630.863493 -37.55625 
L 632.481734 -37.55625 
L 634.099974 -37.55625 
L 635.718215 -37.55625 
L 637.336455 -37.55625 
L 638.954696 -37.55625 
L 640.572936 -37.55625 
L 642.191177 -37.55625 
L 643.809417 -37.55625 
L 645.427658 -37.55625 
L 647.045899 -37.55625 
L 648.664139 -37.55625 
L 650.28238 -37.55625 
L 651.90062 -37.55625 
L 653.518861 -37.55625 
L 655.137101 -37.55625 
L 656.755342 -37.55625 
L 658.373583 -37.55625 
L 659.991823 -37.55625 
L 661.610064 -37.55625 
L 663.228304 -37.55625 
L 664.846545 -37.55625 
L 666.464785 -37.55625 
L 668.083026 -37.55625 
L 669.701266 -37.55625 
L 671.319507 -37.55625 
L 672.937748 -37.55625 
L 674.555988 -37.55625 
L 676.174229 -37.55625 
L 677.792469 -37.55625 
L 679.41071 -37.55625 
L 681.02895 -37.55625 
L 682.647191 -37.55625 
L 684.265432 -37.55625 
L 685.883672 -37.55625 
L 687.501913 -37.55625 
L 689.120153 -37.55625 
L 690.738394 -37.55625 
L 692.356634 -37.55625 
L 692.356634 -37.606637 
L 692.356634 -37.606637 
L 690.738394 -37.615133 
L 689.120153 -37.624866 
L 687.501913 -37.635992 
L 685.883672 -37.64868 
L 684.265432 -37.663122 
L 682.647191 -37.679526 
L 681.02895 -37.698124 
L 679.41071 -37.719173 
L 677.792469 -37.742954 
L 676.174229 -37.769779 
L 674.555988 -37.799989 
L 672.937748 -37.83396 
L 671.319507 -37.872104 
L 669.701266 -37.91487 
L 668.083026 -37.96275 
L 666.464785 -38.016279 
L 664.846545 -38.076041 
L 663.228304 -38.142669 
L 661.610064 -38.216846 
L 659.991823 -38.299315 
L 658.373583 -38.390876 
L 656.755342 -38.492391 
L 655.137101 -38.604784 
L 653.518861 -38.729051 
L 651.90062 -38.866255 
L 650.28238 -39.017532 
L 648.664139 -39.184094 
L 647.045899 -39.367229 
L 645.427658 -39.568305 
L 643.809417 -39.788769 
L 642.191177 -40.030145 
L 640.572936 -40.294039 
L 638.954696 -40.582132 
L 637.336455 -40.896181 
L 635.718215 -41.238009 
L 634.099974 -41.609506 
L 632.481734 -42.012614 
L 630.863493 -42.449324 
L 629.245252 -42.921658 
L 627.627012 -43.431663 
L 626.008771 -43.98139 
L 624.390531 -44.572879 
L 622.77229 -45.208143 
L 621.15405 -45.889146 
L 619.535809 -46.617786 
L 617.917568 -47.395872 
L 616.299328 -48.225105 
L 614.681087 -49.107057 
L 613.062847 -50.043154 
L 611.444606 -51.034657 
L 609.826366 -52.082648 
L 608.208125 -53.188015 
L 606.589885 -54.351442 
L 604.971644 -55.573401 
L 603.353403 -56.854146 
L 601.735163 -58.193712 
L 600.116922 -59.591912 
L 598.498682 -61.048344 
L 596.880441 -62.56239 
L 595.262201 -64.133225 
L 593.64396 -65.759824 
L 592.025719 -67.440967 
L 590.407479 -69.175249 
L 588.789238 -70.961085 
L 587.170998 -72.796713 
L 585.552757 -74.680204 
L 583.934517 -76.60946 
L 582.316276 -78.582214 
L 580.698036 -80.596033 
L 579.079795 -82.648312 
L 577.461554 -84.736271 
L 575.843314 -86.856951 
L 574.225073 -89.007207 
L 572.606833 -91.183706 
L 570.988592 -93.382923 
L 569.370352 -95.601137 
L 567.752111 -97.834434 
L 566.13387 -100.078709 
L 564.51563 -102.329675 
L 562.897389 -104.582871 
L 561.279149 -106.833677 
L 559.660908 -109.077335 
L 558.042668 -111.308972 
L 556.424427 -113.523623 
L 554.806187 -115.716265 
L 553.187946 -117.881851 
L 551.569705 -120.015344 
L 549.951465 -122.111761 
L 548.333224 -124.16621 
L 546.714984 -126.173937 
L 545.096743 -128.130369 
L 543.478503 -130.031164 
L 541.860262 -131.872252 
L 540.242021 -133.649887 
L 538.623781 -135.360695 
L 537.00554 -137.001719 
L 535.3873 -138.570467 
L 533.769059 -140.064958 
L 532.150819 -141.483764 
L 530.532578 -142.826052 
L 528.914338 -144.091616 
L 527.296097 -145.280913 
L 525.677856 -146.395086 
L 524.059616 -147.435978 
L 522.441375 -148.406145 
L 520.823135 -149.308849 
L 519.204894 -150.148051 
L 517.586654 -150.928383 
L 515.968413 -151.655115 
L 514.350172 -152.334105 
L 512.731932 -152.971745 
L 511.113691 -153.574889 
L 509.495451 -154.150773 
L 507.87721 -154.706936 
L 506.25897 -155.251127 
L 504.640729 -155.791207 
L 503.022488 -156.335061 
L 501.404248 -156.890502 
L 499.786007 -157.465181 
L 498.167767 -158.066505 
L 496.549526 -158.701565 
L 494.931286 -159.377065 
L 493.313045 -160.099272 
L 491.694805 -160.873972 
L 490.076564 -161.706436 
L 488.458323 -162.601404 
L 486.840083 -163.563071 
L 485.221842 -164.595091 
L 483.603602 -165.700584 
L 481.985361 -166.882152 
L 480.367121 -168.1419 
L 478.74888 -169.481458 
L 477.130639 -170.902011 
L 475.512399 -172.404319 
L 473.894158 -173.988748 
L 472.275918 -175.655286 
L 470.657677 -177.403567 
L 469.039437 -179.232886 
L 467.421196 -181.142207 
L 465.802956 -183.130175 
L 464.184715 -185.195117 
L 462.566474 -187.335049 
L 460.948234 -189.547671 
L 459.329993 -191.830369 
L 457.711753 -194.180214 
L 456.093512 -196.593964 
L 454.475272 -199.068066 
L 452.857031 -201.598662 
L 451.23879 -204.181601 
L 449.62055 -206.812452 
L 448.002309 -209.486527 
L 446.384069 -212.198897 
L 444.765828 -214.944427 
L 443.147588 -217.717801 
L 441.529347 -220.513552 
L 439.911107 -223.326097 
L 438.292866 -226.149766 
L 436.674625 -228.978825 
L 435.056385 -231.807502 
L 433.438144 -234.630002 
L 431.819904 -237.440513 
L 430.201663 -240.233215 
L 428.583423 -243.002266 
L 426.965182 -245.741796 
L 425.346941 -248.445889 
L 423.728701 -251.108562 
L 422.11046 -253.723744 
L 420.49222 -256.285255 
L 418.873979 -258.786796 
L 417.255739 -261.221939 
L 415.637498 -263.58413 
L 414.019258 -265.866708 
L 412.401017 -268.062931 
L 410.782776 -270.166025 
L 409.164536 -272.169236 
L 407.546295 -274.065906 
L 405.928055 -275.849552 
L 404.309814 -277.513951 
L 402.691574 -279.053236 
L 401.073333 -280.461982 
L 399.455092 -281.735288 
L 397.836852 -282.868853 
L 396.218611 -283.859035 
L 394.600371 -284.702889 
L 392.98213 -285.398191 
L 391.36389 -285.943441 
L 389.745649 -286.337841 
L 388.127409 -286.581262 
L 386.509168 -286.67419 
L 384.890927 -286.617661 
L 383.272687 -286.413194 
L 381.654446 -286.062715 
L 380.036206 -285.568495 
L 378.417965 -284.933086 
L 376.799725 -284.15928 
L 375.181484 -283.250081 
L 373.563243 -282.208697 
L 371.945003 -281.038552 
L 370.326762 -279.743323 
L 368.708522 -278.32699 
L 367.090281 -276.793901 
L 365.472041 -275.148852 
L 363.8538 -273.397169 
L 362.23556 -271.544787 
L 360.617319 -269.598321 
L 358.999078 -267.56513 
L 357.380838 -265.453353 
L 355.762597 -263.271925 
L 354.144357 -261.030564 
L 352.526116 -258.739731 
L 350.907876 -256.410562 
L 349.289635 -254.05476 
L 347.671394 -251.684478 
L 346.053154 -249.312168 
L 344.434913 -246.950415 
L 342.816673 -244.611768 
L 341.198432 -242.308556 
L 339.580192 -240.052716 
L 337.961951 -237.855622 
L 336.343711 -235.727928 
L 334.72547 -233.679438 
L 333.107229 -231.718984 
L 331.488989 -229.854335 
L 329.870748 -228.092133 
L 328.252508 -226.437843 
L 326.634267 -224.895732 
L 325.016027 -223.468865 
L 323.397786 -222.159117 
L 321.779545 -220.967195 
L 320.161305 -219.892674 
L 318.543064 -218.934029 
L 316.924824 -218.088682 
L 315.306583 -217.353034 
L 313.688343 -216.722514 
L 312.070102 -216.191607 
L 310.451861 -215.753897 
L 308.833621 -215.402103 
L 307.21538 -215.128115 
L 305.59714 -214.923041 
L 303.978899 -214.777259 
L 302.360659 -214.680472 
L 300.742418 -214.621779 
L 299.124178 -214.589762 
L 297.505937 -214.572572 
L 295.887696 -214.558045 
L 294.269456 -214.53381 
L 292.651215 -214.487416 
L 291.032975 -214.406461 
L 289.414734 -214.278723 
L 287.796494 -214.092284 
L 286.178253 -213.835653 
L 284.560012 -213.49787 
L 282.941772 -213.068607 
L 281.323531 -212.538244 
L 279.705291 -211.897926 
L 278.08705 -211.13961 
L 276.46881 -210.256086 
L 274.850569 -209.240986 
L 273.232329 -208.088775 
L 271.614088 -206.794736 
L 269.995847 -205.354949 
L 268.377607 -203.766261 
L 266.759366 -202.026267 
L 265.141126 -200.133287 
L 263.522885 -198.086353 
L 261.904645 -195.885215 
L 260.286404 -193.530343 
L 258.668163 -191.022951 
L 257.049923 -188.365026 
L 255.431682 -185.559364 
L 253.813442 -182.609614 
L 252.195201 -179.520318 
L 250.576961 -176.296946 
L 248.95872 -172.945931 
L 247.34048 -169.474684 
L 245.722239 -165.891594 
L 244.103998 -162.20601 
L 242.485758 -158.428206 
L 240.867517 -154.569317 
L 239.249277 -150.641254 
L 237.631036 -146.656601 
L 236.012796 -142.628491 
L 234.394555 -138.570464 
L 232.776314 -134.496313 
L 231.158074 -130.419926 
L 229.539833 -126.355116 
L 227.921593 -122.315458 
L 226.303352 -118.314131 
L 224.685112 -114.363768 
L 223.066871 -110.47632 
L 221.448631 -106.662937 
L 219.83039 -102.933866 
L 218.212149 -99.298374 
L 216.593909 -95.764686 
L 214.975668 -92.339953 
L 213.357428 -89.03023 
L 211.739187 -85.840485 
L 210.120947 -82.774615 
L 208.502706 -79.835489 
L 206.884465 -77.024992 
L 205.266225 -74.344089 
L 203.647984 -71.792895 
L 202.029744 -69.370746 
L 200.411503 -67.076282 
L 198.793263 -64.90752 
L 197.175022 -62.861937 
L 195.556782 -60.936541 
L 193.938541 -59.127948 
L 192.3203 -57.43245 
L 190.70206 -55.846071 
L 189.083819 -54.364634 
L 187.465579 -52.983804 
L 185.847338 -51.699143 
L 184.229098 -50.506145 
L 182.610857 -49.400273 
L 180.992616 -48.376995 
L 179.374376 -47.43181 
L 177.756135 -46.560271 
L 176.137895 -45.758008 
L 174.519654 -45.020746 
L 172.901414 -44.344322 
L 171.283173 -43.724696 
L 169.664933 -43.157967 
L 168.046692 -42.640381 
L 166.428451 -42.168338 
L 164.810211 -41.738399 
L 163.19197 -41.347295 
L 161.57373 -40.991926 
L 159.955489 -40.669363 
L 158.337249 -40.376854 
L 156.719008 -40.111817 
L 155.100767 -39.871842 
L 153.482527 -39.654687 
L 151.864286 -39.458272 
L 150.246046 -39.280676 
L 148.627805 -39.120131 
L 147.009565 -38.975013 
L 145.391324 -38.843838 
L 143.773083 -38.72525 
L 142.154843 -38.618017 
L 140.536602 -38.521021 
L 138.918362 -38.433249 
L 137.300121 -38.353786 
L 135.681881 -38.281809 
L 134.06364 -38.216574 
L 132.4454 -38.157415 
L 130.827159 -38.103733 
L 129.208918 -38.054989 
L 127.590678 -38.010701 
L 125.972437 -37.970438 
L 124.354197 -37.933812 
L 122.735956 -37.900475 
L 121.117716 -37.870116 
L 119.499475 -37.842455 
L 117.881234 -37.817241 
L 116.262994 -37.794248 
L 114.644753 -37.773272 
L 113.026513 -37.75413 
L 111.408272 -37.736658 
L 109.790032 -37.720706 
L 108.171791 -37.706139 
L 106.553551 -37.692836 
L 104.93531 -37.680684 
L 103.317069 -37.669585 
L 101.698829 -37.659446 
L 100.080588 -37.650186 
L 98.462348 -37.641727 
L 96.844107 -37.634002 
L 95.225867 -37.626947 
L 93.607626 -37.620506 
L 91.989385 -37.614625 
L 90.371145 -37.609257 
L 88.752904 -37.604359 
L 87.134664 -37.599889 
L 85.516423 -37.595811 
L 83.898183 -37.592092 
L 82.279942 -37.588701 
L 80.661702 -37.585609 
L 79.043461 -37.582791 
L 77.42522 -37.580224 
L 75.80698 -37.577885 
L 74.188739 -37.575754 
L 72.570499 -37.573815 
L 70.952258 -37.57205 
L 69.334018 -37.570444 
L 67.715777 -37.568983 
L 66.097536 -37.567656 
L 64.479296 -37.566451 
L 62.861055 -37.565357 
L 61.242815 -37.564365 
L 59.624574 -37.563467 
L 58.006334 -37.562654 
L 56.388093 -37.561919 
L 54.769853 -37.561257 
L 53.151612 -37.56066 
L 51.533371 -37.560123 
L 49.915131 -37.559642 
L 48.29689 -37.559212 
L 46.67865 -37.558828 
z
" style="stroke: #1f4e79; stroke-opacity: 0.1"/>
    </defs>
    <g clip-path="url(#p8dad1a203d)">
     <use xlink:href="#ma29a17e33d" x="0" y="379.965284" style="fill: #1f4e79; fill-opacity: 0.1; stroke: #1f4e79; stroke-opacity: 0.1"/>
    </g>
   </g>
   <g id="text_17">
    <!-- TRB-02 - Frequency distribution curve (unimodal) -->
    <g transform="translate(202.022017 16.318125) scale(0.12 -0.12)">
     <defs>
      <path id="DejaVuSans-Bold-54" d="M 31 4666 
L 4331 4666 
L 4331 3756 
L 2784 3756 
L 2784 0 
L 1581 0 
L 1581 3756 
L 31 3756 
L 31 4666 
z
" transform="scale(0.015625)"/>
      <path id="DejaVuSans-Bold-52" d="M 2297 2597 
Q 2675 2597 2839 2737 
Q 3003 2878 3003 3200 
Q 3003 3519 2839 3656 
Q 2675 3794 2297 3794 
L 1791 3794 
L 1791 2597 
L 2297 2597 
z
M 1791 1766 
L 1791 0 
L 588 0 
L 588 4666 
L 2425 4666 
Q 3347 4666 3776 4356 
Q 4206 4047 4206 3378 
Q 4206 2916 3982 2619 
Q 3759 2322 3309 2181 
Q 3556 2125 3751 1926 
Q 3947 1728 4147 1325 
L 4800 0 
L 3519 0 
L 2950 1159 
Q 2778 1509 2601 1637 
Q 2425 1766 2131 1766 
L 1791 1766 
z
" transform="scale(0.015625)"/>
      <path id="DejaVuSans-Bold-42" d="M 2456 2859 
Q 2741 2859 2887 2984 
Q 3034 3109 3034 3353 
Q 3034 3594 2887 3720 
Q 2741 3847 2456 3847 
L 1791 3847 
L 1791 2859 
L 2456 2859 
z
M 2497 819 
Q 2859 819 3042 972 
Q 3225 1125 3225 1434 
Q 3225 1738 3044 1889 
Q 2863 2041 2497 2041 
L 1791 2041 
L 1791 819 
L 2497 819 
z
M 3616 2497 
Q 4003 2384 4215 2081 
Q 4428 1778 4428 1338 
Q 4428 663 3972 331 
Q 3516 0 2584 0 
L 588 0 
L 588 4666 
L 2394 4666 
Q 3366 4666 3802 4372 
Q 4238 4078 4238 3431 
Q 4238 3091 4078 2852 
Q 3919 2613 3616 2497 
z
" transform="scale(0.015625)"/>
      <path id="DejaVuSans-Bold-2d" d="M 347 2297 
L 2309 2297 
L 2309 1388 
L 347 1388 
L 347 2297 
z
" transform="scale(0.015625)"/>
      <path id="DejaVuSans-Bold-30" d="M 2944 2338 
Q 2944 3213 2780 3570 
Q 2616 3928 2228 3928 
Q 1841 3928 1675 3570 
Q 1509 3213 1509 2338 
Q 1509 1453 1675 1090 
Q 1841 728 2228 728 
Q 2613 728 2778 1090 
Q 2944 1453 2944 2338 
z
M 4147 2328 
Q 4147 1169 3647 539 
Q 3147 -91 2228 -91 
Q 1306 -91 806 539 
Q 306 1169 306 2328 
Q 306 3491 806 4120 
Q 1306 4750 2228 4750 
Q 3147 4750 3647 4120 
Q 4147 3491 4147 2328 
z
" transform="scale(0.015625)"/>
      <path id="DejaVuSans-Bold-32" d="M 1844 884 
L 3897 884 
L 3897 0 
L 506 0 
L 506 884 
L 2209 2388 
Q 2438 2594 2547 2791 
Q 2656 2988 2656 3200 
Q 2656 3528 2436 3728 
Q 2216 3928 1850 3928 
Q 1569 3928 1234 3808 
Q 900 3688 519 3450 
L 519 4475 
Q 925 4609 1322 4679 
Q 1719 4750 2100 4750 
Q 2938 4750 3402 4381 
Q 3866 4013 3866 3353 
Q 3866 2972 3669 2642 
Q 3472 2313 2841 1759 
L 1844 884 
z
" transform="scale(0.015625)"/>
      <path id="DejaVuSans-Bold-20" transform="scale(0.015625)"/>
      <path id="DejaVuSans-Bold-46" d="M 588 4666 
L 3834 4666 
L 3834 3756 
L 1791 3756 
L 1791 2888 
L 3713 2888 
L 3713 1978 
L 1791 1978 
L 1791 0 
L 588 0 
L 588 4666 
z
" transform="scale(0.015625)"/>
      <path id="DejaVuSans-Bold-72" d="M 3138 2547 
Q 2991 2616 2845 2648 
Q 2700 2681 2553 2681 
Q 2122 2681 1889 2404 
Q 1656 2128 1656 1613 
L 1656 0 
L 538 0 
L 538 3500 
L 1656 3500 
L 1656 2925 
Q 1872 3269 2151 3426 
Q 2431 3584 2822 3584 
Q 2878 3584 2943 3579 
Q 3009 3575 3134 3559 
L 3138 2547 
z
" transform="scale(0.015625)"/>
      <path id="DejaVuSans-Bold-65" d="M 4031 1759 
L 4031 1441 
L 1416 1441 
Q 1456 1047 1700 850 
Q 1944 653 2381 653 
Q 2734 653 3104 758 
Q 3475 863 3866 1075 
L 3866 213 
Q 3469 63 3072 -14 
Q 2675 -91 2278 -91 
Q 1328 -91 801 392 
Q 275 875 275 1747 
Q 275 2603 792 3093 
Q 1309 3584 2216 3584 
Q 3041 3584 3536 3087 
Q 4031 2591 4031 1759 
z
M 2881 2131 
Q 2881 2450 2695 2645 
Q 2509 2841 2209 2841 
Q 1884 2841 1681 2658 
Q 1478 2475 1428 2131 
L 2881 2131 
z
" transform="scale(0.015625)"/>
      <path id="DejaVuSans-Bold-71" d="M 2181 2772 
Q 1825 2772 1636 2509 
Q 1447 2247 1447 1747 
Q 1447 1247 1636 984 
Q 1825 722 2181 722 
Q 2541 722 2730 984 
Q 2919 1247 2919 1747 
Q 2919 2247 2730 2509 
Q 2541 2772 2181 2772 
z
M 2919 506 
Q 2688 197 2409 53 
Q 2131 -91 1766 -91 
Q 1119 -91 703 423 
Q 288 938 288 1747 
Q 288 2556 703 3067 
Q 1119 3578 1766 3578 
Q 2131 3578 2409 3434 
Q 2688 3291 2919 2981 
L 2919 3500 
L 4044 3500 
L 4044 -1331 
L 2919 -1331 
L 2919 506 
z
" transform="scale(0.015625)"/>
      <path id="DejaVuSans-Bold-75" d="M 500 1363 
L 500 3500 
L 1625 3500 
L 1625 3150 
Q 1625 2866 1622 2436 
Q 1619 2006 1619 1863 
Q 1619 1441 1641 1255 
Q 1663 1069 1716 984 
Q 1784 875 1895 815 
Q 2006 756 2150 756 
Q 2500 756 2700 1025 
Q 2900 1294 2900 1772 
L 2900 3500 
L 4019 3500 
L 4019 0 
L 2900 0 
L 2900 506 
Q 2647 200 2364 54 
Q 2081 -91 1741 -91 
Q 1134 -91 817 281 
Q 500 653 500 1363 
z
" transform="scale(0.015625)"/>
      <path id="DejaVuSans-Bold-6e" d="M 4056 2131 
L 4056 0 
L 2931 0 
L 2931 347 
L 2931 1631 
Q 2931 2084 2911 2256 
Q 2891 2428 2841 2509 
Q 2775 2619 2662 2680 
Q 2550 2741 2406 2741 
Q 2056 2741 1856 2470 
Q 1656 2200 1656 1722 
L 1656 0 
L 538 0 
L 538 3500 
L 1656 3500 
L 1656 2988 
Q 1909 3294 2193 3439 
Q 2478 3584 2822 3584 
Q 3428 3584 3742 3212 
Q 4056 2841 4056 2131 
z
" transform="scale(0.015625)"/>
      <path id="DejaVuSans-Bold-63" d="M 3366 3391 
L 3366 2478 
Q 3138 2634 2908 2709 
Q 2678 2784 2431 2784 
Q 1963 2784 1702 2511 
Q 1441 2238 1441 1747 
Q 1441 1256 1702 982 
Q 1963 709 2431 709 
Q 2694 709 2930 787 
Q 3166 866 3366 1019 
L 3366 103 
Q 3103 6 2833 -42 
Q 2563 -91 2291 -91 
Q 1344 -91 809 395 
Q 275 881 275 1747 
Q 275 2613 809 3098 
Q 1344 3584 2291 3584 
Q 2566 3584 2833 3536 
Q 3100 3488 3366 3391 
z
" transform="scale(0.015625)"/>
      <path id="DejaVuSans-Bold-79" d="M 78 3500 
L 1197 3500 
L 2138 1125 
L 2938 3500 
L 4056 3500 
L 2584 -331 
Q 2363 -916 2067 -1148 
Q 1772 -1381 1288 -1381 
L 641 -1381 
L 641 -647 
L 991 -647 
Q 1275 -647 1404 -556 
Q 1534 -466 1606 -231 
L 1638 -134 
L 78 3500 
z
" transform="scale(0.015625)"/>
      <path id="DejaVuSans-Bold-64" d="M 2919 2988 
L 2919 4863 
L 4044 4863 
L 4044 0 
L 2919 0 
L 2919 506 
Q 2688 197 2409 53 
Q 2131 -91 1766 -91 
Q 1119 -91 703 423 
Q 288 938 288 1747 
Q 288 2556 703 3070 
Q 1119 3584 1766 3584 
Q 2128 3584 2408 3439 
Q 2688 3294 2919 2988 
z
M 2181 722 
Q 2541 722 2730 984 
Q 2919 1247 2919 1747 
Q 2919 2247 2730 2509 
Q 2541 2772 2181 2772 
Q 1825 2772 1636 2509 
Q 1447 2247 1447 1747 
Q 1447 1247 1636 984 
Q 1825 722 2181 722 
z
" transform="scale(0.015625)"/>
      <path id="DejaVuSans-Bold-69" d="M 538 3500 
L 1656 3500 
L 1656 0 
L 538 0 
L 538 3500 
z
M 538 4863 
L 1656 4863 
L 1656 3950 
L 538 3950 
L 538 4863 
z
" transform="scale(0.015625)"/>
      <path id="DejaVuSans-Bold-73" d="M 3272 3391 
L 3272 2541 
Q 2913 2691 2578 2766 
Q 2244 2841 1947 2841 
Q 1628 2841 1473 2761 
Q 1319 2681 1319 2516 
Q 1319 2381 1436 2309 
Q 1553 2238 1856 2203 
L 2053 2175 
Q 2913 2066 3209 1816 
Q 3506 1566 3506 1031 
Q 3506 472 3093 190 
Q 2681 -91 1863 -91 
Q 1516 -91 1145 -36 
Q 775 19 384 128 
L 384 978 
Q 719 816 1070 734 
Q 1422 653 1784 653 
Q 2113 653 2278 743 
Q 2444 834 2444 1013 
Q 2444 1163 2330 1236 
Q 2216 1309 1875 1350 
L 1678 1375 
Q 931 1469 631 1722 
Q 331 1975 331 2491 
Q 331 3047 712 3315 
Q 1094 3584 1881 3584 
Q 2191 3584 2531 3537 
Q 2872 3491 3272 3391 
z
" transform="scale(0.015625)"/>
      <path id="DejaVuSans-Bold-74" d="M 1759 4494 
L 1759 3500 
L 2913 3500 
L 2913 2700 
L 1759 2700 
L 1759 1216 
Q 1759 972 1856 886 
Q 1953 800 2241 800 
L 2816 800 
L 2816 0 
L 1856 0 
Q 1194 0 917 276 
Q 641 553 641 1216 
L 641 2700 
L 84 2700 
L 84 3500 
L 641 3500 
L 641 4494 
L 1759 4494 
z
" transform="scale(0.015625)"/>
      <path id="DejaVuSans-Bold-62" d="M 2400 722 
Q 2759 722 2948 984 
Q 3138 1247 3138 1747 
Q 3138 2247 2948 2509 
Q 2759 2772 2400 2772 
Q 2041 2772 1848 2508 
Q 1656 2244 1656 1747 
Q 1656 1250 1848 986 
Q 2041 722 2400 722 
z
M 1656 2988 
Q 1888 3294 2169 3439 
Q 2450 3584 2816 3584 
Q 3463 3584 3878 3070 
Q 4294 2556 4294 1747 
Q 4294 938 3878 423 
Q 3463 -91 2816 -91 
Q 2450 -91 2169 54 
Q 1888 200 1656 506 
L 1656 0 
L 538 0 
L 538 4863 
L 1656 4863 
L 1656 2988 
z
" transform="scale(0.015625)"/>
      <path id="DejaVuSans-Bold-6f" d="M 2203 2784 
Q 1831 2784 1636 2517 
Q 1441 2250 1441 1747 
Q 1441 1244 1636 976 
Q 1831 709 2203 709 
Q 2569 709 2762 976 
Q 2956 1244 2956 1747 
Q 2956 2250 2762 2517 
Q 2569 2784 2203 2784 
z
M 2203 3584 
Q 3106 3584 3614 3096 
Q 4122 2609 4122 1747 
Q 4122 884 3614 396 
Q 3106 -91 2203 -91 
Q 1297 -91 786 396 
Q 275 884 275 1747 
Q 275 2609 786 3096 
Q 1297 3584 2203 3584 
z
" transform="scale(0.015625)"/>
      <path id="DejaVuSans-Bold-76" d="M 97 3500 
L 1216 3500 
L 2088 1081 
L 2956 3500 
L 4078 3500 
L 2700 0 
L 1472 0 
L 97 3500 
z
" transform="scale(0.015625)"/>
      <path id="DejaVuSans-Bold-28" d="M 2413 -844 
L 1484 -844 
Q 1006 -72 778 623 
Q 550 1319 550 2003 
Q 550 2688 779 3389 
Q 1009 4091 1484 4856 
L 2413 4856 
Q 2013 4116 1813 3408 
Q 1613 2700 1613 2009 
Q 1613 1319 1811 609 
Q 2009 -100 2413 -844 
z
" transform="scale(0.015625)"/>
      <path id="DejaVuSans-Bold-6d" d="M 3781 2919 
Q 3994 3244 4286 3414 
Q 4578 3584 4928 3584 
Q 5531 3584 5847 3212 
Q 6163 2841 6163 2131 
L 6163 0 
L 5038 0 
L 5038 1825 
Q 5041 1866 5042 1909 
Q 5044 1953 5044 2034 
Q 5044 2406 4934 2573 
Q 4825 2741 4581 2741 
Q 4263 2741 4089 2478 
Q 3916 2216 3909 1719 
L 3909 0 
L 2784 0 
L 2784 1825 
Q 2784 2406 2684 2573 
Q 2584 2741 2328 2741 
Q 2006 2741 1831 2477 
Q 1656 2213 1656 1722 
L 1656 0 
L 531 0 
L 531 3500 
L 1656 3500 
L 1656 2988 
Q 1863 3284 2130 3434 
Q 2397 3584 2719 3584 
Q 3081 3584 3359 3409 
Q 3638 3234 3781 2919 
z
" transform="scale(0.015625)"/>
      <path id="DejaVuSans-Bold-61" d="M 2106 1575 
Q 1756 1575 1579 1456 
Q 1403 1338 1403 1106 
Q 1403 894 1545 773 
Q 1688 653 1941 653 
Q 2256 653 2472 879 
Q 2688 1106 2688 1447 
L 2688 1575 
L 2106 1575 
z
M 3816 1997 
L 3816 0 
L 2688 0 
L 2688 519 
Q 2463 200 2181 54 
Q 1900 -91 1497 -91 
Q 953 -91 614 226 
Q 275 544 275 1050 
Q 275 1666 698 1953 
Q 1122 2241 2028 2241 
L 2688 2241 
L 2688 2328 
Q 2688 2594 2478 2717 
Q 2269 2841 1825 2841 
Q 1466 2841 1156 2769 
Q 847 2697 581 2553 
L 581 3406 
Q 941 3494 1303 3539 
Q 1666 3584 2028 3584 
Q 2975 3584 3395 3211 
Q 3816 2838 3816 1997 
z
" transform="scale(0.015625)"/>
      <path id="DejaVuSans-Bold-6c" d="M 538 4863 
L 1656 4863 
L 1656 0 
L 538 0 
L 538 4863 
z
" transform="scale(0.015625)"/>
      <path id="DejaVuSans-Bold-29" d="M 513 -844 
Q 913 -100 1113 609 
Q 1313 1319 1313 2009 
Q 1313 2700 1113 3408 
Q 913 4116 513 4856 
L 1441 4856 
Q 1916 4091 2145 3389 
Q 2375 2688 2375 2003 
Q 2375 1319 2147 623 
Q 1919 -72 1441 -844 
L 513 -844 
z
" transform="scale(0.015625)"/>
     </defs>
     <use xlink:href="#DejaVuSans-Bold-54"/>
     <use xlink:href="#DejaVuSans-Bold-52" transform="translate(68.212891 0)"/>
     <use xlink:href="#DejaVuSans-Bold-42" transform="translate(145.214844 0)"/>
     <use xlink:href="#DejaVuSans-Bold-2d" transform="translate(221.435547 0)"/>
     <use xlink:href="#DejaVuSans-Bold-30" transform="translate(262.939453 0)"/>
     <use xlink:href="#DejaVuSans-Bold-32" transform="translate(332.519531 0)"/>
     <use xlink:href="#DejaVuSans-Bold-20" transform="translate(402.099609 0)"/>
     <use xlink:href="#DejaVuSans-Bold-2d" transform="translate(436.914062 0)"/>
     <use xlink:href="#DejaVuSans-Bold-20" transform="translate(478.417969 0)"/>
     <use xlink:href="#DejaVuSans-Bold-46" transform="translate(513.232422 0)"/>
     <use xlink:href="#DejaVuSans-Bold-72" transform="translate(575.167969 0)"/>
     <use xlink:href="#DejaVuSans-Bold-65" transform="translate(624.484375 0)"/>
     <use xlink:href="#DejaVuSans-Bold-71" transform="translate(692.306641 0)"/>
     <use xlink:href="#DejaVuSans-Bold-75" transform="translate(763.888672 0)"/>
     <use xlink:href="#DejaVuSans-Bold-65" transform="translate(835.080078 0)"/>
     <use xlink:href="#DejaVuSans-Bold-6e" transform="translate(902.902344 0)"/>
     <use xlink:href="#DejaVuSans-Bold-63" transform="translate(974.09375 0)"/>
     <use xlink:href="#DejaVuSans-Bold-79" transform="translate(1033.371094 0)"/>
     <use xlink:href="#DejaVuSans-Bold-20" transform="translate(1098.556641 0)"/>
     <use xlink:href="#DejaVuSans-Bold-64" transform="translate(1133.371094 0)"/>
     <use xlink:href="#DejaVuSans-Bold-69" transform="translate(1204.953125 0)"/>
     <use xlink:href="#DejaVuSans-Bold-73" transform="translate(1239.230469 0)"/>
     <use xlink:href="#DejaVuSans-Bold-74" transform="translate(1298.751953 0)"/>
     <use xlink:href="#DejaVuSans-Bold-72" transform="translate(1346.554688 0)"/>
     <use xlink:href="#DejaVuSans-Bold-69" transform="translate(1395.871094 0)"/>
     <use xlink:href="#DejaVuSans-Bold-62" transform="translate(1430.148438 0)"/>
     <use xlink:href="#DejaVuSans-Bold-75" transform="translate(1501.730469 0)"/>
     <use xlink:href="#DejaVuSans-Bold-74" transform="translate(1572.921875 0)"/>
     <use xlink:href="#DejaVuSans-Bold-69" transform="translate(1620.724609 0)"/>
     <use xlink:href="#DejaVuSans-Bold-6f" transform="translate(1655.001953 0)"/>
     <use xlink:href="#DejaVuSans-Bold-6e" transform="translate(1723.703125 0)"/>
     <use xlink:href="#DejaVuSans-Bold-20" transform="translate(1794.894531 0)"/>
     <use xlink:href="#DejaVuSans-Bold-63" transform="translate(1829.708984 0)"/>
     <use xlink:href="#DejaVuSans-Bold-75" transform="translate(1888.986328 0)"/>
     <use xlink:href="#DejaVuSans-Bold-72" transform="translate(1960.177734 0)"/>
     <use xlink:href="#DejaVuSans-Bold-76" transform="translate(2009.494141 0)"/>
     <use xlink:href="#DejaVuSans-Bold-65" transform="translate(2074.679688 0)"/>
     <use xlink:href="#DejaVuSans-Bold-20" transform="translate(2142.501953 0)"/>
     <use xlink:href="#DejaVuSans-Bold-28" transform="translate(2177.316406 0)"/>
     <use xlink:href="#DejaVuSans-Bold-75" transform="translate(2223.019531 0)"/>
     <use xlink:href="#DejaVuSans-Bold-6e" transform="translate(2294.210938 0)"/>
     <use xlink:href="#DejaVuSans-Bold-69" transform="translate(2365.402344 0)"/>
     <use xlink:href="#DejaVuSans-Bold-6d" transform="translate(2399.679688 0)"/>
     <use xlink:href="#DejaVuSans-Bold-6f" transform="translate(2503.878906 0)"/>
     <use xlink:href="#DejaVuSans-Bold-64" transform="translate(2572.580078 0)"/>
     <use xlink:href="#DejaVuSans-Bold-61" transform="translate(2644.162109 0)"/>
     <use xlink:href="#DejaVuSans-Bold-6c" transform="translate(2711.642578 0)"/>
     <use xlink:href="#DejaVuSans-Bold-29" transform="translate(2745.919922 0)"/>
    </g>
   </g>
   <g id="line2d_32">
    <path d="M 46.67865 342.406456 
L 104.93531 342.2846 
L 124.354197 342.031472 
L 135.681881 341.683475 
L 143.773083 341.240034 
L 150.246046 340.684608 
L 155.100767 340.093442 
L 159.955489 339.295921 
L 164.810211 338.226885 
L 168.046692 337.324903 
L 171.283173 336.240588 
L 174.519654 334.944538 
L 177.756135 333.405013 
L 180.992616 331.588289 
L 184.229098 329.459139 
L 187.465579 326.98148 
L 190.70206 324.119213 
L 193.938541 320.837336 
L 197.175022 317.103347 
L 200.411503 312.889002 
L 203.647984 308.17239 
L 206.884465 302.940292 
L 210.120947 297.190669 
L 213.357428 290.935054 
L 216.593909 284.200598 
L 219.83039 277.031418 
L 224.685112 265.601516 
L 231.158074 249.545358 
L 239.249277 229.32403 
L 244.103998 217.759274 
L 247.34048 210.4906 
L 250.576961 203.668338 
L 253.813442 197.35567 
L 257.049923 191.600258 
L 260.286404 186.434941 
L 263.522885 181.878931 
L 266.759366 177.939017 
L 269.995847 174.610335 
L 273.232329 171.87651 
L 274.850569 170.724298 
L 276.46881 169.709198 
L 279.705291 168.067358 
L 282.941772 166.896677 
L 286.178253 166.129631 
L 289.414734 165.686561 
L 292.651215 165.477868 
L 305.59714 165.042243 
L 308.833621 164.563181 
L 312.070102 163.773677 
L 315.306583 162.61225 
L 318.543064 161.031255 
L 321.779545 158.998089 
L 325.016027 156.496419 
L 328.252508 153.527441 
L 331.488989 150.110949 
L 334.72547 146.285846 
L 337.961951 142.109662 
L 342.816673 135.353517 
L 355.762597 116.693359 
L 358.999078 112.400154 
L 362.23556 108.420497 
L 365.472041 104.816432 
L 368.708522 101.638294 
L 371.945003 98.926732 
L 375.181484 96.715203 
L 376.799725 95.806004 
L 378.417965 95.032198 
L 380.036206 94.396789 
L 381.654446 93.902569 
L 383.272687 93.55209 
L 384.890927 93.347623 
L 386.509168 93.291094 
L 388.127409 93.384022 
L 389.745649 93.627443 
L 391.36389 94.021843 
L 392.98213 94.567093 
L 394.600371 95.262395 
L 396.218611 96.106249 
L 397.836852 97.096431 
L 399.455092 98.229996 
L 402.691574 100.912048 
L 405.928055 104.115733 
L 409.164536 107.796048 
L 412.401017 111.902353 
L 415.637498 116.381154 
L 418.873979 121.178488 
L 423.728701 128.856722 
L 428.583423 136.963018 
L 436.674625 150.986459 
L 446.384069 167.766387 
L 451.23879 175.783683 
L 456.093512 183.37132 
L 460.948234 190.417614 
L 464.184715 194.770167 
L 467.421196 198.823077 
L 470.657677 202.561717 
L 473.894158 205.976537 
L 477.130639 209.063273 
L 480.367121 211.823384 
L 483.603602 214.2647 
L 486.840083 216.402213 
L 490.076564 218.258848 
L 493.313045 219.866012 
L 496.549526 221.263719 
L 501.404248 223.074782 
L 514.350172 227.631179 
L 517.586654 229.036901 
L 520.823135 230.656435 
L 524.059616 232.529306 
L 527.296097 234.684371 
L 530.532578 237.139232 
L 533.769059 239.900326 
L 537.00554 242.963565 
L 540.242021 246.315397 
L 543.478503 249.93412 
L 548.333224 255.799074 
L 553.187946 262.083433 
L 559.660908 270.887949 
L 574.225073 290.958077 
L 579.079795 297.316972 
L 583.934517 303.355825 
L 588.789238 309.0042 
L 593.64396 314.205461 
L 596.880441 317.402895 
L 600.116922 320.373372 
L 603.353403 323.111138 
L 606.589885 325.613842 
L 609.826366 327.882636 
L 613.062847 329.92213 
L 616.299328 331.740179 
L 619.535809 333.347498 
L 622.77229 334.757141 
L 626.008771 335.983894 
L 630.863493 337.51596 
L 635.718215 338.727275 
L 640.572936 339.671246 
L 645.427658 340.396979 
L 651.90062 341.099029 
L 658.373583 341.574408 
L 666.464785 341.949005 
L 677.792469 342.22233 
L 692.356634 342.358647 
L 692.356634 342.358647 
" clip-path="url(#p8dad1a203d)" style="fill: none; stroke: #1f4e79; stroke-width: 2.2; stroke-linecap: square"/>
   </g>
   <g id="legend_1">
    <g id="patch_72">
     <path d="M 40.522188 54.070937 
L 138.15 54.070937 
Q 139.85 54.070937 139.85 52.370937 
L 139.85 28.268125 
Q 139.85 26.568125 138.15 26.568125 
L 40.522188 26.568125 
Q 38.822188 26.568125 38.822188 28.268125 
L 38.822188 52.370937 
Q 38.822188 54.070937 40.522188 54.070937 
z
" style="fill: #ffffff; opacity: 0.92; stroke: #cccccc; stroke-linejoin: miter"/>
    </g>
    <g id="line2d_33">
     <path d="M 42.222188 33.451797 
L 50.722188 33.451797 
L 59.222188 33.451797 
" style="fill: none; stroke: #1f4e79; stroke-width: 2.2; stroke-linecap: square"/>
    </g>
    <g id="text_18">
     <!-- Frequency curve -->
     <g transform="translate(66.022188 36.426797) scale(0.085 -0.085)">
      <defs>
       <path id="DejaVuSans-46" d="M 628 4666 
L 3309 4666 
L 3309 4134 
L 1259 4134 
L 1259 2759 
L 3109 2759 
L 3109 2228 
L 1259 2228 
L 1259 0 
L 628 0 
L 628 4666 
z
" transform="scale(0.015625)"/>
       <path id="DejaVuSans-71" d="M 947 1747 
Q 947 1113 1208 752 
Q 1469 391 1925 391 
Q 2381 391 2643 752 
Q 2906 1113 2906 1747 
Q 2906 2381 2643 2742 
Q 2381 3103 1925 3103 
Q 1469 3103 1208 2742 
Q 947 2381 947 1747 
z
M 2906 525 
Q 2725 213 2448 61 
Q 2172 -91 1784 -91 
Q 1150 -91 751 415 
Q 353 922 353 1747 
Q 353 2572 751 3078 
Q 1150 3584 1784 3584 
Q 2172 3584 2448 3432 
Q 2725 3281 2906 2969 
L 2906 3500 
L 3481 3500 
L 3481 -1331 
L 2906 -1331 
L 2906 525 
z
" transform="scale(0.015625)"/>
       <path id="DejaVuSans-75" d="M 544 1381 
L 544 3500 
L 1119 3500 
L 1119 1403 
Q 1119 906 1312 657 
Q 1506 409 1894 409 
Q 2359 409 2629 706 
Q 2900 1003 2900 1516 
L 2900 3500 
L 3475 3500 
L 3475 0 
L 2900 0 
L 2900 538 
Q 2691 219 2414 64 
Q 2138 -91 1772 -91 
Q 1169 -91 856 284 
Q 544 659 544 1381 
z
M 1991 3584 
L 1991 3584 
z
" transform="scale(0.015625)"/>
       <path id="DejaVuSans-63" d="M 3122 3366 
L 3122 2828 
Q 2878 2963 2633 3030 
Q 2388 3097 2138 3097 
Q 1578 3097 1268 2742 
Q 959 2388 959 1747 
Q 959 1106 1268 751 
Q 1578 397 2138 397 
Q 2388 397 2633 464 
Q 2878 531 3122 666 
L 3122 134 
Q 2881 22 2623 -34 
Q 2366 -91 2075 -91 
Q 1284 -91 818 406 
Q 353 903 353 1747 
Q 353 2603 823 3093 
Q 1294 3584 2113 3584 
Q 2378 3584 2631 3529 
Q 2884 3475 3122 3366 
z
" transform="scale(0.015625)"/>
       <path id="DejaVuSans-79" d="M 2059 -325 
Q 1816 -950 1584 -1140 
Q 1353 -1331 966 -1331 
L 506 -1331 
L 506 -850 
L 844 -850 
Q 1081 -850 1212 -737 
Q 1344 -625 1503 -206 
L 1606 56 
L 191 3500 
L 800 3500 
L 1894 763 
L 2988 3500 
L 3597 3500 
L 2059 -325 
z
" transform="scale(0.015625)"/>
       <path id="DejaVuSans-76" d="M 191 3500 
L 800 3500 
L 1894 563 
L 2988 3500 
L 3597 3500 
L 2284 0 
L 1503 0 
L 191 3500 
z
" transform="scale(0.015625)"/>
      </defs>
      <use xlink:href="#DejaVuSans-46"/>
      <use xlink:href="#DejaVuSans-72" transform="translate(50.269531 0)"/>
      <use xlink:href="#DejaVuSans-65" transform="translate(89.132812 0)"/>
      <use xlink:href="#DejaVuSans-71" transform="translate(150.65625 0)"/>
      <use xlink:href="#DejaVuSans-75" transform="translate(214.132812 0)"/>
      <use xlink:href="#DejaVuSans-65" transform="translate(277.511719 0)"/>
      <use xlink:href="#DejaVuSans-6e" transform="translate(339.035156 0)"/>
      <use xlink:href="#DejaVuSans-63" transform="translate(402.414062 0)"/>
      <use xlink:href="#DejaVuSans-79" transform="translate(457.394531 0)"/>
      <use xlink:href="#DejaVuSans-20" transform="translate(516.574219 0)"/>
      <use xlink:href="#DejaVuSans-63" transform="translate(548.361328 0)"/>
      <use xlink:href="#DejaVuSans-75" transform="translate(603.341797 0)"/>
      <use xlink:href="#DejaVuSans-72" transform="translate(666.720703 0)"/>
      <use xlink:href="#DejaVuSans-76" transform="translate(707.833984 0)"/>
      <use xlink:href="#DejaVuSans-65" transform="translate(767.013672 0)"/>
     </g>
    </g>
    <g id="patch_73">
     <path d="M 42.222188 48.903203 
L 59.222188 48.903203 
L 59.222188 42.953203 
L 42.222188 42.953203 
z
" style="fill: #ffffff; opacity: 0.65; stroke: #4c4c4c; stroke-width: 0.6; stroke-linejoin: miter"/>
    </g>
    <g id="text_19">
     <!-- Histogram -->
     <g transform="translate(66.022188 48.903203) scale(0.085 -0.085)">
      <defs>
       <path id="DejaVuSans-48" d="M 628 4666 
L 1259 4666 
L 1259 2753 
L 3553 2753 
L 3553 4666 
L 4184 4666 
L 4184 0 
L 3553 0 
L 3553 2222 
L 1259 2222 
L 1259 0 
L 628 0 
L 628 4666 
z
" transform="scale(0.015625)"/>
       <path id="DejaVuSans-6f" d="M 1959 3097 
Q 1497 3097 1228 2736 
Q 959 2375 959 1747 
Q 959 1119 1226 758 
Q 1494 397 1959 397 
Q 2419 397 2687 759 
Q 2956 1122 2956 1747 
Q 2956 2369 2687 2733 
Q 2419 3097 1959 3097 
z
M 1959 3584 
Q 2709 3584 3137 3096 
Q 3566 2609 3566 1747 
Q 3566 888 3137 398 
Q 2709 -91 1959 -91 
Q 1206 -91 779 398 
Q 353 888 353 1747 
Q 353 2609 779 3096 
Q 1206 3584 1959 3584 
z
" transform="scale(0.015625)"/>
       <path id="DejaVuSans-6d" d="M 3328 2828 
Q 3544 3216 3844 3400 
Q 4144 3584 4550 3584 
Q 5097 3584 5394 3201 
Q 5691 2819 5691 2113 
L 5691 0 
L 5113 0 
L 5113 2094 
Q 5113 2597 4934 2840 
Q 4756 3084 4391 3084 
Q 3944 3084 3684 2787 
Q 3425 2491 3425 1978 
L 3425 0 
L 2847 0 
L 2847 2094 
Q 2847 2600 2669 2842 
Q 2491 3084 2119 3084 
Q 1678 3084 1418 2786 
Q 1159 2488 1159 1978 
L 1159 0 
L 581 0 
L 581 3500 
L 1159 3500 
L 1159 2956 
Q 1356 3278 1631 3431 
Q 1906 3584 2284 3584 
Q 2666 3584 2933 3390 
Q 3200 3197 3328 2828 
z
" transform="scale(0.015625)"/>
      </defs>
      <use xlink:href="#DejaVuSans-48"/>
      <use xlink:href="#DejaVuSans-69" transform="translate(75.195312 0)"/>
      <use xlink:href="#DejaVuSans-73" transform="translate(102.978516 0)"/>
      <use xlink:href="#DejaVuSans-74" transform="translate(155.078125 0)"/>
      <use xlink:href="#DejaVuSans-6f" transform="translate(194.287109 0)"/>
      <use xlink:href="#DejaVuSans-67" transform="translate(255.46875 0)"/>
      <use xlink:href="#DejaVuSans-72" transform="translate(318.945312 0)"/>
      <use xlink:href="#DejaVuSans-61" transform="translate(360.058594 0)"/>
      <use xlink:href="#DejaVuSans-6d" transform="translate(421.337891 0)"/>
     </g>
    </g>
   </g>
   <g id="line2d_34">
    <defs>
     <path id="mf7dfe2717d" d="M -0 5 
L 5 -5 
L -5 -5 
z
" style="stroke: #000000; stroke-linejoin: miter"/>
    </defs>
    <g clip-path="url(#p8dad1a203d)">
     <use xlink:href="#mf7dfe2717d" x="386.509168" y="93.291094" style="fill: #ff0000; stroke: #000000; stroke-linejoin: miter"/>
    </g>
   </g>
   <g id="text_20">
    <g id="patch_74">
     <path d="M 370.146043 84.954844 
L 402.872293 84.954844 
Q 404.872293 84.954844 404.872293 82.954844 
L 404.872293 66.254094 
Q 404.872293 64.254094 402.872293 64.254094 
L 370.146043 64.254094 
Q 368.146043 64.254094 368.146043 66.254094 
L 368.146043 82.954844 
Q 368.146043 84.954844 370.146043 84.954844 
z
" style="fill: #ffffff; stroke: #808080; stroke-linejoin: miter"/>
    </g>
    <!-- Mode 1 -->
    <g transform="translate(371.793543 72.332844) scale(0.08 -0.08)">
     <defs>
      <path id="DejaVuSans-4d" d="M 628 4666 
L 1569 4666 
L 2759 1491 
L 3956 4666 
L 4897 4666 
L 4897 0 
L 4281 0 
L 4281 4097 
L 3078 897 
L 2444 897 
L 1241 4097 
L 1241 0 
L 628 0 
L 628 4666 
z
" transform="scale(0.015625)"/>
      <path id="DejaVuSans-64" d="M 2906 2969 
L 2906 4863 
L 3481 4863 
L 3481 0 
L 2906 0 
L 2906 525 
Q 2725 213 2448 61 
Q 2172 -91 1784 -91 
Q 1150 -91 751 415 
Q 353 922 353 1747 
Q 353 2572 751 3078 
Q 1150 3584 1784 3584 
Q 2172 3584 2448 3432 
Q 2725 3281 2906 2969 
z
M 947 1747 
Q 947 1113 1208 752 
Q 1469 391 1925 391 
Q 2381 391 2643 752 
Q 2906 1113 2906 1747 
Q 2906 2381 2643 2742 
Q 2381 3103 1925 3103 
Q 1469 3103 1208 2742 
Q 947 2381 947 1747 
z
" transform="scale(0.015625)"/>
     </defs>
     <use xlink:href="#DejaVuSans-4d"/>
     <use xlink:href="#DejaVuSans-6f" transform="translate(86.279297 0)"/>
     <use xlink:href="#DejaVuSans-64" transform="translate(147.460938 0)"/>
     <use xlink:href="#DejaVuSans-65" transform="translate(210.9375 0)"/>
     <use xlink:href="#DejaVuSans-20" transform="translate(272.460938 0)"/>
     <use xlink:href="#DejaVuSans-31" transform="translate(304.248047 0)"/>
    </g>
    <!-- 3.92 phi -->
    <g transform="translate(370.146043 81.291094) scale(0.08 -0.08)">
     <defs>
      <path id="DejaVuSans-2e" d="M 684 794 
L 1344 794 
L 1344 0 
L 684 0 
L 684 794 
z
" transform="scale(0.015625)"/>
      <path id="DejaVuSans-39" d="M 703 97 
L 703 672 
Q 941 559 1184 500 
Q 1428 441 1663 441 
Q 2288 441 2617 861 
Q 2947 1281 2994 2138 
Q 2813 1869 2534 1725 
Q 2256 1581 1919 1581 
Q 1219 1581 811 2004 
Q 403 2428 403 3163 
Q 403 3881 828 4315 
Q 1253 4750 1959 4750 
Q 2769 4750 3195 4129 
Q 3622 3509 3622 2328 
Q 3622 1225 3098 567 
Q 2575 -91 1691 -91 
Q 1453 -91 1209 -44 
Q 966 3 703 97 
z
M 1959 2075 
Q 2384 2075 2632 2365 
Q 2881 2656 2881 3163 
Q 2881 3666 2632 3958 
Q 2384 4250 1959 4250 
Q 1534 4250 1286 3958 
Q 1038 3666 1038 3163 
Q 1038 2656 1286 2365 
Q 1534 2075 1959 2075 
z
" transform="scale(0.015625)"/>
     </defs>
     <use xlink:href="#DejaVuSans-33"/>
     <use xlink:href="#DejaVuSans-2e" transform="translate(63.623047 0)"/>
     <use xlink:href="#DejaVuSans-39" transform="translate(95.410156 0)"/>
     <use xlink:href="#DejaVuSans-32" transform="translate(159.033203 0)"/>
     <use xlink:href="#DejaVuSans-20" transform="translate(222.65625 0)"/>
     <use xlink:href="#DejaVuSans-70" transform="translate(254.443359 0)"/>
     <use xlink:href="#DejaVuSans-68" transform="translate(317.919922 0)"/>
     <use xlink:href="#DejaVuSans-69" transform="translate(381.298828 0)"/>
    </g>
   </g>
  </g>
 </g>
 <defs>
  <clipPath id="p8dad1a203d">
   <rect x="34.572188" y="22.318125" width="669.890909" height="320.090909"/>
  </clipPath>
 </defs>
</svg>
