<?xml version="1.0" encoding="utf-8" standalone="no"?>
<!DOCTYPE svg PUBLIC "-//W3C//DTD SVG 1.1//EN"
  "http://www.w3.org/Graphics/SVG/1.1/DTD/svg11.dtd">
<svg xmlns:xlink="http://www.w3.org/1999/xlink" width="676.8pt" height="509.106943pt" viewBox="0 0 676.8 509.106943" xmlns="http://www.w3.org/2000/svg" version="1.1">
 <metadata>
  <rdf:RDF xmlns:dc="http://purl.org/dc/elements/1.1/" xmlns:cc="http://creativecommons.org/ns#" xmlns:rdf="http://www.w3.org/1999/02/22-rdf-syntax-ns#">
   <cc:Work>
    <dc:type rdf:resource="http://purl.org/dc/dcmitype/StillImage"/>
    <dc:date>2026-07-01T03:11:18.928875</dc:date>
    <dc:format>image/svg+xml</dc:format>
    <dc:creator>
     <cc:Agent>
      <dc:title>Matplotlib v3.10.8, https://matplotlib.org/</dc:title>
     </cc:Agent>
    </dc:creator>
   </cc:Work>
  </rdf:RDF>
 </metadata>
 <defs>
  <style type="text/css">*{stroke-linejoin: round; stroke-linecap: butt}</style>
 </defs>
 <g id="figure_1">
  <g id="patch_1">
   <path d="M 0 509.106943 
L 676.8 509.106943 
L 676.8 -0 
L 0 -0 
z
" style="fill: #ffffff"/>
  </g>
  <g id="axes_1">
   <g id="patch_2">
    <path d="M 294.24 75.310125 
L 316.32 113.553807 
L 272.16 113.553807 
z
" clip-path="url(#p13ce4da97e)" style="fill: #fff6d4; stroke: #4c4c4c; stroke-width: 0.7; stroke-linejoin: miter"/>
   </g>
   <g id="patch_3">
    <path d="M 316.32 113.553807 
L 404.64 266.528534 
L 331.02528 266.528534 
L 301.61472 113.553807 
z
" clip-path="url(#p13ce4da97e)" style="fill: #ffe7a8; stroke: #4c4c4c; stroke-width: 0.7; stroke-linejoin: miter"/>
   </g>
   <g id="patch_4">
    <path d="M 301.61472 113.553807 
L 331.02528 266.528534 
L 257.45472 266.528534 
L 286.86528 113.553807 
z
" clip-path="url(#p13ce4da97e)" style="fill: #ffd27f; stroke: #4c4c4c; stroke-width: 0.7; stroke-linejoin: miter"/>
   </g>
   <g id="patch_5">
    <path d="M 286.86528 113.553807 
L 257.45472 266.528534 
L 183.84 266.528534 
L 272.16 113.553807 
z
" clip-path="url(#p13ce4da97e)" style="fill: #f4b36a; stroke: #4c4c4c; stroke-width: 0.7; stroke-linejoin: miter"/>
   </g>
   <g id="patch_6">
    <path d="M 404.64 266.528534 
L 492.96 419.503261 
L 360.48 419.503261 
L 331.02528 266.528534 
z
" clip-path="url(#p13ce4da97e)" style="fill: #d9ead3; stroke: #4c4c4c; stroke-width: 0.7; stroke-linejoin: miter"/>
   </g>
   <g id="patch_7">
    <path d="M 331.02528 266.528534 
L 360.48 419.503261 
L 228 419.503261 
L 257.45472 266.528534 
z
" clip-path="url(#p13ce4da97e)" style="fill: #a8d4a2; stroke: #4c4c4c; stroke-width: 0.7; stroke-linejoin: miter"/>
   </g>
   <g id="patch_8">
    <path d="M 257.45472 266.528534 
L 228 419.503261 
L 95.52 419.503261 
L 183.84 266.528534 
z
" clip-path="url(#p13ce4da97e)" style="fill: #76b47a; stroke: #4c4c4c; stroke-width: 0.7; stroke-linejoin: miter"/>
   </g>
   <g id="patch_9">
    <path d="M 492.96 419.503261 
L 515.04 457.746943 
L 367.85472 457.746943 
L 360.48 419.503261 
z
" clip-path="url(#p13ce4da97e)" style="fill: #cfe2f3; stroke: #4c4c4c; stroke-width: 0.7; stroke-linejoin: miter"/>
   </g>
   <g id="patch_10">
    <path d="M 360.48 419.503261 
L 367.85472 457.746943 
L 220.62528 457.746943 
L 228 419.503261 
z
" clip-path="url(#p13ce4da97e)" style="fill: #9fc5e8; stroke: #4c4c4c; stroke-width: 0.7; stroke-linejoin: miter"/>
   </g>
   <g id="patch_11">
    <path d="M 228 419.503261 
L 220.62528 457.746943 
L 73.44 457.746943 
L 95.52 419.503261 
z
" clip-path="url(#p13ce4da97e)" style="fill: #6fa8dc; stroke: #4c4c4c; stroke-width: 0.7; stroke-linejoin: miter"/>
   </g>
   <g id="text_1">
    <!-- S -->
    <g transform="translate(290.279141 103.841225) scale(0.11 -0.11)">
     <defs>
      <path id="DejaVuSans-Bold-53" d="M 3834 4519 
L 3834 3531 
Q 3450 3703 3084 3790 
Q 2719 3878 2394 3878 
Q 1963 3878 1756 3759 
Q 1550 3641 1550 3391 
Q 1550 3203 1689 3098 
Q 1828 2994 2194 2919 
L 2706 2816 
Q 3484 2659 3812 2340 
Q 4141 2022 4141 1434 
Q 4141 663 3683 286 
Q 3225 -91 2284 -91 
Q 1841 -91 1394 -6 
Q 947 78 500 244 
L 500 1259 
Q 947 1022 1364 901 
Q 1781 781 2169 781 
Q 2563 781 2772 912 
Q 2981 1044 2981 1288 
Q 2981 1506 2839 1625 
Q 2697 1744 2272 1838 
L 1806 1941 
Q 1106 2091 782 2419 
Q 459 2747 459 3303 
Q 459 4000 909 4375 
Q 1359 4750 2203 4750 
Q 2588 4750 2994 4692 
Q 3400 4634 3834 4519 
z
" transform="scale(0.015625)"/>
     </defs>
     <use xlink:href="#DejaVuSans-Bold-53"/>
    </g>
   </g>
   <g id="text_2">
    <!-- zS -->
    <g transform="translate(331.237969 193.076483) scale(0.11 -0.11)">
     <defs>
      <path id="DejaVuSans-Bold-7a" d="M 366 3500 
L 3419 3500 
L 3419 2719 
L 1575 800 
L 3419 800 
L 3419 0 
L 288 0 
L 288 781 
L 2131 2700 
L 366 2700 
L 366 3500 
z
" transform="scale(0.015625)"/>
     </defs>
     <use xlink:href="#DejaVuSans-Bold-7a"/>
     <use xlink:href="#DejaVuSans-Bold-53" transform="translate(58.203125 0)"/>
    </g>
   </g>
   <g id="text_3">
    <!-- mS -->
    <g transform="translate(284.547969 193.076483) scale(0.11 -0.11)">
     <defs>
      <path id="DejaVuSans-Bold-6d" d="M 3781 2919 
Q 3994 3244 4286 3414 
Q 4578 3584 4928 3584 
Q 5531 3584 5847 3212 
Q 6163 2841 6163 2131 
L 6163 0 
L 5038 0 
L 5038 1825 
Q 5041 1866 5042 1909 
Q 5044 1953 5044 2034 
Q 5044 2406 4934 2573 
Q 4825 2741 4581 2741 
Q 4263 2741 4089 2478 
Q 3916 2216 3909 1719 
L 3909 0 
L 2784 0 
L 2784 1825 
Q 2784 2406 2684 2573 
Q 2584 2741 2328 2741 
Q 2006 2741 1831 2477 
Q 1656 2213 1656 1722 
L 1656 0 
L 531 0 
L 531 3500 
L 1656 3500 
L 1656 2988 
Q 1863 3284 2130 3434 
Q 2397 3584 2719 3584 
Q 3081 3584 3359 3409 
Q 3638 3234 3781 2919 
z
" transform="scale(0.015625)"/>
     </defs>
     <use xlink:href="#DejaVuSans-Bold-6d"/>
     <use xlink:href="#DejaVuSans-Bold-53" transform="translate(104.199219 0)"/>
    </g>
   </g>
   <g id="text_4">
    <!-- cS -->
    <g transform="translate(242.858672 193.076483) scale(0.11 -0.11)">
     <defs>
      <path id="DejaVuSans-Bold-63" d="M 3366 3391 
L 3366 2478 
Q 3138 2634 2908 2709 
Q 2678 2784 2431 2784 
Q 1963 2784 1702 2511 
Q 1441 2238 1441 1747 
Q 1441 1256 1702 982 
Q 1963 709 2431 709 
Q 2694 709 2930 787 
Q 3166 866 3366 1019 
L 3366 103 
Q 3103 6 2833 -42 
Q 2563 -91 2291 -91 
Q 1344 -91 809 395 
Q 275 881 275 1747 
Q 275 2613 809 3098 
Q 1344 3584 2291 3584 
Q 2566 3584 2833 3536 
Q 3100 3488 3366 3391 
z
" transform="scale(0.015625)"/>
     </defs>
     <use xlink:href="#DejaVuSans-Bold-63"/>
     <use xlink:href="#DejaVuSans-Bold-53" transform="translate(59.277344 0)"/>
    </g>
   </g>
   <g id="text_5">
    <!-- sZ -->
    <g transform="translate(390.014601 346.05121) scale(0.11 -0.11)">
     <defs>
      <path id="DejaVuSans-Bold-73" d="M 3272 3391 
L 3272 2541 
Q 2913 2691 2578 2766 
Q 2244 2841 1947 2841 
Q 1628 2841 1473 2761 
Q 1319 2681 1319 2516 
Q 1319 2381 1436 2309 
Q 1553 2238 1856 2203 
L 2053 2175 
Q 2913 2066 3209 1816 
Q 3506 1566 3506 1031 
Q 3506 472 3093 190 
Q 2681 -91 1863 -91 
Q 1516 -91 1145 -36 
Q 775 19 384 128 
L 384 978 
Q 719 816 1070 734 
Q 1422 653 1784 653 
Q 2113 653 2278 743 
Q 2444 834 2444 1013 
Q 2444 1163 2330 1236 
Q 2216 1309 1875 1350 
L 1678 1375 
Q 931 1469 631 1722 
Q 331 1975 331 2491 
Q 331 3047 712 3315 
Q 1094 3584 1881 3584 
Q 2191 3584 2531 3537 
Q 2872 3491 3272 3391 
z
" transform="scale(0.015625)"/>
      <path id="DejaVuSans-Bold-5a" d="M 359 4666 
L 4281 4666 
L 4281 3938 
L 1778 909 
L 4353 909 
L 4353 0 
L 288 0 
L 288 728 
L 2791 3756 
L 359 3756 
L 359 4666 
z
" transform="scale(0.015625)"/>
     </defs>
     <use xlink:href="#DejaVuSans-Bold-73"/>
     <use xlink:href="#DejaVuSans-Bold-5a" transform="translate(59.521484 0)"/>
    </g>
   </g>
   <g id="text_6">
    <!-- sM -->
    <g transform="translate(285.493281 346.05121) scale(0.11 -0.11)">
     <defs>
      <path id="DejaVuSans-Bold-4d" d="M 588 4666 
L 2119 4666 
L 3181 2169 
L 4250 4666 
L 5778 4666 
L 5778 0 
L 4641 0 
L 4641 3413 
L 3566 897 
L 2803 897 
L 1728 3413 
L 1728 0 
L 588 0 
L 588 4666 
z
" transform="scale(0.015625)"/>
     </defs>
     <use xlink:href="#DejaVuSans-Bold-73"/>
     <use xlink:href="#DejaVuSans-Bold-4d" transform="translate(59.521484 0)"/>
    </g>
   </g>
   <g id="text_7">
    <!-- sC -->
    <g transform="translate(183.893836 346.05121) scale(0.11 -0.11)">
     <defs>
      <path id="DejaVuSans-Bold-43" d="M 4288 256 
Q 3956 84 3597 -3 
Q 3238 -91 2847 -91 
Q 1681 -91 1000 561 
Q 319 1213 319 2328 
Q 319 3447 1000 4098 
Q 1681 4750 2847 4750 
Q 3238 4750 3597 4662 
Q 3956 4575 4288 4403 
L 4288 3438 
Q 3953 3666 3628 3772 
Q 3303 3878 2944 3878 
Q 2300 3878 1931 3465 
Q 1563 3053 1563 2328 
Q 1563 1606 1931 1193 
Q 2300 781 2944 781 
Q 3303 781 3628 887 
Q 3953 994 4288 1222 
L 4288 256 
z
" transform="scale(0.015625)"/>
     </defs>
     <use xlink:href="#DejaVuSans-Bold-73"/>
     <use xlink:href="#DejaVuSans-Bold-43" transform="translate(59.521484 0)"/>
    </g>
   </g>
   <g id="text_8">
    <!-- Z -->
    <g transform="translate(430.095321 441.660415) scale(0.11 -0.11)">
     <use xlink:href="#DejaVuSans-Bold-5a"/>
    </g>
   </g>
   <g id="text_9">
    <!-- M -->
    <g transform="translate(288.766641 441.660415) scale(0.11 -0.11)">
     <use xlink:href="#DejaVuSans-Bold-4d"/>
    </g>
   </g>
   <g id="text_10">
    <!-- C -->
    <g transform="translate(150.359836 441.660415) scale(0.11 -0.11)">
     <use xlink:href="#DejaVuSans-Bold-43"/>
    </g>
   </g>
   <g id="line2d_1">
    <path d="M 73.44 457.746943 
L 515.04 457.746943 
L 294.24 75.310125 
L 73.44 457.746943 
" clip-path="url(#p13ce4da97e)" style="fill: none; stroke: #000000; stroke-width: 1.5; stroke-linecap: square"/>
   </g>
   <g id="text_11">
    <!-- SAND -->
    <g transform="translate(273.692891 54.942531) scale(0.13 -0.13)">
     <defs>
      <path id="DejaVuSans-Bold-41" d="M 3419 850 
L 1538 850 
L 1241 0 
L 31 0 
L 1759 4666 
L 3194 4666 
L 4922 0 
L 3713 0 
L 3419 850 
z
M 1838 1716 
L 3116 1716 
L 2478 3572 
L 1838 1716 
z
" transform="scale(0.015625)"/>
      <path id="DejaVuSans-Bold-4e" d="M 588 4666 
L 1931 4666 
L 3628 1466 
L 3628 4666 
L 4769 4666 
L 4769 0 
L 3425 0 
L 1728 3200 
L 1728 0 
L 588 0 
L 588 4666 
z
" transform="scale(0.015625)"/>
      <path id="DejaVuSans-Bold-44" d="M 1791 3756 
L 1791 909 
L 2222 909 
Q 2959 909 3348 1275 
Q 3738 1641 3738 2338 
Q 3738 3031 3350 3393 
Q 2963 3756 2222 3756 
L 1791 3756 
z
M 588 4666 
L 1856 4666 
Q 2919 4666 3439 4514 
Q 3959 4363 4331 4000 
Q 4659 3684 4818 3271 
Q 4978 2859 4978 2338 
Q 4978 1809 4818 1395 
Q 4659 981 4331 666 
Q 3956 303 3431 151 
Q 2906 0 1856 0 
L 588 0 
L 588 4666 
z
" transform="scale(0.015625)"/>
     </defs>
     <use xlink:href="#DejaVuSans-Bold-53"/>
     <use xlink:href="#DejaVuSans-Bold-41" transform="translate(72.021484 0)"/>
     <use xlink:href="#DejaVuSans-Bold-4e" transform="translate(149.414062 0)"/>
     <use xlink:href="#DejaVuSans-Bold-44" transform="translate(233.105469 0)"/>
    </g>
   </g>
   <g id="text_12">
    <!-- CLAY -->
    <g transform="translate(19.729437 480.872912) scale(0.13 -0.13)">
     <defs>
      <path id="DejaVuSans-Bold-4c" d="M 588 4666 
L 1791 4666 
L 1791 909 
L 3903 909 
L 3903 0 
L 588 0 
L 588 4666 
z
" transform="scale(0.015625)"/>
      <path id="DejaVuSans-Bold-59" d="M -63 4666 
L 1253 4666 
L 2316 3003 
L 3378 4666 
L 4697 4666 
L 2919 1966 
L 2919 0 
L 1716 0 
L 1716 1966 
L -63 4666 
z
" transform="scale(0.015625)"/>
     </defs>
     <use xlink:href="#DejaVuSans-Bold-43"/>
     <use xlink:href="#DejaVuSans-Bold-4c" transform="translate(73.388672 0)"/>
     <use xlink:href="#DejaVuSans-Bold-41" transform="translate(137.109375 0)"/>
     <use xlink:href="#DejaVuSans-Bold-59" transform="translate(204.876953 0)"/>
    </g>
   </g>
   <g id="text_13">
    <!-- SILT -->
    <g transform="translate(532.704 480.872912) scale(0.13 -0.13)">
     <defs>
      <path id="DejaVuSans-Bold-49" d="M 588 4666 
L 1791 4666 
L 1791 0 
L 588 0 
L 588 4666 
z
" transform="scale(0.015625)"/>
      <path id="DejaVuSans-Bold-54" d="M 31 4666 
L 4331 4666 
L 4331 3756 
L 2784 3756 
L 2784 0 
L 1581 0 
L 1581 3756 
L 31 3756 
L 31 4666 
z
" transform="scale(0.015625)"/>
     </defs>
     <use xlink:href="#DejaVuSans-Bold-53"/>
     <use xlink:href="#DejaVuSans-Bold-49" transform="translate(72.021484 0)"/>
     <use xlink:href="#DejaVuSans-Bold-4c" transform="translate(109.228516 0)"/>
     <use xlink:href="#DejaVuSans-Bold-54" transform="translate(156.449219 0)"/>
    </g>
   </g>
   <g id="line2d_2">
    <path d="M 95.52 419.503261 
L 90.2208 416.412061 
" clip-path="url(#p13ce4da97e)" style="fill: none; stroke: #000000; stroke-width: 0.8; stroke-linecap: square"/>
   </g>
   <g id="line2d_3">
    <path d="M 492.96 419.503261 
L 498.2592 416.412061 
" clip-path="url(#p13ce4da97e)" style="fill: none; stroke: #000000; stroke-width: 0.8; stroke-linecap: square"/>
   </g>
   <g id="line2d_4">
    <path d="M 117.6 457.746943 
L 117.6 463.046143 
" clip-path="url(#p13ce4da97e)" style="fill: none; stroke: #000000; stroke-width: 0.8; stroke-linecap: square"/>
   </g>
   <g id="line2d_5">
    <path d="M 117.6 381.25958 
L 112.3008 378.16838 
" clip-path="url(#p13ce4da97e)" style="fill: none; stroke: #000000; stroke-width: 0.8; stroke-linecap: square"/>
   </g>
   <g id="line2d_6">
    <path d="M 470.88 381.25958 
L 476.1792 378.16838 
" clip-path="url(#p13ce4da97e)" style="fill: none; stroke: #000000; stroke-width: 0.8; stroke-linecap: square"/>
   </g>
   <g id="line2d_7">
    <path d="M 161.76 457.746943 
L 161.76 463.046143 
" clip-path="url(#p13ce4da97e)" style="fill: none; stroke: #000000; stroke-width: 0.8; stroke-linecap: square"/>
   </g>
   <g id="line2d_8">
    <path d="M 139.68 343.015898 
L 134.3808 339.924698 
" clip-path="url(#p13ce4da97e)" style="fill: none; stroke: #000000; stroke-width: 0.8; stroke-linecap: square"/>
   </g>
   <g id="line2d_9">
    <path d="M 448.8 343.015898 
L 454.0992 339.924698 
" clip-path="url(#p13ce4da97e)" style="fill: none; stroke: #000000; stroke-width: 0.8; stroke-linecap: square"/>
   </g>
   <g id="line2d_10">
    <path d="M 205.92 457.746943 
L 205.92 463.046143 
" clip-path="url(#p13ce4da97e)" style="fill: none; stroke: #000000; stroke-width: 0.8; stroke-linecap: square"/>
   </g>
   <g id="line2d_11">
    <path d="M 161.76 304.772216 
L 156.4608 301.681016 
" clip-path="url(#p13ce4da97e)" style="fill: none; stroke: #000000; stroke-width: 0.8; stroke-linecap: square"/>
   </g>
   <g id="line2d_12">
    <path d="M 426.72 304.772216 
L 432.0192 301.681016 
" clip-path="url(#p13ce4da97e)" style="fill: none; stroke: #000000; stroke-width: 0.8; stroke-linecap: square"/>
   </g>
   <g id="line2d_13">
    <path d="M 250.08 457.746943 
L 250.08 463.046143 
" clip-path="url(#p13ce4da97e)" style="fill: none; stroke: #000000; stroke-width: 0.8; stroke-linecap: square"/>
   </g>
   <g id="line2d_14">
    <path d="M 183.84 266.528534 
L 178.5408 263.437334 
" clip-path="url(#p13ce4da97e)" style="fill: none; stroke: #000000; stroke-width: 0.8; stroke-linecap: square"/>
   </g>
   <g id="line2d_15">
    <path d="M 404.64 266.528534 
L 409.9392 263.437334 
" clip-path="url(#p13ce4da97e)" style="fill: none; stroke: #000000; stroke-width: 0.8; stroke-linecap: square"/>
   </g>
   <g id="line2d_16">
    <path d="M 294.24 457.746943 
L 294.24 463.046143 
" clip-path="url(#p13ce4da97e)" style="fill: none; stroke: #000000; stroke-width: 0.8; stroke-linecap: square"/>
   </g>
   <g id="line2d_17">
    <path d="M 205.92 228.284852 
L 200.6208 225.193652 
" clip-path="url(#p13ce4da97e)" style="fill: none; stroke: #000000; stroke-width: 0.8; stroke-linecap: square"/>
   </g>
   <g id="line2d_18">
    <path d="M 382.56 228.284852 
L 387.8592 225.193652 
" clip-path="url(#p13ce4da97e)" style="fill: none; stroke: #000000; stroke-width: 0.8; stroke-linecap: square"/>
   </g>
   <g id="line2d_19">
    <path d="M 338.4 457.746943 
L 338.4 463.046143 
" clip-path="url(#p13ce4da97e)" style="fill: none; stroke: #000000; stroke-width: 0.8; stroke-linecap: square"/>
   </g>
   <g id="line2d_20">
    <path d="M 228 190.04117 
L 222.7008 186.94997 
" clip-path="url(#p13ce4da97e)" style="fill: none; stroke: #000000; stroke-width: 0.8; stroke-linecap: square"/>
   </g>
   <g id="line2d_21">
    <path d="M 360.48 190.04117 
L 365.7792 186.94997 
" clip-path="url(#p13ce4da97e)" style="fill: none; stroke: #000000; stroke-width: 0.8; stroke-linecap: square"/>
   </g>
   <g id="line2d_22">
    <path d="M 382.56 457.746943 
L 382.56 463.046143 
" clip-path="url(#p13ce4da97e)" style="fill: none; stroke: #000000; stroke-width: 0.8; stroke-linecap: square"/>
   </g>
   <g id="line2d_23">
    <path d="M 250.08 151.797489 
L 244.7808 148.706289 
" clip-path="url(#p13ce4da97e)" style="fill: none; stroke: #000000; stroke-width: 0.8; stroke-linecap: square"/>
   </g>
   <g id="line2d_24">
    <path d="M 338.4 151.797489 
L 343.6992 148.706289 
" clip-path="url(#p13ce4da97e)" style="fill: none; stroke: #000000; stroke-width: 0.8; stroke-linecap: square"/>
   </g>
   <g id="line2d_25">
    <path d="M 426.72 457.746943 
L 426.72 463.046143 
" clip-path="url(#p13ce4da97e)" style="fill: none; stroke: #000000; stroke-width: 0.8; stroke-linecap: square"/>
   </g>
   <g id="line2d_26">
    <path d="M 272.16 113.553807 
L 266.8608 110.462607 
" clip-path="url(#p13ce4da97e)" style="fill: none; stroke: #000000; stroke-width: 0.8; stroke-linecap: square"/>
   </g>
   <g id="line2d_27">
    <path d="M 316.32 113.553807 
L 321.6192 110.462607 
" clip-path="url(#p13ce4da97e)" style="fill: none; stroke: #000000; stroke-width: 0.8; stroke-linecap: square"/>
   </g>
   <g id="line2d_28">
    <path d="M 470.88 457.746943 
L 470.88 463.046143 
" clip-path="url(#p13ce4da97e)" style="fill: none; stroke: #000000; stroke-width: 0.8; stroke-linecap: square"/>
   </g>
   <g id="text_14">
    <g id="patch_12">
     <path d="M 523.872 201.82681 
L 615.982781 201.82681 
Q 619.382781 201.82681 619.382781 198.42681 
L 619.382781 94.431966 
Q 619.382781 91.031966 615.982781 91.031966 
L 523.872 91.031966 
Q 520.472 91.031966 520.472 94.431966 
L 520.472 198.42681 
Q 520.472 201.82681 523.872 201.82681 
z
" style="fill: #ffffff; stroke: #999999; stroke-linejoin: miter"/>
    </g>
    <!-- Folk classes: -->
    <g transform="translate(523.872 100.935794) scale(0.085 -0.085)">
     <defs>
      <path id="DejaVuSansMono-46" d="M 728 4666 
L 3475 4666 
L 3475 4134 
L 1363 4134 
L 1363 2759 
L 3278 2759 
L 3278 2228 
L 1363 2228 
L 1363 0 
L 728 0 
L 728 4666 
z
" transform="scale(0.015625)"/>
      <path id="DejaVuSansMono-6f" d="M 1925 3097 
Q 1488 3097 1263 2756 
Q 1038 2416 1038 1747 
Q 1038 1081 1263 739 
Q 1488 397 1925 397 
Q 2366 397 2591 739 
Q 2816 1081 2816 1747 
Q 2816 2416 2591 2756 
Q 2366 3097 1925 3097 
z
M 1925 3584 
Q 2653 3584 3039 3112 
Q 3425 2641 3425 1747 
Q 3425 850 3040 379 
Q 2656 -91 1925 -91 
Q 1197 -91 812 379 
Q 428 850 428 1747 
Q 428 2641 812 3112 
Q 1197 3584 1925 3584 
z
" transform="scale(0.015625)"/>
      <path id="DejaVuSansMono-6c" d="M 1997 1269 
Q 1997 881 2139 684 
Q 2281 488 2559 488 
L 3231 488 
L 3231 0 
L 2503 0 
Q 1988 0 1705 331 
Q 1422 663 1422 1269 
L 1422 4447 
L 500 4447 
L 500 4897 
L 1997 4897 
L 1997 1269 
z
" transform="scale(0.015625)"/>
      <path id="DejaVuSansMono-6b" d="M 738 4863 
L 1331 4863 
L 1331 2047 
L 2841 3500 
L 3541 3500 
L 2163 2181 
L 3756 0 
L 3053 0 
L 1759 1806 
L 1331 1403 
L 1331 0 
L 738 0 
L 738 4863 
z
" transform="scale(0.015625)"/>
      <path id="DejaVuSansMono-20" transform="scale(0.015625)"/>
      <path id="DejaVuSansMono-63" d="M 3316 178 
Q 3084 44 2839 -23 
Q 2594 -91 2338 -91 
Q 1525 -91 1067 396 
Q 609 884 609 1747 
Q 609 2609 1067 3096 
Q 1525 3584 2338 3584 
Q 2591 3584 2831 3518 
Q 3072 3453 3316 3316 
L 3316 2713 
Q 3088 2916 2858 3006 
Q 2628 3097 2338 3097 
Q 1797 3097 1506 2747 
Q 1216 2397 1216 1747 
Q 1216 1100 1508 748 
Q 1800 397 2338 397 
Q 2638 397 2875 489 
Q 3113 581 3316 775 
L 3316 178 
z
" transform="scale(0.015625)"/>
      <path id="DejaVuSansMono-61" d="M 2194 1759 
L 2003 1759 
Q 1500 1759 1245 1582 
Q 991 1406 991 1056 
Q 991 741 1181 566 
Q 1372 391 1709 391 
Q 2184 391 2456 720 
Q 2728 1050 2731 1631 
L 2731 1759 
L 2194 1759 
z
M 3309 1997 
L 3309 0 
L 2731 0 
L 2731 519 
Q 2547 206 2267 57 
Q 1988 -91 1588 -91 
Q 1053 -91 734 211 
Q 416 513 416 1019 
Q 416 1603 808 1906 
Q 1200 2209 1959 2209 
L 2731 2209 
L 2731 2300 
Q 2728 2719 2518 2908 
Q 2309 3097 1850 3097 
Q 1556 3097 1256 3012 
Q 956 2928 672 2766 
L 672 3341 
Q 991 3463 1283 3523 
Q 1575 3584 1850 3584 
Q 2284 3584 2592 3456 
Q 2900 3328 3091 3072 
Q 3209 2916 3259 2686 
Q 3309 2456 3309 1997 
z
" transform="scale(0.015625)"/>
      <path id="DejaVuSansMono-73" d="M 3041 3378 
L 3041 2816 
Q 2794 2959 2544 3031 
Q 2294 3103 2034 3103 
Q 1644 3103 1451 2976 
Q 1259 2850 1259 2591 
Q 1259 2356 1403 2240 
Q 1547 2125 2119 2016 
L 2350 1972 
Q 2778 1891 2998 1647 
Q 3219 1403 3219 1013 
Q 3219 494 2850 201 
Q 2481 -91 1825 -91 
Q 1566 -91 1281 -36 
Q 997 19 666 128 
L 666 722 
Q 988 556 1281 473 
Q 1575 391 1838 391 
Q 2219 391 2428 545 
Q 2638 700 2638 978 
Q 2638 1378 1872 1531 
L 1847 1538 
L 1631 1581 
Q 1134 1678 906 1908 
Q 678 2138 678 2534 
Q 678 3038 1018 3311 
Q 1359 3584 1991 3584 
Q 2272 3584 2531 3532 
Q 2791 3481 3041 3378 
z
" transform="scale(0.015625)"/>
      <path id="DejaVuSansMono-65" d="M 3475 1894 
L 3475 1613 
L 984 1613 
L 984 1594 
Q 984 1022 1282 709 
Q 1581 397 2125 397 
Q 2400 397 2700 484 
Q 3000 572 3341 750 
L 3341 178 
Q 3013 44 2708 -23 
Q 2403 -91 2119 -91 
Q 1303 -91 843 398 
Q 384 888 384 1747 
Q 384 2584 834 3084 
Q 1284 3584 2034 3584 
Q 2703 3584 3089 3131 
Q 3475 2678 3475 1894 
z
M 2900 2063 
Q 2888 2569 2661 2833 
Q 2434 3097 2009 3097 
Q 1594 3097 1325 2822 
Q 1056 2547 1006 2059 
L 2900 2063 
z
" transform="scale(0.015625)"/>
      <path id="DejaVuSansMono-3a" d="M 1528 3322 
L 2316 3322 
L 2316 2375 
L 1528 2375 
L 1528 3322 
z
M 1528 953 
L 2316 953 
L 2316 0 
L 1528 0 
L 1528 953 
z
" transform="scale(0.015625)"/>
     </defs>
     <use xlink:href="#DejaVuSansMono-46"/>
     <use xlink:href="#DejaVuSansMono-6f" transform="translate(60.205078 0)"/>
     <use xlink:href="#DejaVuSansMono-6c" transform="translate(120.410156 0)"/>
     <use xlink:href="#DejaVuSansMono-6b" transform="translate(180.615234 0)"/>
     <use xlink:href="#DejaVuSansMono-20" transform="translate(240.820312 0)"/>
     <use xlink:href="#DejaVuSansMono-63" transform="translate(301.025391 0)"/>
     <use xlink:href="#DejaVuSansMono-6c" transform="translate(361.230469 0)"/>
     <use xlink:href="#DejaVuSansMono-61" transform="translate(421.435547 0)"/>
     <use xlink:href="#DejaVuSansMono-73" transform="translate(481.640625 0)"/>
     <use xlink:href="#DejaVuSansMono-73" transform="translate(541.845703 0)"/>
     <use xlink:href="#DejaVuSansMono-65" transform="translate(602.050781 0)"/>
     <use xlink:href="#DejaVuSansMono-73" transform="translate(662.255859 0)"/>
     <use xlink:href="#DejaVuSansMono-3a" transform="translate(722.460938 0)"/>
    </g>
    <!--   S - Sand -->
    <g transform="translate(523.872 110.508122) scale(0.085 -0.085)">
     <defs>
      <path id="DejaVuSansMono-53" d="M 3163 4506 
L 3163 3866 
Q 2875 4050 2586 4144 
Q 2297 4238 2003 4238 
Q 1556 4238 1297 4030 
Q 1038 3822 1038 3469 
Q 1038 3159 1208 2996 
Q 1378 2834 1844 2725 
L 2175 2650 
Q 2831 2497 3131 2169 
Q 3431 1841 3431 1275 
Q 3431 609 3018 259 
Q 2606 -91 1819 -91 
Q 1491 -91 1159 -20 
Q 828 50 494 191 
L 494 863 
Q 853 634 1173 528 
Q 1494 422 1819 422 
Q 2297 422 2562 636 
Q 2828 850 2828 1234 
Q 2828 1584 2645 1768 
Q 2463 1953 2009 2053 
L 1672 2131 
Q 1022 2278 728 2575 
Q 434 2872 434 3372 
Q 434 3997 854 4373 
Q 1275 4750 1972 4750 
Q 2241 4750 2537 4689 
Q 2834 4628 3163 4506 
z
" transform="scale(0.015625)"/>
      <path id="DejaVuSansMono-2d" d="M 1113 2009 
L 2741 2009 
L 2741 1497 
L 1113 1497 
L 1113 2009 
z
" transform="scale(0.015625)"/>
      <path id="DejaVuSansMono-6e" d="M 3284 2169 
L 3284 0 
L 2706 0 
L 2706 2169 
Q 2706 2641 2540 2862 
Q 2375 3084 2022 3084 
Q 1619 3084 1401 2798 
Q 1184 2513 1184 1978 
L 1184 0 
L 609 0 
L 609 3500 
L 1184 3500 
L 1184 2975 
Q 1338 3275 1600 3429 
Q 1863 3584 2222 3584 
Q 2756 3584 3020 3232 
Q 3284 2881 3284 2169 
z
" transform="scale(0.015625)"/>
      <path id="DejaVuSansMono-64" d="M 2681 3053 
L 2681 4863 
L 3256 4863 
L 3256 0 
L 2681 0 
L 2681 441 
Q 2538 181 2298 45 
Q 2059 -91 1747 -91 
Q 1113 -91 748 401 
Q 384 894 384 1759 
Q 384 2613 750 3098 
Q 1116 3584 1747 3584 
Q 2063 3584 2303 3448 
Q 2544 3313 2681 3053 
z
M 991 1747 
Q 991 1078 1203 737 
Q 1416 397 1831 397 
Q 2247 397 2464 740 
Q 2681 1084 2681 1747 
Q 2681 2413 2464 2755 
Q 2247 3097 1831 3097 
Q 1416 3097 1203 2756 
Q 991 2416 991 1747 
z
" transform="scale(0.015625)"/>
     </defs>
     <use xlink:href="#DejaVuSansMono-20"/>
     <use xlink:href="#DejaVuSansMono-20" transform="translate(60.205078 0)"/>
     <use xlink:href="#DejaVuSansMono-53" transform="translate(120.410156 0)"/>
     <use xlink:href="#DejaVuSansMono-20" transform="translate(180.615234 0)"/>
     <use xlink:href="#DejaVuSansMono-2d" transform="translate(240.820312 0)"/>
     <use xlink:href="#DejaVuSansMono-20" transform="translate(301.025391 0)"/>
     <use xlink:href="#DejaVuSansMono-53" transform="translate(361.230469 0)"/>
     <use xlink:href="#DejaVuSansMono-61" transform="translate(421.435547 0)"/>
     <use xlink:href="#DejaVuSansMono-6e" transform="translate(481.640625 0)"/>
     <use xlink:href="#DejaVuSansMono-64" transform="translate(541.845703 0)"/>
    </g>
    <!--   zS - silty Sand -->
    <g transform="translate(523.872 120.08045) scale(0.085 -0.085)">
     <defs>
      <path id="DejaVuSansMono-7a" d="M 709 3506 
L 3250 3506 
L 3250 2981 
L 1241 469 
L 3250 469 
L 3250 0 
L 634 0 
L 634 531 
L 2644 3047 
L 709 3047 
L 709 3506 
z
" transform="scale(0.015625)"/>
      <path id="DejaVuSansMono-69" d="M 800 3500 
L 2272 3500 
L 2272 447 
L 3413 447 
L 3413 0 
L 556 0 
L 556 447 
L 1697 447 
L 1697 3053 
L 800 3053 
L 800 3500 
z
M 1697 4863 
L 2272 4863 
L 2272 4134 
L 1697 4134 
L 1697 4863 
z
" transform="scale(0.015625)"/>
      <path id="DejaVuSansMono-74" d="M 1919 4494 
L 1919 3500 
L 3225 3500 
L 3225 3053 
L 1919 3053 
L 1919 1153 
Q 1919 766 2066 612 
Q 2213 459 2578 459 
L 3225 459 
L 3225 0 
L 2522 0 
Q 1875 0 1609 259 
Q 1344 519 1344 1153 
L 1344 3053 
L 409 3053 
L 409 3500 
L 1344 3500 
L 1344 4494 
L 1919 4494 
z
" transform="scale(0.015625)"/>
      <path id="DejaVuSansMono-79" d="M 2681 1125 
Q 2538 759 2316 163 
Q 2006 -663 1900 -844 
Q 1756 -1088 1540 -1209 
Q 1325 -1331 1038 -1331 
L 575 -1331 
L 575 -850 
L 916 -850 
Q 1169 -850 1312 -703 
Q 1456 -556 1678 56 
L 325 3500 
L 934 3500 
L 1972 763 
L 2994 3500 
L 3603 3500 
L 2681 1125 
z
" transform="scale(0.015625)"/>
     </defs>
     <use xlink:href="#DejaVuSansMono-20"/>
     <use xlink:href="#DejaVuSansMono-20" transform="translate(60.205078 0)"/>
     <use xlink:href="#DejaVuSansMono-7a" transform="translate(120.410156 0)"/>
     <use xlink:href="#DejaVuSansMono-53" transform="translate(180.615234 0)"/>
     <use xlink:href="#DejaVuSansMono-20" transform="translate(240.820312 0)"/>
     <use xlink:href="#DejaVuSansMono-2d" transform="translate(301.025391 0)"/>
     <use xlink:href="#DejaVuSansMono-20" transform="translate(361.230469 0)"/>
     <use xlink:href="#DejaVuSansMono-73" transform="translate(421.435547 0)"/>
     <use xlink:href="#DejaVuSansMono-69" transform="translate(481.640625 0)"/>
     <use xlink:href="#DejaVuSansMono-6c" transform="translate(541.845703 0)"/>
     <use xlink:href="#DejaVuSansMono-74" transform="translate(602.050781 0)"/>
     <use xlink:href="#DejaVuSansMono-79" transform="translate(662.255859 0)"/>
     <use xlink:href="#DejaVuSansMono-20" transform="translate(722.460938 0)"/>
     <use xlink:href="#DejaVuSansMono-53" transform="translate(782.666016 0)"/>
     <use xlink:href="#DejaVuSansMono-61" transform="translate(842.871094 0)"/>
     <use xlink:href="#DejaVuSansMono-6e" transform="translate(903.076172 0)"/>
     <use xlink:href="#DejaVuSansMono-64" transform="translate(963.28125 0)"/>
    </g>
    <!--   mS - muddy Sand -->
    <g transform="translate(523.872 129.652778) scale(0.085 -0.085)">
     <defs>
      <path id="DejaVuSansMono-6d" d="M 2113 3144 
Q 2219 3369 2383 3476 
Q 2547 3584 2778 3584 
Q 3200 3584 3373 3257 
Q 3547 2931 3547 2028 
L 3547 0 
L 3022 0 
L 3022 2003 
Q 3022 2744 2939 2923 
Q 2856 3103 2638 3103 
Q 2388 3103 2295 2911 
Q 2203 2719 2203 2003 
L 2203 0 
L 1678 0 
L 1678 2003 
Q 1678 2753 1589 2928 
Q 1500 3103 1269 3103 
Q 1041 3103 952 2911 
Q 863 2719 863 2003 
L 863 0 
L 341 0 
L 341 3500 
L 863 3500 
L 863 3200 
Q 966 3388 1120 3486 
Q 1275 3584 1472 3584 
Q 1709 3584 1867 3475 
Q 2025 3366 2113 3144 
z
" transform="scale(0.015625)"/>
      <path id="DejaVuSansMono-75" d="M 609 1325 
L 609 3494 
L 1184 3494 
L 1184 1325 
Q 1184 853 1351 631 
Q 1519 409 1869 409 
Q 2275 409 2490 695 
Q 2706 981 2706 1516 
L 2706 3494 
L 3284 3494 
L 3284 0 
L 2706 0 
L 2706 525 
Q 2553 222 2289 65 
Q 2025 -91 1672 -91 
Q 1134 -91 871 261 
Q 609 613 609 1325 
z
" transform="scale(0.015625)"/>
     </defs>
     <use xlink:href="#DejaVuSansMono-20"/>
     <use xlink:href="#DejaVuSansMono-20" transform="translate(60.205078 0)"/>
     <use xlink:href="#DejaVuSansMono-6d" transform="translate(120.410156 0)"/>
     <use xlink:href="#DejaVuSansMono-53" transform="translate(180.615234 0)"/>
     <use xlink:href="#DejaVuSansMono-20" transform="translate(240.820312 0)"/>
     <use xlink:href="#DejaVuSansMono-2d" transform="translate(301.025391 0)"/>
     <use xlink:href="#DejaVuSansMono-20" transform="translate(361.230469 0)"/>
     <use xlink:href="#DejaVuSansMono-6d" transform="translate(421.435547 0)"/>
     <use xlink:href="#DejaVuSansMono-75" transform="translate(481.640625 0)"/>
     <use xlink:href="#DejaVuSansMono-64" transform="translate(541.845703 0)"/>
     <use xlink:href="#DejaVuSansMono-64" transform="translate(602.050781 0)"/>
     <use xlink:href="#DejaVuSansMono-79" transform="translate(662.255859 0)"/>
     <use xlink:href="#DejaVuSansMono-20" transform="translate(722.460938 0)"/>
     <use xlink:href="#DejaVuSansMono-53" transform="translate(782.666016 0)"/>
     <use xlink:href="#DejaVuSansMono-61" transform="translate(842.871094 0)"/>
     <use xlink:href="#DejaVuSansMono-6e" transform="translate(903.076172 0)"/>
     <use xlink:href="#DejaVuSansMono-64" transform="translate(963.28125 0)"/>
    </g>
    <!--   cS - clayey Sand -->
    <g transform="translate(523.872 139.225107) scale(0.085 -0.085)">
     <use xlink:href="#DejaVuSansMono-20"/>
     <use xlink:href="#DejaVuSansMono-20" transform="translate(60.205078 0)"/>
     <use xlink:href="#DejaVuSansMono-63" transform="translate(120.410156 0)"/>
     <use xlink:href="#DejaVuSansMono-53" transform="translate(180.615234 0)"/>
     <use xlink:href="#DejaVuSansMono-20" transform="translate(240.820312 0)"/>
     <use xlink:href="#DejaVuSansMono-2d" transform="translate(301.025391 0)"/>
     <use xlink:href="#DejaVuSansMono-20" transform="translate(361.230469 0)"/>
     <use xlink:href="#DejaVuSansMono-63" transform="translate(421.435547 0)"/>
     <use xlink:href="#DejaVuSansMono-6c" transform="translate(481.640625 0)"/>
     <use xlink:href="#DejaVuSansMono-61" transform="translate(541.845703 0)"/>
     <use xlink:href="#DejaVuSansMono-79" transform="translate(602.050781 0)"/>
     <use xlink:href="#DejaVuSansMono-65" transform="translate(662.255859 0)"/>
     <use xlink:href="#DejaVuSansMono-79" transform="translate(722.460938 0)"/>
     <use xlink:href="#DejaVuSansMono-20" transform="translate(782.666016 0)"/>
     <use xlink:href="#DejaVuSansMono-53" transform="translate(842.871094 0)"/>
     <use xlink:href="#DejaVuSansMono-61" transform="translate(903.076172 0)"/>
     <use xlink:href="#DejaVuSansMono-6e" transform="translate(963.28125 0)"/>
     <use xlink:href="#DejaVuSansMono-64" transform="translate(1023.486328 0)"/>
    </g>
    <!--   sZ - sandy Silt -->
    <g transform="translate(523.872 148.797435) scale(0.085 -0.085)">
     <defs>
      <path id="DejaVuSansMono-5a" d="M 556 4666 
L 3584 4666 
L 3584 4184 
L 1147 531 
L 3653 531 
L 3653 0 
L 488 0 
L 488 481 
L 2859 4134 
L 556 4134 
L 556 4666 
z
" transform="scale(0.015625)"/>
     </defs>
     <use xlink:href="#DejaVuSansMono-20"/>
     <use xlink:href="#DejaVuSansMono-20" transform="translate(60.205078 0)"/>
     <use xlink:href="#DejaVuSansMono-73" transform="translate(120.410156 0)"/>
     <use xlink:href="#DejaVuSansMono-5a" transform="translate(180.615234 0)"/>
     <use xlink:href="#DejaVuSansMono-20" transform="translate(240.820312 0)"/>
     <use xlink:href="#DejaVuSansMono-2d" transform="translate(301.025391 0)"/>
     <use xlink:href="#DejaVuSansMono-20" transform="translate(361.230469 0)"/>
     <use xlink:href="#DejaVuSansMono-73" transform="translate(421.435547 0)"/>
     <use xlink:href="#DejaVuSansMono-61" transform="translate(481.640625 0)"/>
     <use xlink:href="#DejaVuSansMono-6e" transform="translate(541.845703 0)"/>
     <use xlink:href="#DejaVuSansMono-64" transform="translate(602.050781 0)"/>
     <use xlink:href="#DejaVuSansMono-79" transform="translate(662.255859 0)"/>
     <use xlink:href="#DejaVuSansMono-20" transform="translate(722.460938 0)"/>
     <use xlink:href="#DejaVuSansMono-53" transform="translate(782.666016 0)"/>
     <use xlink:href="#DejaVuSansMono-69" transform="translate(842.871094 0)"/>
     <use xlink:href="#DejaVuSansMono-6c" transform="translate(903.076172 0)"/>
     <use xlink:href="#DejaVuSansMono-74" transform="translate(963.28125 0)"/>
    </g>
    <!--   sM - sandy Mud -->
    <g transform="translate(523.872 158.369763) scale(0.085 -0.085)">
     <defs>
      <path id="DejaVuSansMono-4d" d="M 269 4666 
L 1113 4666 
L 1919 2291 
L 2731 4666 
L 3578 4666 
L 3578 0 
L 2994 0 
L 2994 4122 
L 2163 1663 
L 1684 1663 
L 850 4122 
L 850 0 
L 269 0 
L 269 4666 
z
" transform="scale(0.015625)"/>
     </defs>
     <use xlink:href="#DejaVuSansMono-20"/>
     <use xlink:href="#DejaVuSansMono-20" transform="translate(60.205078 0)"/>
     <use xlink:href="#DejaVuSansMono-73" transform="translate(120.410156 0)"/>
     <use xlink:href="#DejaVuSansMono-4d" transform="translate(180.615234 0)"/>
     <use xlink:href="#DejaVuSansMono-20" transform="translate(240.820312 0)"/>
     <use xlink:href="#DejaVuSansMono-2d" transform="translate(301.025391 0)"/>
     <use xlink:href="#DejaVuSansMono-20" transform="translate(361.230469 0)"/>
     <use xlink:href="#DejaVuSansMono-73" transform="translate(421.435547 0)"/>
     <use xlink:href="#DejaVuSansMono-61" transform="translate(481.640625 0)"/>
     <use xlink:href="#DejaVuSansMono-6e" transform="translate(541.845703 0)"/>
     <use xlink:href="#DejaVuSansMono-64" transform="translate(602.050781 0)"/>
     <use xlink:href="#DejaVuSansMono-79" transform="translate(662.255859 0)"/>
     <use xlink:href="#DejaVuSansMono-20" transform="translate(722.460938 0)"/>
     <use xlink:href="#DejaVuSansMono-4d" transform="translate(782.666016 0)"/>
     <use xlink:href="#DejaVuSansMono-75" transform="translate(842.871094 0)"/>
     <use xlink:href="#DejaVuSansMono-64" transform="translate(903.076172 0)"/>
    </g>
    <!--   sC - sandy Clay -->
    <g transform="translate(523.872 167.942091) scale(0.085 -0.085)">
     <defs>
      <path id="DejaVuSansMono-43" d="M 3353 166 
Q 3113 38 2859 -26 
Q 2606 -91 2322 -91 
Q 1425 -91 929 543 
Q 434 1178 434 2328 
Q 434 3472 932 4111 
Q 1431 4750 2322 4750 
Q 2606 4750 2859 4686 
Q 3113 4622 3353 4494 
L 3353 3847 
Q 3122 4038 2856 4138 
Q 2591 4238 2322 4238 
Q 1706 4238 1400 3763 
Q 1094 3288 1094 2328 
Q 1094 1372 1400 897 
Q 1706 422 2322 422 
Q 2597 422 2861 522 
Q 3125 622 3353 813 
L 3353 166 
z
" transform="scale(0.015625)"/>
     </defs>
     <use xlink:href="#DejaVuSansMono-20"/>
     <use xlink:href="#DejaVuSansMono-20" transform="translate(60.205078 0)"/>
     <use xlink:href="#DejaVuSansMono-73" transform="translate(120.410156 0)"/>
     <use xlink:href="#DejaVuSansMono-43" transform="translate(180.615234 0)"/>
     <use xlink:href="#DejaVuSansMono-20" transform="translate(240.820312 0)"/>
     <use xlink:href="#DejaVuSansMono-2d" transform="translate(301.025391 0)"/>
     <use xlink:href="#DejaVuSansMono-20" transform="translate(361.230469 0)"/>
     <use xlink:href="#DejaVuSansMono-73" transform="translate(421.435547 0)"/>
     <use xlink:href="#DejaVuSansMono-61" transform="translate(481.640625 0)"/>
     <use xlink:href="#DejaVuSansMono-6e" transform="translate(541.845703 0)"/>
     <use xlink:href="#DejaVuSansMono-64" transform="translate(602.050781 0)"/>
     <use xlink:href="#DejaVuSansMono-79" transform="translate(662.255859 0)"/>
     <use xlink:href="#DejaVuSansMono-20" transform="translate(722.460938 0)"/>
     <use xlink:href="#DejaVuSansMono-43" transform="translate(782.666016 0)"/>
     <use xlink:href="#DejaVuSansMono-6c" transform="translate(842.871094 0)"/>
     <use xlink:href="#DejaVuSansMono-61" transform="translate(903.076172 0)"/>
     <use xlink:href="#DejaVuSansMono-79" transform="translate(963.28125 0)"/>
    </g>
    <!--   Z - Silt -->
    <g transform="translate(523.872 177.514419) scale(0.085 -0.085)">
     <use xlink:href="#DejaVuSansMono-20"/>
     <use xlink:href="#DejaVuSansMono-20" transform="translate(60.205078 0)"/>
     <use xlink:href="#DejaVuSansMono-5a" transform="translate(120.410156 0)"/>
     <use xlink:href="#DejaVuSansMono-20" transform="translate(180.615234 0)"/>
     <use xlink:href="#DejaVuSansMono-2d" transform="translate(240.820312 0)"/>
     <use xlink:href="#DejaVuSansMono-20" transform="translate(301.025391 0)"/>
     <use xlink:href="#DejaVuSansMono-53" transform="translate(361.230469 0)"/>
     <use xlink:href="#DejaVuSansMono-69" transform="translate(421.435547 0)"/>
     <use xlink:href="#DejaVuSansMono-6c" transform="translate(481.640625 0)"/>
     <use xlink:href="#DejaVuSansMono-74" transform="translate(541.845703 0)"/>
    </g>
    <!--   M - Mud -->
    <g transform="translate(523.872 187.086747) scale(0.085 -0.085)">
     <use xlink:href="#DejaVuSansMono-20"/>
     <use xlink:href="#DejaVuSansMono-20" transform="translate(60.205078 0)"/>
     <use xlink:href="#DejaVuSansMono-4d" transform="translate(120.410156 0)"/>
     <use xlink:href="#DejaVuSansMono-20" transform="translate(180.615234 0)"/>
     <use xlink:href="#DejaVuSansMono-2d" transform="translate(240.820312 0)"/>
     <use xlink:href="#DejaVuSansMono-20" transform="translate(301.025391 0)"/>
     <use xlink:href="#DejaVuSansMono-4d" transform="translate(361.230469 0)"/>
     <use xlink:href="#DejaVuSansMono-75" transform="translate(421.435547 0)"/>
     <use xlink:href="#DejaVuSansMono-64" transform="translate(481.640625 0)"/>
    </g>
    <!--   C - Clay -->
    <g transform="translate(523.872 196.659075) scale(0.085 -0.085)">
     <use xlink:href="#DejaVuSansMono-20"/>
     <use xlink:href="#DejaVuSansMono-20" transform="translate(60.205078 0)"/>
     <use xlink:href="#DejaVuSansMono-43" transform="translate(120.410156 0)"/>
     <use xlink:href="#DejaVuSansMono-20" transform="translate(180.615234 0)"/>
     <use xlink:href="#DejaVuSansMono-2d" transform="translate(240.820312 0)"/>
     <use xlink:href="#DejaVuSansMono-20" transform="translate(301.025391 0)"/>
     <use xlink:href="#DejaVuSansMono-43" transform="translate(361.230469 0)"/>
     <use xlink:href="#DejaVuSansMono-6c" transform="translate(421.435547 0)"/>
     <use xlink:href="#DejaVuSansMono-61" transform="translate(481.640625 0)"/>
     <use xlink:href="#DejaVuSansMono-79" transform="translate(541.845703 0)"/>
    </g>
   </g>
   <g id="text_15">
    <!-- Folk (1954) ternary - Sand-Silt-Clay -->
    <g transform="translate(218.805937 16.318125) scale(0.12 -0.12)">
     <defs>
      <path id="DejaVuSans-Bold-46" d="M 588 4666 
L 3834 4666 
L 3834 3756 
L 1791 3756 
L 1791 2888 
L 3713 2888 
L 3713 1978 
L 1791 1978 
L 1791 0 
L 588 0 
L 588 4666 
z
" transform="scale(0.015625)"/>
      <path id="DejaVuSans-Bold-6f" d="M 2203 2784 
Q 1831 2784 1636 2517 
Q 1441 2250 1441 1747 
Q 1441 1244 1636 976 
Q 1831 709 2203 709 
Q 2569 709 2762 976 
Q 2956 1244 2956 1747 
Q 2956 2250 2762 2517 
Q 2569 2784 2203 2784 
z
M 2203 3584 
Q 3106 3584 3614 3096 
Q 4122 2609 4122 1747 
Q 4122 884 3614 396 
Q 3106 -91 2203 -91 
Q 1297 -91 786 396 
Q 275 884 275 1747 
Q 275 2609 786 3096 
Q 1297 3584 2203 3584 
z
" transform="scale(0.015625)"/>
      <path id="DejaVuSans-Bold-6c" d="M 538 4863 
L 1656 4863 
L 1656 0 
L 538 0 
L 538 4863 
z
" transform="scale(0.015625)"/>
      <path id="DejaVuSans-Bold-6b" d="M 538 4863 
L 1656 4863 
L 1656 2216 
L 2944 3500 
L 4244 3500 
L 2534 1894 
L 4378 0 
L 3022 0 
L 1656 1459 
L 1656 0 
L 538 0 
L 538 4863 
z
" transform="scale(0.015625)"/>
      <path id="DejaVuSans-Bold-20" transform="scale(0.015625)"/>
      <path id="DejaVuSans-Bold-28" d="M 2413 -844 
L 1484 -844 
Q 1006 -72 778 623 
Q 550 1319 550 2003 
Q 550 2688 779 3389 
Q 1009 4091 1484 4856 
L 2413 4856 
Q 2013 4116 1813 3408 
Q 1613 2700 1613 2009 
Q 1613 1319 1811 609 
Q 2009 -100 2413 -844 
z
" transform="scale(0.015625)"/>
      <path id="DejaVuSans-Bold-31" d="M 750 831 
L 1813 831 
L 1813 3847 
L 722 3622 
L 722 4441 
L 1806 4666 
L 2950 4666 
L 2950 831 
L 4013 831 
L 4013 0 
L 750 0 
L 750 831 
z
" transform="scale(0.015625)"/>
      <path id="DejaVuSans-Bold-39" d="M 641 103 
L 641 966 
Q 928 831 1190 764 
Q 1453 697 1709 697 
Q 2247 697 2547 995 
Q 2847 1294 2900 1881 
Q 2688 1725 2447 1647 
Q 2206 1569 1925 1569 
Q 1209 1569 770 1986 
Q 331 2403 331 3084 
Q 331 3838 820 4291 
Q 1309 4744 2131 4744 
Q 3044 4744 3544 4128 
Q 4044 3513 4044 2388 
Q 4044 1231 3459 570 
Q 2875 -91 1856 -91 
Q 1528 -91 1228 -42 
Q 928 6 641 103 
z
M 2125 2350 
Q 2441 2350 2600 2554 
Q 2759 2759 2759 3169 
Q 2759 3575 2600 3781 
Q 2441 3988 2125 3988 
Q 1809 3988 1650 3781 
Q 1491 3575 1491 3169 
Q 1491 2759 1650 2554 
Q 1809 2350 2125 2350 
z
" transform="scale(0.015625)"/>
      <path id="DejaVuSans-Bold-35" d="M 678 4666 
L 3669 4666 
L 3669 3781 
L 1638 3781 
L 1638 3059 
Q 1775 3097 1914 3117 
Q 2053 3138 2203 3138 
Q 3056 3138 3531 2711 
Q 4006 2284 4006 1522 
Q 4006 766 3489 337 
Q 2972 -91 2053 -91 
Q 1656 -91 1267 -14 
Q 878 63 494 219 
L 494 1166 
Q 875 947 1217 837 
Q 1559 728 1863 728 
Q 2300 728 2551 942 
Q 2803 1156 2803 1522 
Q 2803 1891 2551 2103 
Q 2300 2316 1863 2316 
Q 1603 2316 1309 2248 
Q 1016 2181 678 2041 
L 678 4666 
z
" transform="scale(0.015625)"/>
      <path id="DejaVuSans-Bold-34" d="M 2356 3675 
L 1038 1722 
L 2356 1722 
L 2356 3675 
z
M 2156 4666 
L 3494 4666 
L 3494 1722 
L 4159 1722 
L 4159 850 
L 3494 850 
L 3494 0 
L 2356 0 
L 2356 850 
L 288 850 
L 288 1881 
L 2156 4666 
z
" transform="scale(0.015625)"/>
      <path id="DejaVuSans-Bold-29" d="M 513 -844 
Q 913 -100 1113 609 
Q 1313 1319 1313 2009 
Q 1313 2700 1113 3408 
Q 913 4116 513 4856 
L 1441 4856 
Q 1916 4091 2145 3389 
Q 2375 2688 2375 2003 
Q 2375 1319 2147 623 
Q 1919 -72 1441 -844 
L 513 -844 
z
" transform="scale(0.015625)"/>
      <path id="DejaVuSans-Bold-74" d="M 1759 4494 
L 1759 3500 
L 2913 3500 
L 2913 2700 
L 1759 2700 
L 1759 1216 
Q 1759 972 1856 886 
Q 1953 800 2241 800 
L 2816 800 
L 2816 0 
L 1856 0 
Q 1194 0 917 276 
Q 641 553 641 1216 
L 641 2700 
L 84 2700 
L 84 3500 
L 641 3500 
L 641 4494 
L 1759 4494 
z
" transform="scale(0.015625)"/>
      <path id="DejaVuSans-Bold-65" d="M 4031 1759 
L 4031 1441 
L 1416 1441 
Q 1456 1047 1700 850 
Q 1944 653 2381 653 
Q 2734 653 3104 758 
Q 3475 863 3866 1075 
L 3866 213 
Q 3469 63 3072 -14 
Q 2675 -91 2278 -91 
Q 1328 -91 801 392 
Q 275 875 275 1747 
Q 275 2603 792 3093 
Q 1309 3584 2216 3584 
Q 3041 3584 3536 3087 
Q 4031 2591 4031 1759 
z
M 2881 2131 
Q 2881 2450 2695 2645 
Q 2509 2841 2209 2841 
Q 1884 2841 1681 2658 
Q 1478 2475 1428 2131 
L 2881 2131 
z
" transform="scale(0.015625)"/>
      <path id="DejaVuSans-Bold-72" d="M 3138 2547 
Q 2991 2616 2845 2648 
Q 2700 2681 2553 2681 
Q 2122 2681 1889 2404 
Q 1656 2128 1656 1613 
L 1656 0 
L 538 0 
L 538 3500 
L 1656 3500 
L 1656 2925 
Q 1872 3269 2151 3426 
Q 2431 3584 2822 3584 
Q 2878 3584 2943 3579 
Q 3009 3575 3134 3559 
L 3138 2547 
z
" transform="scale(0.015625)"/>
      <path id="DejaVuSans-Bold-6e" d="M 4056 2131 
L 4056 0 
L 2931 0 
L 2931 347 
L 2931 1631 
Q 2931 2084 2911 2256 
Q 2891 2428 2841 2509 
Q 2775 2619 2662 2680 
Q 2550 2741 2406 2741 
Q 2056 2741 1856 2470 
Q 1656 2200 1656 1722 
L 1656 0 
L 538 0 
L 538 3500 
L 1656 3500 
L 1656 2988 
Q 1909 3294 2193 3439 
Q 2478 3584 2822 3584 
Q 3428 3584 3742 3212 
Q 4056 2841 4056 2131 
z
" transform="scale(0.015625)"/>
      <path id="DejaVuSans-Bold-61" d="M 2106 1575 
Q 1756 1575 1579 1456 
Q 1403 1338 1403 1106 
Q 1403 894 1545 773 
Q 1688 653 1941 653 
Q 2256 653 2472 879 
Q 2688 1106 2688 1447 
L 2688 1575 
L 2106 1575 
z
M 3816 1997 
L 3816 0 
L 2688 0 
L 2688 519 
Q 2463 200 2181 54 
Q 1900 -91 1497 -91 
Q 953 -91 614 226 
Q 275 544 275 1050 
Q 275 1666 698 1953 
Q 1122 2241 2028 2241 
L 2688 2241 
L 2688 2328 
Q 2688 2594 2478 2717 
Q 2269 2841 1825 2841 
Q 1466 2841 1156 2769 
Q 847 2697 581 2553 
L 581 3406 
Q 941 3494 1303 3539 
Q 1666 3584 2028 3584 
Q 2975 3584 3395 3211 
Q 3816 2838 3816 1997 
z
" transform="scale(0.015625)"/>
      <path id="DejaVuSans-Bold-79" d="M 78 3500 
L 1197 3500 
L 2138 1125 
L 2938 3500 
L 4056 3500 
L 2584 -331 
Q 2363 -916 2067 -1148 
Q 1772 -1381 1288 -1381 
L 641 -1381 
L 641 -647 
L 991 -647 
Q 1275 -647 1404 -556 
Q 1534 -466 1606 -231 
L 1638 -134 
L 78 3500 
z
" transform="scale(0.015625)"/>
      <path id="DejaVuSans-Bold-2d" d="M 347 2297 
L 2309 2297 
L 2309 1388 
L 347 1388 
L 347 2297 
z
" transform="scale(0.015625)"/>
      <path id="DejaVuSans-Bold-64" d="M 2919 2988 
L 2919 4863 
L 4044 4863 
L 4044 0 
L 2919 0 
L 2919 506 
Q 2688 197 2409 53 
Q 2131 -91 1766 -91 
Q 1119 -91 703 423 
Q 288 938 288 1747 
Q 288 2556 703 3070 
Q 1119 3584 1766 3584 
Q 2128 3584 2408 3439 
Q 2688 3294 2919 2988 
z
M 2181 722 
Q 2541 722 2730 984 
Q 2919 1247 2919 1747 
Q 2919 2247 2730 2509 
Q 2541 2772 2181 2772 
Q 1825 2772 1636 2509 
Q 1447 2247 1447 1747 
Q 1447 1247 1636 984 
Q 1825 722 2181 722 
z
" transform="scale(0.015625)"/>
      <path id="DejaVuSans-Bold-69" d="M 538 3500 
L 1656 3500 
L 1656 0 
L 538 0 
L 538 3500 
z
M 538 4863 
L 1656 4863 
L 1656 3950 
L 538 3950 
L 538 4863 
z
" transform="scale(0.015625)"/>
     </defs>
     <use xlink:href="#DejaVuSans-Bold-46"/>
     <use xlink:href="#DejaVuSans-Bold-6f" transform="translate(64.310547 0)"/>
     <use xlink:href="#DejaVuSans-Bold-6c" transform="translate(133.011719 0)"/>
     <use xlink:href="#DejaVuSans-Bold-6b" transform="translate(167.289062 0)"/>
     <use xlink:href="#DejaVuSans-Bold-20" transform="translate(233.792969 0)"/>
     <use xlink:href="#DejaVuSans-Bold-28" transform="translate(268.607422 0)"/>
     <use xlink:href="#DejaVuSans-Bold-31" transform="translate(314.310547 0)"/>
     <use xlink:href="#DejaVuSans-Bold-39" transform="translate(383.890625 0)"/>
     <use xlink:href="#DejaVuSans-Bold-35" transform="translate(453.470703 0)"/>
     <use xlink:href="#DejaVuSans-Bold-34" transform="translate(523.050781 0)"/>
     <use xlink:href="#DejaVuSans-Bold-29" transform="translate(592.630859 0)"/>
     <use xlink:href="#DejaVuSans-Bold-20" transform="translate(638.333984 0)"/>
     <use xlink:href="#DejaVuSans-Bold-74" transform="translate(673.148438 0)"/>
     <use xlink:href="#DejaVuSans-Bold-65" transform="translate(720.951172 0)"/>
     <use xlink:href="#DejaVuSans-Bold-72" transform="translate(788.773438 0)"/>
     <use xlink:href="#DejaVuSans-Bold-6e" transform="translate(838.089844 0)"/>
     <use xlink:href="#DejaVuSans-Bold-61" transform="translate(909.28125 0)"/>
     <use xlink:href="#DejaVuSans-Bold-72" transform="translate(976.761719 0)"/>
     <use xlink:href="#DejaVuSans-Bold-79" transform="translate(1026.078125 0)"/>
     <use xlink:href="#DejaVuSans-Bold-20" transform="translate(1091.263672 0)"/>
     <use xlink:href="#DejaVuSans-Bold-2d" transform="translate(1126.078125 0)"/>
     <use xlink:href="#DejaVuSans-Bold-20" transform="translate(1167.582031 0)"/>
     <use xlink:href="#DejaVuSans-Bold-53" transform="translate(1202.396484 0)"/>
     <use xlink:href="#DejaVuSans-Bold-61" transform="translate(1274.417969 0)"/>
     <use xlink:href="#DejaVuSans-Bold-6e" transform="translate(1341.898438 0)"/>
     <use xlink:href="#DejaVuSans-Bold-64" transform="translate(1413.089844 0)"/>
     <use xlink:href="#DejaVuSans-Bold-2d" transform="translate(1484.671875 0)"/>
     <use xlink:href="#DejaVuSans-Bold-53" transform="translate(1526.175781 0)"/>
     <use xlink:href="#DejaVuSans-Bold-69" transform="translate(1598.197266 0)"/>
     <use xlink:href="#DejaVuSans-Bold-6c" transform="translate(1632.474609 0)"/>
     <use xlink:href="#DejaVuSans-Bold-74" transform="translate(1666.751953 0)"/>
     <use xlink:href="#DejaVuSans-Bold-2d" transform="translate(1714.554688 0)"/>
     <use xlink:href="#DejaVuSans-Bold-43" transform="translate(1756.058594 0)"/>
     <use xlink:href="#DejaVuSans-Bold-6c" transform="translate(1829.447266 0)"/>
     <use xlink:href="#DejaVuSans-Bold-61" transform="translate(1863.724609 0)"/>
     <use xlink:href="#DejaVuSans-Bold-79" transform="translate(1928.080078 0)"/>
    </g>
   </g>
   <g id="PathCollection_1">
    <defs>
     <path id="m49a4d5d656" d="M 0 4.472136 
C 1.186024 4.472136 2.323632 4.000923 3.162278 3.162278 
C 4.000923 2.323632 4.472136 1.186024 4.472136 0 
C 4.472136 -1.186024 4.000923 -2.323632 3.162278 -3.162278 
C 2.323632 -4.000923 1.186024 -4.472136 0 -4.472136 
C -1.186024 -4.472136 -2.323632 -4.000923 -3.162278 -3.162278 
C -4.000923 -2.323632 -4.472136 -1.186024 -4.472136 0 
C -4.472136 1.186024 -4.000923 2.323632 -3.162278 3.162278 
C -2.323632 4.000923 -1.186024 4.472136 0 4.472136 
z
" style="stroke: #000000; stroke-width: 0.8"/>
    </defs>
    <g clip-path="url(#p13ce4da97e)">
     <use xlink:href="#m49a4d5d656" x="335.688903" y="253.687331" style="fill: #ff0000; stroke: #000000; stroke-width: 0.8"/>
    </g>
   </g>
   <g id="PathCollection_2">
    <g clip-path="url(#p13ce4da97e)">
     <use xlink:href="#m49a4d5d656" x="341.702339" y="259.173515" style="fill: #ff0000; stroke: #000000; stroke-width: 0.8"/>
    </g>
   </g>
   <g id="PathCollection_3">
    <g clip-path="url(#p13ce4da97e)">
     <use xlink:href="#m49a4d5d656" x="335.050016" y="246.86929" style="fill: #ff0000; stroke: #000000; stroke-width: 0.8"/>
    </g>
   </g>
   <g id="PathCollection_4">
    <g clip-path="url(#p13ce4da97e)">
     <use xlink:href="#m49a4d5d656" x="329.417926" y="249.444855" style="fill: #ff0000; stroke: #000000; stroke-width: 0.8"/>
    </g>
   </g>
   <g id="text_16">
    <g id="patch_13">
     <path d="M 341.688903 251.193112 
L 367.33406 251.193112 
Q 368.38406 251.193112 368.38406 250.143112 
L 368.38406 243.368424 
Q 368.38406 242.318424 367.33406 242.318424 
L 341.688903 242.318424 
Q 340.638903 242.318424 340.638903 243.368424 
L 340.638903 250.143112 
Q 340.638903 251.193112 341.688903 251.193112 
z
" style="fill: #ffffff; opacity: 0.75"/>
    </g>
    <!-- GLC-01 -->
    <g transform="translate(341.688903 248.687331) scale(0.07 -0.07)">
     <defs>
      <path id="DejaVuSans-47" d="M 3809 666 
L 3809 1919 
L 2778 1919 
L 2778 2438 
L 4434 2438 
L 4434 434 
Q 4069 175 3628 42 
Q 3188 -91 2688 -91 
Q 1594 -91 976 548 
Q 359 1188 359 2328 
Q 359 3472 976 4111 
Q 1594 4750 2688 4750 
Q 3144 4750 3555 4637 
Q 3966 4525 4313 4306 
L 4313 3634 
Q 3963 3931 3569 4081 
Q 3175 4231 2741 4231 
Q 1884 4231 1454 3753 
Q 1025 3275 1025 2328 
Q 1025 1384 1454 906 
Q 1884 428 2741 428 
Q 3075 428 3337 486 
Q 3600 544 3809 666 
z
" transform="scale(0.015625)"/>
      <path id="DejaVuSans-4c" d="M 628 4666 
L 1259 4666 
L 1259 531 
L 3531 531 
L 3531 0 
L 628 0 
L 628 4666 
z
" transform="scale(0.015625)"/>
      <path id="DejaVuSans-43" d="M 4122 4306 
L 4122 3641 
Q 3803 3938 3442 4084 
Q 3081 4231 2675 4231 
Q 1875 4231 1450 3742 
Q 1025 3253 1025 2328 
Q 1025 1406 1450 917 
Q 1875 428 2675 428 
Q 3081 428 3442 575 
Q 3803 722 4122 1019 
L 4122 359 
Q 3791 134 3420 21 
Q 3050 -91 2638 -91 
Q 1578 -91 968 557 
Q 359 1206 359 2328 
Q 359 3453 968 4101 
Q 1578 4750 2638 4750 
Q 3056 4750 3426 4639 
Q 3797 4528 4122 4306 
z
" transform="scale(0.015625)"/>
      <path id="DejaVuSans-2d" d="M 313 2009 
L 1997 2009 
L 1997 1497 
L 313 1497 
L 313 2009 
z
" transform="scale(0.015625)"/>
      <path id="DejaVuSans-30" d="M 2034 4250 
Q 1547 4250 1301 3770 
Q 1056 3291 1056 2328 
Q 1056 1369 1301 889 
Q 1547 409 2034 409 
Q 2525 409 2770 889 
Q 3016 1369 3016 2328 
Q 3016 3291 2770 3770 
Q 2525 4250 2034 4250 
z
M 2034 4750 
Q 2819 4750 3233 4129 
Q 3647 3509 3647 2328 
Q 3647 1150 3233 529 
Q 2819 -91 2034 -91 
Q 1250 -91 836 529 
Q 422 1150 422 2328 
Q 422 3509 836 4129 
Q 1250 4750 2034 4750 
z
" transform="scale(0.015625)"/>
      <path id="DejaVuSans-31" d="M 794 531 
L 1825 531 
L 1825 4091 
L 703 3866 
L 703 4441 
L 1819 4666 
L 2450 4666 
L 2450 531 
L 3481 531 
L 3481 0 
L 794 0 
L 794 531 
z
" transform="scale(0.015625)"/>
     </defs>
     <use xlink:href="#DejaVuSans-47"/>
     <use xlink:href="#DejaVuSans-4c" transform="translate(77.490234 0)"/>
     <use xlink:href="#DejaVuSans-43" transform="translate(133.203125 0)"/>
     <use xlink:href="#DejaVuSans-2d" transform="translate(203.027344 0)"/>
     <use xlink:href="#DejaVuSans-30" transform="translate(239.111328 0)"/>
     <use xlink:href="#DejaVuSans-31" transform="translate(302.734375 0)"/>
    </g>
   </g>
   <g id="text_17">
    <g id="patch_14">
     <path d="M 347.702339 256.679297 
L 373.347496 256.679297 
Q 374.397496 256.679297 374.397496 255.629297 
L 374.397496 248.854609 
Q 374.397496 247.804609 373.347496 247.804609 
L 347.702339 247.804609 
Q 346.652339 247.804609 346.652339 248.854609 
L 346.652339 255.629297 
Q 346.652339 256.679297 347.702339 256.679297 
z
" style="fill: #ffffff; opacity: 0.75"/>
    </g>
    <!-- GLC-02 -->
    <g transform="translate(347.702339 254.173515) scale(0.07 -0.07)">
     <defs>
      <path id="DejaVuSans-32" d="M 1228 531 
L 3431 531 
L 3431 0 
L 469 0 
L 469 531 
Q 828 903 1448 1529 
Q 2069 2156 2228 2338 
Q 2531 2678 2651 2914 
Q 2772 3150 2772 3378 
Q 2772 3750 2511 3984 
Q 2250 4219 1831 4219 
Q 1534 4219 1204 4116 
Q 875 4013 500 3803 
L 500 4441 
Q 881 4594 1212 4672 
Q 1544 4750 1819 4750 
Q 2544 4750 2975 4387 
Q 3406 4025 3406 3419 
Q 3406 3131 3298 2873 
Q 3191 2616 2906 2266 
Q 2828 2175 2409 1742 
Q 1991 1309 1228 531 
z
" transform="scale(0.015625)"/>
     </defs>
     <use xlink:href="#DejaVuSans-47"/>
     <use xlink:href="#DejaVuSans-4c" transform="translate(77.490234 0)"/>
     <use xlink:href="#DejaVuSans-43" transform="translate(133.203125 0)"/>
     <use xlink:href="#DejaVuSans-2d" transform="translate(203.027344 0)"/>
     <use xlink:href="#DejaVuSans-30" transform="translate(239.111328 0)"/>
     <use xlink:href="#DejaVuSans-32" transform="translate(302.734375 0)"/>
    </g>
   </g>
   <g id="text_18">
    <g id="patch_15">
     <path d="M 341.050016 244.375071 
L 366.695173 244.375071 
Q 367.745173 244.375071 367.745173 243.325071 
L 367.745173 236.550384 
Q 367.745173 235.500384 366.695173 235.500384 
L 341.050016 235.500384 
Q 340.000016 235.500384 340.000016 236.550384 
L 340.000016 243.325071 
Q 340.000016 244.375071 341.050016 244.375071 
z
" style="fill: #ffffff; opacity: 0.75"/>
    </g>
    <!-- GLC-03 -->
    <g transform="translate(341.050016 241.86929) scale(0.07 -0.07)">
     <defs>
      <path id="DejaVuSans-33" d="M 2597 2516 
Q 3050 2419 3304 2112 
Q 3559 1806 3559 1356 
Q 3559 666 3084 287 
Q 2609 -91 1734 -91 
Q 1441 -91 1130 -33 
Q 819 25 488 141 
L 488 750 
Q 750 597 1062 519 
Q 1375 441 1716 441 
Q 2309 441 2620 675 
Q 2931 909 2931 1356 
Q 2931 1769 2642 2001 
Q 2353 2234 1838 2234 
L 1294 2234 
L 1294 2753 
L 1863 2753 
Q 2328 2753 2575 2939 
Q 2822 3125 2822 3475 
Q 2822 3834 2567 4026 
Q 2313 4219 1838 4219 
Q 1578 4219 1281 4162 
Q 984 4106 628 3988 
L 628 4550 
Q 988 4650 1302 4700 
Q 1616 4750 1894 4750 
Q 2613 4750 3031 4423 
Q 3450 4097 3450 3541 
Q 3450 3153 3228 2886 
Q 3006 2619 2597 2516 
z
" transform="scale(0.015625)"/>
     </defs>
     <use xlink:href="#DejaVuSans-47"/>
     <use xlink:href="#DejaVuSans-4c" transform="translate(77.490234 0)"/>
     <use xlink:href="#DejaVuSans-43" transform="translate(133.203125 0)"/>
     <use xlink:href="#DejaVuSans-2d" transform="translate(203.027344 0)"/>
     <use xlink:href="#DejaVuSans-30" transform="translate(239.111328 0)"/>
     <use xlink:href="#DejaVuSans-33" transform="translate(302.734375 0)"/>
    </g>
   </g>
   <g id="text_19">
    <g id="patch_16">
     <path d="M 335.417926 246.950636 
L 361.063082 246.950636 
Q 362.113082 246.950636 362.113082 245.900636 
L 362.113082 239.125949 
Q 362.113082 238.075949 361.063082 238.075949 
L 335.417926 238.075949 
Q 334.367926 238.075949 334.367926 239.125949 
L 334.367926 245.900636 
Q 334.367926 246.950636 335.417926 246.950636 
z
" style="fill: #ffffff; opacity: 0.75"/>
    </g>
    <!-- GLC-04 -->
    <g transform="translate(335.417926 244.444855) scale(0.07 -0.07)">
     <defs>
      <path id="DejaVuSans-34" d="M 2419 4116 
L 825 1625 
L 2419 1625 
L 2419 4116 
z
M 2253 4666 
L 3047 4666 
L 3047 1625 
L 3713 1625 
L 3713 1100 
L 3047 1100 
L 3047 0 
L 2419 0 
L 2419 1100 
L 313 1100 
L 313 1709 
L 2253 4666 
z
" transform="scale(0.015625)"/>
     </defs>
     <use xlink:href="#DejaVuSans-47"/>
     <use xlink:href="#DejaVuSans-4c" transform="translate(77.490234 0)"/>
     <use xlink:href="#DejaVuSans-43" transform="translate(133.203125 0)"/>
     <use xlink:href="#DejaVuSans-2d" transform="translate(203.027344 0)"/>
     <use xlink:href="#DejaVuSans-30" transform="translate(239.111328 0)"/>
     <use xlink:href="#DejaVuSans-34" transform="translate(302.734375 0)"/>
    </g>
   </g>
  </g>
 </g>
 <defs>
  <clipPath id="p13ce4da97e">
   <rect x="7.2" y="22.318125" width="662.4" height="479.588818"/>
  </clipPath>
 </defs>
</svg>
