<?xml version="1.0" encoding="utf-8" standalone="no"?>
<!DOCTYPE svg PUBLIC "-//W3C//DTD SVG 1.1//EN"
  "http://www.w3.org/Graphics/SVG/1.1/DTD/svg11.dtd">
<svg xmlns:xlink="http://www.w3.org/1999/xlink" width="603.661051pt" height="394.365284pt" viewBox="0 0 603.661051 394.365284" xmlns="http://www.w3.org/2000/svg" version="1.1">
 <metadata>
  <rdf:RDF xmlns:dc="http://purl.org/dc/elements/1.1/" xmlns:cc="http://creativecommons.org/ns#" xmlns:rdf="http://www.w3.org/1999/02/22-rdf-syntax-ns#">
   <cc:Work>
    <dc:type rdf:resource="http://purl.org/dc/dcmitype/StillImage"/>
    <dc:date>2026-07-01T03:11:10.611681</dc:date>
    <dc:format>image/svg+xml</dc:format>
    <dc:creator>
     <cc:Agent>
      <dc:title>Matplotlib v3.10.8, https://matplotlib.org/</dc:title>
     </cc:Agent>
    </dc:creator>
   </cc:Work>
  </rdf:RDF>
 </metadata>
 <defs>
  <style type="text/css">*{stroke-linejoin: round; stroke-linecap: butt}</style>
 </defs>
 <g id="figure_1">
  <g id="patch_1">
   <path d="M 0 394.365284 
L 603.661051 394.365284 
L 603.661051 0 
L 0 0 
z
" style="fill: #ffffff"/>
  </g>
  <g id="axes_1">
   <g id="patch_2">
    <path d="M 46.024688 356.809034 
L 596.461051 356.809034 
L 596.461051 22.318125 
L 46.024688 22.318125 
z
" style="fill: #ffffff"/>
   </g>
   <g id="matplotlib.axis_1">
    <g id="xtick_1">
     <g id="line2d_1">
      <path d="M 71.044522 356.809034 
L 71.044522 22.318125 
" clip-path="url(#p8fe6f3330e)" style="fill: none; stroke-dasharray: 0.4,0.66; stroke-dashoffset: 0; stroke: #b0b0b0; stroke-opacity: 0.6; stroke-width: 0.4"/>
     </g>
     <g id="line2d_2">
      <defs>
       <path id="mc9aa92a867" d="M 0 0 
L 0 3.5 
" style="stroke: #000000; stroke-width: 0.8"/>
      </defs>
      <g>
       <use xlink:href="#mc9aa92a867" x="71.044522" y="356.809034" style="stroke: #000000; stroke-width: 0.8"/>
      </g>
     </g>
     <g id="text_1">
      <!-- −4 -->
      <g transform="translate(64.410538 370.647628) scale(0.09 -0.09)">
       <defs>
        <path id="DejaVuSans-2212" d="M 678 2272 
L 4684 2272 
L 4684 1741 
L 678 1741 
L 678 2272 
z
" transform="scale(0.015625)"/>
        <path id="DejaVuSans-34" d="M 2419 4116 
L 825 1625 
L 2419 1625 
L 2419 4116 
z
M 2253 4666 
L 3047 4666 
L 3047 1625 
L 3713 1625 
L 3713 1100 
L 3047 1100 
L 3047 0 
L 2419 0 
L 2419 1100 
L 313 1100 
L 313 1709 
L 2253 4666 
z
" transform="scale(0.015625)"/>
       </defs>
       <use xlink:href="#DejaVuSans-2212"/>
       <use xlink:href="#DejaVuSans-34" transform="translate(83.789062 0)"/>
      </g>
     </g>
    </g>
    <g id="xtick_2">
     <g id="line2d_3">
      <path d="M 137.764081 356.809034 
L 137.764081 22.318125 
" clip-path="url(#p8fe6f3330e)" style="fill: none; stroke-dasharray: 0.4,0.66; stroke-dashoffset: 0; stroke: #b0b0b0; stroke-opacity: 0.6; stroke-width: 0.4"/>
     </g>
     <g id="line2d_4">
      <g>
       <use xlink:href="#mc9aa92a867" x="137.764081" y="356.809034" style="stroke: #000000; stroke-width: 0.8"/>
      </g>
     </g>
     <g id="text_2">
      <!-- −2 -->
      <g transform="translate(131.130097 370.647628) scale(0.09 -0.09)">
       <defs>
        <path id="DejaVuSans-32" d="M 1228 531 
L 3431 531 
L 3431 0 
L 469 0 
L 469 531 
Q 828 903 1448 1529 
Q 2069 2156 2228 2338 
Q 2531 2678 2651 2914 
Q 2772 3150 2772 3378 
Q 2772 3750 2511 3984 
Q 2250 4219 1831 4219 
Q 1534 4219 1204 4116 
Q 875 4013 500 3803 
L 500 4441 
Q 881 4594 1212 4672 
Q 1544 4750 1819 4750 
Q 2544 4750 2975 4387 
Q 3406 4025 3406 3419 
Q 3406 3131 3298 2873 
Q 3191 2616 2906 2266 
Q 2828 2175 2409 1742 
Q 1991 1309 1228 531 
z
" transform="scale(0.015625)"/>
       </defs>
       <use xlink:href="#DejaVuSans-2212"/>
       <use xlink:href="#DejaVuSans-32" transform="translate(83.789062 0)"/>
      </g>
     </g>
    </g>
    <g id="xtick_3">
     <g id="line2d_5">
      <path d="M 204.483641 356.809034 
L 204.483641 22.318125 
" clip-path="url(#p8fe6f3330e)" style="fill: none; stroke-dasharray: 0.4,0.66; stroke-dashoffset: 0; stroke: #b0b0b0; stroke-opacity: 0.6; stroke-width: 0.4"/>
     </g>
     <g id="line2d_6">
      <g>
       <use xlink:href="#mc9aa92a867" x="204.483641" y="356.809034" style="stroke: #000000; stroke-width: 0.8"/>
      </g>
     </g>
     <g id="text_3">
      <!-- 0 -->
      <g transform="translate(201.620516 370.647628) scale(0.09 -0.09)">
       <defs>
        <path id="DejaVuSans-30" d="M 2034 4250 
Q 1547 4250 1301 3770 
Q 1056 3291 1056 2328 
Q 1056 1369 1301 889 
Q 1547 409 2034 409 
Q 2525 409 2770 889 
Q 3016 1369 3016 2328 
Q 3016 3291 2770 3770 
Q 2525 4250 2034 4250 
z
M 2034 4750 
Q 2819 4750 3233 4129 
Q 3647 3509 3647 2328 
Q 3647 1150 3233 529 
Q 2819 -91 2034 -91 
Q 1250 -91 836 529 
Q 422 1150 422 2328 
Q 422 3509 836 4129 
Q 1250 4750 2034 4750 
z
" transform="scale(0.015625)"/>
       </defs>
       <use xlink:href="#DejaVuSans-30"/>
      </g>
     </g>
    </g>
    <g id="xtick_4">
     <g id="line2d_7">
      <path d="M 271.2032 356.809034 
L 271.2032 22.318125 
" clip-path="url(#p8fe6f3330e)" style="fill: none; stroke-dasharray: 0.4,0.66; stroke-dashoffset: 0; stroke: #b0b0b0; stroke-opacity: 0.6; stroke-width: 0.4"/>
     </g>
     <g id="line2d_8">
      <g>
       <use xlink:href="#mc9aa92a867" x="271.2032" y="356.809034" style="stroke: #000000; stroke-width: 0.8"/>
      </g>
     </g>
     <g id="text_4">
      <!-- 2 -->
      <g transform="translate(268.340075 370.647628) scale(0.09 -0.09)">
       <use xlink:href="#DejaVuSans-32"/>
      </g>
     </g>
    </g>
    <g id="xtick_5">
     <g id="line2d_9">
      <path d="M 337.922759 356.809034 
L 337.922759 22.318125 
" clip-path="url(#p8fe6f3330e)" style="fill: none; stroke-dasharray: 0.4,0.66; stroke-dashoffset: 0; stroke: #b0b0b0; stroke-opacity: 0.6; stroke-width: 0.4"/>
     </g>
     <g id="line2d_10">
      <g>
       <use xlink:href="#mc9aa92a867" x="337.922759" y="356.809034" style="stroke: #000000; stroke-width: 0.8"/>
      </g>
     </g>
     <g id="text_5">
      <!-- 4 -->
      <g transform="translate(335.059634 370.647628) scale(0.09 -0.09)">
       <use xlink:href="#DejaVuSans-34"/>
      </g>
     </g>
    </g>
    <g id="xtick_6">
     <g id="line2d_11">
      <path d="M 404.642318 356.809034 
L 404.642318 22.318125 
" clip-path="url(#p8fe6f3330e)" style="fill: none; stroke-dasharray: 0.4,0.66; stroke-dashoffset: 0; stroke: #b0b0b0; stroke-opacity: 0.6; stroke-width: 0.4"/>
     </g>
     <g id="line2d_12">
      <g>
       <use xlink:href="#mc9aa92a867" x="404.642318" y="356.809034" style="stroke: #000000; stroke-width: 0.8"/>
      </g>
     </g>
     <g id="text_6">
      <!-- 6 -->
      <g transform="translate(401.779193 370.647628) scale(0.09 -0.09)">
       <defs>
        <path id="DejaVuSans-36" d="M 2113 2584 
Q 1688 2584 1439 2293 
Q 1191 2003 1191 1497 
Q 1191 994 1439 701 
Q 1688 409 2113 409 
Q 2538 409 2786 701 
Q 3034 994 3034 1497 
Q 3034 2003 2786 2293 
Q 2538 2584 2113 2584 
z
M 3366 4563 
L 3366 3988 
Q 3128 4100 2886 4159 
Q 2644 4219 2406 4219 
Q 1781 4219 1451 3797 
Q 1122 3375 1075 2522 
Q 1259 2794 1537 2939 
Q 1816 3084 2150 3084 
Q 2853 3084 3261 2657 
Q 3669 2231 3669 1497 
Q 3669 778 3244 343 
Q 2819 -91 2113 -91 
Q 1303 -91 875 529 
Q 447 1150 447 2328 
Q 447 3434 972 4092 
Q 1497 4750 2381 4750 
Q 2619 4750 2861 4703 
Q 3103 4656 3366 4563 
z
" transform="scale(0.015625)"/>
       </defs>
       <use xlink:href="#DejaVuSans-36"/>
      </g>
     </g>
    </g>
    <g id="xtick_7">
     <g id="line2d_13">
      <path d="M 471.361878 356.809034 
L 471.361878 22.318125 
" clip-path="url(#p8fe6f3330e)" style="fill: none; stroke-dasharray: 0.4,0.66; stroke-dashoffset: 0; stroke: #b0b0b0; stroke-opacity: 0.6; stroke-width: 0.4"/>
     </g>
     <g id="line2d_14">
      <g>
       <use xlink:href="#mc9aa92a867" x="471.361878" y="356.809034" style="stroke: #000000; stroke-width: 0.8"/>
      </g>
     </g>
     <g id="text_7">
      <!-- 8 -->
      <g transform="translate(468.498753 370.647628) scale(0.09 -0.09)">
       <defs>
        <path id="DejaVuSans-38" d="M 2034 2216 
Q 1584 2216 1326 1975 
Q 1069 1734 1069 1313 
Q 1069 891 1326 650 
Q 1584 409 2034 409 
Q 2484 409 2743 651 
Q 3003 894 3003 1313 
Q 3003 1734 2745 1975 
Q 2488 2216 2034 2216 
z
M 1403 2484 
Q 997 2584 770 2862 
Q 544 3141 544 3541 
Q 544 4100 942 4425 
Q 1341 4750 2034 4750 
Q 2731 4750 3128 4425 
Q 3525 4100 3525 3541 
Q 3525 3141 3298 2862 
Q 3072 2584 2669 2484 
Q 3125 2378 3379 2068 
Q 3634 1759 3634 1313 
Q 3634 634 3220 271 
Q 2806 -91 2034 -91 
Q 1263 -91 848 271 
Q 434 634 434 1313 
Q 434 1759 690 2068 
Q 947 2378 1403 2484 
z
M 1172 3481 
Q 1172 3119 1398 2916 
Q 1625 2713 2034 2713 
Q 2441 2713 2670 2916 
Q 2900 3119 2900 3481 
Q 2900 3844 2670 4047 
Q 2441 4250 2034 4250 
Q 1625 4250 1398 4047 
Q 1172 3844 1172 3481 
z
" transform="scale(0.015625)"/>
       </defs>
       <use xlink:href="#DejaVuSans-38"/>
      </g>
     </g>
    </g>
    <g id="xtick_8">
     <g id="line2d_15">
      <path d="M 538.081437 356.809034 
L 538.081437 22.318125 
" clip-path="url(#p8fe6f3330e)" style="fill: none; stroke-dasharray: 0.4,0.66; stroke-dashoffset: 0; stroke: #b0b0b0; stroke-opacity: 0.6; stroke-width: 0.4"/>
     </g>
     <g id="line2d_16">
      <g>
       <use xlink:href="#mc9aa92a867" x="538.081437" y="356.809034" style="stroke: #000000; stroke-width: 0.8"/>
      </g>
     </g>
     <g id="text_8">
      <!-- 10 -->
      <g transform="translate(532.355187 370.647628) scale(0.09 -0.09)">
       <defs>
        <path id="DejaVuSans-31" d="M 794 531 
L 1825 531 
L 1825 4091 
L 703 3866 
L 703 4441 
L 1819 4666 
L 2450 4666 
L 2450 531 
L 3481 531 
L 3481 0 
L 794 0 
L 794 531 
z
" transform="scale(0.015625)"/>
       </defs>
       <use xlink:href="#DejaVuSans-31"/>
       <use xlink:href="#DejaVuSans-30" transform="translate(63.623047 0)"/>
      </g>
     </g>
    </g>
    <g id="text_9">
     <!-- Grain size (phi) -->
     <g transform="translate(279.379276 384.877628) scale(0.11 -0.11)">
      <defs>
       <path id="DejaVuSans-47" d="M 3809 666 
L 3809 1919 
L 2778 1919 
L 2778 2438 
L 4434 2438 
L 4434 434 
Q 4069 175 3628 42 
Q 3188 -91 2688 -91 
Q 1594 -91 976 548 
Q 359 1188 359 2328 
Q 359 3472 976 4111 
Q 1594 4750 2688 4750 
Q 3144 4750 3555 4637 
Q 3966 4525 4313 4306 
L 4313 3634 
Q 3963 3931 3569 4081 
Q 3175 4231 2741 4231 
Q 1884 4231 1454 3753 
Q 1025 3275 1025 2328 
Q 1025 1384 1454 906 
Q 1884 428 2741 428 
Q 3075 428 3337 486 
Q 3600 544 3809 666 
z
" transform="scale(0.015625)"/>
       <path id="DejaVuSans-72" d="M 2631 2963 
Q 2534 3019 2420 3045 
Q 2306 3072 2169 3072 
Q 1681 3072 1420 2755 
Q 1159 2438 1159 1844 
L 1159 0 
L 581 0 
L 581 3500 
L 1159 3500 
L 1159 2956 
Q 1341 3275 1631 3429 
Q 1922 3584 2338 3584 
Q 2397 3584 2469 3576 
Q 2541 3569 2628 3553 
L 2631 2963 
z
" transform="scale(0.015625)"/>
       <path id="DejaVuSans-61" d="M 2194 1759 
Q 1497 1759 1228 1600 
Q 959 1441 959 1056 
Q 959 750 1161 570 
Q 1363 391 1709 391 
Q 2188 391 2477 730 
Q 2766 1069 2766 1631 
L 2766 1759 
L 2194 1759 
z
M 3341 1997 
L 3341 0 
L 2766 0 
L 2766 531 
Q 2569 213 2275 61 
Q 1981 -91 1556 -91 
Q 1019 -91 701 211 
Q 384 513 384 1019 
Q 384 1609 779 1909 
Q 1175 2209 1959 2209 
L 2766 2209 
L 2766 2266 
Q 2766 2663 2505 2880 
Q 2244 3097 1772 3097 
Q 1472 3097 1187 3025 
Q 903 2953 641 2809 
L 641 3341 
Q 956 3463 1253 3523 
Q 1550 3584 1831 3584 
Q 2591 3584 2966 3190 
Q 3341 2797 3341 1997 
z
" transform="scale(0.015625)"/>
       <path id="DejaVuSans-69" d="M 603 3500 
L 1178 3500 
L 1178 0 
L 603 0 
L 603 3500 
z
M 603 4863 
L 1178 4863 
L 1178 4134 
L 603 4134 
L 603 4863 
z
" transform="scale(0.015625)"/>
       <path id="DejaVuSans-6e" d="M 3513 2113 
L 3513 0 
L 2938 0 
L 2938 2094 
Q 2938 2591 2744 2837 
Q 2550 3084 2163 3084 
Q 1697 3084 1428 2787 
Q 1159 2491 1159 1978 
L 1159 0 
L 581 0 
L 581 3500 
L 1159 3500 
L 1159 2956 
Q 1366 3272 1645 3428 
Q 1925 3584 2291 3584 
Q 2894 3584 3203 3211 
Q 3513 2838 3513 2113 
z
" transform="scale(0.015625)"/>
       <path id="DejaVuSans-20" transform="scale(0.015625)"/>
       <path id="DejaVuSans-73" d="M 2834 3397 
L 2834 2853 
Q 2591 2978 2328 3040 
Q 2066 3103 1784 3103 
Q 1356 3103 1142 2972 
Q 928 2841 928 2578 
Q 928 2378 1081 2264 
Q 1234 2150 1697 2047 
L 1894 2003 
Q 2506 1872 2764 1633 
Q 3022 1394 3022 966 
Q 3022 478 2636 193 
Q 2250 -91 1575 -91 
Q 1294 -91 989 -36 
Q 684 19 347 128 
L 347 722 
Q 666 556 975 473 
Q 1284 391 1588 391 
Q 1994 391 2212 530 
Q 2431 669 2431 922 
Q 2431 1156 2273 1281 
Q 2116 1406 1581 1522 
L 1381 1569 
Q 847 1681 609 1914 
Q 372 2147 372 2553 
Q 372 3047 722 3315 
Q 1072 3584 1716 3584 
Q 2034 3584 2315 3537 
Q 2597 3491 2834 3397 
z
" transform="scale(0.015625)"/>
       <path id="DejaVuSans-7a" d="M 353 3500 
L 3084 3500 
L 3084 2975 
L 922 459 
L 3084 459 
L 3084 0 
L 275 0 
L 275 525 
L 2438 3041 
L 353 3041 
L 353 3500 
z
" transform="scale(0.015625)"/>
       <path id="DejaVuSans-65" d="M 3597 1894 
L 3597 1613 
L 953 1613 
Q 991 1019 1311 708 
Q 1631 397 2203 397 
Q 2534 397 2845 478 
Q 3156 559 3463 722 
L 3463 178 
Q 3153 47 2828 -22 
Q 2503 -91 2169 -91 
Q 1331 -91 842 396 
Q 353 884 353 1716 
Q 353 2575 817 3079 
Q 1281 3584 2069 3584 
Q 2775 3584 3186 3129 
Q 3597 2675 3597 1894 
z
M 3022 2063 
Q 3016 2534 2758 2815 
Q 2500 3097 2075 3097 
Q 1594 3097 1305 2825 
Q 1016 2553 972 2059 
L 3022 2063 
z
" transform="scale(0.015625)"/>
       <path id="DejaVuSans-28" d="M 1984 4856 
Q 1566 4138 1362 3434 
Q 1159 2731 1159 2009 
Q 1159 1288 1364 580 
Q 1569 -128 1984 -844 
L 1484 -844 
Q 1016 -109 783 600 
Q 550 1309 550 2009 
Q 550 2706 781 3412 
Q 1013 4119 1484 4856 
L 1984 4856 
z
" transform="scale(0.015625)"/>
       <path id="DejaVuSans-70" d="M 1159 525 
L 1159 -1331 
L 581 -1331 
L 581 3500 
L 1159 3500 
L 1159 2969 
Q 1341 3281 1617 3432 
Q 1894 3584 2278 3584 
Q 2916 3584 3314 3078 
Q 3713 2572 3713 1747 
Q 3713 922 3314 415 
Q 2916 -91 2278 -91 
Q 1894 -91 1617 61 
Q 1341 213 1159 525 
z
M 3116 1747 
Q 3116 2381 2855 2742 
Q 2594 3103 2138 3103 
Q 1681 3103 1420 2742 
Q 1159 2381 1159 1747 
Q 1159 1113 1420 752 
Q 1681 391 2138 391 
Q 2594 391 2855 752 
Q 3116 1113 3116 1747 
z
" transform="scale(0.015625)"/>
       <path id="DejaVuSans-68" d="M 3513 2113 
L 3513 0 
L 2938 0 
L 2938 2094 
Q 2938 2591 2744 2837 
Q 2550 3084 2163 3084 
Q 1697 3084 1428 2787 
Q 1159 2491 1159 1978 
L 1159 0 
L 581 0 
L 581 4863 
L 1159 4863 
L 1159 2956 
Q 1366 3272 1645 3428 
Q 1925 3584 2291 3584 
Q 2894 3584 3203 3211 
Q 3513 2838 3513 2113 
z
" transform="scale(0.015625)"/>
       <path id="DejaVuSans-29" d="M 513 4856 
L 1013 4856 
Q 1481 4119 1714 3412 
Q 1947 2706 1947 2009 
Q 1947 1309 1714 600 
Q 1481 -109 1013 -844 
L 513 -844 
Q 928 -128 1133 580 
Q 1338 1288 1338 2009 
Q 1338 2731 1133 3434 
Q 928 4138 513 4856 
z
" transform="scale(0.015625)"/>
      </defs>
      <use xlink:href="#DejaVuSans-47"/>
      <use xlink:href="#DejaVuSans-72" transform="translate(77.490234 0)"/>
      <use xlink:href="#DejaVuSans-61" transform="translate(118.603516 0)"/>
      <use xlink:href="#DejaVuSans-69" transform="translate(179.882812 0)"/>
      <use xlink:href="#DejaVuSans-6e" transform="translate(207.666016 0)"/>
      <use xlink:href="#DejaVuSans-20" transform="translate(271.044922 0)"/>
      <use xlink:href="#DejaVuSans-73" transform="translate(302.832031 0)"/>
      <use xlink:href="#DejaVuSans-69" transform="translate(354.931641 0)"/>
      <use xlink:href="#DejaVuSans-7a" transform="translate(382.714844 0)"/>
      <use xlink:href="#DejaVuSans-65" transform="translate(435.205078 0)"/>
      <use xlink:href="#DejaVuSans-20" transform="translate(496.728516 0)"/>
      <use xlink:href="#DejaVuSans-28" transform="translate(528.515625 0)"/>
      <use xlink:href="#DejaVuSans-70" transform="translate(567.529297 0)"/>
      <use xlink:href="#DejaVuSans-68" transform="translate(631.005859 0)"/>
      <use xlink:href="#DejaVuSans-69" transform="translate(694.384766 0)"/>
      <use xlink:href="#DejaVuSans-29" transform="translate(722.167969 0)"/>
     </g>
    </g>
   </g>
   <g id="matplotlib.axis_2">
    <g id="ytick_1">
     <g id="line2d_17">
      <path d="M 46.024688 356.809034 
L 596.461051 356.809034 
" clip-path="url(#p8fe6f3330e)" style="fill: none; stroke-dasharray: 0.4,0.66; stroke-dashoffset: 0; stroke: #b0b0b0; stroke-opacity: 0.6; stroke-width: 0.4"/>
     </g>
     <g id="line2d_18">
      <defs>
       <path id="m2be0d177de" d="M 0 0 
L -3.5 0 
" style="stroke: #000000; stroke-width: 0.8"/>
      </defs>
      <g>
       <use xlink:href="#m2be0d177de" x="46.024688" y="356.809034" style="stroke: #000000; stroke-width: 0.8"/>
      </g>
     </g>
     <g id="text_10">
      <!-- 0 -->
      <g transform="translate(33.298438 360.228331) scale(0.09 -0.09)">
       <use xlink:href="#DejaVuSans-30"/>
      </g>
     </g>
    </g>
    <g id="ytick_2">
     <g id="line2d_19">
      <path d="M 46.024688 289.910852 
L 596.461051 289.910852 
" clip-path="url(#p8fe6f3330e)" style="fill: none; stroke-dasharray: 0.4,0.66; stroke-dashoffset: 0; stroke: #b0b0b0; stroke-opacity: 0.6; stroke-width: 0.4"/>
     </g>
     <g id="line2d_20">
      <g>
       <use xlink:href="#m2be0d177de" x="46.024688" y="289.910852" style="stroke: #000000; stroke-width: 0.8"/>
      </g>
     </g>
     <g id="text_11">
      <!-- 20 -->
      <g transform="translate(27.572188 293.330149) scale(0.09 -0.09)">
       <use xlink:href="#DejaVuSans-32"/>
       <use xlink:href="#DejaVuSans-30" transform="translate(63.623047 0)"/>
      </g>
     </g>
    </g>
    <g id="ytick_3">
     <g id="line2d_21">
      <path d="M 46.024688 223.01267 
L 596.461051 223.01267 
" clip-path="url(#p8fe6f3330e)" style="fill: none; stroke-dasharray: 0.4,0.66; stroke-dashoffset: 0; stroke: #b0b0b0; stroke-opacity: 0.6; stroke-width: 0.4"/>
     </g>
     <g id="line2d_22">
      <g>
       <use xlink:href="#m2be0d177de" x="46.024688" y="223.01267" style="stroke: #000000; stroke-width: 0.8"/>
      </g>
     </g>
     <g id="text_12">
      <!-- 40 -->
      <g transform="translate(27.572188 226.431967) scale(0.09 -0.09)">
       <use xlink:href="#DejaVuSans-34"/>
       <use xlink:href="#DejaVuSans-30" transform="translate(63.623047 0)"/>
      </g>
     </g>
    </g>
    <g id="ytick_4">
     <g id="line2d_23">
      <path d="M 46.024688 156.114489 
L 596.461051 156.114489 
" clip-path="url(#p8fe6f3330e)" style="fill: none; stroke-dasharray: 0.4,0.66; stroke-dashoffset: 0; stroke: #b0b0b0; stroke-opacity: 0.6; stroke-width: 0.4"/>
     </g>
     <g id="line2d_24">
      <g>
       <use xlink:href="#m2be0d177de" x="46.024688" y="156.114489" style="stroke: #000000; stroke-width: 0.8"/>
      </g>
     </g>
     <g id="text_13">
      <!-- 60 -->
      <g transform="translate(27.572188 159.533786) scale(0.09 -0.09)">
       <use xlink:href="#DejaVuSans-36"/>
       <use xlink:href="#DejaVuSans-30" transform="translate(63.623047 0)"/>
      </g>
     </g>
    </g>
    <g id="ytick_5">
     <g id="line2d_25">
      <path d="M 46.024688 89.216307 
L 596.461051 89.216307 
" clip-path="url(#p8fe6f3330e)" style="fill: none; stroke-dasharray: 0.4,0.66; stroke-dashoffset: 0; stroke: #b0b0b0; stroke-opacity: 0.6; stroke-width: 0.4"/>
     </g>
     <g id="line2d_26">
      <g>
       <use xlink:href="#m2be0d177de" x="46.024688" y="89.216307" style="stroke: #000000; stroke-width: 0.8"/>
      </g>
     </g>
     <g id="text_14">
      <!-- 80 -->
      <g transform="translate(27.572188 92.635604) scale(0.09 -0.09)">
       <use xlink:href="#DejaVuSans-38"/>
       <use xlink:href="#DejaVuSans-30" transform="translate(63.623047 0)"/>
      </g>
     </g>
    </g>
    <g id="ytick_6">
     <g id="line2d_27">
      <path d="M 46.024688 22.318125 
L 596.461051 22.318125 
" clip-path="url(#p8fe6f3330e)" style="fill: none; stroke-dasharray: 0.4,0.66; stroke-dashoffset: 0; stroke: #b0b0b0; stroke-opacity: 0.6; stroke-width: 0.4"/>
     </g>
     <g id="line2d_28">
      <g>
       <use xlink:href="#m2be0d177de" x="46.024688" y="22.318125" style="stroke: #000000; stroke-width: 0.8"/>
      </g>
     </g>
     <g id="text_15">
      <!-- 100 -->
      <g transform="translate(21.845938 25.737422) scale(0.09 -0.09)">
       <use xlink:href="#DejaVuSans-31"/>
       <use xlink:href="#DejaVuSans-30" transform="translate(63.623047 0)"/>
       <use xlink:href="#DejaVuSans-30" transform="translate(127.246094 0)"/>
      </g>
     </g>
    </g>
    <g id="text_16">
     <!-- Cumulative % finer -->
     <g transform="translate(15.558281 242.271626) rotate(-90) scale(0.11 -0.11)">
      <defs>
       <path id="DejaVuSans-43" d="M 4122 4306 
L 4122 3641 
Q 3803 3938 3442 4084 
Q 3081 4231 2675 4231 
Q 1875 4231 1450 3742 
Q 1025 3253 1025 2328 
Q 1025 1406 1450 917 
Q 1875 428 2675 428 
Q 3081 428 3442 575 
Q 3803 722 4122 1019 
L 4122 359 
Q 3791 134 3420 21 
Q 3050 -91 2638 -91 
Q 1578 -91 968 557 
Q 359 1206 359 2328 
Q 359 3453 968 4101 
Q 1578 4750 2638 4750 
Q 3056 4750 3426 4639 
Q 3797 4528 4122 4306 
z
" transform="scale(0.015625)"/>
       <path id="DejaVuSans-75" d="M 544 1381 
L 544 3500 
L 1119 3500 
L 1119 1403 
Q 1119 906 1312 657 
Q 1506 409 1894 409 
Q 2359 409 2629 706 
Q 2900 1003 2900 1516 
L 2900 3500 
L 3475 3500 
L 3475 0 
L 2900 0 
L 2900 538 
Q 2691 219 2414 64 
Q 2138 -91 1772 -91 
Q 1169 -91 856 284 
Q 544 659 544 1381 
z
M 1991 3584 
L 1991 3584 
z
" transform="scale(0.015625)"/>
       <path id="DejaVuSans-6d" d="M 3328 2828 
Q 3544 3216 3844 3400 
Q 4144 3584 4550 3584 
Q 5097 3584 5394 3201 
Q 5691 2819 5691 2113 
L 5691 0 
L 5113 0 
L 5113 2094 
Q 5113 2597 4934 2840 
Q 4756 3084 4391 3084 
Q 3944 3084 3684 2787 
Q 3425 2491 3425 1978 
L 3425 0 
L 2847 0 
L 2847 2094 
Q 2847 2600 2669 2842 
Q 2491 3084 2119 3084 
Q 1678 3084 1418 2786 
Q 1159 2488 1159 1978 
L 1159 0 
L 581 0 
L 581 3500 
L 1159 3500 
L 1159 2956 
Q 1356 3278 1631 3431 
Q 1906 3584 2284 3584 
Q 2666 3584 2933 3390 
Q 3200 3197 3328 2828 
z
" transform="scale(0.015625)"/>
       <path id="DejaVuSans-6c" d="M 603 4863 
L 1178 4863 
L 1178 0 
L 603 0 
L 603 4863 
z
" transform="scale(0.015625)"/>
       <path id="DejaVuSans-74" d="M 1172 4494 
L 1172 3500 
L 2356 3500 
L 2356 3053 
L 1172 3053 
L 1172 1153 
Q 1172 725 1289 603 
Q 1406 481 1766 481 
L 2356 481 
L 2356 0 
L 1766 0 
Q 1100 0 847 248 
Q 594 497 594 1153 
L 594 3053 
L 172 3053 
L 172 3500 
L 594 3500 
L 594 4494 
L 1172 4494 
z
" transform="scale(0.015625)"/>
       <path id="DejaVuSans-76" d="M 191 3500 
L 800 3500 
L 1894 563 
L 2988 3500 
L 3597 3500 
L 2284 0 
L 1503 0 
L 191 3500 
z
" transform="scale(0.015625)"/>
       <path id="DejaVuSans-25" d="M 4653 2053 
Q 4381 2053 4226 1822 
Q 4072 1591 4072 1178 
Q 4072 772 4226 539 
Q 4381 306 4653 306 
Q 4919 306 5073 539 
Q 5228 772 5228 1178 
Q 5228 1588 5073 1820 
Q 4919 2053 4653 2053 
z
M 4653 2450 
Q 5147 2450 5437 2106 
Q 5728 1763 5728 1178 
Q 5728 594 5436 251 
Q 5144 -91 4653 -91 
Q 4153 -91 3862 251 
Q 3572 594 3572 1178 
Q 3572 1766 3864 2108 
Q 4156 2450 4653 2450 
z
M 1428 4353 
Q 1159 4353 1004 4120 
Q 850 3888 850 3481 
Q 850 3069 1003 2837 
Q 1156 2606 1428 2606 
Q 1700 2606 1854 2837 
Q 2009 3069 2009 3481 
Q 2009 3884 1853 4118 
Q 1697 4353 1428 4353 
z
M 4250 4750 
L 4750 4750 
L 1831 -91 
L 1331 -91 
L 4250 4750 
z
M 1428 4750 
Q 1922 4750 2215 4408 
Q 2509 4066 2509 3481 
Q 2509 2891 2217 2550 
Q 1925 2209 1428 2209 
Q 931 2209 642 2551 
Q 353 2894 353 3481 
Q 353 4063 643 4406 
Q 934 4750 1428 4750 
z
" transform="scale(0.015625)"/>
       <path id="DejaVuSans-66" d="M 2375 4863 
L 2375 4384 
L 1825 4384 
Q 1516 4384 1395 4259 
Q 1275 4134 1275 3809 
L 1275 3500 
L 2222 3500 
L 2222 3053 
L 1275 3053 
L 1275 0 
L 697 0 
L 697 3053 
L 147 3053 
L 147 3500 
L 697 3500 
L 697 3744 
Q 697 4328 969 4595 
Q 1241 4863 1831 4863 
L 2375 4863 
z
" transform="scale(0.015625)"/>
      </defs>
      <use xlink:href="#DejaVuSans-43"/>
      <use xlink:href="#DejaVuSans-75" transform="translate(69.824219 0)"/>
      <use xlink:href="#DejaVuSans-6d" transform="translate(133.203125 0)"/>
      <use xlink:href="#DejaVuSans-75" transform="translate(230.615234 0)"/>
      <use xlink:href="#DejaVuSans-6c" transform="translate(293.994141 0)"/>
      <use xlink:href="#DejaVuSans-61" transform="translate(321.777344 0)"/>
      <use xlink:href="#DejaVuSans-74" transform="translate(383.056641 0)"/>
      <use xlink:href="#DejaVuSans-69" transform="translate(422.265625 0)"/>
      <use xlink:href="#DejaVuSans-76" transform="translate(450.048828 0)"/>
      <use xlink:href="#DejaVuSans-65" transform="translate(509.228516 0)"/>
      <use xlink:href="#DejaVuSans-20" transform="translate(570.751953 0)"/>
      <use xlink:href="#DejaVuSans-25" transform="translate(602.539062 0)"/>
      <use xlink:href="#DejaVuSans-20" transform="translate(697.558594 0)"/>
      <use xlink:href="#DejaVuSans-66" transform="translate(729.345703 0)"/>
      <use xlink:href="#DejaVuSans-69" transform="translate(764.550781 0)"/>
      <use xlink:href="#DejaVuSans-6e" transform="translate(792.333984 0)"/>
      <use xlink:href="#DejaVuSans-65" transform="translate(855.712891 0)"/>
      <use xlink:href="#DejaVuSans-72" transform="translate(917.236328 0)"/>
     </g>
    </g>
   </g>
   <g id="line2d_29">
    <path d="M 71.044522 353.311266 
L 79.384467 348.890639 
L 87.724412 344.091702 
L 96.064357 337.922693 
L 104.404302 331.808205 
L 112.744247 324.863512 
L 121.084192 317.41909 
L 129.424137 310.085384 
L 137.764081 302.879119 
L 146.104026 295.84311 
L 154.443971 289.04024 
L 162.783916 282.634746 
L 171.123861 276.373417 
L 179.463806 269.614366 
L 187.803751 263.36073 
L 196.143696 257.216138 
L 204.483641 250.778532 
L 212.823586 243.501021 
L 221.16353 236.029839 
L 229.503475 228.26531 
L 237.84342 220.530884 
L 246.183365 212.26027 
L 254.52331 204.377331 
L 262.863255 196.34086 
L 271.2032 187.915712 
L 279.543145 179.731396 
L 287.88309 172.51978 
L 296.223035 165.540968 
L 304.56298 158.514325 
L 312.902924 151.234806 
L 321.242869 145.407646 
L 329.582814 139.094805 
L 337.922759 133.462988 
L 346.262704 127.74554 
L 354.602649 122.063549 
L 362.942594 116.497626 
L 371.282539 111.057471 
L 379.622484 105.56246 
L 387.962429 100.314972 
L 396.302373 95.415019 
L 404.642318 90.034404 
L 412.982263 84.771529 
L 421.322208 79.593281 
L 429.662153 75.098396 
L 438.002098 70.2533 
L 446.342043 65.420246 
L 454.681988 61.089596 
L 463.021933 56.649569 
L 471.361878 52.392507 
L 479.701822 47.924716 
L 488.041767 43.692742 
L 496.381712 40.40102 
L 504.721657 36.706572 
L 513.061602 33.890161 
L 521.401547 31.161387 
L 529.741492 28.806573 
L 538.081437 27.002665 
L 546.421382 25.3941 
L 554.761327 24.131733 
L 563.101272 23.101167 
L 571.441216 22.318125 
" clip-path="url(#p8fe6f3330e)" style="fill: none; stroke: #1f4e79; stroke-width: 1.4; stroke-linecap: square"/>
    <defs>
     <path id="mb9ae387e41" d="M 0 2 
C 0.530406 2 1.03916 1.789267 1.414214 1.414214 
C 1.789267 1.03916 2 0.530406 2 0 
C 2 -0.530406 1.789267 -1.03916 1.414214 -1.414214 
C 1.03916 -1.789267 0.530406 -2 0 -2 
C -0.530406 -2 -1.03916 -1.789267 -1.414214 -1.414214 
C -1.789267 -1.03916 -2 -0.530406 -2 0 
C -2 0.530406 -1.789267 1.03916 -1.414214 1.414214 
C -1.03916 1.789267 -0.530406 2 0 2 
z
" style="stroke: #1f4e79"/>
    </defs>
    <g clip-path="url(#p8fe6f3330e)">
     <use xlink:href="#mb9ae387e41" x="71.044522" y="353.311266" style="fill: #1f4e79; stroke: #1f4e79"/>
     <use xlink:href="#mb9ae387e41" x="79.384467" y="348.890639" style="fill: #1f4e79; stroke: #1f4e79"/>
     <use xlink:href="#mb9ae387e41" x="87.724412" y="344.091702" style="fill: #1f4e79; stroke: #1f4e79"/>
     <use xlink:href="#mb9ae387e41" x="96.064357" y="337.922693" style="fill: #1f4e79; stroke: #1f4e79"/>
     <use xlink:href="#mb9ae387e41" x="104.404302" y="331.808205" style="fill: #1f4e79; stroke: #1f4e79"/>
     <use xlink:href="#mb9ae387e41" x="112.744247" y="324.863512" style="fill: #1f4e79; stroke: #1f4e79"/>
     <use xlink:href="#mb9ae387e41" x="121.084192" y="317.41909" style="fill: #1f4e79; stroke: #1f4e79"/>
     <use xlink:href="#mb9ae387e41" x="129.424137" y="310.085384" style="fill: #1f4e79; stroke: #1f4e79"/>
     <use xlink:href="#mb9ae387e41" x="137.764081" y="302.879119" style="fill: #1f4e79; stroke: #1f4e79"/>
     <use xlink:href="#mb9ae387e41" x="146.104026" y="295.84311" style="fill: #1f4e79; stroke: #1f4e79"/>
     <use xlink:href="#mb9ae387e41" x="154.443971" y="289.04024" style="fill: #1f4e79; stroke: #1f4e79"/>
     <use xlink:href="#mb9ae387e41" x="162.783916" y="282.634746" style="fill: #1f4e79; stroke: #1f4e79"/>
     <use xlink:href="#mb9ae387e41" x="171.123861" y="276.373417" style="fill: #1f4e79; stroke: #1f4e79"/>
     <use xlink:href="#mb9ae387e41" x="179.463806" y="269.614366" style="fill: #1f4e79; stroke: #1f4e79"/>
     <use xlink:href="#mb9ae387e41" x="187.803751" y="263.36073" style="fill: #1f4e79; stroke: #1f4e79"/>
     <use xlink:href="#mb9ae387e41" x="196.143696" y="257.216138" style="fill: #1f4e79; stroke: #1f4e79"/>
     <use xlink:href="#mb9ae387e41" x="204.483641" y="250.778532" style="fill: #1f4e79; stroke: #1f4e79"/>
     <use xlink:href="#mb9ae387e41" x="212.823586" y="243.501021" style="fill: #1f4e79; stroke: #1f4e79"/>
     <use xlink:href="#mb9ae387e41" x="221.16353" y="236.029839" style="fill: #1f4e79; stroke: #1f4e79"/>
     <use xlink:href="#mb9ae387e41" x="229.503475" y="228.26531" style="fill: #1f4e79; stroke: #1f4e79"/>
     <use xlink:href="#mb9ae387e41" x="237.84342" y="220.530884" style="fill: #1f4e79; stroke: #1f4e79"/>
     <use xlink:href="#mb9ae387e41" x="246.183365" y="212.26027" style="fill: #1f4e79; stroke: #1f4e79"/>
     <use xlink:href="#mb9ae387e41" x="254.52331" y="204.377331" style="fill: #1f4e79; stroke: #1f4e79"/>
     <use xlink:href="#mb9ae387e41" x="262.863255" y="196.34086" style="fill: #1f4e79; stroke: #1f4e79"/>
     <use xlink:href="#mb9ae387e41" x="271.2032" y="187.915712" style="fill: #1f4e79; stroke: #1f4e79"/>
     <use xlink:href="#mb9ae387e41" x="279.543145" y="179.731396" style="fill: #1f4e79; stroke: #1f4e79"/>
     <use xlink:href="#mb9ae387e41" x="287.88309" y="172.51978" style="fill: #1f4e79; stroke: #1f4e79"/>
     <use xlink:href="#mb9ae387e41" x="296.223035" y="165.540968" style="fill: #1f4e79; stroke: #1f4e79"/>
     <use xlink:href="#mb9ae387e41" x="304.56298" y="158.514325" style="fill: #1f4e79; stroke: #1f4e79"/>
     <use xlink:href="#mb9ae387e41" x="312.902924" y="151.234806" style="fill: #1f4e79; stroke: #1f4e79"/>
     <use xlink:href="#mb9ae387e41" x="321.242869" y="145.407646" style="fill: #1f4e79; stroke: #1f4e79"/>
     <use xlink:href="#mb9ae387e41" x="329.582814" y="139.094805" style="fill: #1f4e79; stroke: #1f4e79"/>
     <use xlink:href="#mb9ae387e41" x="337.922759" y="133.462988" style="fill: #1f4e79; stroke: #1f4e79"/>
     <use xlink:href="#mb9ae387e41" x="346.262704" y="127.74554" style="fill: #1f4e79; stroke: #1f4e79"/>
     <use xlink:href="#mb9ae387e41" x="354.602649" y="122.063549" style="fill: #1f4e79; stroke: #1f4e79"/>
     <use xlink:href="#mb9ae387e41" x="362.942594" y="116.497626" style="fill: #1f4e79; stroke: #1f4e79"/>
     <use xlink:href="#mb9ae387e41" x="371.282539" y="111.057471" style="fill: #1f4e79; stroke: #1f4e79"/>
     <use xlink:href="#mb9ae387e41" x="379.622484" y="105.56246" style="fill: #1f4e79; stroke: #1f4e79"/>
     <use xlink:href="#mb9ae387e41" x="387.962429" y="100.314972" style="fill: #1f4e79; stroke: #1f4e79"/>
     <use xlink:href="#mb9ae387e41" x="396.302373" y="95.415019" style="fill: #1f4e79; stroke: #1f4e79"/>
     <use xlink:href="#mb9ae387e41" x="404.642318" y="90.034404" style="fill: #1f4e79; stroke: #1f4e79"/>
     <use xlink:href="#mb9ae387e41" x="412.982263" y="84.771529" style="fill: #1f4e79; stroke: #1f4e79"/>
     <use xlink:href="#mb9ae387e41" x="421.322208" y="79.593281" style="fill: #1f4e79; stroke: #1f4e79"/>
     <use xlink:href="#mb9ae387e41" x="429.662153" y="75.098396" style="fill: #1f4e79; stroke: #1f4e79"/>
     <use xlink:href="#mb9ae387e41" x="438.002098" y="70.2533" style="fill: #1f4e79; stroke: #1f4e79"/>
     <use xlink:href="#mb9ae387e41" x="446.342043" y="65.420246" style="fill: #1f4e79; stroke: #1f4e79"/>
     <use xlink:href="#mb9ae387e41" x="454.681988" y="61.089596" style="fill: #1f4e79; stroke: #1f4e79"/>
     <use xlink:href="#mb9ae387e41" x="463.021933" y="56.649569" style="fill: #1f4e79; stroke: #1f4e79"/>
     <use xlink:href="#mb9ae387e41" x="471.361878" y="52.392507" style="fill: #1f4e79; stroke: #1f4e79"/>
     <use xlink:href="#mb9ae387e41" x="479.701822" y="47.924716" style="fill: #1f4e79; stroke: #1f4e79"/>
     <use xlink:href="#mb9ae387e41" x="488.041767" y="43.692742" style="fill: #1f4e79; stroke: #1f4e79"/>
     <use xlink:href="#mb9ae387e41" x="496.381712" y="40.40102" style="fill: #1f4e79; stroke: #1f4e79"/>
     <use xlink:href="#mb9ae387e41" x="504.721657" y="36.706572" style="fill: #1f4e79; stroke: #1f4e79"/>
     <use xlink:href="#mb9ae387e41" x="513.061602" y="33.890161" style="fill: #1f4e79; stroke: #1f4e79"/>
     <use xlink:href="#mb9ae387e41" x="521.401547" y="31.161387" style="fill: #1f4e79; stroke: #1f4e79"/>
     <use xlink:href="#mb9ae387e41" x="529.741492" y="28.806573" style="fill: #1f4e79; stroke: #1f4e79"/>
     <use xlink:href="#mb9ae387e41" x="538.081437" y="27.002665" style="fill: #1f4e79; stroke: #1f4e79"/>
     <use xlink:href="#mb9ae387e41" x="546.421382" y="25.3941" style="fill: #1f4e79; stroke: #1f4e79"/>
     <use xlink:href="#mb9ae387e41" x="554.761327" y="24.131733" style="fill: #1f4e79; stroke: #1f4e79"/>
     <use xlink:href="#mb9ae387e41" x="563.101272" y="23.101167" style="fill: #1f4e79; stroke: #1f4e79"/>
     <use xlink:href="#mb9ae387e41" x="571.441216" y="22.318125" style="fill: #1f4e79; stroke: #1f4e79"/>
    </g>
   </g>
   <g id="line2d_30">
    <path d="M 71.044522 340.084489 
L 93.141804 340.084489 
" clip-path="url(#p8fe6f3330e)" style="fill: none; stroke-dasharray: 0.5,0.825; stroke-dashoffset: 0; stroke: #999999; stroke-width: 0.5"/>
   </g>
   <g id="line2d_31">
    <path d="M 93.141804 356.809034 
L 93.141804 340.084489 
" clip-path="url(#p8fe6f3330e)" style="fill: none; stroke-dasharray: 0.5,0.825; stroke-dashoffset: 0; stroke: #999999; stroke-width: 0.5"/>
   </g>
   <g id="line2d_32">
    <path d="M 71.044522 303.290489 
L 137.287995 303.290489 
" clip-path="url(#p8fe6f3330e)" style="fill: none; stroke-dasharray: 0.5,0.825; stroke-dashoffset: 0; stroke: #999999; stroke-width: 0.5"/>
   </g>
   <g id="line2d_33">
    <path d="M 137.287995 356.809034 
L 137.287995 303.290489 
" clip-path="url(#p8fe6f3330e)" style="fill: none; stroke-dasharray: 0.5,0.825; stroke-dashoffset: 0; stroke: #999999; stroke-width: 0.5"/>
   </g>
   <g id="line2d_34">
    <path d="M 71.044522 273.186307 
L 175.056413 273.186307 
" clip-path="url(#p8fe6f3330e)" style="fill: none; stroke-dasharray: 0.5,0.825; stroke-dashoffset: 0; stroke: #999999; stroke-width: 0.5"/>
   </g>
   <g id="line2d_35">
    <path d="M 175.056413 356.809034 
L 175.056413 273.186307 
" clip-path="url(#p8fe6f3330e)" style="fill: none; stroke-dasharray: 0.5,0.825; stroke-dashoffset: 0; stroke: #999999; stroke-width: 0.5"/>
   </g>
   <g id="line2d_36">
    <path d="M 71.044522 189.56358 
L 269.571997 189.56358 
" clip-path="url(#p8fe6f3330e)" style="fill: none; stroke-dasharray: 0.5,0.825; stroke-dashoffset: 0; stroke: #999999; stroke-width: 0.5"/>
   </g>
   <g id="line2d_37">
    <path d="M 269.571997 356.809034 
L 269.571997 189.56358 
" clip-path="url(#p8fe6f3330e)" style="fill: none; stroke-dasharray: 0.5,0.825; stroke-dashoffset: 0; stroke: #999999; stroke-width: 0.5"/>
   </g>
   <g id="line2d_38">
    <path d="M 71.044522 105.940852 
L 379.048186 105.940852 
" clip-path="url(#p8fe6f3330e)" style="fill: none; stroke-dasharray: 0.5,0.825; stroke-dashoffset: 0; stroke: #999999; stroke-width: 0.5"/>
   </g>
   <g id="line2d_39">
    <path d="M 379.048186 356.809034 
L 379.048186 105.940852 
" clip-path="url(#p8fe6f3330e)" style="fill: none; stroke-dasharray: 0.5,0.825; stroke-dashoffset: 0; stroke: #999999; stroke-width: 0.5"/>
   </g>
   <g id="line2d_40">
    <path d="M 71.044522 75.83667 
L 428.292337 75.83667 
" clip-path="url(#p8fe6f3330e)" style="fill: none; stroke-dasharray: 0.5,0.825; stroke-dashoffset: 0; stroke: #999999; stroke-width: 0.5"/>
   </g>
   <g id="line2d_41">
    <path d="M 428.292337 356.809034 
L 428.292337 75.83667 
" clip-path="url(#p8fe6f3330e)" style="fill: none; stroke-dasharray: 0.5,0.825; stroke-dashoffset: 0; stroke: #999999; stroke-width: 0.5"/>
   </g>
   <g id="line2d_42">
    <path d="M 71.044522 39.04267 
L 499.448086 39.04267 
" clip-path="url(#p8fe6f3330e)" style="fill: none; stroke-dasharray: 0.5,0.825; stroke-dashoffset: 0; stroke: #999999; stroke-width: 0.5"/>
   </g>
   <g id="line2d_43">
    <path d="M 499.448086 356.809034 
L 499.448086 39.04267 
" clip-path="url(#p8fe6f3330e)" style="fill: none; stroke-dasharray: 0.5,0.825; stroke-dashoffset: 0; stroke: #999999; stroke-width: 0.5"/>
   </g>
   <g id="patch_3">
    <path d="M 46.024688 356.809034 
L 46.024688 22.318125 
" style="fill: none; stroke: #404040; stroke-width: 0.9; stroke-linejoin: miter; stroke-linecap: square"/>
   </g>
   <g id="patch_4">
    <path d="M 596.461051 356.809034 
L 596.461051 22.318125 
" style="fill: none; stroke: #404040; stroke-width: 0.9; stroke-linejoin: miter; stroke-linecap: square"/>
   </g>
   <g id="patch_5">
    <path d="M 46.024688 356.809034 
L 596.461051 356.809034 
" style="fill: none; stroke: #404040; stroke-width: 0.9; stroke-linejoin: miter; stroke-linecap: square"/>
   </g>
   <g id="patch_6">
    <path d="M 46.024688 22.318125 
L 596.461051 22.318125 
" style="fill: none; stroke: #404040; stroke-width: 0.9; stroke-linejoin: miter; stroke-linecap: square"/>
   </g>
   <g id="text_17">
    <!-- phi5 -->
    <g style="fill: #666666" transform="translate(96.141804 337.084489) scale(0.07 -0.07)">
     <defs>
      <path id="DejaVuSans-35" d="M 691 4666 
L 3169 4666 
L 3169 4134 
L 1269 4134 
L 1269 2991 
Q 1406 3038 1543 3061 
Q 1681 3084 1819 3084 
Q 2600 3084 3056 2656 
Q 3513 2228 3513 1497 
Q 3513 744 3044 326 
Q 2575 -91 1722 -91 
Q 1428 -91 1123 -41 
Q 819 9 494 109 
L 494 744 
Q 775 591 1075 516 
Q 1375 441 1709 441 
Q 2250 441 2565 725 
Q 2881 1009 2881 1497 
Q 2881 1984 2565 2268 
Q 2250 2553 1709 2553 
Q 1456 2553 1204 2497 
Q 953 2441 691 2322 
L 691 4666 
z
" transform="scale(0.015625)"/>
     </defs>
     <use xlink:href="#DejaVuSans-70"/>
     <use xlink:href="#DejaVuSans-68" transform="translate(63.476562 0)"/>
     <use xlink:href="#DejaVuSans-69" transform="translate(126.855469 0)"/>
     <use xlink:href="#DejaVuSans-35" transform="translate(154.638672 0)"/>
    </g>
   </g>
   <g id="text_18">
    <!-- phi16 -->
    <g style="fill: #666666" transform="translate(140.287995 300.290489) scale(0.07 -0.07)">
     <use xlink:href="#DejaVuSans-70"/>
     <use xlink:href="#DejaVuSans-68" transform="translate(63.476562 0)"/>
     <use xlink:href="#DejaVuSans-69" transform="translate(126.855469 0)"/>
     <use xlink:href="#DejaVuSans-31" transform="translate(154.638672 0)"/>
     <use xlink:href="#DejaVuSans-36" transform="translate(218.261719 0)"/>
    </g>
   </g>
   <g id="text_19">
    <!-- phi25 -->
    <g style="fill: #666666" transform="translate(178.056413 270.186307) scale(0.07 -0.07)">
     <use xlink:href="#DejaVuSans-70"/>
     <use xlink:href="#DejaVuSans-68" transform="translate(63.476562 0)"/>
     <use xlink:href="#DejaVuSans-69" transform="translate(126.855469 0)"/>
     <use xlink:href="#DejaVuSans-32" transform="translate(154.638672 0)"/>
     <use xlink:href="#DejaVuSans-35" transform="translate(218.261719 0)"/>
    </g>
   </g>
   <g id="text_20">
    <!-- phi50 -->
    <g style="fill: #666666" transform="translate(272.571997 186.56358) scale(0.07 -0.07)">
     <use xlink:href="#DejaVuSans-70"/>
     <use xlink:href="#DejaVuSans-68" transform="translate(63.476562 0)"/>
     <use xlink:href="#DejaVuSans-69" transform="translate(126.855469 0)"/>
     <use xlink:href="#DejaVuSans-35" transform="translate(154.638672 0)"/>
     <use xlink:href="#DejaVuSans-30" transform="translate(218.261719 0)"/>
    </g>
   </g>
   <g id="text_21">
    <!-- phi75 -->
    <g style="fill: #666666" transform="translate(382.048186 102.940852) scale(0.07 -0.07)">
     <defs>
      <path id="DejaVuSans-37" d="M 525 4666 
L 3525 4666 
L 3525 4397 
L 1831 0 
L 1172 0 
L 2766 4134 
L 525 4134 
L 525 4666 
z
" transform="scale(0.015625)"/>
     </defs>
     <use xlink:href="#DejaVuSans-70"/>
     <use xlink:href="#DejaVuSans-68" transform="translate(63.476562 0)"/>
     <use xlink:href="#DejaVuSans-69" transform="translate(126.855469 0)"/>
     <use xlink:href="#DejaVuSans-37" transform="translate(154.638672 0)"/>
     <use xlink:href="#DejaVuSans-35" transform="translate(218.261719 0)"/>
    </g>
   </g>
   <g id="text_22">
    <!-- phi84 -->
    <g style="fill: #666666" transform="translate(431.292337 72.83667) scale(0.07 -0.07)">
     <use xlink:href="#DejaVuSans-70"/>
     <use xlink:href="#DejaVuSans-68" transform="translate(63.476562 0)"/>
     <use xlink:href="#DejaVuSans-69" transform="translate(126.855469 0)"/>
     <use xlink:href="#DejaVuSans-38" transform="translate(154.638672 0)"/>
     <use xlink:href="#DejaVuSans-34" transform="translate(218.261719 0)"/>
    </g>
   </g>
   <g id="text_23">
    <!-- phi95 -->
    <g style="fill: #666666" transform="translate(502.448086 36.04267) scale(0.07 -0.07)">
     <defs>
      <path id="DejaVuSans-39" d="M 703 97 
L 703 672 
Q 941 559 1184 500 
Q 1428 441 1663 441 
Q 2288 441 2617 861 
Q 2947 1281 2994 2138 
Q 2813 1869 2534 1725 
Q 2256 1581 1919 1581 
Q 1219 1581 811 2004 
Q 403 2428 403 3163 
Q 403 3881 828 4315 
Q 1253 4750 1959 4750 
Q 2769 4750 3195 4129 
Q 3622 3509 3622 2328 
Q 3622 1225 3098 567 
Q 2575 -91 1691 -91 
Q 1453 -91 1209 -44 
Q 966 3 703 97 
z
M 1959 2075 
Q 2384 2075 2632 2365 
Q 2881 2656 2881 3163 
Q 2881 3666 2632 3958 
Q 2384 4250 1959 4250 
Q 1534 4250 1286 3958 
Q 1038 3666 1038 3163 
Q 1038 2656 1286 2365 
Q 1534 2075 1959 2075 
z
" transform="scale(0.015625)"/>
     </defs>
     <use xlink:href="#DejaVuSans-70"/>
     <use xlink:href="#DejaVuSans-68" transform="translate(63.476562 0)"/>
     <use xlink:href="#DejaVuSans-69" transform="translate(126.855469 0)"/>
     <use xlink:href="#DejaVuSans-39" transform="translate(154.638672 0)"/>
     <use xlink:href="#DejaVuSans-35" transform="translate(218.261719 0)"/>
    </g>
   </g>
   <g id="text_24">
    <!-- GLC-03 - Cumulative curve -->
    <g transform="translate(231.383494 16.318125) scale(0.12 -0.12)">
     <defs>
      <path id="DejaVuSans-Bold-47" d="M 4781 347 
Q 4331 128 3847 18 
Q 3363 -91 2847 -91 
Q 1681 -91 1000 561 
Q 319 1213 319 2328 
Q 319 3456 1012 4103 
Q 1706 4750 2913 4750 
Q 3378 4750 3804 4662 
Q 4231 4575 4609 4403 
L 4609 3438 
Q 4219 3659 3833 3768 
Q 3447 3878 3059 3878 
Q 2341 3878 1952 3476 
Q 1563 3075 1563 2328 
Q 1563 1588 1938 1184 
Q 2313 781 3003 781 
Q 3191 781 3352 804 
Q 3513 828 3641 878 
L 3641 1784 
L 2906 1784 
L 2906 2591 
L 4781 2591 
L 4781 347 
z
" transform="scale(0.015625)"/>
      <path id="DejaVuSans-Bold-4c" d="M 588 4666 
L 1791 4666 
L 1791 909 
L 3903 909 
L 3903 0 
L 588 0 
L 588 4666 
z
" transform="scale(0.015625)"/>
      <path id="DejaVuSans-Bold-43" d="M 4288 256 
Q 3956 84 3597 -3 
Q 3238 -91 2847 -91 
Q 1681 -91 1000 561 
Q 319 1213 319 2328 
Q 319 3447 1000 4098 
Q 1681 4750 2847 4750 
Q 3238 4750 3597 4662 
Q 3956 4575 4288 4403 
L 4288 3438 
Q 3953 3666 3628 3772 
Q 3303 3878 2944 3878 
Q 2300 3878 1931 3465 
Q 1563 3053 1563 2328 
Q 1563 1606 1931 1193 
Q 2300 781 2944 781 
Q 3303 781 3628 887 
Q 3953 994 4288 1222 
L 4288 256 
z
" transform="scale(0.015625)"/>
      <path id="DejaVuSans-Bold-2d" d="M 347 2297 
L 2309 2297 
L 2309 1388 
L 347 1388 
L 347 2297 
z
" transform="scale(0.015625)"/>
      <path id="DejaVuSans-Bold-30" d="M 2944 2338 
Q 2944 3213 2780 3570 
Q 2616 3928 2228 3928 
Q 1841 3928 1675 3570 
Q 1509 3213 1509 2338 
Q 1509 1453 1675 1090 
Q 1841 728 2228 728 
Q 2613 728 2778 1090 
Q 2944 1453 2944 2338 
z
M 4147 2328 
Q 4147 1169 3647 539 
Q 3147 -91 2228 -91 
Q 1306 -91 806 539 
Q 306 1169 306 2328 
Q 306 3491 806 4120 
Q 1306 4750 2228 4750 
Q 3147 4750 3647 4120 
Q 4147 3491 4147 2328 
z
" transform="scale(0.015625)"/>
      <path id="DejaVuSans-Bold-33" d="M 2981 2516 
Q 3453 2394 3698 2092 
Q 3944 1791 3944 1325 
Q 3944 631 3412 270 
Q 2881 -91 1863 -91 
Q 1503 -91 1142 -33 
Q 781 25 428 141 
L 428 1069 
Q 766 900 1098 814 
Q 1431 728 1753 728 
Q 2231 728 2486 893 
Q 2741 1059 2741 1369 
Q 2741 1688 2480 1852 
Q 2219 2016 1709 2016 
L 1228 2016 
L 1228 2791 
L 1734 2791 
Q 2188 2791 2409 2933 
Q 2631 3075 2631 3366 
Q 2631 3634 2415 3781 
Q 2200 3928 1806 3928 
Q 1516 3928 1219 3862 
Q 922 3797 628 3669 
L 628 4550 
Q 984 4650 1334 4700 
Q 1684 4750 2022 4750 
Q 2931 4750 3382 4451 
Q 3834 4153 3834 3553 
Q 3834 3144 3618 2883 
Q 3403 2622 2981 2516 
z
" transform="scale(0.015625)"/>
      <path id="DejaVuSans-Bold-20" transform="scale(0.015625)"/>
      <path id="DejaVuSans-Bold-75" d="M 500 1363 
L 500 3500 
L 1625 3500 
L 1625 3150 
Q 1625 2866 1622 2436 
Q 1619 2006 1619 1863 
Q 1619 1441 1641 1255 
Q 1663 1069 1716 984 
Q 1784 875 1895 815 
Q 2006 756 2150 756 
Q 2500 756 2700 1025 
Q 2900 1294 2900 1772 
L 2900 3500 
L 4019 3500 
L 4019 0 
L 2900 0 
L 2900 506 
Q 2647 200 2364 54 
Q 2081 -91 1741 -91 
Q 1134 -91 817 281 
Q 500 653 500 1363 
z
" transform="scale(0.015625)"/>
      <path id="DejaVuSans-Bold-6d" d="M 3781 2919 
Q 3994 3244 4286 3414 
Q 4578 3584 4928 3584 
Q 5531 3584 5847 3212 
Q 6163 2841 6163 2131 
L 6163 0 
L 5038 0 
L 5038 1825 
Q 5041 1866 5042 1909 
Q 5044 1953 5044 2034 
Q 5044 2406 4934 2573 
Q 4825 2741 4581 2741 
Q 4263 2741 4089 2478 
Q 3916 2216 3909 1719 
L 3909 0 
L 2784 0 
L 2784 1825 
Q 2784 2406 2684 2573 
Q 2584 2741 2328 2741 
Q 2006 2741 1831 2477 
Q 1656 2213 1656 1722 
L 1656 0 
L 531 0 
L 531 3500 
L 1656 3500 
L 1656 2988 
Q 1863 3284 2130 3434 
Q 2397 3584 2719 3584 
Q 3081 3584 3359 3409 
Q 3638 3234 3781 2919 
z
" transform="scale(0.015625)"/>
      <path id="DejaVuSans-Bold-6c" d="M 538 4863 
L 1656 4863 
L 1656 0 
L 538 0 
L 538 4863 
z
" transform="scale(0.015625)"/>
      <path id="DejaVuSans-Bold-61" d="M 2106 1575 
Q 1756 1575 1579 1456 
Q 1403 1338 1403 1106 
Q 1403 894 1545 773 
Q 1688 653 1941 653 
Q 2256 653 2472 879 
Q 2688 1106 2688 1447 
L 2688 1575 
L 2106 1575 
z
M 3816 1997 
L 3816 0 
L 2688 0 
L 2688 519 
Q 2463 200 2181 54 
Q 1900 -91 1497 -91 
Q 953 -91 614 226 
Q 275 544 275 1050 
Q 275 1666 698 1953 
Q 1122 2241 2028 2241 
L 2688 2241 
L 2688 2328 
Q 2688 2594 2478 2717 
Q 2269 2841 1825 2841 
Q 1466 2841 1156 2769 
Q 847 2697 581 2553 
L 581 3406 
Q 941 3494 1303 3539 
Q 1666 3584 2028 3584 
Q 2975 3584 3395 3211 
Q 3816 2838 3816 1997 
z
" transform="scale(0.015625)"/>
      <path id="DejaVuSans-Bold-74" d="M 1759 4494 
L 1759 3500 
L 2913 3500 
L 2913 2700 
L 1759 2700 
L 1759 1216 
Q 1759 972 1856 886 
Q 1953 800 2241 800 
L 2816 800 
L 2816 0 
L 1856 0 
Q 1194 0 917 276 
Q 641 553 641 1216 
L 641 2700 
L 84 2700 
L 84 3500 
L 641 3500 
L 641 4494 
L 1759 4494 
z
" transform="scale(0.015625)"/>
      <path id="DejaVuSans-Bold-69" d="M 538 3500 
L 1656 3500 
L 1656 0 
L 538 0 
L 538 3500 
z
M 538 4863 
L 1656 4863 
L 1656 3950 
L 538 3950 
L 538 4863 
z
" transform="scale(0.015625)"/>
      <path id="DejaVuSans-Bold-76" d="M 97 3500 
L 1216 3500 
L 2088 1081 
L 2956 3500 
L 4078 3500 
L 2700 0 
L 1472 0 
L 97 3500 
z
" transform="scale(0.015625)"/>
      <path id="DejaVuSans-Bold-65" d="M 4031 1759 
L 4031 1441 
L 1416 1441 
Q 1456 1047 1700 850 
Q 1944 653 2381 653 
Q 2734 653 3104 758 
Q 3475 863 3866 1075 
L 3866 213 
Q 3469 63 3072 -14 
Q 2675 -91 2278 -91 
Q 1328 -91 801 392 
Q 275 875 275 1747 
Q 275 2603 792 3093 
Q 1309 3584 2216 3584 
Q 3041 3584 3536 3087 
Q 4031 2591 4031 1759 
z
M 2881 2131 
Q 2881 2450 2695 2645 
Q 2509 2841 2209 2841 
Q 1884 2841 1681 2658 
Q 1478 2475 1428 2131 
L 2881 2131 
z
" transform="scale(0.015625)"/>
      <path id="DejaVuSans-Bold-63" d="M 3366 3391 
L 3366 2478 
Q 3138 2634 2908 2709 
Q 2678 2784 2431 2784 
Q 1963 2784 1702 2511 
Q 1441 2238 1441 1747 
Q 1441 1256 1702 982 
Q 1963 709 2431 709 
Q 2694 709 2930 787 
Q 3166 866 3366 1019 
L 3366 103 
Q 3103 6 2833 -42 
Q 2563 -91 2291 -91 
Q 1344 -91 809 395 
Q 275 881 275 1747 
Q 275 2613 809 3098 
Q 1344 3584 2291 3584 
Q 2566 3584 2833 3536 
Q 3100 3488 3366 3391 
z
" transform="scale(0.015625)"/>
      <path id="DejaVuSans-Bold-72" d="M 3138 2547 
Q 2991 2616 2845 2648 
Q 2700 2681 2553 2681 
Q 2122 2681 1889 2404 
Q 1656 2128 1656 1613 
L 1656 0 
L 538 0 
L 538 3500 
L 1656 3500 
L 1656 2925 
Q 1872 3269 2151 3426 
Q 2431 3584 2822 3584 
Q 2878 3584 2943 3579 
Q 3009 3575 3134 3559 
L 3138 2547 
z
" transform="scale(0.015625)"/>
     </defs>
     <use xlink:href="#DejaVuSans-Bold-47"/>
     <use xlink:href="#DejaVuSans-Bold-4c" transform="translate(82.080078 0)"/>
     <use xlink:href="#DejaVuSans-Bold-43" transform="translate(145.800781 0)"/>
     <use xlink:href="#DejaVuSans-Bold-2d" transform="translate(221.439453 0)"/>
     <use xlink:href="#DejaVuSans-Bold-30" transform="translate(262.943359 0)"/>
     <use xlink:href="#DejaVuSans-Bold-33" transform="translate(332.523438 0)"/>
     <use xlink:href="#DejaVuSans-Bold-20" transform="translate(402.103516 0)"/>
     <use xlink:href="#DejaVuSans-Bold-2d" transform="translate(436.917969 0)"/>
     <use xlink:href="#DejaVuSans-Bold-20" transform="translate(478.421875 0)"/>
     <use xlink:href="#DejaVuSans-Bold-43" transform="translate(513.236328 0)"/>
     <use xlink:href="#DejaVuSans-Bold-75" transform="translate(586.625 0)"/>
     <use xlink:href="#DejaVuSans-Bold-6d" transform="translate(657.816406 0)"/>
     <use xlink:href="#DejaVuSans-Bold-75" transform="translate(762.015625 0)"/>
     <use xlink:href="#DejaVuSans-Bold-6c" transform="translate(833.207031 0)"/>
     <use xlink:href="#DejaVuSans-Bold-61" transform="translate(867.484375 0)"/>
     <use xlink:href="#DejaVuSans-Bold-74" transform="translate(934.964844 0)"/>
     <use xlink:href="#DejaVuSans-Bold-69" transform="translate(982.767578 0)"/>
     <use xlink:href="#DejaVuSans-Bold-76" transform="translate(1017.044922 0)"/>
     <use xlink:href="#DejaVuSans-Bold-65" transform="translate(1082.230469 0)"/>
     <use xlink:href="#DejaVuSans-Bold-20" transform="translate(1150.052734 0)"/>
     <use xlink:href="#DejaVuSans-Bold-63" transform="translate(1184.867188 0)"/>
     <use xlink:href="#DejaVuSans-Bold-75" transform="translate(1244.144531 0)"/>
     <use xlink:href="#DejaVuSans-Bold-72" transform="translate(1315.335938 0)"/>
     <use xlink:href="#DejaVuSans-Bold-76" transform="translate(1364.652344 0)"/>
     <use xlink:href="#DejaVuSans-Bold-65" transform="translate(1429.837891 0)"/>
    </g>
   </g>
  </g>
 </g>
 <defs>
  <clipPath id="p8fe6f3330e">
   <rect x="46.024688" y="22.318125" width="550.436364" height="334.490909"/>
  </clipPath>
 </defs>
</svg>
