<?xml version="1.0" encoding="utf-8" standalone="no"?>
<!DOCTYPE svg PUBLIC "-//W3C//DTD SVG 1.1//EN"
  "http://www.w3.org/Graphics/SVG/1.1/DTD/svg11.dtd">
<svg xmlns:xlink="http://www.w3.org/1999/xlink" width="711.65875pt" height="379.965284pt" viewBox="0 0 711.65875 379.965284" xmlns="http://www.w3.org/2000/svg" version="1.1">
 <metadata>
  <rdf:RDF xmlns:dc="http://purl.org/dc/elements/1.1/" xmlns:cc="http://creativecommons.org/ns#" xmlns:rdf="http://www.w3.org/1999/02/22-rdf-syntax-ns#">
   <cc:Work>
    <dc:type rdf:resource="http://purl.org/dc/dcmitype/StillImage"/>
    <dc:date>2026-07-01T03:11:05.179707</dc:date>
    <dc:format>image/svg+xml</dc:format>
    <dc:creator>
     <cc:Agent>
      <dc:title>Matplotlib v3.10.8, https://matplotlib.org/</dc:title>
     </cc:Agent>
    </dc:creator>
   </cc:Work>
  </rdf:RDF>
 </metadata>
 <defs>
  <style type="text/css">*{stroke-linejoin: round; stroke-linecap: butt}</style>
 </defs>
 <g id="figure_1">
  <g id="patch_1">
   <path d="M 0 379.965284 
L 711.65875 379.965284 
L 711.65875 0 
L 0 0 
z
" style="fill: #ffffff"/>
  </g>
  <g id="axes_1">
   <g id="patch_2">
    <path d="M 43.15875 342.409034 
L 704.45875 342.409034 
L 704.45875 22.318125 
L 43.15875 22.318125 
z
" style="fill: #ffffff"/>
   </g>
   <g id="patch_3">
    <path d="M 43.15875 342.409034 
L 194.540678 342.409034 
L 194.540678 22.318125 
L 43.15875 22.318125 
z
" clip-path="url(#p12c4f4b668)" style="fill: #c49464; opacity: 0.3; stroke: #c49464; stroke-linejoin: miter"/>
   </g>
   <g id="patch_4">
    <path d="M 194.540678 342.409034 
L 393.727425 342.409034 
L 393.727425 22.318125 
L 194.540678 22.318125 
z
" clip-path="url(#p12c4f4b668)" style="fill: #f4c95d; opacity: 0.3; stroke: #f4c95d; stroke-linejoin: miter"/>
   </g>
   <g id="patch_5">
    <path d="M 393.727425 342.409034 
L 553.076822 342.409034 
L 553.076822 22.318125 
L 393.727425 22.318125 
z
" clip-path="url(#p12c4f4b668)" style="fill: #94bd7a; opacity: 0.3; stroke: #94bd7a; stroke-linejoin: miter"/>
   </g>
   <g id="patch_6">
    <path d="M 553.076822 342.409034 
L 704.45875 342.409034 
L 704.45875 22.318125 
L 553.076822 22.318125 
z
" clip-path="url(#p12c4f4b668)" style="fill: #6fa8dc; opacity: 0.3; stroke: #6fa8dc; stroke-linejoin: miter"/>
   </g>
   <g id="line2d_1">
    <path d="M 194.540678 342.409034 
L 194.540678 22.318125 
" clip-path="url(#p12c4f4b668)" style="fill: none; stroke-dasharray: 0.8,1.32; stroke-dashoffset: 0; stroke: #666666; stroke-width: 0.8"/>
   </g>
   <g id="line2d_2">
    <path d="M 393.727425 342.409034 
L 393.727425 22.318125 
" clip-path="url(#p12c4f4b668)" style="fill: none; stroke-dasharray: 0.8,1.32; stroke-dashoffset: 0; stroke: #666666; stroke-width: 0.8"/>
   </g>
   <g id="line2d_3">
    <path d="M 553.076822 342.409034 
L 553.076822 22.318125 
" clip-path="url(#p12c4f4b668)" style="fill: none; stroke-dasharray: 0.8,1.32; stroke-dashoffset: 0; stroke: #666666; stroke-width: 0.8"/>
   </g>
   <g id="matplotlib.axis_1">
    <g id="xtick_1">
     <g id="line2d_4">
      <path d="M 75.02863 342.409034 
L 75.02863 22.318125 
" clip-path="url(#p12c4f4b668)" style="fill: none; stroke-dasharray: 0.4,0.66; stroke-dashoffset: 0; stroke: #b0b0b0; stroke-opacity: 0.5; stroke-width: 0.4"/>
     </g>
     <g id="line2d_5">
      <defs>
       <path id="m728d57428b" d="M 0 0 
L 0 3.5 
" style="stroke: #000000; stroke-width: 0.8"/>
      </defs>
      <g>
       <use xlink:href="#m728d57428b" x="75.02863" y="342.409034" style="stroke: #000000; stroke-width: 0.8"/>
      </g>
     </g>
     <g id="text_1">
      <!-- −4 -->
      <g transform="translate(68.394645 356.247628) scale(0.09 -0.09)">
       <defs>
        <path id="DejaVuSans-2212" d="M 678 2272 
L 4684 2272 
L 4684 1741 
L 678 1741 
L 678 2272 
z
" transform="scale(0.015625)"/>
        <path id="DejaVuSans-34" d="M 2419 4116 
L 825 1625 
L 2419 1625 
L 2419 4116 
z
M 2253 4666 
L 3047 4666 
L 3047 1625 
L 3713 1625 
L 3713 1100 
L 3047 1100 
L 3047 0 
L 2419 0 
L 2419 1100 
L 313 1100 
L 313 1709 
L 2253 4666 
z
" transform="scale(0.015625)"/>
       </defs>
       <use xlink:href="#DejaVuSans-2212"/>
       <use xlink:href="#DejaVuSans-34" transform="translate(83.789062 0)"/>
      </g>
     </g>
    </g>
    <g id="xtick_2">
     <g id="line2d_6">
      <path d="M 154.703328 342.409034 
L 154.703328 22.318125 
" clip-path="url(#p12c4f4b668)" style="fill: none; stroke-dasharray: 0.4,0.66; stroke-dashoffset: 0; stroke: #b0b0b0; stroke-opacity: 0.5; stroke-width: 0.4"/>
     </g>
     <g id="line2d_7">
      <g>
       <use xlink:href="#m728d57428b" x="154.703328" y="342.409034" style="stroke: #000000; stroke-width: 0.8"/>
      </g>
     </g>
     <g id="text_2">
      <!-- −2 -->
      <g transform="translate(148.069344 356.247628) scale(0.09 -0.09)">
       <defs>
        <path id="DejaVuSans-32" d="M 1228 531 
L 3431 531 
L 3431 0 
L 469 0 
L 469 531 
Q 828 903 1448 1529 
Q 2069 2156 2228 2338 
Q 2531 2678 2651 2914 
Q 2772 3150 2772 3378 
Q 2772 3750 2511 3984 
Q 2250 4219 1831 4219 
Q 1534 4219 1204 4116 
Q 875 4013 500 3803 
L 500 4441 
Q 881 4594 1212 4672 
Q 1544 4750 1819 4750 
Q 2544 4750 2975 4387 
Q 3406 4025 3406 3419 
Q 3406 3131 3298 2873 
Q 3191 2616 2906 2266 
Q 2828 2175 2409 1742 
Q 1991 1309 1228 531 
z
" transform="scale(0.015625)"/>
       </defs>
       <use xlink:href="#DejaVuSans-2212"/>
       <use xlink:href="#DejaVuSans-32" transform="translate(83.789062 0)"/>
      </g>
     </g>
    </g>
    <g id="xtick_3">
     <g id="line2d_8">
      <path d="M 234.378027 342.409034 
L 234.378027 22.318125 
" clip-path="url(#p12c4f4b668)" style="fill: none; stroke-dasharray: 0.4,0.66; stroke-dashoffset: 0; stroke: #b0b0b0; stroke-opacity: 0.5; stroke-width: 0.4"/>
     </g>
     <g id="line2d_9">
      <g>
       <use xlink:href="#m728d57428b" x="234.378027" y="342.409034" style="stroke: #000000; stroke-width: 0.8"/>
      </g>
     </g>
     <g id="text_3">
      <!-- 0 -->
      <g transform="translate(231.514902 356.247628) scale(0.09 -0.09)">
       <defs>
        <path id="DejaVuSans-30" d="M 2034 4250 
Q 1547 4250 1301 3770 
Q 1056 3291 1056 2328 
Q 1056 1369 1301 889 
Q 1547 409 2034 409 
Q 2525 409 2770 889 
Q 3016 1369 3016 2328 
Q 3016 3291 2770 3770 
Q 2525 4250 2034 4250 
z
M 2034 4750 
Q 2819 4750 3233 4129 
Q 3647 3509 3647 2328 
Q 3647 1150 3233 529 
Q 2819 -91 2034 -91 
Q 1250 -91 836 529 
Q 422 1150 422 2328 
Q 422 3509 836 4129 
Q 1250 4750 2034 4750 
z
" transform="scale(0.015625)"/>
       </defs>
       <use xlink:href="#DejaVuSans-30"/>
      </g>
     </g>
    </g>
    <g id="xtick_4">
     <g id="line2d_10">
      <path d="M 314.052726 342.409034 
L 314.052726 22.318125 
" clip-path="url(#p12c4f4b668)" style="fill: none; stroke-dasharray: 0.4,0.66; stroke-dashoffset: 0; stroke: #b0b0b0; stroke-opacity: 0.5; stroke-width: 0.4"/>
     </g>
     <g id="line2d_11">
      <g>
       <use xlink:href="#m728d57428b" x="314.052726" y="342.409034" style="stroke: #000000; stroke-width: 0.8"/>
      </g>
     </g>
     <g id="text_4">
      <!-- 2 -->
      <g transform="translate(311.189601 356.247628) scale(0.09 -0.09)">
       <use xlink:href="#DejaVuSans-32"/>
      </g>
     </g>
    </g>
    <g id="xtick_5">
     <g id="line2d_12">
      <path d="M 393.727425 342.409034 
L 393.727425 22.318125 
" clip-path="url(#p12c4f4b668)" style="fill: none; stroke-dasharray: 0.4,0.66; stroke-dashoffset: 0; stroke: #b0b0b0; stroke-opacity: 0.5; stroke-width: 0.4"/>
     </g>
     <g id="line2d_13">
      <g>
       <use xlink:href="#m728d57428b" x="393.727425" y="342.409034" style="stroke: #000000; stroke-width: 0.8"/>
      </g>
     </g>
     <g id="text_5">
      <!-- 4 -->
      <g transform="translate(390.8643 356.247628) scale(0.09 -0.09)">
       <use xlink:href="#DejaVuSans-34"/>
      </g>
     </g>
    </g>
    <g id="xtick_6">
     <g id="line2d_14">
      <path d="M 473.402123 342.409034 
L 473.402123 22.318125 
" clip-path="url(#p12c4f4b668)" style="fill: none; stroke-dasharray: 0.4,0.66; stroke-dashoffset: 0; stroke: #b0b0b0; stroke-opacity: 0.5; stroke-width: 0.4"/>
     </g>
     <g id="line2d_15">
      <g>
       <use xlink:href="#m728d57428b" x="473.402123" y="342.409034" style="stroke: #000000; stroke-width: 0.8"/>
      </g>
     </g>
     <g id="text_6">
      <!-- 6 -->
      <g transform="translate(470.538998 356.247628) scale(0.09 -0.09)">
       <defs>
        <path id="DejaVuSans-36" d="M 2113 2584 
Q 1688 2584 1439 2293 
Q 1191 2003 1191 1497 
Q 1191 994 1439 701 
Q 1688 409 2113 409 
Q 2538 409 2786 701 
Q 3034 994 3034 1497 
Q 3034 2003 2786 2293 
Q 2538 2584 2113 2584 
z
M 3366 4563 
L 3366 3988 
Q 3128 4100 2886 4159 
Q 2644 4219 2406 4219 
Q 1781 4219 1451 3797 
Q 1122 3375 1075 2522 
Q 1259 2794 1537 2939 
Q 1816 3084 2150 3084 
Q 2853 3084 3261 2657 
Q 3669 2231 3669 1497 
Q 3669 778 3244 343 
Q 2819 -91 2113 -91 
Q 1303 -91 875 529 
Q 447 1150 447 2328 
Q 447 3434 972 4092 
Q 1497 4750 2381 4750 
Q 2619 4750 2861 4703 
Q 3103 4656 3366 4563 
z
" transform="scale(0.015625)"/>
       </defs>
       <use xlink:href="#DejaVuSans-36"/>
      </g>
     </g>
    </g>
    <g id="xtick_7">
     <g id="line2d_16">
      <path d="M 553.076822 342.409034 
L 553.076822 22.318125 
" clip-path="url(#p12c4f4b668)" style="fill: none; stroke-dasharray: 0.4,0.66; stroke-dashoffset: 0; stroke: #b0b0b0; stroke-opacity: 0.5; stroke-width: 0.4"/>
     </g>
     <g id="line2d_17">
      <g>
       <use xlink:href="#m728d57428b" x="553.076822" y="342.409034" style="stroke: #000000; stroke-width: 0.8"/>
      </g>
     </g>
     <g id="text_7">
      <!-- 8 -->
      <g transform="translate(550.213697 356.247628) scale(0.09 -0.09)">
       <defs>
        <path id="DejaVuSans-38" d="M 2034 2216 
Q 1584 2216 1326 1975 
Q 1069 1734 1069 1313 
Q 1069 891 1326 650 
Q 1584 409 2034 409 
Q 2484 409 2743 651 
Q 3003 894 3003 1313 
Q 3003 1734 2745 1975 
Q 2488 2216 2034 2216 
z
M 1403 2484 
Q 997 2584 770 2862 
Q 544 3141 544 3541 
Q 544 4100 942 4425 
Q 1341 4750 2034 4750 
Q 2731 4750 3128 4425 
Q 3525 4100 3525 3541 
Q 3525 3141 3298 2862 
Q 3072 2584 2669 2484 
Q 3125 2378 3379 2068 
Q 3634 1759 3634 1313 
Q 3634 634 3220 271 
Q 2806 -91 2034 -91 
Q 1263 -91 848 271 
Q 434 634 434 1313 
Q 434 1759 690 2068 
Q 947 2378 1403 2484 
z
M 1172 3481 
Q 1172 3119 1398 2916 
Q 1625 2713 2034 2713 
Q 2441 2713 2670 2916 
Q 2900 3119 2900 3481 
Q 2900 3844 2670 4047 
Q 2441 4250 2034 4250 
Q 1625 4250 1398 4047 
Q 1172 3844 1172 3481 
z
" transform="scale(0.015625)"/>
       </defs>
       <use xlink:href="#DejaVuSans-38"/>
      </g>
     </g>
    </g>
    <g id="xtick_8">
     <g id="line2d_18">
      <path d="M 632.751521 342.409034 
L 632.751521 22.318125 
" clip-path="url(#p12c4f4b668)" style="fill: none; stroke-dasharray: 0.4,0.66; stroke-dashoffset: 0; stroke: #b0b0b0; stroke-opacity: 0.5; stroke-width: 0.4"/>
     </g>
     <g id="line2d_19">
      <g>
       <use xlink:href="#m728d57428b" x="632.751521" y="342.409034" style="stroke: #000000; stroke-width: 0.8"/>
      </g>
     </g>
     <g id="text_8">
      <!-- 10 -->
      <g transform="translate(627.025271 356.247628) scale(0.09 -0.09)">
       <defs>
        <path id="DejaVuSans-31" d="M 794 531 
L 1825 531 
L 1825 4091 
L 703 3866 
L 703 4441 
L 1819 4666 
L 2450 4666 
L 2450 531 
L 3481 531 
L 3481 0 
L 794 0 
L 794 531 
z
" transform="scale(0.015625)"/>
       </defs>
       <use xlink:href="#DejaVuSans-31"/>
       <use xlink:href="#DejaVuSans-30" transform="translate(63.623047 0)"/>
      </g>
     </g>
    </g>
    <g id="text_9">
     <!-- Grain size (phi) -->
     <g transform="translate(331.945156 370.477628) scale(0.11 -0.11)">
      <defs>
       <path id="DejaVuSans-47" d="M 3809 666 
L 3809 1919 
L 2778 1919 
L 2778 2438 
L 4434 2438 
L 4434 434 
Q 4069 175 3628 42 
Q 3188 -91 2688 -91 
Q 1594 -91 976 548 
Q 359 1188 359 2328 
Q 359 3472 976 4111 
Q 1594 4750 2688 4750 
Q 3144 4750 3555 4637 
Q 3966 4525 4313 4306 
L 4313 3634 
Q 3963 3931 3569 4081 
Q 3175 4231 2741 4231 
Q 1884 4231 1454 3753 
Q 1025 3275 1025 2328 
Q 1025 1384 1454 906 
Q 1884 428 2741 428 
Q 3075 428 3337 486 
Q 3600 544 3809 666 
z
" transform="scale(0.015625)"/>
       <path id="DejaVuSans-72" d="M 2631 2963 
Q 2534 3019 2420 3045 
Q 2306 3072 2169 3072 
Q 1681 3072 1420 2755 
Q 1159 2438 1159 1844 
L 1159 0 
L 581 0 
L 581 3500 
L 1159 3500 
L 1159 2956 
Q 1341 3275 1631 3429 
Q 1922 3584 2338 3584 
Q 2397 3584 2469 3576 
Q 2541 3569 2628 3553 
L 2631 2963 
z
" transform="scale(0.015625)"/>
       <path id="DejaVuSans-61" d="M 2194 1759 
Q 1497 1759 1228 1600 
Q 959 1441 959 1056 
Q 959 750 1161 570 
Q 1363 391 1709 391 
Q 2188 391 2477 730 
Q 2766 1069 2766 1631 
L 2766 1759 
L 2194 1759 
z
M 3341 1997 
L 3341 0 
L 2766 0 
L 2766 531 
Q 2569 213 2275 61 
Q 1981 -91 1556 -91 
Q 1019 -91 701 211 
Q 384 513 384 1019 
Q 384 1609 779 1909 
Q 1175 2209 1959 2209 
L 2766 2209 
L 2766 2266 
Q 2766 2663 2505 2880 
Q 2244 3097 1772 3097 
Q 1472 3097 1187 3025 
Q 903 2953 641 2809 
L 641 3341 
Q 956 3463 1253 3523 
Q 1550 3584 1831 3584 
Q 2591 3584 2966 3190 
Q 3341 2797 3341 1997 
z
" transform="scale(0.015625)"/>
       <path id="DejaVuSans-69" d="M 603 3500 
L 1178 3500 
L 1178 0 
L 603 0 
L 603 3500 
z
M 603 4863 
L 1178 4863 
L 1178 4134 
L 603 4134 
L 603 4863 
z
" transform="scale(0.015625)"/>
       <path id="DejaVuSans-6e" d="M 3513 2113 
L 3513 0 
L 2938 0 
L 2938 2094 
Q 2938 2591 2744 2837 
Q 2550 3084 2163 3084 
Q 1697 3084 1428 2787 
Q 1159 2491 1159 1978 
L 1159 0 
L 581 0 
L 581 3500 
L 1159 3500 
L 1159 2956 
Q 1366 3272 1645 3428 
Q 1925 3584 2291 3584 
Q 2894 3584 3203 3211 
Q 3513 2838 3513 2113 
z
" transform="scale(0.015625)"/>
       <path id="DejaVuSans-20" transform="scale(0.015625)"/>
       <path id="DejaVuSans-73" d="M 2834 3397 
L 2834 2853 
Q 2591 2978 2328 3040 
Q 2066 3103 1784 3103 
Q 1356 3103 1142 2972 
Q 928 2841 928 2578 
Q 928 2378 1081 2264 
Q 1234 2150 1697 2047 
L 1894 2003 
Q 2506 1872 2764 1633 
Q 3022 1394 3022 966 
Q 3022 478 2636 193 
Q 2250 -91 1575 -91 
Q 1294 -91 989 -36 
Q 684 19 347 128 
L 347 722 
Q 666 556 975 473 
Q 1284 391 1588 391 
Q 1994 391 2212 530 
Q 2431 669 2431 922 
Q 2431 1156 2273 1281 
Q 2116 1406 1581 1522 
L 1381 1569 
Q 847 1681 609 1914 
Q 372 2147 372 2553 
Q 372 3047 722 3315 
Q 1072 3584 1716 3584 
Q 2034 3584 2315 3537 
Q 2597 3491 2834 3397 
z
" transform="scale(0.015625)"/>
       <path id="DejaVuSans-7a" d="M 353 3500 
L 3084 3500 
L 3084 2975 
L 922 459 
L 3084 459 
L 3084 0 
L 275 0 
L 275 525 
L 2438 3041 
L 353 3041 
L 353 3500 
z
" transform="scale(0.015625)"/>
       <path id="DejaVuSans-65" d="M 3597 1894 
L 3597 1613 
L 953 1613 
Q 991 1019 1311 708 
Q 1631 397 2203 397 
Q 2534 397 2845 478 
Q 3156 559 3463 722 
L 3463 178 
Q 3153 47 2828 -22 
Q 2503 -91 2169 -91 
Q 1331 -91 842 396 
Q 353 884 353 1716 
Q 353 2575 817 3079 
Q 1281 3584 2069 3584 
Q 2775 3584 3186 3129 
Q 3597 2675 3597 1894 
z
M 3022 2063 
Q 3016 2534 2758 2815 
Q 2500 3097 2075 3097 
Q 1594 3097 1305 2825 
Q 1016 2553 972 2059 
L 3022 2063 
z
" transform="scale(0.015625)"/>
       <path id="DejaVuSans-28" d="M 1984 4856 
Q 1566 4138 1362 3434 
Q 1159 2731 1159 2009 
Q 1159 1288 1364 580 
Q 1569 -128 1984 -844 
L 1484 -844 
Q 1016 -109 783 600 
Q 550 1309 550 2009 
Q 550 2706 781 3412 
Q 1013 4119 1484 4856 
L 1984 4856 
z
" transform="scale(0.015625)"/>
       <path id="DejaVuSans-70" d="M 1159 525 
L 1159 -1331 
L 581 -1331 
L 581 3500 
L 1159 3500 
L 1159 2969 
Q 1341 3281 1617 3432 
Q 1894 3584 2278 3584 
Q 2916 3584 3314 3078 
Q 3713 2572 3713 1747 
Q 3713 922 3314 415 
Q 2916 -91 2278 -91 
Q 1894 -91 1617 61 
Q 1341 213 1159 525 
z
M 3116 1747 
Q 3116 2381 2855 2742 
Q 2594 3103 2138 3103 
Q 1681 3103 1420 2742 
Q 1159 2381 1159 1747 
Q 1159 1113 1420 752 
Q 1681 391 2138 391 
Q 2594 391 2855 752 
Q 3116 1113 3116 1747 
z
" transform="scale(0.015625)"/>
       <path id="DejaVuSans-68" d="M 3513 2113 
L 3513 0 
L 2938 0 
L 2938 2094 
Q 2938 2591 2744 2837 
Q 2550 3084 2163 3084 
Q 1697 3084 1428 2787 
Q 1159 2491 1159 1978 
L 1159 0 
L 581 0 
L 581 4863 
L 1159 4863 
L 1159 2956 
Q 1366 3272 1645 3428 
Q 1925 3584 2291 3584 
Q 2894 3584 3203 3211 
Q 3513 2838 3513 2113 
z
" transform="scale(0.015625)"/>
       <path id="DejaVuSans-29" d="M 513 4856 
L 1013 4856 
Q 1481 4119 1714 3412 
Q 1947 2706 1947 2009 
Q 1947 1309 1714 600 
Q 1481 -109 1013 -844 
L 513 -844 
Q 928 -128 1133 580 
Q 1338 1288 1338 2009 
Q 1338 2731 1133 3434 
Q 928 4138 513 4856 
z
" transform="scale(0.015625)"/>
      </defs>
      <use xlink:href="#DejaVuSans-47"/>
      <use xlink:href="#DejaVuSans-72" transform="translate(77.490234 0)"/>
      <use xlink:href="#DejaVuSans-61" transform="translate(118.603516 0)"/>
      <use xlink:href="#DejaVuSans-69" transform="translate(179.882812 0)"/>
      <use xlink:href="#DejaVuSans-6e" transform="translate(207.666016 0)"/>
      <use xlink:href="#DejaVuSans-20" transform="translate(271.044922 0)"/>
      <use xlink:href="#DejaVuSans-73" transform="translate(302.832031 0)"/>
      <use xlink:href="#DejaVuSans-69" transform="translate(354.931641 0)"/>
      <use xlink:href="#DejaVuSans-7a" transform="translate(382.714844 0)"/>
      <use xlink:href="#DejaVuSans-65" transform="translate(435.205078 0)"/>
      <use xlink:href="#DejaVuSans-20" transform="translate(496.728516 0)"/>
      <use xlink:href="#DejaVuSans-28" transform="translate(528.515625 0)"/>
      <use xlink:href="#DejaVuSans-70" transform="translate(567.529297 0)"/>
      <use xlink:href="#DejaVuSans-68" transform="translate(631.005859 0)"/>
      <use xlink:href="#DejaVuSans-69" transform="translate(694.384766 0)"/>
      <use xlink:href="#DejaVuSans-29" transform="translate(722.167969 0)"/>
     </g>
    </g>
   </g>
   <g id="matplotlib.axis_2">
    <g id="ytick_1">
     <g id="line2d_20">
      <path d="M 43.15875 342.409034 
L 704.45875 342.409034 
" clip-path="url(#p12c4f4b668)" style="fill: none; stroke-dasharray: 0.4,0.66; stroke-dashoffset: 0; stroke: #b0b0b0; stroke-opacity: 0.5; stroke-width: 0.4"/>
     </g>
     <g id="line2d_21">
      <defs>
       <path id="m869bfefe1f" d="M 0 0 
L -3.5 0 
" style="stroke: #000000; stroke-width: 0.8"/>
      </defs>
      <g>
       <use xlink:href="#m869bfefe1f" x="43.15875" y="342.409034" style="stroke: #000000; stroke-width: 0.8"/>
      </g>
     </g>
     <g id="text_10">
      <!-- 0.0 -->
      <g transform="translate(21.845938 345.828331) scale(0.09 -0.09)">
       <defs>
        <path id="DejaVuSans-2e" d="M 684 794 
L 1344 794 
L 1344 0 
L 684 0 
L 684 794 
z
" transform="scale(0.015625)"/>
       </defs>
       <use xlink:href="#DejaVuSans-30"/>
       <use xlink:href="#DejaVuSans-2e" transform="translate(63.623047 0)"/>
       <use xlink:href="#DejaVuSans-30" transform="translate(95.410156 0)"/>
      </g>
     </g>
    </g>
    <g id="ytick_2">
     <g id="line2d_22">
      <path d="M 43.15875 291.079986 
L 704.45875 291.079986 
" clip-path="url(#p12c4f4b668)" style="fill: none; stroke-dasharray: 0.4,0.66; stroke-dashoffset: 0; stroke: #b0b0b0; stroke-opacity: 0.5; stroke-width: 0.4"/>
     </g>
     <g id="line2d_23">
      <g>
       <use xlink:href="#m869bfefe1f" x="43.15875" y="291.079986" style="stroke: #000000; stroke-width: 0.8"/>
      </g>
     </g>
     <g id="text_11">
      <!-- 0.5 -->
      <g transform="translate(21.845938 294.499283) scale(0.09 -0.09)">
       <defs>
        <path id="DejaVuSans-35" d="M 691 4666 
L 3169 4666 
L 3169 4134 
L 1269 4134 
L 1269 2991 
Q 1406 3038 1543 3061 
Q 1681 3084 1819 3084 
Q 2600 3084 3056 2656 
Q 3513 2228 3513 1497 
Q 3513 744 3044 326 
Q 2575 -91 1722 -91 
Q 1428 -91 1123 -41 
Q 819 9 494 109 
L 494 744 
Q 775 591 1075 516 
Q 1375 441 1709 441 
Q 2250 441 2565 725 
Q 2881 1009 2881 1497 
Q 2881 1984 2565 2268 
Q 2250 2553 1709 2553 
Q 1456 2553 1204 2497 
Q 953 2441 691 2322 
L 691 4666 
z
" transform="scale(0.015625)"/>
       </defs>
       <use xlink:href="#DejaVuSans-30"/>
       <use xlink:href="#DejaVuSans-2e" transform="translate(63.623047 0)"/>
       <use xlink:href="#DejaVuSans-35" transform="translate(95.410156 0)"/>
      </g>
     </g>
    </g>
    <g id="ytick_3">
     <g id="line2d_24">
      <path d="M 43.15875 239.750938 
L 704.45875 239.750938 
" clip-path="url(#p12c4f4b668)" style="fill: none; stroke-dasharray: 0.4,0.66; stroke-dashoffset: 0; stroke: #b0b0b0; stroke-opacity: 0.5; stroke-width: 0.4"/>
     </g>
     <g id="line2d_25">
      <g>
       <use xlink:href="#m869bfefe1f" x="43.15875" y="239.750938" style="stroke: #000000; stroke-width: 0.8"/>
      </g>
     </g>
     <g id="text_12">
      <!-- 1.0 -->
      <g transform="translate(21.845938 243.170235) scale(0.09 -0.09)">
       <use xlink:href="#DejaVuSans-31"/>
       <use xlink:href="#DejaVuSans-2e" transform="translate(63.623047 0)"/>
       <use xlink:href="#DejaVuSans-30" transform="translate(95.410156 0)"/>
      </g>
     </g>
    </g>
    <g id="ytick_4">
     <g id="line2d_26">
      <path d="M 43.15875 188.42189 
L 704.45875 188.42189 
" clip-path="url(#p12c4f4b668)" style="fill: none; stroke-dasharray: 0.4,0.66; stroke-dashoffset: 0; stroke: #b0b0b0; stroke-opacity: 0.5; stroke-width: 0.4"/>
     </g>
     <g id="line2d_27">
      <g>
       <use xlink:href="#m869bfefe1f" x="43.15875" y="188.42189" style="stroke: #000000; stroke-width: 0.8"/>
      </g>
     </g>
     <g id="text_13">
      <!-- 1.5 -->
      <g transform="translate(21.845938 191.841187) scale(0.09 -0.09)">
       <use xlink:href="#DejaVuSans-31"/>
       <use xlink:href="#DejaVuSans-2e" transform="translate(63.623047 0)"/>
       <use xlink:href="#DejaVuSans-35" transform="translate(95.410156 0)"/>
      </g>
     </g>
    </g>
    <g id="ytick_5">
     <g id="line2d_28">
      <path d="M 43.15875 137.092842 
L 704.45875 137.092842 
" clip-path="url(#p12c4f4b668)" style="fill: none; stroke-dasharray: 0.4,0.66; stroke-dashoffset: 0; stroke: #b0b0b0; stroke-opacity: 0.5; stroke-width: 0.4"/>
     </g>
     <g id="line2d_29">
      <g>
       <use xlink:href="#m869bfefe1f" x="43.15875" y="137.092842" style="stroke: #000000; stroke-width: 0.8"/>
      </g>
     </g>
     <g id="text_14">
      <!-- 2.0 -->
      <g transform="translate(21.845938 140.512138) scale(0.09 -0.09)">
       <use xlink:href="#DejaVuSans-32"/>
       <use xlink:href="#DejaVuSans-2e" transform="translate(63.623047 0)"/>
       <use xlink:href="#DejaVuSans-30" transform="translate(95.410156 0)"/>
      </g>
     </g>
    </g>
    <g id="ytick_6">
     <g id="line2d_30">
      <path d="M 43.15875 85.763793 
L 704.45875 85.763793 
" clip-path="url(#p12c4f4b668)" style="fill: none; stroke-dasharray: 0.4,0.66; stroke-dashoffset: 0; stroke: #b0b0b0; stroke-opacity: 0.5; stroke-width: 0.4"/>
     </g>
     <g id="line2d_31">
      <g>
       <use xlink:href="#m869bfefe1f" x="43.15875" y="85.763793" style="stroke: #000000; stroke-width: 0.8"/>
      </g>
     </g>
     <g id="text_15">
      <!-- 2.5 -->
      <g transform="translate(21.845938 89.18309) scale(0.09 -0.09)">
       <use xlink:href="#DejaVuSans-32"/>
       <use xlink:href="#DejaVuSans-2e" transform="translate(63.623047 0)"/>
       <use xlink:href="#DejaVuSans-35" transform="translate(95.410156 0)"/>
      </g>
     </g>
    </g>
    <g id="ytick_7">
     <g id="line2d_32">
      <path d="M 43.15875 34.434745 
L 704.45875 34.434745 
" clip-path="url(#p12c4f4b668)" style="fill: none; stroke-dasharray: 0.4,0.66; stroke-dashoffset: 0; stroke: #b0b0b0; stroke-opacity: 0.5; stroke-width: 0.4"/>
     </g>
     <g id="line2d_33">
      <g>
       <use xlink:href="#m869bfefe1f" x="43.15875" y="34.434745" style="stroke: #000000; stroke-width: 0.8"/>
      </g>
     </g>
     <g id="text_16">
      <!-- 3.0 -->
      <g transform="translate(21.845938 37.854042) scale(0.09 -0.09)">
       <defs>
        <path id="DejaVuSans-33" d="M 2597 2516 
Q 3050 2419 3304 2112 
Q 3559 1806 3559 1356 
Q 3559 666 3084 287 
Q 2609 -91 1734 -91 
Q 1441 -91 1130 -33 
Q 819 25 488 141 
L 488 750 
Q 750 597 1062 519 
Q 1375 441 1716 441 
Q 2309 441 2620 675 
Q 2931 909 2931 1356 
Q 2931 1769 2642 2001 
Q 2353 2234 1838 2234 
L 1294 2234 
L 1294 2753 
L 1863 2753 
Q 2328 2753 2575 2939 
Q 2822 3125 2822 3475 
Q 2822 3834 2567 4026 
Q 2313 4219 1838 4219 
Q 1578 4219 1281 4162 
Q 984 4106 628 3988 
L 628 4550 
Q 988 4650 1302 4700 
Q 1616 4750 1894 4750 
Q 2613 4750 3031 4423 
Q 3450 4097 3450 3541 
Q 3450 3153 3228 2886 
Q 3006 2619 2597 2516 
z
" transform="scale(0.015625)"/>
       </defs>
       <use xlink:href="#DejaVuSans-33"/>
       <use xlink:href="#DejaVuSans-2e" transform="translate(63.623047 0)"/>
       <use xlink:href="#DejaVuSans-30" transform="translate(95.410156 0)"/>
      </g>
     </g>
    </g>
    <g id="text_17">
     <!-- Weight % -->
     <g transform="translate(15.558281 208.498033) rotate(-90) scale(0.11 -0.11)">
      <defs>
       <path id="DejaVuSans-57" d="M 213 4666 
L 850 4666 
L 1831 722 
L 2809 4666 
L 3519 4666 
L 4500 722 
L 5478 4666 
L 6119 4666 
L 4947 0 
L 4153 0 
L 3169 4050 
L 2175 0 
L 1381 0 
L 213 4666 
z
" transform="scale(0.015625)"/>
       <path id="DejaVuSans-67" d="M 2906 1791 
Q 2906 2416 2648 2759 
Q 2391 3103 1925 3103 
Q 1463 3103 1205 2759 
Q 947 2416 947 1791 
Q 947 1169 1205 825 
Q 1463 481 1925 481 
Q 2391 481 2648 825 
Q 2906 1169 2906 1791 
z
M 3481 434 
Q 3481 -459 3084 -895 
Q 2688 -1331 1869 -1331 
Q 1566 -1331 1297 -1286 
Q 1028 -1241 775 -1147 
L 775 -588 
Q 1028 -725 1275 -790 
Q 1522 -856 1778 -856 
Q 2344 -856 2625 -561 
Q 2906 -266 2906 331 
L 2906 616 
Q 2728 306 2450 153 
Q 2172 0 1784 0 
Q 1141 0 747 490 
Q 353 981 353 1791 
Q 353 2603 747 3093 
Q 1141 3584 1784 3584 
Q 2172 3584 2450 3431 
Q 2728 3278 2906 2969 
L 2906 3500 
L 3481 3500 
L 3481 434 
z
" transform="scale(0.015625)"/>
       <path id="DejaVuSans-74" d="M 1172 4494 
L 1172 3500 
L 2356 3500 
L 2356 3053 
L 1172 3053 
L 1172 1153 
Q 1172 725 1289 603 
Q 1406 481 1766 481 
L 2356 481 
L 2356 0 
L 1766 0 
Q 1100 0 847 248 
Q 594 497 594 1153 
L 594 3053 
L 172 3053 
L 172 3500 
L 594 3500 
L 594 4494 
L 1172 4494 
z
" transform="scale(0.015625)"/>
       <path id="DejaVuSans-25" d="M 4653 2053 
Q 4381 2053 4226 1822 
Q 4072 1591 4072 1178 
Q 4072 772 4226 539 
Q 4381 306 4653 306 
Q 4919 306 5073 539 
Q 5228 772 5228 1178 
Q 5228 1588 5073 1820 
Q 4919 2053 4653 2053 
z
M 4653 2450 
Q 5147 2450 5437 2106 
Q 5728 1763 5728 1178 
Q 5728 594 5436 251 
Q 5144 -91 4653 -91 
Q 4153 -91 3862 251 
Q 3572 594 3572 1178 
Q 3572 1766 3864 2108 
Q 4156 2450 4653 2450 
z
M 1428 4353 
Q 1159 4353 1004 4120 
Q 850 3888 850 3481 
Q 850 3069 1003 2837 
Q 1156 2606 1428 2606 
Q 1700 2606 1854 2837 
Q 2009 3069 2009 3481 
Q 2009 3884 1853 4118 
Q 1697 4353 1428 4353 
z
M 4250 4750 
L 4750 4750 
L 1831 -91 
L 1331 -91 
L 4250 4750 
z
M 1428 4750 
Q 1922 4750 2215 4408 
Q 2509 4066 2509 3481 
Q 2509 2891 2217 2550 
Q 1925 2209 1428 2209 
Q 931 2209 642 2551 
Q 353 2894 353 3481 
Q 353 4063 643 4406 
Q 934 4750 1428 4750 
z
" transform="scale(0.015625)"/>
      </defs>
      <use xlink:href="#DejaVuSans-57"/>
      <use xlink:href="#DejaVuSans-65" transform="translate(93.001953 0)"/>
      <use xlink:href="#DejaVuSans-69" transform="translate(154.525391 0)"/>
      <use xlink:href="#DejaVuSans-67" transform="translate(182.308594 0)"/>
      <use xlink:href="#DejaVuSans-68" transform="translate(245.785156 0)"/>
      <use xlink:href="#DejaVuSans-74" transform="translate(309.164062 0)"/>
      <use xlink:href="#DejaVuSans-20" transform="translate(348.373047 0)"/>
      <use xlink:href="#DejaVuSans-25" transform="translate(380.160156 0)"/>
     </g>
    </g>
   </g>
   <g id="patch_7">
    <path d="M 70.795911 342.409034 
L 79.261348 342.409034 
L 79.261348 205.627523 
L 70.795911 205.627523 
z
" clip-path="url(#p12c4f4b668)" style="fill: #ffffff; opacity: 0.65; stroke: #4c4c4c; stroke-width: 0.6; stroke-linejoin: miter"/>
   </g>
   <g id="patch_8">
    <path d="M 80.755248 342.409034 
L 89.220685 342.409034 
L 89.220685 191.183544 
L 80.755248 191.183544 
z
" clip-path="url(#p12c4f4b668)" style="fill: #ffffff; opacity: 0.65; stroke: #4c4c4c; stroke-width: 0.6; stroke-linejoin: miter"/>
   </g>
   <g id="patch_9">
    <path d="M 90.714586 342.409034 
L 99.180023 342.409034 
L 99.180023 162.121066 
L 90.714586 162.121066 
z
" clip-path="url(#p12c4f4b668)" style="fill: #ffffff; opacity: 0.65; stroke: #4c4c4c; stroke-width: 0.6; stroke-linejoin: miter"/>
   </g>
   <g id="patch_10">
    <path d="M 100.673923 342.409034 
L 109.13936 342.409034 
L 109.13936 142.369668 
L 100.673923 142.369668 
z
" clip-path="url(#p12c4f4b668)" style="fill: #ffffff; opacity: 0.65; stroke: #4c4c4c; stroke-width: 0.6; stroke-linejoin: miter"/>
   </g>
   <g id="patch_11">
    <path d="M 110.633261 342.409034 
L 119.098697 342.409034 
L 119.098697 128.788015 
L 110.633261 128.788015 
z
" clip-path="url(#p12c4f4b668)" style="fill: #ffffff; opacity: 0.65; stroke: #4c4c4c; stroke-width: 0.6; stroke-linejoin: miter"/>
   </g>
   <g id="patch_12">
    <path d="M 120.592598 342.409034 
L 129.058035 342.409034 
L 129.058035 120.832021 
L 120.592598 120.832021 
z
" clip-path="url(#p12c4f4b668)" style="fill: #ffffff; opacity: 0.65; stroke: #4c4c4c; stroke-width: 0.6; stroke-linejoin: miter"/>
   </g>
   <g id="patch_13">
    <path d="M 130.551935 342.409034 
L 139.017372 342.409034 
L 139.017372 109.662831 
L 130.551935 109.662831 
z
" clip-path="url(#p12c4f4b668)" style="fill: #ffffff; opacity: 0.65; stroke: #4c4c4c; stroke-width: 0.6; stroke-linejoin: miter"/>
   </g>
   <g id="patch_14">
    <path d="M 140.511273 342.409034 
L 148.976709 342.409034 
L 148.976709 137.062249 
L 140.511273 137.062249 
z
" clip-path="url(#p12c4f4b668)" style="fill: #ffffff; opacity: 0.65; stroke: #4c4c4c; stroke-width: 0.6; stroke-linejoin: miter"/>
   </g>
   <g id="patch_15">
    <path d="M 150.47061 342.409034 
L 158.936047 342.409034 
L 158.936047 132.073071 
L 150.47061 132.073071 
z
" clip-path="url(#p12c4f4b668)" style="fill: #ffffff; opacity: 0.65; stroke: #4c4c4c; stroke-width: 0.6; stroke-linejoin: miter"/>
   </g>
   <g id="patch_16">
    <path d="M 160.429947 342.409034 
L 168.895384 342.409034 
L 168.895384 132.822474 
L 160.429947 132.822474 
z
" clip-path="url(#p12c4f4b668)" style="fill: #ffffff; opacity: 0.65; stroke: #4c4c4c; stroke-width: 0.6; stroke-linejoin: miter"/>
   </g>
   <g id="patch_17">
    <path d="M 170.389285 342.409034 
L 178.854721 342.409034 
L 178.854721 174.214177 
L 170.389285 174.214177 
z
" clip-path="url(#p12c4f4b668)" style="fill: #ffffff; opacity: 0.65; stroke: #4c4c4c; stroke-width: 0.6; stroke-linejoin: miter"/>
   </g>
   <g id="patch_18">
    <path d="M 180.348622 342.409034 
L 188.814059 342.409034 
L 188.814059 168.588519 
L 180.348622 168.588519 
z
" clip-path="url(#p12c4f4b668)" style="fill: #ffffff; opacity: 0.65; stroke: #4c4c4c; stroke-width: 0.6; stroke-linejoin: miter"/>
   </g>
   <g id="patch_19">
    <path d="M 190.307959 342.409034 
L 198.773396 342.409034 
L 198.773396 184.243863 
L 190.307959 184.243863 
z
" clip-path="url(#p12c4f4b668)" style="fill: #ffffff; opacity: 0.65; stroke: #4c4c4c; stroke-width: 0.6; stroke-linejoin: miter"/>
   </g>
   <g id="patch_20">
    <path d="M 200.267297 342.409034 
L 208.732733 342.409034 
L 208.732733 187.867691 
L 200.267297 187.867691 
z
" clip-path="url(#p12c4f4b668)" style="fill: #ffffff; opacity: 0.65; stroke: #4c4c4c; stroke-width: 0.6; stroke-linejoin: miter"/>
   </g>
   <g id="patch_21">
    <path d="M 210.226634 342.409034 
L 218.692071 342.409034 
L 218.692071 192.856869 
L 210.226634 192.856869 
z
" clip-path="url(#p12c4f4b668)" style="fill: #ffffff; opacity: 0.65; stroke: #4c4c4c; stroke-width: 0.6; stroke-linejoin: miter"/>
   </g>
   <g id="patch_22">
    <path d="M 220.185971 342.409034 
L 228.651408 342.409034 
L 228.651408 183.165954 
L 220.185971 183.165954 
z
" clip-path="url(#p12c4f4b668)" style="fill: #ffffff; opacity: 0.65; stroke: #4c4c4c; stroke-width: 0.6; stroke-linejoin: miter"/>
   </g>
   <g id="patch_23">
    <path d="M 230.145309 342.409034 
L 238.610745 342.409034 
L 238.610745 157.93262 
L 230.145309 157.93262 
z
" clip-path="url(#p12c4f4b668)" style="fill: #ffffff; opacity: 0.65; stroke: #4c4c4c; stroke-width: 0.6; stroke-linejoin: miter"/>
   </g>
   <g id="patch_24">
    <path d="M 240.104646 342.409034 
L 248.570083 342.409034 
L 248.570083 173.1568 
L 240.104646 173.1568 
z
" clip-path="url(#p12c4f4b668)" style="fill: #ffffff; opacity: 0.65; stroke: #4c4c4c; stroke-width: 0.6; stroke-linejoin: miter"/>
   </g>
   <g id="patch_25">
    <path d="M 250.063983 342.409034 
L 258.52942 342.409034 
L 258.52942 159.236376 
L 250.063983 159.236376 
z
" clip-path="url(#p12c4f4b668)" style="fill: #ffffff; opacity: 0.65; stroke: #4c4c4c; stroke-width: 0.6; stroke-linejoin: miter"/>
   </g>
   <g id="patch_26">
    <path d="M 260.023321 342.409034 
L 268.488758 342.409034 
L 268.488758 146.917417 
L 260.023321 146.917417 
z
" clip-path="url(#p12c4f4b668)" style="fill: #ffffff; opacity: 0.65; stroke: #4c4c4c; stroke-width: 0.6; stroke-linejoin: miter"/>
   </g>
   <g id="patch_27">
    <path d="M 269.982658 342.409034 
L 278.448095 342.409034 
L 278.448095 100.300422 
L 269.982658 100.300422 
z
" clip-path="url(#p12c4f4b668)" style="fill: #ffffff; opacity: 0.65; stroke: #4c4c4c; stroke-width: 0.6; stroke-linejoin: miter"/>
   </g>
   <g id="patch_28">
    <path d="M 279.941995 342.409034 
L 288.407432 342.409034 
L 288.407432 113.286658 
L 279.941995 113.286658 
z
" clip-path="url(#p12c4f4b668)" style="fill: #ffffff; opacity: 0.65; stroke: #4c4c4c; stroke-width: 0.6; stroke-linejoin: miter"/>
   </g>
   <g id="patch_29">
    <path d="M 289.901333 342.409034 
L 298.36677 342.409034 
L 298.36677 99.551019 
L 289.901333 99.551019 
z
" clip-path="url(#p12c4f4b668)" style="fill: #ffffff; opacity: 0.65; stroke: #4c4c4c; stroke-width: 0.6; stroke-linejoin: miter"/>
   </g>
   <g id="patch_30">
    <path d="M 299.86067 342.409034 
L 308.326107 342.409034 
L 308.326107 99.263576 
L 299.86067 99.263576 
z
" clip-path="url(#p12c4f4b668)" style="fill: #ffffff; opacity: 0.65; stroke: #4c4c4c; stroke-width: 0.6; stroke-linejoin: miter"/>
   </g>
   <g id="patch_31">
    <path d="M 309.820008 342.409034 
L 318.285444 342.409034 
L 318.285444 104.868703 
L 309.820008 104.868703 
z
" clip-path="url(#p12c4f4b668)" style="fill: #ffffff; opacity: 0.65; stroke: #4c4c4c; stroke-width: 0.6; stroke-linejoin: miter"/>
   </g>
   <g id="patch_32">
    <path d="M 319.779345 342.409034 
L 328.244782 342.409034 
L 328.244782 98.390983 
L 319.779345 98.390983 
z
" clip-path="url(#p12c4f4b668)" style="fill: #ffffff; opacity: 0.65; stroke: #4c4c4c; stroke-width: 0.6; stroke-linejoin: miter"/>
   </g>
   <g id="patch_33">
    <path d="M 329.738682 342.409034 
L 338.204119 342.409034 
L 338.204119 71.145552 
L 329.738682 71.145552 
z
" clip-path="url(#p12c4f4b668)" style="fill: #ffffff; opacity: 0.65; stroke: #4c4c4c; stroke-width: 0.6; stroke-linejoin: miter"/>
   </g>
   <g id="patch_34">
    <path d="M 339.69802 342.409034 
L 348.163456 342.409034 
L 348.163456 92.046719 
L 339.69802 92.046719 
z
" clip-path="url(#p12c4f4b668)" style="fill: #ffffff; opacity: 0.65; stroke: #4c4c4c; stroke-width: 0.6; stroke-linejoin: miter"/>
   </g>
   <g id="patch_35">
    <path d="M 349.657357 342.409034 
L 358.122794 342.409034 
L 358.122794 126.693792 
L 349.657357 126.693792 
z
" clip-path="url(#p12c4f4b668)" style="fill: #ffffff; opacity: 0.65; stroke: #4c4c4c; stroke-width: 0.6; stroke-linejoin: miter"/>
   </g>
   <g id="patch_36">
    <path d="M 359.616694 342.409034 
L 368.082131 342.409034 
L 368.082131 119.179227 
L 359.616694 119.179227 
z
" clip-path="url(#p12c4f4b668)" style="fill: #ffffff; opacity: 0.65; stroke: #4c4c4c; stroke-width: 0.6; stroke-linejoin: miter"/>
   </g>
   <g id="patch_37">
    <path d="M 369.576032 342.409034 
L 378.041468 342.409034 
L 378.041468 143.48864 
L 369.576032 143.48864 
z
" clip-path="url(#p12c4f4b668)" style="fill: #ffffff; opacity: 0.65; stroke: #4c4c4c; stroke-width: 0.6; stroke-linejoin: miter"/>
   </g>
   <g id="patch_38">
    <path d="M 379.535369 342.409034 
L 388.000806 342.409034 
L 388.000806 160.334817 
L 379.535369 160.334817 
z
" clip-path="url(#p12c4f4b668)" style="fill: #ffffff; opacity: 0.65; stroke: #4c4c4c; stroke-width: 0.6; stroke-linejoin: miter"/>
   </g>
   <g id="patch_39">
    <path d="M 389.494706 342.409034 
L 397.960143 342.409034 
L 397.960143 139.18727 
L 389.494706 139.18727 
z
" clip-path="url(#p12c4f4b668)" style="fill: #ffffff; opacity: 0.65; stroke: #4c4c4c; stroke-width: 0.6; stroke-linejoin: miter"/>
   </g>
   <g id="patch_40">
    <path d="M 399.454044 342.409034 
L 407.91948 342.409034 
L 407.91948 143.273058 
L 399.454044 143.273058 
z
" clip-path="url(#p12c4f4b668)" style="fill: #ffffff; opacity: 0.65; stroke: #4c4c4c; stroke-width: 0.6; stroke-linejoin: miter"/>
   </g>
   <g id="patch_41">
    <path d="M 409.413381 342.409034 
L 417.878818 342.409034 
L 417.878818 148.488084 
L 409.413381 148.488084 
z
" clip-path="url(#p12c4f4b668)" style="fill: #ffffff; opacity: 0.65; stroke: #4c4c4c; stroke-width: 0.6; stroke-linejoin: miter"/>
   </g>
   <g id="patch_42">
    <path d="M 419.372718 342.409034 
L 427.838155 342.409034 
L 427.838155 165.375324 
L 419.372718 165.375324 
z
" clip-path="url(#p12c4f4b668)" style="fill: #ffffff; opacity: 0.65; stroke: #4c4c4c; stroke-width: 0.6; stroke-linejoin: miter"/>
   </g>
   <g id="patch_43">
    <path d="M 429.332056 342.409034 
L 437.797492 342.409034 
L 437.797492 164.974958 
L 429.332056 164.974958 
z
" clip-path="url(#p12c4f4b668)" style="fill: #ffffff; opacity: 0.65; stroke: #4c4c4c; stroke-width: 0.6; stroke-linejoin: miter"/>
   </g>
   <g id="patch_44">
    <path d="M 439.291393 342.409034 
L 447.75683 342.409034 
L 447.75683 158.877073 
L 439.291393 158.877073 
z
" clip-path="url(#p12c4f4b668)" style="fill: #ffffff; opacity: 0.65; stroke: #4c4c4c; stroke-width: 0.6; stroke-linejoin: miter"/>
   </g>
   <g id="patch_45">
    <path d="M 449.25073 342.409034 
L 457.716167 342.409034 
L 457.716167 164.020239 
L 449.25073 164.020239 
z
" clip-path="url(#p12c4f4b668)" style="fill: #ffffff; opacity: 0.65; stroke: #4c4c4c; stroke-width: 0.6; stroke-linejoin: miter"/>
   </g>
   <g id="patch_46">
    <path d="M 459.210068 342.409034 
L 467.675505 342.409034 
L 467.675505 172.879623 
L 459.210068 172.879623 
z
" clip-path="url(#p12c4f4b668)" style="fill: #ffffff; opacity: 0.65; stroke: #4c4c4c; stroke-width: 0.6; stroke-linejoin: miter"/>
   </g>
   <g id="patch_47">
    <path d="M 469.169405 342.409034 
L 477.634842 342.409034 
L 477.634842 185.506557 
L 469.169405 185.506557 
z
" clip-path="url(#p12c4f4b668)" style="fill: #ffffff; opacity: 0.65; stroke: #4c4c4c; stroke-width: 0.6; stroke-linejoin: miter"/>
   </g>
   <g id="patch_48">
    <path d="M 479.128742 342.409034 
L 487.594179 342.409034 
L 487.594179 173.136268 
L 479.128742 173.136268 
z
" clip-path="url(#p12c4f4b668)" style="fill: #ffffff; opacity: 0.65; stroke: #4c4c4c; stroke-width: 0.6; stroke-linejoin: miter"/>
   </g>
   <g id="patch_49">
    <path d="M 489.08808 342.409034 
L 497.553517 342.409034 
L 497.553517 167.798053 
L 489.08808 167.798053 
z
" clip-path="url(#p12c4f4b668)" style="fill: #ffffff; opacity: 0.65; stroke: #4c4c4c; stroke-width: 0.6; stroke-linejoin: miter"/>
   </g>
   <g id="patch_50">
    <path d="M 499.047417 342.409034 
L 507.512854 342.409034 
L 507.512854 189.366497 
L 499.047417 189.366497 
z
" clip-path="url(#p12c4f4b668)" style="fill: #ffffff; opacity: 0.65; stroke: #4c4c4c; stroke-width: 0.6; stroke-linejoin: miter"/>
   </g>
   <g id="patch_51">
    <path d="M 509.006755 342.409034 
L 517.472191 342.409034 
L 517.472191 177.725081 
L 509.006755 177.725081 
z
" clip-path="url(#p12c4f4b668)" style="fill: #ffffff; opacity: 0.65; stroke: #4c4c4c; stroke-width: 0.6; stroke-linejoin: miter"/>
   </g>
   <g id="patch_52">
    <path d="M 518.966092 342.409034 
L 527.431529 342.409034 
L 527.431529 183.864029 
L 518.966092 183.864029 
z
" clip-path="url(#p12c4f4b668)" style="fill: #ffffff; opacity: 0.65; stroke: #4c4c4c; stroke-width: 0.6; stroke-linejoin: miter"/>
   </g>
   <g id="patch_53">
    <path d="M 528.925429 342.409034 
L 537.390866 342.409034 
L 537.390866 184.993267 
L 528.925429 184.993267 
z
" clip-path="url(#p12c4f4b668)" style="fill: #ffffff; opacity: 0.65; stroke: #4c4c4c; stroke-width: 0.6; stroke-linejoin: miter"/>
   </g>
   <g id="patch_54">
    <path d="M 538.884767 342.409034 
L 547.350203 342.409034 
L 547.350203 189.315168 
L 538.884767 189.315168 
z
" clip-path="url(#p12c4f4b668)" style="fill: #ffffff; opacity: 0.65; stroke: #4c4c4c; stroke-width: 0.6; stroke-linejoin: miter"/>
   </g>
   <g id="patch_55">
    <path d="M 548.844104 342.409034 
L 557.309541 342.409034 
L 557.309541 206.61304 
L 548.844104 206.61304 
z
" clip-path="url(#p12c4f4b668)" style="fill: #ffffff; opacity: 0.65; stroke: #4c4c4c; stroke-width: 0.6; stroke-linejoin: miter"/>
   </g>
   <g id="patch_56">
    <path d="M 558.803441 342.409034 
L 567.268878 342.409034 
L 567.268878 219.671137 
L 558.803441 219.671137 
z
" clip-path="url(#p12c4f4b668)" style="fill: #ffffff; opacity: 0.65; stroke: #4c4c4c; stroke-width: 0.6; stroke-linejoin: miter"/>
   </g>
   <g id="patch_57">
    <path d="M 568.762779 342.409034 
L 577.228215 342.409034 
L 577.228215 220.54373 
L 568.762779 220.54373 
z
" clip-path="url(#p12c4f4b668)" style="fill: #ffffff; opacity: 0.65; stroke: #4c4c4c; stroke-width: 0.6; stroke-linejoin: miter"/>
   </g>
   <g id="patch_58">
    <path d="M 578.722116 342.409034 
L 587.187553 342.409034 
L 587.187553 221.529247 
L 578.722116 221.529247 
z
" clip-path="url(#p12c4f4b668)" style="fill: #ffffff; opacity: 0.65; stroke: #4c4c4c; stroke-width: 0.6; stroke-linejoin: miter"/>
   </g>
   <g id="patch_59">
    <path d="M 588.681453 342.409034 
L 597.14689 342.409034 
L 597.14689 239.976888 
L 588.681453 239.976888 
z
" clip-path="url(#p12c4f4b668)" style="fill: #ffffff; opacity: 0.65; stroke: #4c4c4c; stroke-width: 0.6; stroke-linejoin: miter"/>
   </g>
   <g id="patch_60">
    <path d="M 598.640791 342.409034 
L 607.106227 342.409034 
L 607.106227 251.55671 
L 598.640791 251.55671 
z
" clip-path="url(#p12c4f4b668)" style="fill: #ffffff; opacity: 0.65; stroke: #4c4c4c; stroke-width: 0.6; stroke-linejoin: miter"/>
   </g>
   <g id="patch_61">
    <path d="M 608.600128 342.409034 
L 617.065565 342.409034 
L 617.065565 267.355775 
L 608.600128 267.355775 
z
" clip-path="url(#p12c4f4b668)" style="fill: #ffffff; opacity: 0.65; stroke: #4c4c4c; stroke-width: 0.6; stroke-linejoin: miter"/>
   </g>
   <g id="patch_62">
    <path d="M 618.559465 342.409034 
L 627.024902 342.409034 
L 627.024902 265.16916 
L 618.559465 265.16916 
z
" clip-path="url(#p12c4f4b668)" style="fill: #ffffff; opacity: 0.65; stroke: #4c4c4c; stroke-width: 0.6; stroke-linejoin: miter"/>
   </g>
   <g id="patch_63">
    <path d="M 628.518803 342.409034 
L 636.984239 342.409034 
L 636.984239 280.116164 
L 628.518803 280.116164 
z
" clip-path="url(#p12c4f4b668)" style="fill: #ffffff; opacity: 0.65; stroke: #4c4c4c; stroke-width: 0.6; stroke-linejoin: miter"/>
   </g>
   <g id="patch_64">
    <path d="M 638.47814 342.409034 
L 646.943577 342.409034 
L 646.943577 291.182695 
L 638.47814 291.182695 
z
" clip-path="url(#p12c4f4b668)" style="fill: #ffffff; opacity: 0.65; stroke: #4c4c4c; stroke-width: 0.6; stroke-linejoin: miter"/>
   </g>
   <g id="patch_65">
    <path d="M 648.437477 342.409034 
L 656.902914 342.409034 
L 656.902914 300.709357 
L 648.437477 300.709357 
z
" clip-path="url(#p12c4f4b668)" style="fill: #ffffff; opacity: 0.65; stroke: #4c4c4c; stroke-width: 0.6; stroke-linejoin: miter"/>
   </g>
   <g id="patch_66">
    <path d="M 658.396815 342.409034 
L 666.862252 342.409034 
L 666.862252 310.133361 
L 658.396815 310.133361 
z
" clip-path="url(#p12c4f4b668)" style="fill: #ffffff; opacity: 0.65; stroke: #4c4c4c; stroke-width: 0.6; stroke-linejoin: miter"/>
   </g>
   <g id="patch_67">
    <path d="M 668.356152 342.409034 
L 676.821589 342.409034 
L 676.821589 318.530785 
L 668.356152 318.530785 
z
" clip-path="url(#p12c4f4b668)" style="fill: #ffffff; opacity: 0.65; stroke: #4c4c4c; stroke-width: 0.6; stroke-linejoin: miter"/>
   </g>
   <g id="patch_68">
    <path d="M 43.15875 342.409034 
L 43.15875 22.318125 
" style="fill: none; stroke: #404040; stroke-width: 0.9; stroke-linejoin: miter; stroke-linecap: square"/>
   </g>
   <g id="patch_69">
    <path d="M 704.45875 342.409034 
L 704.45875 22.318125 
" style="fill: none; stroke: #404040; stroke-width: 0.9; stroke-linejoin: miter; stroke-linecap: square"/>
   </g>
   <g id="patch_70">
    <path d="M 43.15875 342.409034 
L 704.45875 342.409034 
" style="fill: none; stroke: #404040; stroke-width: 0.9; stroke-linejoin: miter; stroke-linecap: square"/>
   </g>
   <g id="patch_71">
    <path d="M 43.15875 22.318125 
L 704.45875 22.318125 
" style="fill: none; stroke: #404040; stroke-width: 0.9; stroke-linejoin: miter; stroke-linecap: square"/>
   </g>
   <g id="FillBetweenPolyCollection_1">
    <defs>
     <path id="m7e193ad87d" d="M 55.109955 -71.105562 
L 55.109955 -37.55625 
L 56.707443 -37.55625 
L 58.30493 -37.55625 
L 59.902418 -37.55625 
L 61.499906 -37.55625 
L 63.097393 -37.55625 
L 64.694881 -37.55625 
L 66.292369 -37.55625 
L 67.889856 -37.55625 
L 69.487344 -37.55625 
L 71.084832 -37.55625 
L 72.682319 -37.55625 
L 74.279807 -37.55625 
L 75.877295 -37.55625 
L 77.474783 -37.55625 
L 79.07227 -37.55625 
L 80.669758 -37.55625 
L 82.267246 -37.55625 
L 83.864733 -37.55625 
L 85.462221 -37.55625 
L 87.059709 -37.55625 
L 88.657196 -37.55625 
L 90.254684 -37.55625 
L 91.852172 -37.55625 
L 93.44966 -37.55625 
L 95.047147 -37.55625 
L 96.644635 -37.55625 
L 98.242123 -37.55625 
L 99.83961 -37.55625 
L 101.437098 -37.55625 
L 103.034586 -37.55625 
L 104.632073 -37.55625 
L 106.229561 -37.55625 
L 107.827049 -37.55625 
L 109.424536 -37.55625 
L 111.022024 -37.55625 
L 112.619512 -37.55625 
L 114.217 -37.55625 
L 115.814487 -37.55625 
L 117.411975 -37.55625 
L 119.009463 -37.55625 
L 120.60695 -37.55625 
L 122.204438 -37.55625 
L 123.801926 -37.55625 
L 125.399413 -37.55625 
L 126.996901 -37.55625 
L 128.594389 -37.55625 
L 130.191876 -37.55625 
L 131.789364 -37.55625 
L 133.386852 -37.55625 
L 134.98434 -37.55625 
L 136.581827 -37.55625 
L 138.179315 -37.55625 
L 139.776803 -37.55625 
L 141.37429 -37.55625 
L 142.971778 -37.55625 
L 144.569266 -37.55625 
L 146.166753 -37.55625 
L 147.764241 -37.55625 
L 149.361729 -37.55625 
L 150.959217 -37.55625 
L 152.556704 -37.55625 
L 154.154192 -37.55625 
L 155.75168 -37.55625 
L 157.349167 -37.55625 
L 158.946655 -37.55625 
L 160.544143 -37.55625 
L 162.14163 -37.55625 
L 163.739118 -37.55625 
L 165.336606 -37.55625 
L 166.934093 -37.55625 
L 168.531581 -37.55625 
L 170.129069 -37.55625 
L 171.726557 -37.55625 
L 173.324044 -37.55625 
L 174.921532 -37.55625 
L 176.51902 -37.55625 
L 178.116507 -37.55625 
L 179.713995 -37.55625 
L 181.311483 -37.55625 
L 182.90897 -37.55625 
L 184.506458 -37.55625 
L 186.103946 -37.55625 
L 187.701434 -37.55625 
L 189.298921 -37.55625 
L 190.896409 -37.55625 
L 192.493897 -37.55625 
L 194.091384 -37.55625 
L 195.688872 -37.55625 
L 197.28636 -37.55625 
L 198.883847 -37.55625 
L 200.481335 -37.55625 
L 202.078823 -37.55625 
L 203.67631 -37.55625 
L 205.273798 -37.55625 
L 206.871286 -37.55625 
L 208.468774 -37.55625 
L 210.066261 -37.55625 
L 211.663749 -37.55625 
L 213.261237 -37.55625 
L 214.858724 -37.55625 
L 216.456212 -37.55625 
L 218.0537 -37.55625 
L 219.651187 -37.55625 
L 221.248675 -37.55625 
L 222.846163 -37.55625 
L 224.443651 -37.55625 
L 226.041138 -37.55625 
L 227.638626 -37.55625 
L 229.236114 -37.55625 
L 230.833601 -37.55625 
L 232.431089 -37.55625 
L 234.028577 -37.55625 
L 235.626064 -37.55625 
L 237.223552 -37.55625 
L 238.82104 -37.55625 
L 240.418527 -37.55625 
L 242.016015 -37.55625 
L 243.613503 -37.55625 
L 245.210991 -37.55625 
L 246.808478 -37.55625 
L 248.405966 -37.55625 
L 250.003454 -37.55625 
L 251.600941 -37.55625 
L 253.198429 -37.55625 
L 254.795917 -37.55625 
L 256.393404 -37.55625 
L 257.990892 -37.55625 
L 259.58838 -37.55625 
L 261.185867 -37.55625 
L 262.783355 -37.55625 
L 264.380843 -37.55625 
L 265.978331 -37.55625 
L 267.575818 -37.55625 
L 269.173306 -37.55625 
L 270.770794 -37.55625 
L 272.368281 -37.55625 
L 273.965769 -37.55625 
L 275.563257 -37.55625 
L 277.160744 -37.55625 
L 278.758232 -37.55625 
L 280.35572 -37.55625 
L 281.953208 -37.55625 
L 283.550695 -37.55625 
L 285.148183 -37.55625 
L 286.745671 -37.55625 
L 288.343158 -37.55625 
L 289.940646 -37.55625 
L 291.538134 -37.55625 
L 293.135621 -37.55625 
L 294.733109 -37.55625 
L 296.330597 -37.55625 
L 297.928084 -37.55625 
L 299.525572 -37.55625 
L 301.12306 -37.55625 
L 302.720548 -37.55625 
L 304.318035 -37.55625 
L 305.915523 -37.55625 
L 307.513011 -37.55625 
L 309.110498 -37.55625 
L 310.707986 -37.55625 
L 312.305474 -37.55625 
L 313.902961 -37.55625 
L 315.500449 -37.55625 
L 317.097937 -37.55625 
L 318.695425 -37.55625 
L 320.292912 -37.55625 
L 321.8904 -37.55625 
L 323.487888 -37.55625 
L 325.085375 -37.55625 
L 326.682863 -37.55625 
L 328.280351 -37.55625 
L 329.877838 -37.55625 
L 331.475326 -37.55625 
L 333.072814 -37.55625 
L 334.670301 -37.55625 
L 336.267789 -37.55625 
L 337.865277 -37.55625 
L 339.462765 -37.55625 
L 341.060252 -37.55625 
L 342.65774 -37.55625 
L 344.255228 -37.55625 
L 345.852715 -37.55625 
L 347.450203 -37.55625 
L 349.047691 -37.55625 
L 350.645178 -37.55625 
L 352.242666 -37.55625 
L 353.840154 -37.55625 
L 355.437642 -37.55625 
L 357.035129 -37.55625 
L 358.632617 -37.55625 
L 360.230105 -37.55625 
L 361.827592 -37.55625 
L 363.42508 -37.55625 
L 365.022568 -37.55625 
L 366.620055 -37.55625 
L 368.217543 -37.55625 
L 369.815031 -37.55625 
L 371.412518 -37.55625 
L 373.010006 -37.55625 
L 374.607494 -37.55625 
L 376.204982 -37.55625 
L 377.802469 -37.55625 
L 379.399957 -37.55625 
L 380.997445 -37.55625 
L 382.594932 -37.55625 
L 384.19242 -37.55625 
L 385.789908 -37.55625 
L 387.387395 -37.55625 
L 388.984883 -37.55625 
L 390.582371 -37.55625 
L 392.179858 -37.55625 
L 393.777346 -37.55625 
L 395.374834 -37.55625 
L 396.972322 -37.55625 
L 398.569809 -37.55625 
L 400.167297 -37.55625 
L 401.764785 -37.55625 
L 403.362272 -37.55625 
L 404.95976 -37.55625 
L 406.557248 -37.55625 
L 408.154735 -37.55625 
L 409.752223 -37.55625 
L 411.349711 -37.55625 
L 412.947199 -37.55625 
L 414.544686 -37.55625 
L 416.142174 -37.55625 
L 417.739662 -37.55625 
L 419.337149 -37.55625 
L 420.934637 -37.55625 
L 422.532125 -37.55625 
L 424.129612 -37.55625 
L 425.7271 -37.55625 
L 427.324588 -37.55625 
L 428.922075 -37.55625 
L 430.519563 -37.55625 
L 432.117051 -37.55625 
L 433.714539 -37.55625 
L 435.312026 -37.55625 
L 436.909514 -37.55625 
L 438.507002 -37.55625 
L 440.104489 -37.55625 
L 441.701977 -37.55625 
L 443.299465 -37.55625 
L 444.896952 -37.55625 
L 446.49444 -37.55625 
L 448.091928 -37.55625 
L 449.689416 -37.55625 
L 451.286903 -37.55625 
L 452.884391 -37.55625 
L 454.481879 -37.55625 
L 456.079366 -37.55625 
L 457.676854 -37.55625 
L 459.274342 -37.55625 
L 460.871829 -37.55625 
L 462.469317 -37.55625 
L 464.066805 -37.55625 
L 465.664292 -37.55625 
L 467.26178 -37.55625 
L 468.859268 -37.55625 
L 470.456756 -37.55625 
L 472.054243 -37.55625 
L 473.651731 -37.55625 
L 475.249219 -37.55625 
L 476.846706 -37.55625 
L 478.444194 -37.55625 
L 480.041682 -37.55625 
L 481.639169 -37.55625 
L 483.236657 -37.55625 
L 484.834145 -37.55625 
L 486.431633 -37.55625 
L 488.02912 -37.55625 
L 489.626608 -37.55625 
L 491.224096 -37.55625 
L 492.821583 -37.55625 
L 494.419071 -37.55625 
L 496.016559 -37.55625 
L 497.614046 -37.55625 
L 499.211534 -37.55625 
L 500.809022 -37.55625 
L 502.406509 -37.55625 
L 504.003997 -37.55625 
L 505.601485 -37.55625 
L 507.198973 -37.55625 
L 508.79646 -37.55625 
L 510.393948 -37.55625 
L 511.991436 -37.55625 
L 513.588923 -37.55625 
L 515.186411 -37.55625 
L 516.783899 -37.55625 
L 518.381386 -37.55625 
L 519.978874 -37.55625 
L 521.576362 -37.55625 
L 523.173849 -37.55625 
L 524.771337 -37.55625 
L 526.368825 -37.55625 
L 527.966313 -37.55625 
L 529.5638 -37.55625 
L 531.161288 -37.55625 
L 532.758776 -37.55625 
L 534.356263 -37.55625 
L 535.953751 -37.55625 
L 537.551239 -37.55625 
L 539.148726 -37.55625 
L 540.746214 -37.55625 
L 542.343702 -37.55625 
L 543.94119 -37.55625 
L 545.538677 -37.55625 
L 547.136165 -37.55625 
L 548.733653 -37.55625 
L 550.33114 -37.55625 
L 551.928628 -37.55625 
L 553.526116 -37.55625 
L 555.123603 -37.55625 
L 556.721091 -37.55625 
L 558.318579 -37.55625 
L 559.916066 -37.55625 
L 561.513554 -37.55625 
L 563.111042 -37.55625 
L 564.70853 -37.55625 
L 566.306017 -37.55625 
L 567.903505 -37.55625 
L 569.500993 -37.55625 
L 571.09848 -37.55625 
L 572.695968 -37.55625 
L 574.293456 -37.55625 
L 575.890943 -37.55625 
L 577.488431 -37.55625 
L 579.085919 -37.55625 
L 580.683407 -37.55625 
L 582.280894 -37.55625 
L 583.878382 -37.55625 
L 585.47587 -37.55625 
L 587.073357 -37.55625 
L 588.670845 -37.55625 
L 590.268333 -37.55625 
L 591.86582 -37.55625 
L 593.463308 -37.55625 
L 595.060796 -37.55625 
L 596.658283 -37.55625 
L 598.255771 -37.55625 
L 599.853259 -37.55625 
L 601.450747 -37.55625 
L 603.048234 -37.55625 
L 604.645722 -37.55625 
L 606.24321 -37.55625 
L 607.840697 -37.55625 
L 609.438185 -37.55625 
L 611.035673 -37.55625 
L 612.63316 -37.55625 
L 614.230648 -37.55625 
L 615.828136 -37.55625 
L 617.425624 -37.55625 
L 619.023111 -37.55625 
L 620.620599 -37.55625 
L 622.218087 -37.55625 
L 623.815574 -37.55625 
L 625.413062 -37.55625 
L 627.01055 -37.55625 
L 628.608037 -37.55625 
L 630.205525 -37.55625 
L 631.803013 -37.55625 
L 633.4005 -37.55625 
L 634.997988 -37.55625 
L 636.595476 -37.55625 
L 638.192964 -37.55625 
L 639.790451 -37.55625 
L 641.387939 -37.55625 
L 642.985427 -37.55625 
L 644.582914 -37.55625 
L 646.180402 -37.55625 
L 647.77789 -37.55625 
L 649.375377 -37.55625 
L 650.972865 -37.55625 
L 652.570353 -37.55625 
L 654.16784 -37.55625 
L 655.765328 -37.55625 
L 657.362816 -37.55625 
L 658.960304 -37.55625 
L 660.557791 -37.55625 
L 662.155279 -37.55625 
L 663.752767 -37.55625 
L 665.350254 -37.55625 
L 666.947742 -37.55625 
L 668.54523 -37.55625 
L 670.142717 -37.55625 
L 671.740205 -37.55625 
L 673.337693 -37.55625 
L 674.935181 -37.55625 
L 676.532668 -37.55625 
L 678.130156 -37.55625 
L 679.727644 -37.55625 
L 681.325131 -37.55625 
L 682.922619 -37.55625 
L 684.520107 -37.55625 
L 686.117594 -37.55625 
L 687.715082 -37.55625 
L 689.31257 -37.55625 
L 690.910057 -37.55625 
L 692.507545 -37.55625 
L 692.507545 -44.287531 
L 692.507545 -44.287531 
L 690.910057 -45.117857 
L 689.31257 -46.012547 
L 687.715082 -46.971637 
L 686.117594 -47.994598 
L 684.520107 -49.080337 
L 682.922619 -50.227212 
L 681.325131 -51.433061 
L 679.727644 -52.695243 
L 678.130156 -54.010692 
L 676.532668 -55.375978 
L 674.935181 -56.787381 
L 673.337693 -58.24096 
L 671.740205 -59.732636 
L 670.142717 -61.258262 
L 668.54523 -62.813703 
L 666.947742 -64.394902 
L 665.350254 -65.99794 
L 663.752767 -67.619088 
L 662.155279 -69.254852 
L 660.557791 -70.902003 
L 658.960304 -72.557598 
L 657.362816 -74.218994 
L 655.765328 -75.883847 
L 654.16784 -77.550108 
L 652.570353 -79.216013 
L 650.972865 -80.880063 
L 649.375377 -82.541012 
L 647.77789 -84.19784 
L 646.180402 -85.849738 
L 644.582914 -87.496089 
L 642.985427 -89.136452 
L 641.387939 -90.770555 
L 639.790451 -92.398278 
L 638.192964 -94.019653 
L 636.595476 -95.63486 
L 634.997988 -97.244219 
L 633.4005 -98.848193 
L 631.803013 -100.447381 
L 630.205525 -102.042509 
L 628.608037 -103.634426 
L 627.01055 -105.22408 
L 625.413062 -106.812502 
L 623.815574 -108.40078 
L 622.218087 -109.990022 
L 620.620599 -111.581321 
L 619.023111 -113.175712 
L 617.425624 -114.774128 
L 615.828136 -116.377356 
L 614.230648 -117.985988 
L 612.63316 -119.600386 
L 611.035673 -121.220642 
L 609.438185 -122.846553 
L 607.840697 -124.477603 
L 606.24321 -126.112955 
L 604.645722 -127.751459 
L 603.048234 -129.391672 
L 601.450747 -131.031886 
L 599.853259 -132.670175 
L 598.255771 -134.304449 
L 596.658283 -135.932521 
L 595.060796 -137.552172 
L 593.463308 -139.161231 
L 591.86582 -140.757646 
L 590.268333 -142.339559 
L 588.670845 -143.905366 
L 587.073357 -145.453783 
L 585.47587 -146.983881 
L 583.878382 -148.495121 
L 582.280894 -149.987366 
L 580.683407 -151.460878 
L 579.085919 -152.916294 
L 577.488431 -154.354594 
L 575.890943 -155.777039 
L 574.293456 -157.185112 
L 572.695968 -158.58043 
L 571.09848 -159.964668 
L 569.500993 -161.33946 
L 567.903505 -162.706316 
L 566.306017 -164.066529 
L 564.70853 -165.421102 
L 563.111042 -166.770676 
L 561.513554 -168.115475 
L 559.916066 -169.455272 
L 558.318579 -170.789364 
L 556.721091 -172.116572 
L 555.123603 -173.435259 
L 553.526116 -174.743363 
L 551.928628 -176.038448 
L 550.33114 -177.317772 
L 548.733653 -178.578358 
L 547.136165 -179.817086 
L 545.538677 -181.030779 
L 543.94119 -182.216294 
L 542.343702 -183.370617 
L 540.746214 -184.490939 
L 539.148726 -185.574742 
L 537.551239 -186.619856 
L 535.953751 -187.624519 
L 534.356263 -188.58741 
L 532.758776 -189.507676 
L 531.161288 -190.384937 
L 529.5638 -191.219282 
L 527.966313 -192.011244 
L 526.368825 -192.761769 
L 524.771337 -193.472168 
L 523.173849 -194.144065 
L 521.576362 -194.779333 
L 519.978874 -195.380036 
L 518.381386 -195.948357 
L 516.783899 -196.486544 
L 515.186411 -196.996842 
L 513.588923 -197.481452 
L 511.991436 -197.942481 
L 510.393948 -198.381917 
L 508.79646 -198.801607 
L 507.198973 -199.203248 
L 505.601485 -199.588396 
L 504.003997 -199.958477 
L 502.406509 -200.314818 
L 500.809022 -200.658675 
L 499.211534 -200.991273 
L 497.614046 -201.313849 
L 496.016559 -201.627688 
L 494.419071 -201.93416 
L 492.821583 -202.23475 
L 491.224096 -202.531079 
L 489.626608 -202.824909 
L 488.02912 -203.118144 
L 486.431633 -203.412807 
L 484.834145 -203.711015 
L 483.236657 -204.014934 
L 481.639169 -204.326726 
L 480.041682 -204.648491 
L 478.444194 -204.982202 
L 476.846706 -205.329641 
L 475.249219 -205.692334 
L 473.651731 -206.071499 
L 472.054243 -206.467999 
L 470.456756 -206.88231 
L 468.859268 -207.314508 
L 467.26178 -207.764264 
L 465.664292 -208.230865 
L 464.066805 -208.71325 
L 462.469317 -209.210058 
L 460.871829 -209.719698 
L 459.274342 -210.240415 
L 457.676854 -210.770381 
L 456.079366 -211.307774 
L 454.481879 -211.85086 
L 452.884391 -212.398073 
L 451.286903 -212.948081 
L 449.689416 -213.499835 
L 448.091928 -214.052613 
L 446.49444 -214.606033 
L 444.896952 -215.160053 
L 443.299465 -215.714956 
L 441.701977 -216.271303 
L 440.104489 -216.829889 
L 438.507002 -217.391664 
L 436.909514 -217.957663 
L 435.312026 -218.52892 
L 433.714539 -219.106384 
L 432.117051 -219.690838 
L 430.519563 -220.282827 
L 428.922075 -220.882599 
L 427.324588 -221.490064 
L 425.7271 -222.104767 
L 424.129612 -222.72589 
L 422.532125 -223.352268 
L 420.934637 -223.982437 
L 419.337149 -224.614697 
L 417.739662 -225.247195 
L 416.142174 -225.878023 
L 414.544686 -226.505332 
L 412.947199 -227.127449 
L 411.349711 -227.742992 
L 409.752223 -228.350991 
L 408.154735 -228.950991 
L 406.557248 -229.543143 
L 404.95976 -230.128276 
L 403.362272 -230.70795 
L 401.764785 -231.284472 
L 400.167297 -231.860898 
L 398.569809 -232.440999 
L 396.972322 -233.029197 
L 395.374834 -233.630486 
L 393.777346 -234.250314 
L 392.179858 -234.894464 
L 390.582371 -235.568901 
L 388.984883 -236.279623 
L 387.387395 -237.032502 
L 385.789908 -237.833124 
L 384.19242 -238.686633 
L 382.594932 -239.59759 
L 380.997445 -240.569839 
L 379.399957 -241.60639 
L 377.802469 -242.709328 
L 376.204982 -243.879728 
L 374.607494 -245.117603 
L 373.010006 -246.421869 
L 371.412518 -247.790328 
L 369.815031 -249.219671 
L 368.217543 -250.705503 
L 366.620055 -252.24238 
L 365.022568 -253.823866 
L 363.42508 -255.442607 
L 361.827592 -257.090411 
L 360.230105 -258.758352 
L 358.632617 -260.436882 
L 357.035129 -262.115954 
L 355.437642 -263.785161 
L 353.840154 -265.433883 
L 352.242666 -267.051445 
L 350.645178 -268.627278 
L 349.047691 -270.151091 
L 347.450203 -271.613042 
L 345.852715 -273.003899 
L 344.255228 -274.315206 
L 342.65774 -275.539427 
L 341.060252 -276.670079 
L 339.462765 -277.701839 
L 337.865277 -278.630632 
L 336.267789 -279.453675 
L 334.670301 -280.169505 
L 333.072814 -280.77796 
L 331.475326 -281.280128 
L 329.877838 -281.678265 
L 328.280351 -281.975678 
L 326.682863 -282.176579 
L 325.085375 -282.285914 
L 323.487888 -282.309181 
L 321.8904 -282.25223 
L 320.292912 -282.121058 
L 318.695425 -281.921611 
L 317.097937 -281.659593 
L 315.500449 -281.340288 
L 313.902961 -280.968408 
L 312.305474 -280.54796 
L 310.707986 -280.082151 
L 309.110498 -279.573311 
L 307.513011 -279.022862 
L 305.915523 -278.431312 
L 304.318035 -277.798283 
L 302.720548 -277.122568 
L 301.12306 -276.402214 
L 299.525572 -275.634631 
L 297.928084 -274.816723 
L 296.330597 -273.945027 
L 294.733109 -273.015874 
L 293.135621 -272.02555 
L 291.538134 -270.970465 
L 289.940646 -269.84731 
L 288.343158 -268.653225 
L 286.745671 -267.385938 
L 285.148183 -266.043904 
L 283.550695 -264.626415 
L 281.953208 -263.133692 
L 280.35572 -261.566957 
L 278.758232 -259.928466 
L 277.160744 -258.221527 
L 275.563257 -256.450472 
L 273.965769 -254.620613 
L 272.368281 -252.738161 
L 270.770794 -250.810121 
L 269.173306 -248.84416 
L 267.575818 -246.848458 
L 265.978331 -244.831545 
L 264.380843 -242.802124 
L 262.783355 -240.768893 
L 261.185867 -238.740374 
L 259.58838 -236.724749 
L 257.990892 -234.729707 
L 256.393404 -232.762322 
L 254.795917 -230.828951 
L 253.198429 -228.935163 
L 251.600941 -227.0857 
L 250.003454 -225.28447 
L 248.405966 -223.534573 
L 246.808478 -221.838359 
L 245.210991 -220.197507 
L 243.613503 -218.613134 
L 242.016015 -217.085909 
L 240.418527 -215.616192 
L 238.82104 -214.204165 
L 237.223552 -212.849966 
L 235.626064 -211.55381 
L 234.028577 -210.316106 
L 232.431089 -209.137539 
L 230.833601 -208.019149 
L 229.236114 -206.962367 
L 227.638626 -205.969037 
L 226.041138 -205.041413 
L 224.443651 -204.182125 
L 222.846163 -203.39413 
L 221.248675 -202.68064 
L 219.651187 -202.045046 
L 218.0537 -201.490821 
L 216.456212 -201.021425 
L 214.858724 -200.640207 
L 213.261237 -200.350315 
L 211.663749 -200.154604 
L 210.066261 -200.055567 
L 208.468774 -200.055261 
L 206.871286 -200.155263 
L 205.273798 -200.356624 
L 203.67631 -200.659848 
L 202.078823 -201.064873 
L 200.481335 -201.571067 
L 198.883847 -202.177233 
L 197.28636 -202.881617 
L 195.688872 -203.681924 
L 194.091384 -204.575335 
L 192.493897 -205.558526 
L 190.896409 -206.627691 
L 189.298921 -207.778558 
L 187.701434 -209.006415 
L 186.103946 -210.306127 
L 184.506458 -211.672163 
L 182.90897 -213.09862 
L 181.311483 -214.579249 
L 179.713995 -216.107489 
L 178.116507 -217.676503 
L 176.51902 -219.279217 
L 174.921532 -220.908366 
L 173.324044 -222.556545 
L 171.726557 -224.216256 
L 170.129069 -225.879963 
L 168.531581 -227.540147 
L 166.934093 -229.189352 
L 165.336606 -230.820234 
L 163.739118 -232.4256 
L 162.14163 -233.998442 
L 160.544143 -235.531959 
L 158.946655 -237.019575 
L 157.349167 -238.454941 
L 155.75168 -239.831933 
L 154.154192 -241.144642 
L 152.556704 -242.387354 
L 150.959217 -243.554532 
L 149.361729 -244.640787 
L 147.764241 -245.640857 
L 146.166753 -246.549586 
L 144.569266 -247.3619 
L 142.971778 -248.072801 
L 141.37429 -248.677354 
L 139.776803 -249.170686 
L 138.179315 -249.547992 
L 136.581827 -249.804546 
L 134.98434 -249.935707 
L 133.386852 -249.936942 
L 131.789364 -249.803831 
L 130.191876 -249.532087 
L 128.594389 -249.117557 
L 126.996901 -248.556228 
L 125.399413 -247.844221 
L 123.801926 -246.97778 
L 122.204438 -245.953255 
L 120.60695 -244.767075 
L 119.009463 -243.415725 
L 117.411975 -241.895716 
L 115.814487 -240.20356 
L 114.217 -238.335745 
L 112.619512 -236.288732 
L 111.022024 -234.058953 
L 109.424536 -231.642832 
L 107.827049 -229.036831 
L 106.229561 -226.237516 
L 104.632073 -223.241649 
L 103.034586 -220.046311 
L 101.437098 -216.649048 
L 99.83961 -213.04805 
L 98.242123 -209.242341 
L 96.644635 -205.231995 
L 95.047147 -201.018365 
L 93.44966 -196.6043 
L 91.852172 -191.994377 
L 90.254684 -187.195101 
L 88.657196 -182.215086 
L 87.059709 -177.065196 
L 85.462221 -171.75865 
L 83.864733 -166.311056 
L 82.267246 -160.740394 
L 80.669758 -155.066931 
L 79.07227 -149.313065 
L 77.474783 -143.503092 
L 75.877295 -137.662919 
L 74.279807 -131.819703 
L 72.682319 -126.001445 
L 71.084832 -120.236541 
L 69.487344 -114.5533 
L 67.889856 -108.979456 
L 66.292369 -103.541678 
L 64.694881 -98.265097 
L 63.097393 -93.17287 
L 61.499906 -88.285788 
L 59.902418 -83.62195 
L 58.30493 -79.196501 
L 56.707443 -75.021449 
L 55.109955 -71.105562 
z
" style="stroke: #1f4e79; stroke-opacity: 0.1"/>
    </defs>
    <g clip-path="url(#p12c4f4b668)">
     <use xlink:href="#m7e193ad87d" x="0" y="379.965284" style="fill: #1f4e79; fill-opacity: 0.1; stroke: #1f4e79; stroke-opacity: 0.1"/>
    </g>
   </g>
   <g id="text_18">
    <!-- GLC-02 - Frequency distribution curve (unimodal) -->
    <g transform="translate(206.313125 16.318125) scale(0.12 -0.12)">
     <defs>
      <path id="DejaVuSans-Bold-47" d="M 4781 347 
Q 4331 128 3847 18 
Q 3363 -91 2847 -91 
Q 1681 -91 1000 561 
Q 319 1213 319 2328 
Q 319 3456 1012 4103 
Q 1706 4750 2913 4750 
Q 3378 4750 3804 4662 
Q 4231 4575 4609 4403 
L 4609 3438 
Q 4219 3659 3833 3768 
Q 3447 3878 3059 3878 
Q 2341 3878 1952 3476 
Q 1563 3075 1563 2328 
Q 1563 1588 1938 1184 
Q 2313 781 3003 781 
Q 3191 781 3352 804 
Q 3513 828 3641 878 
L 3641 1784 
L 2906 1784 
L 2906 2591 
L 4781 2591 
L 4781 347 
z
" transform="scale(0.015625)"/>
      <path id="DejaVuSans-Bold-4c" d="M 588 4666 
L 1791 4666 
L 1791 909 
L 3903 909 
L 3903 0 
L 588 0 
L 588 4666 
z
" transform="scale(0.015625)"/>
      <path id="DejaVuSans-Bold-43" d="M 4288 256 
Q 3956 84 3597 -3 
Q 3238 -91 2847 -91 
Q 1681 -91 1000 561 
Q 319 1213 319 2328 
Q 319 3447 1000 4098 
Q 1681 4750 2847 4750 
Q 3238 4750 3597 4662 
Q 3956 4575 4288 4403 
L 4288 3438 
Q 3953 3666 3628 3772 
Q 3303 3878 2944 3878 
Q 2300 3878 1931 3465 
Q 1563 3053 1563 2328 
Q 1563 1606 1931 1193 
Q 2300 781 2944 781 
Q 3303 781 3628 887 
Q 3953 994 4288 1222 
L 4288 256 
z
" transform="scale(0.015625)"/>
      <path id="DejaVuSans-Bold-2d" d="M 347 2297 
L 2309 2297 
L 2309 1388 
L 347 1388 
L 347 2297 
z
" transform="scale(0.015625)"/>
      <path id="DejaVuSans-Bold-30" d="M 2944 2338 
Q 2944 3213 2780 3570 
Q 2616 3928 2228 3928 
Q 1841 3928 1675 3570 
Q 1509 3213 1509 2338 
Q 1509 1453 1675 1090 
Q 1841 728 2228 728 
Q 2613 728 2778 1090 
Q 2944 1453 2944 2338 
z
M 4147 2328 
Q 4147 1169 3647 539 
Q 3147 -91 2228 -91 
Q 1306 -91 806 539 
Q 306 1169 306 2328 
Q 306 3491 806 4120 
Q 1306 4750 2228 4750 
Q 3147 4750 3647 4120 
Q 4147 3491 4147 2328 
z
" transform="scale(0.015625)"/>
      <path id="DejaVuSans-Bold-32" d="M 1844 884 
L 3897 884 
L 3897 0 
L 506 0 
L 506 884 
L 2209 2388 
Q 2438 2594 2547 2791 
Q 2656 2988 2656 3200 
Q 2656 3528 2436 3728 
Q 2216 3928 1850 3928 
Q 1569 3928 1234 3808 
Q 900 3688 519 3450 
L 519 4475 
Q 925 4609 1322 4679 
Q 1719 4750 2100 4750 
Q 2938 4750 3402 4381 
Q 3866 4013 3866 3353 
Q 3866 2972 3669 2642 
Q 3472 2313 2841 1759 
L 1844 884 
z
" transform="scale(0.015625)"/>
      <path id="DejaVuSans-Bold-20" transform="scale(0.015625)"/>
      <path id="DejaVuSans-Bold-46" d="M 588 4666 
L 3834 4666 
L 3834 3756 
L 1791 3756 
L 1791 2888 
L 3713 2888 
L 3713 1978 
L 1791 1978 
L 1791 0 
L 588 0 
L 588 4666 
z
" transform="scale(0.015625)"/>
      <path id="DejaVuSans-Bold-72" d="M 3138 2547 
Q 2991 2616 2845 2648 
Q 2700 2681 2553 2681 
Q 2122 2681 1889 2404 
Q 1656 2128 1656 1613 
L 1656 0 
L 538 0 
L 538 3500 
L 1656 3500 
L 1656 2925 
Q 1872 3269 2151 3426 
Q 2431 3584 2822 3584 
Q 2878 3584 2943 3579 
Q 3009 3575 3134 3559 
L 3138 2547 
z
" transform="scale(0.015625)"/>
      <path id="DejaVuSans-Bold-65" d="M 4031 1759 
L 4031 1441 
L 1416 1441 
Q 1456 1047 1700 850 
Q 1944 653 2381 653 
Q 2734 653 3104 758 
Q 3475 863 3866 1075 
L 3866 213 
Q 3469 63 3072 -14 
Q 2675 -91 2278 -91 
Q 1328 -91 801 392 
Q 275 875 275 1747 
Q 275 2603 792 3093 
Q 1309 3584 2216 3584 
Q 3041 3584 3536 3087 
Q 4031 2591 4031 1759 
z
M 2881 2131 
Q 2881 2450 2695 2645 
Q 2509 2841 2209 2841 
Q 1884 2841 1681 2658 
Q 1478 2475 1428 2131 
L 2881 2131 
z
" transform="scale(0.015625)"/>
      <path id="DejaVuSans-Bold-71" d="M 2181 2772 
Q 1825 2772 1636 2509 
Q 1447 2247 1447 1747 
Q 1447 1247 1636 984 
Q 1825 722 2181 722 
Q 2541 722 2730 984 
Q 2919 1247 2919 1747 
Q 2919 2247 2730 2509 
Q 2541 2772 2181 2772 
z
M 2919 506 
Q 2688 197 2409 53 
Q 2131 -91 1766 -91 
Q 1119 -91 703 423 
Q 288 938 288 1747 
Q 288 2556 703 3067 
Q 1119 3578 1766 3578 
Q 2131 3578 2409 3434 
Q 2688 3291 2919 2981 
L 2919 3500 
L 4044 3500 
L 4044 -1331 
L 2919 -1331 
L 2919 506 
z
" transform="scale(0.015625)"/>
      <path id="DejaVuSans-Bold-75" d="M 500 1363 
L 500 3500 
L 1625 3500 
L 1625 3150 
Q 1625 2866 1622 2436 
Q 1619 2006 1619 1863 
Q 1619 1441 1641 1255 
Q 1663 1069 1716 984 
Q 1784 875 1895 815 
Q 2006 756 2150 756 
Q 2500 756 2700 1025 
Q 2900 1294 2900 1772 
L 2900 3500 
L 4019 3500 
L 4019 0 
L 2900 0 
L 2900 506 
Q 2647 200 2364 54 
Q 2081 -91 1741 -91 
Q 1134 -91 817 281 
Q 500 653 500 1363 
z
" transform="scale(0.015625)"/>
      <path id="DejaVuSans-Bold-6e" d="M 4056 2131 
L 4056 0 
L 2931 0 
L 2931 347 
L 2931 1631 
Q 2931 2084 2911 2256 
Q 2891 2428 2841 2509 
Q 2775 2619 2662 2680 
Q 2550 2741 2406 2741 
Q 2056 2741 1856 2470 
Q 1656 2200 1656 1722 
L 1656 0 
L 538 0 
L 538 3500 
L 1656 3500 
L 1656 2988 
Q 1909 3294 2193 3439 
Q 2478 3584 2822 3584 
Q 3428 3584 3742 3212 
Q 4056 2841 4056 2131 
z
" transform="scale(0.015625)"/>
      <path id="DejaVuSans-Bold-63" d="M 3366 3391 
L 3366 2478 
Q 3138 2634 2908 2709 
Q 2678 2784 2431 2784 
Q 1963 2784 1702 2511 
Q 1441 2238 1441 1747 
Q 1441 1256 1702 982 
Q 1963 709 2431 709 
Q 2694 709 2930 787 
Q 3166 866 3366 1019 
L 3366 103 
Q 3103 6 2833 -42 
Q 2563 -91 2291 -91 
Q 1344 -91 809 395 
Q 275 881 275 1747 
Q 275 2613 809 3098 
Q 1344 3584 2291 3584 
Q 2566 3584 2833 3536 
Q 3100 3488 3366 3391 
z
" transform="scale(0.015625)"/>
      <path id="DejaVuSans-Bold-79" d="M 78 3500 
L 1197 3500 
L 2138 1125 
L 2938 3500 
L 4056 3500 
L 2584 -331 
Q 2363 -916 2067 -1148 
Q 1772 -1381 1288 -1381 
L 641 -1381 
L 641 -647 
L 991 -647 
Q 1275 -647 1404 -556 
Q 1534 -466 1606 -231 
L 1638 -134 
L 78 3500 
z
" transform="scale(0.015625)"/>
      <path id="DejaVuSans-Bold-64" d="M 2919 2988 
L 2919 4863 
L 4044 4863 
L 4044 0 
L 2919 0 
L 2919 506 
Q 2688 197 2409 53 
Q 2131 -91 1766 -91 
Q 1119 -91 703 423 
Q 288 938 288 1747 
Q 288 2556 703 3070 
Q 1119 3584 1766 3584 
Q 2128 3584 2408 3439 
Q 2688 3294 2919 2988 
z
M 2181 722 
Q 2541 722 2730 984 
Q 2919 1247 2919 1747 
Q 2919 2247 2730 2509 
Q 2541 2772 2181 2772 
Q 1825 2772 1636 2509 
Q 1447 2247 1447 1747 
Q 1447 1247 1636 984 
Q 1825 722 2181 722 
z
" transform="scale(0.015625)"/>
      <path id="DejaVuSans-Bold-69" d="M 538 3500 
L 1656 3500 
L 1656 0 
L 538 0 
L 538 3500 
z
M 538 4863 
L 1656 4863 
L 1656 3950 
L 538 3950 
L 538 4863 
z
" transform="scale(0.015625)"/>
      <path id="DejaVuSans-Bold-73" d="M 3272 3391 
L 3272 2541 
Q 2913 2691 2578 2766 
Q 2244 2841 1947 2841 
Q 1628 2841 1473 2761 
Q 1319 2681 1319 2516 
Q 1319 2381 1436 2309 
Q 1553 2238 1856 2203 
L 2053 2175 
Q 2913 2066 3209 1816 
Q 3506 1566 3506 1031 
Q 3506 472 3093 190 
Q 2681 -91 1863 -91 
Q 1516 -91 1145 -36 
Q 775 19 384 128 
L 384 978 
Q 719 816 1070 734 
Q 1422 653 1784 653 
Q 2113 653 2278 743 
Q 2444 834 2444 1013 
Q 2444 1163 2330 1236 
Q 2216 1309 1875 1350 
L 1678 1375 
Q 931 1469 631 1722 
Q 331 1975 331 2491 
Q 331 3047 712 3315 
Q 1094 3584 1881 3584 
Q 2191 3584 2531 3537 
Q 2872 3491 3272 3391 
z
" transform="scale(0.015625)"/>
      <path id="DejaVuSans-Bold-74" d="M 1759 4494 
L 1759 3500 
L 2913 3500 
L 2913 2700 
L 1759 2700 
L 1759 1216 
Q 1759 972 1856 886 
Q 1953 800 2241 800 
L 2816 800 
L 2816 0 
L 1856 0 
Q 1194 0 917 276 
Q 641 553 641 1216 
L 641 2700 
L 84 2700 
L 84 3500 
L 641 3500 
L 641 4494 
L 1759 4494 
z
" transform="scale(0.015625)"/>
      <path id="DejaVuSans-Bold-62" d="M 2400 722 
Q 2759 722 2948 984 
Q 3138 1247 3138 1747 
Q 3138 2247 2948 2509 
Q 2759 2772 2400 2772 
Q 2041 2772 1848 2508 
Q 1656 2244 1656 1747 
Q 1656 1250 1848 986 
Q 2041 722 2400 722 
z
M 1656 2988 
Q 1888 3294 2169 3439 
Q 2450 3584 2816 3584 
Q 3463 3584 3878 3070 
Q 4294 2556 4294 1747 
Q 4294 938 3878 423 
Q 3463 -91 2816 -91 
Q 2450 -91 2169 54 
Q 1888 200 1656 506 
L 1656 0 
L 538 0 
L 538 4863 
L 1656 4863 
L 1656 2988 
z
" transform="scale(0.015625)"/>
      <path id="DejaVuSans-Bold-6f" d="M 2203 2784 
Q 1831 2784 1636 2517 
Q 1441 2250 1441 1747 
Q 1441 1244 1636 976 
Q 1831 709 2203 709 
Q 2569 709 2762 976 
Q 2956 1244 2956 1747 
Q 2956 2250 2762 2517 
Q 2569 2784 2203 2784 
z
M 2203 3584 
Q 3106 3584 3614 3096 
Q 4122 2609 4122 1747 
Q 4122 884 3614 396 
Q 3106 -91 2203 -91 
Q 1297 -91 786 396 
Q 275 884 275 1747 
Q 275 2609 786 3096 
Q 1297 3584 2203 3584 
z
" transform="scale(0.015625)"/>
      <path id="DejaVuSans-Bold-76" d="M 97 3500 
L 1216 3500 
L 2088 1081 
L 2956 3500 
L 4078 3500 
L 2700 0 
L 1472 0 
L 97 3500 
z
" transform="scale(0.015625)"/>
      <path id="DejaVuSans-Bold-28" d="M 2413 -844 
L 1484 -844 
Q 1006 -72 778 623 
Q 550 1319 550 2003 
Q 550 2688 779 3389 
Q 1009 4091 1484 4856 
L 2413 4856 
Q 2013 4116 1813 3408 
Q 1613 2700 1613 2009 
Q 1613 1319 1811 609 
Q 2009 -100 2413 -844 
z
" transform="scale(0.015625)"/>
      <path id="DejaVuSans-Bold-6d" d="M 3781 2919 
Q 3994 3244 4286 3414 
Q 4578 3584 4928 3584 
Q 5531 3584 5847 3212 
Q 6163 2841 6163 2131 
L 6163 0 
L 5038 0 
L 5038 1825 
Q 5041 1866 5042 1909 
Q 5044 1953 5044 2034 
Q 5044 2406 4934 2573 
Q 4825 2741 4581 2741 
Q 4263 2741 4089 2478 
Q 3916 2216 3909 1719 
L 3909 0 
L 2784 0 
L 2784 1825 
Q 2784 2406 2684 2573 
Q 2584 2741 2328 2741 
Q 2006 2741 1831 2477 
Q 1656 2213 1656 1722 
L 1656 0 
L 531 0 
L 531 3500 
L 1656 3500 
L 1656 2988 
Q 1863 3284 2130 3434 
Q 2397 3584 2719 3584 
Q 3081 3584 3359 3409 
Q 3638 3234 3781 2919 
z
" transform="scale(0.015625)"/>
      <path id="DejaVuSans-Bold-61" d="M 2106 1575 
Q 1756 1575 1579 1456 
Q 1403 1338 1403 1106 
Q 1403 894 1545 773 
Q 1688 653 1941 653 
Q 2256 653 2472 879 
Q 2688 1106 2688 1447 
L 2688 1575 
L 2106 1575 
z
M 3816 1997 
L 3816 0 
L 2688 0 
L 2688 519 
Q 2463 200 2181 54 
Q 1900 -91 1497 -91 
Q 953 -91 614 226 
Q 275 544 275 1050 
Q 275 1666 698 1953 
Q 1122 2241 2028 2241 
L 2688 2241 
L 2688 2328 
Q 2688 2594 2478 2717 
Q 2269 2841 1825 2841 
Q 1466 2841 1156 2769 
Q 847 2697 581 2553 
L 581 3406 
Q 941 3494 1303 3539 
Q 1666 3584 2028 3584 
Q 2975 3584 3395 3211 
Q 3816 2838 3816 1997 
z
" transform="scale(0.015625)"/>
      <path id="DejaVuSans-Bold-6c" d="M 538 4863 
L 1656 4863 
L 1656 0 
L 538 0 
L 538 4863 
z
" transform="scale(0.015625)"/>
      <path id="DejaVuSans-Bold-29" d="M 513 -844 
Q 913 -100 1113 609 
Q 1313 1319 1313 2009 
Q 1313 2700 1113 3408 
Q 913 4116 513 4856 
L 1441 4856 
Q 1916 4091 2145 3389 
Q 2375 2688 2375 2003 
Q 2375 1319 2147 623 
Q 1919 -72 1441 -844 
L 513 -844 
z
" transform="scale(0.015625)"/>
     </defs>
     <use xlink:href="#DejaVuSans-Bold-47"/>
     <use xlink:href="#DejaVuSans-Bold-4c" transform="translate(82.080078 0)"/>
     <use xlink:href="#DejaVuSans-Bold-43" transform="translate(145.800781 0)"/>
     <use xlink:href="#DejaVuSans-Bold-2d" transform="translate(221.439453 0)"/>
     <use xlink:href="#DejaVuSans-Bold-30" transform="translate(262.943359 0)"/>
     <use xlink:href="#DejaVuSans-Bold-32" transform="translate(332.523438 0)"/>
     <use xlink:href="#DejaVuSans-Bold-20" transform="translate(402.103516 0)"/>
     <use xlink:href="#DejaVuSans-Bold-2d" transform="translate(436.917969 0)"/>
     <use xlink:href="#DejaVuSans-Bold-20" transform="translate(478.421875 0)"/>
     <use xlink:href="#DejaVuSans-Bold-46" transform="translate(513.236328 0)"/>
     <use xlink:href="#DejaVuSans-Bold-72" transform="translate(575.171875 0)"/>
     <use xlink:href="#DejaVuSans-Bold-65" transform="translate(624.488281 0)"/>
     <use xlink:href="#DejaVuSans-Bold-71" transform="translate(692.310547 0)"/>
     <use xlink:href="#DejaVuSans-Bold-75" transform="translate(763.892578 0)"/>
     <use xlink:href="#DejaVuSans-Bold-65" transform="translate(835.083984 0)"/>
     <use xlink:href="#DejaVuSans-Bold-6e" transform="translate(902.90625 0)"/>
     <use xlink:href="#DejaVuSans-Bold-63" transform="translate(974.097656 0)"/>
     <use xlink:href="#DejaVuSans-Bold-79" transform="translate(1033.375 0)"/>
     <use xlink:href="#DejaVuSans-Bold-20" transform="translate(1098.560547 0)"/>
     <use xlink:href="#DejaVuSans-Bold-64" transform="translate(1133.375 0)"/>
     <use xlink:href="#DejaVuSans-Bold-69" transform="translate(1204.957031 0)"/>
     <use xlink:href="#DejaVuSans-Bold-73" transform="translate(1239.234375 0)"/>
     <use xlink:href="#DejaVuSans-Bold-74" transform="translate(1298.755859 0)"/>
     <use xlink:href="#DejaVuSans-Bold-72" transform="translate(1346.558594 0)"/>
     <use xlink:href="#DejaVuSans-Bold-69" transform="translate(1395.875 0)"/>
     <use xlink:href="#DejaVuSans-Bold-62" transform="translate(1430.152344 0)"/>
     <use xlink:href="#DejaVuSans-Bold-75" transform="translate(1501.734375 0)"/>
     <use xlink:href="#DejaVuSans-Bold-74" transform="translate(1572.925781 0)"/>
     <use xlink:href="#DejaVuSans-Bold-69" transform="translate(1620.728516 0)"/>
     <use xlink:href="#DejaVuSans-Bold-6f" transform="translate(1655.005859 0)"/>
     <use xlink:href="#DejaVuSans-Bold-6e" transform="translate(1723.707031 0)"/>
     <use xlink:href="#DejaVuSans-Bold-20" transform="translate(1794.898438 0)"/>
     <use xlink:href="#DejaVuSans-Bold-63" transform="translate(1829.712891 0)"/>
     <use xlink:href="#DejaVuSans-Bold-75" transform="translate(1888.990234 0)"/>
     <use xlink:href="#DejaVuSans-Bold-72" transform="translate(1960.181641 0)"/>
     <use xlink:href="#DejaVuSans-Bold-76" transform="translate(2009.498047 0)"/>
     <use xlink:href="#DejaVuSans-Bold-65" transform="translate(2074.683594 0)"/>
     <use xlink:href="#DejaVuSans-Bold-20" transform="translate(2142.505859 0)"/>
     <use xlink:href="#DejaVuSans-Bold-28" transform="translate(2177.320312 0)"/>
     <use xlink:href="#DejaVuSans-Bold-75" transform="translate(2223.023438 0)"/>
     <use xlink:href="#DejaVuSans-Bold-6e" transform="translate(2294.214844 0)"/>
     <use xlink:href="#DejaVuSans-Bold-69" transform="translate(2365.40625 0)"/>
     <use xlink:href="#DejaVuSans-Bold-6d" transform="translate(2399.683594 0)"/>
     <use xlink:href="#DejaVuSans-Bold-6f" transform="translate(2503.882812 0)"/>
     <use xlink:href="#DejaVuSans-Bold-64" transform="translate(2572.583984 0)"/>
     <use xlink:href="#DejaVuSans-Bold-61" transform="translate(2644.166016 0)"/>
     <use xlink:href="#DejaVuSans-Bold-6c" transform="translate(2711.646484 0)"/>
     <use xlink:href="#DejaVuSans-Bold-29" transform="translate(2745.923828 0)"/>
    </g>
   </g>
   <g id="line2d_34">
    <path d="M 55.109955 308.859722 
L 58.30493 300.768783 
L 61.499906 291.679496 
L 64.694881 281.700187 
L 67.889856 270.985828 
L 72.682319 253.963839 
L 83.864733 213.654228 
L 87.059709 202.900088 
L 90.254684 192.770183 
L 93.44966 183.360984 
L 96.644635 174.733289 
L 99.83961 166.917234 
L 103.034586 159.918973 
L 106.229561 153.727768 
L 109.424536 148.322452 
L 112.619512 143.676552 
L 115.814487 139.761724 
L 117.411975 138.069568 
L 119.009463 136.549559 
L 120.60695 135.198209 
L 122.204438 134.012029 
L 123.801926 132.987504 
L 125.399413 132.121063 
L 126.996901 131.409056 
L 128.594389 130.847727 
L 130.191876 130.433197 
L 131.789364 130.161453 
L 133.386852 130.028342 
L 134.98434 130.029577 
L 136.581827 130.160739 
L 138.179315 130.417292 
L 139.776803 130.794599 
L 142.971778 131.892483 
L 146.166753 133.415699 
L 149.361729 135.324497 
L 152.556704 137.57793 
L 155.75168 140.133351 
L 158.946655 142.945709 
L 163.739118 147.539684 
L 170.129069 154.085321 
L 178.116507 162.288781 
L 182.90897 166.866664 
L 186.103946 169.659157 
L 189.298921 172.186726 
L 192.493897 174.406758 
L 195.688872 176.28336 
L 198.883847 177.788051 
L 202.078823 178.900411 
L 205.273798 179.60866 
L 208.468774 179.910023 
L 211.663749 179.81068 
L 214.858724 179.325077 
L 218.0537 178.474463 
L 221.248675 177.284644 
L 224.443651 175.783159 
L 227.638626 173.996247 
L 230.833601 171.946135 
L 234.028577 169.649178 
L 237.223552 167.115318 
L 240.418527 164.349092 
L 243.613503 161.352151 
L 246.808478 158.126925 
L 251.600941 152.879584 
L 256.393404 147.202962 
L 262.783355 139.196391 
L 270.770794 129.155163 
L 275.563257 123.514812 
L 278.758232 120.036818 
L 281.953208 116.831592 
L 285.148183 113.92138 
L 288.343158 111.312059 
L 291.538134 108.99482 
L 294.733109 106.94941 
L 297.928084 105.148562 
L 301.12306 103.56307 
L 304.318035 102.167001 
L 307.513011 100.942422 
L 310.707986 99.883133 
L 313.902961 98.996877 
L 317.097937 98.305692 
L 320.292912 97.844226 
L 323.487888 97.656103 
L 326.682863 97.788705 
L 329.877838 98.287019 
L 333.072814 99.187324 
L 336.267789 100.511609 
L 339.462765 102.263445 
L 342.65774 104.425857 
L 345.852715 106.961385 
L 349.047691 109.814193 
L 353.840154 114.531401 
L 368.217543 129.259781 
L 371.412518 132.174956 
L 374.607494 134.847681 
L 377.802469 137.255956 
L 380.997445 139.395446 
L 384.19242 141.278651 
L 387.387395 142.932782 
L 392.179858 145.07082 
L 396.972322 146.936087 
L 416.142174 154.087261 
L 430.519563 159.682457 
L 440.104489 163.135395 
L 459.274342 169.724869 
L 465.664292 171.734419 
L 472.054243 173.497285 
L 478.444194 174.983082 
L 486.431633 176.552477 
L 500.809022 179.306609 
L 507.198973 180.762036 
L 511.991436 182.022803 
L 516.783899 183.47874 
L 521.576362 185.185951 
L 526.368825 187.203515 
L 529.5638 188.746002 
L 532.758776 190.457608 
L 537.551239 193.345428 
L 542.343702 196.594667 
L 547.136165 200.148198 
L 553.526116 205.221921 
L 563.111042 213.194608 
L 574.293456 222.780172 
L 580.683407 228.504406 
L 587.073357 234.511501 
L 593.463308 240.804053 
L 604.645722 252.213825 
L 617.425624 265.191156 
L 646.180402 294.115546 
L 668.54523 317.151581 
L 673.337693 321.724324 
L 678.130156 325.954593 
L 681.325131 328.532223 
L 684.520107 330.884947 
L 687.715082 332.993647 
L 690.910057 334.847427 
L 692.507545 335.677753 
L 692.507545 335.677753 
" clip-path="url(#p12c4f4b668)" style="fill: none; stroke: #1f4e79; stroke-width: 2.2; stroke-linecap: square"/>
   </g>
   <g id="legend_1">
    <g id="patch_72">
     <path d="M 49.10875 54.070937 
L 146.736563 54.070937 
Q 148.436563 54.070937 148.436563 52.370937 
L 148.436563 28.268125 
Q 148.436563 26.568125 146.736563 26.568125 
L 49.10875 26.568125 
Q 47.40875 26.568125 47.40875 28.268125 
L 47.40875 52.370937 
Q 47.40875 54.070937 49.10875 54.070937 
z
" style="fill: #ffffff; opacity: 0.92; stroke: #cccccc; stroke-linejoin: miter"/>
    </g>
    <g id="line2d_35">
     <path d="M 50.80875 33.451797 
L 59.30875 33.451797 
L 67.80875 33.451797 
" style="fill: none; stroke: #1f4e79; stroke-width: 2.2; stroke-linecap: square"/>
    </g>
    <g id="text_19">
     <!-- Frequency curve -->
     <g transform="translate(74.60875 36.426797) scale(0.085 -0.085)">
      <defs>
       <path id="DejaVuSans-46" d="M 628 4666 
L 3309 4666 
L 3309 4134 
L 1259 4134 
L 1259 2759 
L 3109 2759 
L 3109 2228 
L 1259 2228 
L 1259 0 
L 628 0 
L 628 4666 
z
" transform="scale(0.015625)"/>
       <path id="DejaVuSans-71" d="M 947 1747 
Q 947 1113 1208 752 
Q 1469 391 1925 391 
Q 2381 391 2643 752 
Q 2906 1113 2906 1747 
Q 2906 2381 2643 2742 
Q 2381 3103 1925 3103 
Q 1469 3103 1208 2742 
Q 947 2381 947 1747 
z
M 2906 525 
Q 2725 213 2448 61 
Q 2172 -91 1784 -91 
Q 1150 -91 751 415 
Q 353 922 353 1747 
Q 353 2572 751 3078 
Q 1150 3584 1784 3584 
Q 2172 3584 2448 3432 
Q 2725 3281 2906 2969 
L 2906 3500 
L 3481 3500 
L 3481 -1331 
L 2906 -1331 
L 2906 525 
z
" transform="scale(0.015625)"/>
       <path id="DejaVuSans-75" d="M 544 1381 
L 544 3500 
L 1119 3500 
L 1119 1403 
Q 1119 906 1312 657 
Q 1506 409 1894 409 
Q 2359 409 2629 706 
Q 2900 1003 2900 1516 
L 2900 3500 
L 3475 3500 
L 3475 0 
L 2900 0 
L 2900 538 
Q 2691 219 2414 64 
Q 2138 -91 1772 -91 
Q 1169 -91 856 284 
Q 544 659 544 1381 
z
M 1991 3584 
L 1991 3584 
z
" transform="scale(0.015625)"/>
       <path id="DejaVuSans-63" d="M 3122 3366 
L 3122 2828 
Q 2878 2963 2633 3030 
Q 2388 3097 2138 3097 
Q 1578 3097 1268 2742 
Q 959 2388 959 1747 
Q 959 1106 1268 751 
Q 1578 397 2138 397 
Q 2388 397 2633 464 
Q 2878 531 3122 666 
L 3122 134 
Q 2881 22 2623 -34 
Q 2366 -91 2075 -91 
Q 1284 -91 818 406 
Q 353 903 353 1747 
Q 353 2603 823 3093 
Q 1294 3584 2113 3584 
Q 2378 3584 2631 3529 
Q 2884 3475 3122 3366 
z
" transform="scale(0.015625)"/>
       <path id="DejaVuSans-79" d="M 2059 -325 
Q 1816 -950 1584 -1140 
Q 1353 -1331 966 -1331 
L 506 -1331 
L 506 -850 
L 844 -850 
Q 1081 -850 1212 -737 
Q 1344 -625 1503 -206 
L 1606 56 
L 191 3500 
L 800 3500 
L 1894 763 
L 2988 3500 
L 3597 3500 
L 2059 -325 
z
" transform="scale(0.015625)"/>
       <path id="DejaVuSans-76" d="M 191 3500 
L 800 3500 
L 1894 563 
L 2988 3500 
L 3597 3500 
L 2284 0 
L 1503 0 
L 191 3500 
z
" transform="scale(0.015625)"/>
      </defs>
      <use xlink:href="#DejaVuSans-46"/>
      <use xlink:href="#DejaVuSans-72" transform="translate(50.269531 0)"/>
      <use xlink:href="#DejaVuSans-65" transform="translate(89.132812 0)"/>
      <use xlink:href="#DejaVuSans-71" transform="translate(150.65625 0)"/>
      <use xlink:href="#DejaVuSans-75" transform="translate(214.132812 0)"/>
      <use xlink:href="#DejaVuSans-65" transform="translate(277.511719 0)"/>
      <use xlink:href="#DejaVuSans-6e" transform="translate(339.035156 0)"/>
      <use xlink:href="#DejaVuSans-63" transform="translate(402.414062 0)"/>
      <use xlink:href="#DejaVuSans-79" transform="translate(457.394531 0)"/>
      <use xlink:href="#DejaVuSans-20" transform="translate(516.574219 0)"/>
      <use xlink:href="#DejaVuSans-63" transform="translate(548.361328 0)"/>
      <use xlink:href="#DejaVuSans-75" transform="translate(603.341797 0)"/>
      <use xlink:href="#DejaVuSans-72" transform="translate(666.720703 0)"/>
      <use xlink:href="#DejaVuSans-76" transform="translate(707.833984 0)"/>
      <use xlink:href="#DejaVuSans-65" transform="translate(767.013672 0)"/>
     </g>
    </g>
    <g id="patch_73">
     <path d="M 50.80875 48.903203 
L 67.80875 48.903203 
L 67.80875 42.953203 
L 50.80875 42.953203 
z
" style="fill: #ffffff; opacity: 0.65; stroke: #4c4c4c; stroke-width: 0.6; stroke-linejoin: miter"/>
    </g>
    <g id="text_20">
     <!-- Histogram -->
     <g transform="translate(74.60875 48.903203) scale(0.085 -0.085)">
      <defs>
       <path id="DejaVuSans-48" d="M 628 4666 
L 1259 4666 
L 1259 2753 
L 3553 2753 
L 3553 4666 
L 4184 4666 
L 4184 0 
L 3553 0 
L 3553 2222 
L 1259 2222 
L 1259 0 
L 628 0 
L 628 4666 
z
" transform="scale(0.015625)"/>
       <path id="DejaVuSans-6f" d="M 1959 3097 
Q 1497 3097 1228 2736 
Q 959 2375 959 1747 
Q 959 1119 1226 758 
Q 1494 397 1959 397 
Q 2419 397 2687 759 
Q 2956 1122 2956 1747 
Q 2956 2369 2687 2733 
Q 2419 3097 1959 3097 
z
M 1959 3584 
Q 2709 3584 3137 3096 
Q 3566 2609 3566 1747 
Q 3566 888 3137 398 
Q 2709 -91 1959 -91 
Q 1206 -91 779 398 
Q 353 888 353 1747 
Q 353 2609 779 3096 
Q 1206 3584 1959 3584 
z
" transform="scale(0.015625)"/>
       <path id="DejaVuSans-6d" d="M 3328 2828 
Q 3544 3216 3844 3400 
Q 4144 3584 4550 3584 
Q 5097 3584 5394 3201 
Q 5691 2819 5691 2113 
L 5691 0 
L 5113 0 
L 5113 2094 
Q 5113 2597 4934 2840 
Q 4756 3084 4391 3084 
Q 3944 3084 3684 2787 
Q 3425 2491 3425 1978 
L 3425 0 
L 2847 0 
L 2847 2094 
Q 2847 2600 2669 2842 
Q 2491 3084 2119 3084 
Q 1678 3084 1418 2786 
Q 1159 2488 1159 1978 
L 1159 0 
L 581 0 
L 581 3500 
L 1159 3500 
L 1159 2956 
Q 1356 3278 1631 3431 
Q 1906 3584 2284 3584 
Q 2666 3584 2933 3390 
Q 3200 3197 3328 2828 
z
" transform="scale(0.015625)"/>
      </defs>
      <use xlink:href="#DejaVuSans-48"/>
      <use xlink:href="#DejaVuSans-69" transform="translate(75.195312 0)"/>
      <use xlink:href="#DejaVuSans-73" transform="translate(102.978516 0)"/>
      <use xlink:href="#DejaVuSans-74" transform="translate(155.078125 0)"/>
      <use xlink:href="#DejaVuSans-6f" transform="translate(194.287109 0)"/>
      <use xlink:href="#DejaVuSans-67" transform="translate(255.46875 0)"/>
      <use xlink:href="#DejaVuSans-72" transform="translate(318.945312 0)"/>
      <use xlink:href="#DejaVuSans-61" transform="translate(360.058594 0)"/>
      <use xlink:href="#DejaVuSans-6d" transform="translate(421.337891 0)"/>
     </g>
    </g>
   </g>
   <g id="line2d_36">
    <defs>
     <path id="maf908a1d46" d="M -0 5 
L 5 -5 
L -5 -5 
z
" style="stroke: #000000; stroke-linejoin: miter"/>
    </defs>
    <g clip-path="url(#p12c4f4b668)">
     <use xlink:href="#maf908a1d46" x="323.487888" y="97.656103" style="fill: #ff0000; stroke: #000000; stroke-linejoin: miter"/>
    </g>
   </g>
   <g id="text_21">
    <g id="patch_74">
     <path d="M 307.124763 89.319853 
L 339.851013 89.319853 
Q 341.851013 89.319853 341.851013 87.319853 
L 341.851013 70.619103 
Q 341.851013 68.619103 339.851013 68.619103 
L 307.124763 68.619103 
Q 305.124763 68.619103 305.124763 70.619103 
L 305.124763 87.319853 
Q 305.124763 89.319853 307.124763 89.319853 
z
" style="fill: #ffffff; stroke: #808080; stroke-linejoin: miter"/>
    </g>
    <!-- Mode 1 -->
    <g transform="translate(308.772263 76.697853) scale(0.08 -0.08)">
     <defs>
      <path id="DejaVuSans-4d" d="M 628 4666 
L 1569 4666 
L 2759 1491 
L 3956 4666 
L 4897 4666 
L 4897 0 
L 4281 0 
L 4281 4097 
L 3078 897 
L 2444 897 
L 1241 4097 
L 1241 0 
L 628 0 
L 628 4666 
z
" transform="scale(0.015625)"/>
      <path id="DejaVuSans-64" d="M 2906 2969 
L 2906 4863 
L 3481 4863 
L 3481 0 
L 2906 0 
L 2906 525 
Q 2725 213 2448 61 
Q 2172 -91 1784 -91 
Q 1150 -91 751 415 
Q 353 922 353 1747 
Q 353 2572 751 3078 
Q 1150 3584 1784 3584 
Q 2172 3584 2448 3432 
Q 2725 3281 2906 2969 
z
M 947 1747 
Q 947 1113 1208 752 
Q 1469 391 1925 391 
Q 2381 391 2643 752 
Q 2906 1113 2906 1747 
Q 2906 2381 2643 2742 
Q 2381 3103 1925 3103 
Q 1469 3103 1208 2742 
Q 947 2381 947 1747 
z
" transform="scale(0.015625)"/>
     </defs>
     <use xlink:href="#DejaVuSans-4d"/>
     <use xlink:href="#DejaVuSans-6f" transform="translate(86.279297 0)"/>
     <use xlink:href="#DejaVuSans-64" transform="translate(147.460938 0)"/>
     <use xlink:href="#DejaVuSans-65" transform="translate(210.9375 0)"/>
     <use xlink:href="#DejaVuSans-20" transform="translate(272.460938 0)"/>
     <use xlink:href="#DejaVuSans-31" transform="translate(304.248047 0)"/>
    </g>
    <!-- 2.24 phi -->
    <g transform="translate(307.124763 85.656103) scale(0.08 -0.08)">
     <use xlink:href="#DejaVuSans-32"/>
     <use xlink:href="#DejaVuSans-2e" transform="translate(63.623047 0)"/>
     <use xlink:href="#DejaVuSans-32" transform="translate(95.410156 0)"/>
     <use xlink:href="#DejaVuSans-34" transform="translate(159.033203 0)"/>
     <use xlink:href="#DejaVuSans-20" transform="translate(222.65625 0)"/>
     <use xlink:href="#DejaVuSans-70" transform="translate(254.443359 0)"/>
     <use xlink:href="#DejaVuSans-68" transform="translate(317.919922 0)"/>
     <use xlink:href="#DejaVuSans-69" transform="translate(381.298828 0)"/>
    </g>
   </g>
  </g>
 </g>
 <defs>
  <clipPath id="p12c4f4b668">
   <rect x="43.15875" y="22.318125" width="661.3" height="320.090909"/>
  </clipPath>
 </defs>
</svg>
