<?xml version="1.0" encoding="utf-8" standalone="no"?>
<!DOCTYPE svg PUBLIC "-//W3C//DTD SVG 1.1//EN"
  "http://www.w3.org/Graphics/SVG/1.1/DTD/svg11.dtd">
<svg xmlns:xlink="http://www.w3.org/1999/xlink" width="675.662074pt" height="393.237287pt" viewBox="0 0 675.662074 393.237287" xmlns="http://www.w3.org/2000/svg" version="1.1">
 <metadata>
  <rdf:RDF xmlns:dc="http://purl.org/dc/elements/1.1/" xmlns:cc="http://creativecommons.org/ns#" xmlns:rdf="http://www.w3.org/1999/02/22-rdf-syntax-ns#">
   <cc:Work>
    <dc:type rdf:resource="http://purl.org/dc/dcmitype/StillImage"/>
    <dc:date>2026-07-01T03:10:04.747552</dc:date>
    <dc:format>image/svg+xml</dc:format>
    <dc:creator>
     <cc:Agent>
      <dc:title>Matplotlib v3.10.8, https://matplotlib.org/</dc:title>
     </cc:Agent>
    </dc:creator>
   </cc:Work>
  </rdf:RDF>
 </metadata>
 <defs>
  <style type="text/css">*{stroke-linejoin: round; stroke-linecap: butt}</style>
 </defs>
 <g id="figure_1">
  <g id="patch_1">
   <path d="M 0 393.237287 
L 675.662074 393.237287 
L 675.662074 0 
L 0 0 
z
" style="fill: #ffffff"/>
  </g>
  <g id="axes_1">
   <g id="patch_2">
    <path d="M 40.298438 355.681037 
L 668.462074 355.681037 
L 668.462074 47.899219 
L 40.298438 47.899219 
z
" style="fill: #ffffff"/>
   </g>
   <g id="patch_3">
    <path d="M 141.114824 355.681037 
L 179.890357 355.681037 
L 179.890357 47.899219 
L 141.114824 47.899219 
z
" clip-path="url(#p8f6f0c1a18)" style="fill: #c49464; opacity: 0.08; stroke: #c49464; stroke-linejoin: miter"/>
   </g>
   <g id="patch_4">
    <path d="M 179.890357 355.681037 
L 373.768022 355.681037 
L 373.768022 47.899219 
L 179.890357 47.899219 
z
" clip-path="url(#p8f6f0c1a18)" style="fill: #f4c95d; opacity: 0.08; stroke: #f4c95d; stroke-linejoin: miter"/>
   </g>
   <g id="patch_5">
    <path d="M 373.768022 355.681037 
L 528.870155 355.681037 
L 528.870155 47.899219 
L 373.768022 47.899219 
z
" clip-path="url(#p8f6f0c1a18)" style="fill: #94bd7a; opacity: 0.08; stroke: #94bd7a; stroke-linejoin: miter"/>
   </g>
   <g id="patch_6">
    <path d="M 528.870155 355.681037 
L 683.972287 355.681037 
L 683.972287 47.899219 
L 528.870155 47.899219 
z
" clip-path="url(#p8f6f0c1a18)" style="fill: #6fa8dc; opacity: 0.08; stroke: #6fa8dc; stroke-linejoin: miter"/>
   </g>
   <g id="line2d_1">
    <path d="M 179.890357 355.681037 
L 179.890357 47.899219 
" clip-path="url(#p8f6f0c1a18)" style="fill: none; stroke-dasharray: 0.8,1.32; stroke-dashoffset: 0; stroke: #808080; stroke-width: 0.8"/>
   </g>
   <g id="line2d_2">
    <path d="M 373.768022 355.681037 
L 373.768022 47.899219 
" clip-path="url(#p8f6f0c1a18)" style="fill: none; stroke-dasharray: 0.8,1.32; stroke-dashoffset: 0; stroke: #808080; stroke-width: 0.8"/>
   </g>
   <g id="line2d_3">
    <path d="M 528.870155 355.681037 
L 528.870155 47.899219 
" clip-path="url(#p8f6f0c1a18)" style="fill: none; stroke-dasharray: 0.8,1.32; stroke-dashoffset: 0; stroke: #808080; stroke-width: 0.8"/>
   </g>
   <g id="matplotlib.axis_1">
    <g id="xtick_1">
     <g id="line2d_4">
      <defs>
       <path id="mb5d9a4dd60" d="M 0 0 
L 0 3.5 
" style="stroke: #000000; stroke-width: 0.8"/>
      </defs>
      <g>
       <use xlink:href="#mb5d9a4dd60" x="63.563757" y="355.681037" style="stroke: #000000; stroke-width: 0.8"/>
      </g>
     </g>
     <g id="text_1">
      <!-- −4 -->
      <g transform="translate(56.929773 369.519631) scale(0.09 -0.09)">
       <defs>
        <path id="DejaVuSans-2212" d="M 678 2272 
L 4684 2272 
L 4684 1741 
L 678 1741 
L 678 2272 
z
" transform="scale(0.015625)"/>
        <path id="DejaVuSans-34" d="M 2419 4116 
L 825 1625 
L 2419 1625 
L 2419 4116 
z
M 2253 4666 
L 3047 4666 
L 3047 1625 
L 3713 1625 
L 3713 1100 
L 3047 1100 
L 3047 0 
L 2419 0 
L 2419 1100 
L 313 1100 
L 313 1709 
L 2253 4666 
z
" transform="scale(0.015625)"/>
       </defs>
       <use xlink:href="#DejaVuSans-2212"/>
       <use xlink:href="#DejaVuSans-34" transform="translate(83.789062 0)"/>
      </g>
     </g>
    </g>
    <g id="xtick_2">
     <g id="line2d_5">
      <g>
       <use xlink:href="#mb5d9a4dd60" x="141.114824" y="355.681037" style="stroke: #000000; stroke-width: 0.8"/>
      </g>
     </g>
     <g id="text_2">
      <!-- −2 -->
      <g transform="translate(134.480839 369.519631) scale(0.09 -0.09)">
       <defs>
        <path id="DejaVuSans-32" d="M 1228 531 
L 3431 531 
L 3431 0 
L 469 0 
L 469 531 
Q 828 903 1448 1529 
Q 2069 2156 2228 2338 
Q 2531 2678 2651 2914 
Q 2772 3150 2772 3378 
Q 2772 3750 2511 3984 
Q 2250 4219 1831 4219 
Q 1534 4219 1204 4116 
Q 875 4013 500 3803 
L 500 4441 
Q 881 4594 1212 4672 
Q 1544 4750 1819 4750 
Q 2544 4750 2975 4387 
Q 3406 4025 3406 3419 
Q 3406 3131 3298 2873 
Q 3191 2616 2906 2266 
Q 2828 2175 2409 1742 
Q 1991 1309 1228 531 
z
" transform="scale(0.015625)"/>
       </defs>
       <use xlink:href="#DejaVuSans-2212"/>
       <use xlink:href="#DejaVuSans-32" transform="translate(83.789062 0)"/>
      </g>
     </g>
    </g>
    <g id="xtick_3">
     <g id="line2d_6">
      <g>
       <use xlink:href="#mb5d9a4dd60" x="218.66589" y="355.681037" style="stroke: #000000; stroke-width: 0.8"/>
      </g>
     </g>
     <g id="text_3">
      <!-- 0 -->
      <g transform="translate(215.802765 369.519631) scale(0.09 -0.09)">
       <defs>
        <path id="DejaVuSans-30" d="M 2034 4250 
Q 1547 4250 1301 3770 
Q 1056 3291 1056 2328 
Q 1056 1369 1301 889 
Q 1547 409 2034 409 
Q 2525 409 2770 889 
Q 3016 1369 3016 2328 
Q 3016 3291 2770 3770 
Q 2525 4250 2034 4250 
z
M 2034 4750 
Q 2819 4750 3233 4129 
Q 3647 3509 3647 2328 
Q 3647 1150 3233 529 
Q 2819 -91 2034 -91 
Q 1250 -91 836 529 
Q 422 1150 422 2328 
Q 422 3509 836 4129 
Q 1250 4750 2034 4750 
z
" transform="scale(0.015625)"/>
       </defs>
       <use xlink:href="#DejaVuSans-30"/>
      </g>
     </g>
    </g>
    <g id="xtick_4">
     <g id="line2d_7">
      <g>
       <use xlink:href="#mb5d9a4dd60" x="296.216956" y="355.681037" style="stroke: #000000; stroke-width: 0.8"/>
      </g>
     </g>
     <g id="text_4">
      <!-- 2 -->
      <g transform="translate(293.353831 369.519631) scale(0.09 -0.09)">
       <use xlink:href="#DejaVuSans-32"/>
      </g>
     </g>
    </g>
    <g id="xtick_5">
     <g id="line2d_8">
      <g>
       <use xlink:href="#mb5d9a4dd60" x="373.768022" y="355.681037" style="stroke: #000000; stroke-width: 0.8"/>
      </g>
     </g>
     <g id="text_5">
      <!-- 4 -->
      <g transform="translate(370.904897 369.519631) scale(0.09 -0.09)">
       <use xlink:href="#DejaVuSans-34"/>
      </g>
     </g>
    </g>
    <g id="xtick_6">
     <g id="line2d_9">
      <g>
       <use xlink:href="#mb5d9a4dd60" x="451.319088" y="355.681037" style="stroke: #000000; stroke-width: 0.8"/>
      </g>
     </g>
     <g id="text_6">
      <!-- 6 -->
      <g transform="translate(448.455963 369.519631) scale(0.09 -0.09)">
       <defs>
        <path id="DejaVuSans-36" d="M 2113 2584 
Q 1688 2584 1439 2293 
Q 1191 2003 1191 1497 
Q 1191 994 1439 701 
Q 1688 409 2113 409 
Q 2538 409 2786 701 
Q 3034 994 3034 1497 
Q 3034 2003 2786 2293 
Q 2538 2584 2113 2584 
z
M 3366 4563 
L 3366 3988 
Q 3128 4100 2886 4159 
Q 2644 4219 2406 4219 
Q 1781 4219 1451 3797 
Q 1122 3375 1075 2522 
Q 1259 2794 1537 2939 
Q 1816 3084 2150 3084 
Q 2853 3084 3261 2657 
Q 3669 2231 3669 1497 
Q 3669 778 3244 343 
Q 2819 -91 2113 -91 
Q 1303 -91 875 529 
Q 447 1150 447 2328 
Q 447 3434 972 4092 
Q 1497 4750 2381 4750 
Q 2619 4750 2861 4703 
Q 3103 4656 3366 4563 
z
" transform="scale(0.015625)"/>
       </defs>
       <use xlink:href="#DejaVuSans-36"/>
      </g>
     </g>
    </g>
    <g id="xtick_7">
     <g id="line2d_10">
      <g>
       <use xlink:href="#mb5d9a4dd60" x="528.870155" y="355.681037" style="stroke: #000000; stroke-width: 0.8"/>
      </g>
     </g>
     <g id="text_7">
      <!-- 8 -->
      <g transform="translate(526.00703 369.519631) scale(0.09 -0.09)">
       <defs>
        <path id="DejaVuSans-38" d="M 2034 2216 
Q 1584 2216 1326 1975 
Q 1069 1734 1069 1313 
Q 1069 891 1326 650 
Q 1584 409 2034 409 
Q 2484 409 2743 651 
Q 3003 894 3003 1313 
Q 3003 1734 2745 1975 
Q 2488 2216 2034 2216 
z
M 1403 2484 
Q 997 2584 770 2862 
Q 544 3141 544 3541 
Q 544 4100 942 4425 
Q 1341 4750 2034 4750 
Q 2731 4750 3128 4425 
Q 3525 4100 3525 3541 
Q 3525 3141 3298 2862 
Q 3072 2584 2669 2484 
Q 3125 2378 3379 2068 
Q 3634 1759 3634 1313 
Q 3634 634 3220 271 
Q 2806 -91 2034 -91 
Q 1263 -91 848 271 
Q 434 634 434 1313 
Q 434 1759 690 2068 
Q 947 2378 1403 2484 
z
M 1172 3481 
Q 1172 3119 1398 2916 
Q 1625 2713 2034 2713 
Q 2441 2713 2670 2916 
Q 2900 3119 2900 3481 
Q 2900 3844 2670 4047 
Q 2441 4250 2034 4250 
Q 1625 4250 1398 4047 
Q 1172 3844 1172 3481 
z
" transform="scale(0.015625)"/>
       </defs>
       <use xlink:href="#DejaVuSans-38"/>
      </g>
     </g>
    </g>
    <g id="xtick_8">
     <g id="line2d_11">
      <g>
       <use xlink:href="#mb5d9a4dd60" x="606.421221" y="355.681037" style="stroke: #000000; stroke-width: 0.8"/>
      </g>
     </g>
     <g id="text_8">
      <!-- 10 -->
      <g transform="translate(600.694971 369.519631) scale(0.09 -0.09)">
       <defs>
        <path id="DejaVuSans-31" d="M 794 531 
L 1825 531 
L 1825 4091 
L 703 3866 
L 703 4441 
L 1819 4666 
L 2450 4666 
L 2450 531 
L 3481 531 
L 3481 0 
L 794 0 
L 794 531 
z
" transform="scale(0.015625)"/>
       </defs>
       <use xlink:href="#DejaVuSans-31"/>
       <use xlink:href="#DejaVuSans-30" transform="translate(63.623047 0)"/>
      </g>
     </g>
    </g>
    <g id="text_9">
     <!-- Grain size (phi) -->
     <g transform="translate(312.516662 383.749631) scale(0.11 -0.11)">
      <defs>
       <path id="DejaVuSans-47" d="M 3809 666 
L 3809 1919 
L 2778 1919 
L 2778 2438 
L 4434 2438 
L 4434 434 
Q 4069 175 3628 42 
Q 3188 -91 2688 -91 
Q 1594 -91 976 548 
Q 359 1188 359 2328 
Q 359 3472 976 4111 
Q 1594 4750 2688 4750 
Q 3144 4750 3555 4637 
Q 3966 4525 4313 4306 
L 4313 3634 
Q 3963 3931 3569 4081 
Q 3175 4231 2741 4231 
Q 1884 4231 1454 3753 
Q 1025 3275 1025 2328 
Q 1025 1384 1454 906 
Q 1884 428 2741 428 
Q 3075 428 3337 486 
Q 3600 544 3809 666 
z
" transform="scale(0.015625)"/>
       <path id="DejaVuSans-72" d="M 2631 2963 
Q 2534 3019 2420 3045 
Q 2306 3072 2169 3072 
Q 1681 3072 1420 2755 
Q 1159 2438 1159 1844 
L 1159 0 
L 581 0 
L 581 3500 
L 1159 3500 
L 1159 2956 
Q 1341 3275 1631 3429 
Q 1922 3584 2338 3584 
Q 2397 3584 2469 3576 
Q 2541 3569 2628 3553 
L 2631 2963 
z
" transform="scale(0.015625)"/>
       <path id="DejaVuSans-61" d="M 2194 1759 
Q 1497 1759 1228 1600 
Q 959 1441 959 1056 
Q 959 750 1161 570 
Q 1363 391 1709 391 
Q 2188 391 2477 730 
Q 2766 1069 2766 1631 
L 2766 1759 
L 2194 1759 
z
M 3341 1997 
L 3341 0 
L 2766 0 
L 2766 531 
Q 2569 213 2275 61 
Q 1981 -91 1556 -91 
Q 1019 -91 701 211 
Q 384 513 384 1019 
Q 384 1609 779 1909 
Q 1175 2209 1959 2209 
L 2766 2209 
L 2766 2266 
Q 2766 2663 2505 2880 
Q 2244 3097 1772 3097 
Q 1472 3097 1187 3025 
Q 903 2953 641 2809 
L 641 3341 
Q 956 3463 1253 3523 
Q 1550 3584 1831 3584 
Q 2591 3584 2966 3190 
Q 3341 2797 3341 1997 
z
" transform="scale(0.015625)"/>
       <path id="DejaVuSans-69" d="M 603 3500 
L 1178 3500 
L 1178 0 
L 603 0 
L 603 3500 
z
M 603 4863 
L 1178 4863 
L 1178 4134 
L 603 4134 
L 603 4863 
z
" transform="scale(0.015625)"/>
       <path id="DejaVuSans-6e" d="M 3513 2113 
L 3513 0 
L 2938 0 
L 2938 2094 
Q 2938 2591 2744 2837 
Q 2550 3084 2163 3084 
Q 1697 3084 1428 2787 
Q 1159 2491 1159 1978 
L 1159 0 
L 581 0 
L 581 3500 
L 1159 3500 
L 1159 2956 
Q 1366 3272 1645 3428 
Q 1925 3584 2291 3584 
Q 2894 3584 3203 3211 
Q 3513 2838 3513 2113 
z
" transform="scale(0.015625)"/>
       <path id="DejaVuSans-20" transform="scale(0.015625)"/>
       <path id="DejaVuSans-73" d="M 2834 3397 
L 2834 2853 
Q 2591 2978 2328 3040 
Q 2066 3103 1784 3103 
Q 1356 3103 1142 2972 
Q 928 2841 928 2578 
Q 928 2378 1081 2264 
Q 1234 2150 1697 2047 
L 1894 2003 
Q 2506 1872 2764 1633 
Q 3022 1394 3022 966 
Q 3022 478 2636 193 
Q 2250 -91 1575 -91 
Q 1294 -91 989 -36 
Q 684 19 347 128 
L 347 722 
Q 666 556 975 473 
Q 1284 391 1588 391 
Q 1994 391 2212 530 
Q 2431 669 2431 922 
Q 2431 1156 2273 1281 
Q 2116 1406 1581 1522 
L 1381 1569 
Q 847 1681 609 1914 
Q 372 2147 372 2553 
Q 372 3047 722 3315 
Q 1072 3584 1716 3584 
Q 2034 3584 2315 3537 
Q 2597 3491 2834 3397 
z
" transform="scale(0.015625)"/>
       <path id="DejaVuSans-7a" d="M 353 3500 
L 3084 3500 
L 3084 2975 
L 922 459 
L 3084 459 
L 3084 0 
L 275 0 
L 275 525 
L 2438 3041 
L 353 3041 
L 353 3500 
z
" transform="scale(0.015625)"/>
       <path id="DejaVuSans-65" d="M 3597 1894 
L 3597 1613 
L 953 1613 
Q 991 1019 1311 708 
Q 1631 397 2203 397 
Q 2534 397 2845 478 
Q 3156 559 3463 722 
L 3463 178 
Q 3153 47 2828 -22 
Q 2503 -91 2169 -91 
Q 1331 -91 842 396 
Q 353 884 353 1716 
Q 353 2575 817 3079 
Q 1281 3584 2069 3584 
Q 2775 3584 3186 3129 
Q 3597 2675 3597 1894 
z
M 3022 2063 
Q 3016 2534 2758 2815 
Q 2500 3097 2075 3097 
Q 1594 3097 1305 2825 
Q 1016 2553 972 2059 
L 3022 2063 
z
" transform="scale(0.015625)"/>
       <path id="DejaVuSans-28" d="M 1984 4856 
Q 1566 4138 1362 3434 
Q 1159 2731 1159 2009 
Q 1159 1288 1364 580 
Q 1569 -128 1984 -844 
L 1484 -844 
Q 1016 -109 783 600 
Q 550 1309 550 2009 
Q 550 2706 781 3412 
Q 1013 4119 1484 4856 
L 1984 4856 
z
" transform="scale(0.015625)"/>
       <path id="DejaVuSans-70" d="M 1159 525 
L 1159 -1331 
L 581 -1331 
L 581 3500 
L 1159 3500 
L 1159 2969 
Q 1341 3281 1617 3432 
Q 1894 3584 2278 3584 
Q 2916 3584 3314 3078 
Q 3713 2572 3713 1747 
Q 3713 922 3314 415 
Q 2916 -91 2278 -91 
Q 1894 -91 1617 61 
Q 1341 213 1159 525 
z
M 3116 1747 
Q 3116 2381 2855 2742 
Q 2594 3103 2138 3103 
Q 1681 3103 1420 2742 
Q 1159 2381 1159 1747 
Q 1159 1113 1420 752 
Q 1681 391 2138 391 
Q 2594 391 2855 752 
Q 3116 1113 3116 1747 
z
" transform="scale(0.015625)"/>
       <path id="DejaVuSans-68" d="M 3513 2113 
L 3513 0 
L 2938 0 
L 2938 2094 
Q 2938 2591 2744 2837 
Q 2550 3084 2163 3084 
Q 1697 3084 1428 2787 
Q 1159 2491 1159 1978 
L 1159 0 
L 581 0 
L 581 4863 
L 1159 4863 
L 1159 2956 
Q 1366 3272 1645 3428 
Q 1925 3584 2291 3584 
Q 2894 3584 3203 3211 
Q 3513 2838 3513 2113 
z
" transform="scale(0.015625)"/>
       <path id="DejaVuSans-29" d="M 513 4856 
L 1013 4856 
Q 1481 4119 1714 3412 
Q 1947 2706 1947 2009 
Q 1947 1309 1714 600 
Q 1481 -109 1013 -844 
L 513 -844 
Q 928 -128 1133 580 
Q 1338 1288 1338 2009 
Q 1338 2731 1133 3434 
Q 928 4138 513 4856 
z
" transform="scale(0.015625)"/>
      </defs>
      <use xlink:href="#DejaVuSans-47"/>
      <use xlink:href="#DejaVuSans-72" transform="translate(77.490234 0)"/>
      <use xlink:href="#DejaVuSans-61" transform="translate(118.603516 0)"/>
      <use xlink:href="#DejaVuSans-69" transform="translate(179.882812 0)"/>
      <use xlink:href="#DejaVuSans-6e" transform="translate(207.666016 0)"/>
      <use xlink:href="#DejaVuSans-20" transform="translate(271.044922 0)"/>
      <use xlink:href="#DejaVuSans-73" transform="translate(302.832031 0)"/>
      <use xlink:href="#DejaVuSans-69" transform="translate(354.931641 0)"/>
      <use xlink:href="#DejaVuSans-7a" transform="translate(382.714844 0)"/>
      <use xlink:href="#DejaVuSans-65" transform="translate(435.205078 0)"/>
      <use xlink:href="#DejaVuSans-20" transform="translate(496.728516 0)"/>
      <use xlink:href="#DejaVuSans-28" transform="translate(528.515625 0)"/>
      <use xlink:href="#DejaVuSans-70" transform="translate(567.529297 0)"/>
      <use xlink:href="#DejaVuSans-68" transform="translate(631.005859 0)"/>
      <use xlink:href="#DejaVuSans-69" transform="translate(694.384766 0)"/>
      <use xlink:href="#DejaVuSans-29" transform="translate(722.167969 0)"/>
     </g>
    </g>
   </g>
   <g id="matplotlib.axis_2">
    <g id="ytick_1">
     <g id="line2d_12">
      <path d="M 40.298438 355.681037 
L 668.462074 355.681037 
" clip-path="url(#p8f6f0c1a18)" style="fill: none; stroke-dasharray: 0.4,0.66; stroke-dashoffset: 0; stroke: #b0b0b0; stroke-opacity: 0.5; stroke-width: 0.4"/>
     </g>
     <g id="line2d_13">
      <defs>
       <path id="m2bc0554fb2" d="M 0 0 
L -3.5 0 
" style="stroke: #000000; stroke-width: 0.8"/>
      </defs>
      <g>
       <use xlink:href="#m2bc0554fb2" x="40.298438" y="355.681037" style="stroke: #000000; stroke-width: 0.8"/>
      </g>
     </g>
     <g id="text_10">
      <!-- 0 -->
      <g transform="translate(27.572188 359.100334) scale(0.09 -0.09)">
       <use xlink:href="#DejaVuSans-30"/>
      </g>
     </g>
    </g>
    <g id="ytick_2">
     <g id="line2d_14">
      <path d="M 40.298438 318.480641 
L 668.462074 318.480641 
" clip-path="url(#p8f6f0c1a18)" style="fill: none; stroke-dasharray: 0.4,0.66; stroke-dashoffset: 0; stroke: #b0b0b0; stroke-opacity: 0.5; stroke-width: 0.4"/>
     </g>
     <g id="line2d_15">
      <g>
       <use xlink:href="#m2bc0554fb2" x="40.298438" y="318.480641" style="stroke: #000000; stroke-width: 0.8"/>
      </g>
     </g>
     <g id="text_11">
      <!-- 5 -->
      <g transform="translate(27.572188 321.899938) scale(0.09 -0.09)">
       <defs>
        <path id="DejaVuSans-35" d="M 691 4666 
L 3169 4666 
L 3169 4134 
L 1269 4134 
L 1269 2991 
Q 1406 3038 1543 3061 
Q 1681 3084 1819 3084 
Q 2600 3084 3056 2656 
Q 3513 2228 3513 1497 
Q 3513 744 3044 326 
Q 2575 -91 1722 -91 
Q 1428 -91 1123 -41 
Q 819 9 494 109 
L 494 744 
Q 775 591 1075 516 
Q 1375 441 1709 441 
Q 2250 441 2565 725 
Q 2881 1009 2881 1497 
Q 2881 1984 2565 2268 
Q 2250 2553 1709 2553 
Q 1456 2553 1204 2497 
Q 953 2441 691 2322 
L 691 4666 
z
" transform="scale(0.015625)"/>
       </defs>
       <use xlink:href="#DejaVuSans-35"/>
      </g>
     </g>
    </g>
    <g id="ytick_3">
     <g id="line2d_16">
      <path d="M 40.298438 281.280246 
L 668.462074 281.280246 
" clip-path="url(#p8f6f0c1a18)" style="fill: none; stroke-dasharray: 0.4,0.66; stroke-dashoffset: 0; stroke: #b0b0b0; stroke-opacity: 0.5; stroke-width: 0.4"/>
     </g>
     <g id="line2d_17">
      <g>
       <use xlink:href="#m2bc0554fb2" x="40.298438" y="281.280246" style="stroke: #000000; stroke-width: 0.8"/>
      </g>
     </g>
     <g id="text_12">
      <!-- 10 -->
      <g transform="translate(21.845938 284.699543) scale(0.09 -0.09)">
       <use xlink:href="#DejaVuSans-31"/>
       <use xlink:href="#DejaVuSans-30" transform="translate(63.623047 0)"/>
      </g>
     </g>
    </g>
    <g id="ytick_4">
     <g id="line2d_18">
      <path d="M 40.298438 244.07985 
L 668.462074 244.07985 
" clip-path="url(#p8f6f0c1a18)" style="fill: none; stroke-dasharray: 0.4,0.66; stroke-dashoffset: 0; stroke: #b0b0b0; stroke-opacity: 0.5; stroke-width: 0.4"/>
     </g>
     <g id="line2d_19">
      <g>
       <use xlink:href="#m2bc0554fb2" x="40.298438" y="244.07985" style="stroke: #000000; stroke-width: 0.8"/>
      </g>
     </g>
     <g id="text_13">
      <!-- 15 -->
      <g transform="translate(21.845938 247.499147) scale(0.09 -0.09)">
       <use xlink:href="#DejaVuSans-31"/>
       <use xlink:href="#DejaVuSans-35" transform="translate(63.623047 0)"/>
      </g>
     </g>
    </g>
    <g id="ytick_5">
     <g id="line2d_20">
      <path d="M 40.298438 206.879455 
L 668.462074 206.879455 
" clip-path="url(#p8f6f0c1a18)" style="fill: none; stroke-dasharray: 0.4,0.66; stroke-dashoffset: 0; stroke: #b0b0b0; stroke-opacity: 0.5; stroke-width: 0.4"/>
     </g>
     <g id="line2d_21">
      <g>
       <use xlink:href="#m2bc0554fb2" x="40.298438" y="206.879455" style="stroke: #000000; stroke-width: 0.8"/>
      </g>
     </g>
     <g id="text_14">
      <!-- 20 -->
      <g transform="translate(21.845938 210.298752) scale(0.09 -0.09)">
       <use xlink:href="#DejaVuSans-32"/>
       <use xlink:href="#DejaVuSans-30" transform="translate(63.623047 0)"/>
      </g>
     </g>
    </g>
    <g id="ytick_6">
     <g id="line2d_22">
      <path d="M 40.298438 169.679059 
L 668.462074 169.679059 
" clip-path="url(#p8f6f0c1a18)" style="fill: none; stroke-dasharray: 0.4,0.66; stroke-dashoffset: 0; stroke: #b0b0b0; stroke-opacity: 0.5; stroke-width: 0.4"/>
     </g>
     <g id="line2d_23">
      <g>
       <use xlink:href="#m2bc0554fb2" x="40.298438" y="169.679059" style="stroke: #000000; stroke-width: 0.8"/>
      </g>
     </g>
     <g id="text_15">
      <!-- 25 -->
      <g transform="translate(21.845938 173.098356) scale(0.09 -0.09)">
       <use xlink:href="#DejaVuSans-32"/>
       <use xlink:href="#DejaVuSans-35" transform="translate(63.623047 0)"/>
      </g>
     </g>
    </g>
    <g id="ytick_7">
     <g id="line2d_24">
      <path d="M 40.298438 132.478664 
L 668.462074 132.478664 
" clip-path="url(#p8f6f0c1a18)" style="fill: none; stroke-dasharray: 0.4,0.66; stroke-dashoffset: 0; stroke: #b0b0b0; stroke-opacity: 0.5; stroke-width: 0.4"/>
     </g>
     <g id="line2d_25">
      <g>
       <use xlink:href="#m2bc0554fb2" x="40.298438" y="132.478664" style="stroke: #000000; stroke-width: 0.8"/>
      </g>
     </g>
     <g id="text_16">
      <!-- 30 -->
      <g transform="translate(21.845938 135.897961) scale(0.09 -0.09)">
       <defs>
        <path id="DejaVuSans-33" d="M 2597 2516 
Q 3050 2419 3304 2112 
Q 3559 1806 3559 1356 
Q 3559 666 3084 287 
Q 2609 -91 1734 -91 
Q 1441 -91 1130 -33 
Q 819 25 488 141 
L 488 750 
Q 750 597 1062 519 
Q 1375 441 1716 441 
Q 2309 441 2620 675 
Q 2931 909 2931 1356 
Q 2931 1769 2642 2001 
Q 2353 2234 1838 2234 
L 1294 2234 
L 1294 2753 
L 1863 2753 
Q 2328 2753 2575 2939 
Q 2822 3125 2822 3475 
Q 2822 3834 2567 4026 
Q 2313 4219 1838 4219 
Q 1578 4219 1281 4162 
Q 984 4106 628 3988 
L 628 4550 
Q 988 4650 1302 4700 
Q 1616 4750 1894 4750 
Q 2613 4750 3031 4423 
Q 3450 4097 3450 3541 
Q 3450 3153 3228 2886 
Q 3006 2619 2597 2516 
z
" transform="scale(0.015625)"/>
       </defs>
       <use xlink:href="#DejaVuSans-33"/>
       <use xlink:href="#DejaVuSans-30" transform="translate(63.623047 0)"/>
      </g>
     </g>
    </g>
    <g id="ytick_8">
     <g id="line2d_26">
      <path d="M 40.298438 95.278268 
L 668.462074 95.278268 
" clip-path="url(#p8f6f0c1a18)" style="fill: none; stroke-dasharray: 0.4,0.66; stroke-dashoffset: 0; stroke: #b0b0b0; stroke-opacity: 0.5; stroke-width: 0.4"/>
     </g>
     <g id="line2d_27">
      <g>
       <use xlink:href="#m2bc0554fb2" x="40.298438" y="95.278268" style="stroke: #000000; stroke-width: 0.8"/>
      </g>
     </g>
     <g id="text_17">
      <!-- 35 -->
      <g transform="translate(21.845938 98.697565) scale(0.09 -0.09)">
       <use xlink:href="#DejaVuSans-33"/>
       <use xlink:href="#DejaVuSans-35" transform="translate(63.623047 0)"/>
      </g>
     </g>
    </g>
    <g id="ytick_9">
     <g id="line2d_28">
      <path d="M 40.298438 58.077873 
L 668.462074 58.077873 
" clip-path="url(#p8f6f0c1a18)" style="fill: none; stroke-dasharray: 0.4,0.66; stroke-dashoffset: 0; stroke: #b0b0b0; stroke-opacity: 0.5; stroke-width: 0.4"/>
     </g>
     <g id="line2d_29">
      <g>
       <use xlink:href="#m2bc0554fb2" x="40.298438" y="58.077873" style="stroke: #000000; stroke-width: 0.8"/>
      </g>
     </g>
     <g id="text_18">
      <!-- 40 -->
      <g transform="translate(21.845938 61.49717) scale(0.09 -0.09)">
       <use xlink:href="#DejaVuSans-34"/>
       <use xlink:href="#DejaVuSans-30" transform="translate(63.623047 0)"/>
      </g>
     </g>
    </g>
    <g id="text_19">
     <!-- Weight % -->
     <g transform="translate(15.558281 227.924581) rotate(-90) scale(0.11 -0.11)">
      <defs>
       <path id="DejaVuSans-57" d="M 213 4666 
L 850 4666 
L 1831 722 
L 2809 4666 
L 3519 4666 
L 4500 722 
L 5478 4666 
L 6119 4666 
L 4947 0 
L 4153 0 
L 3169 4050 
L 2175 0 
L 1381 0 
L 213 4666 
z
" transform="scale(0.015625)"/>
       <path id="DejaVuSans-67" d="M 2906 1791 
Q 2906 2416 2648 2759 
Q 2391 3103 1925 3103 
Q 1463 3103 1205 2759 
Q 947 2416 947 1791 
Q 947 1169 1205 825 
Q 1463 481 1925 481 
Q 2391 481 2648 825 
Q 2906 1169 2906 1791 
z
M 3481 434 
Q 3481 -459 3084 -895 
Q 2688 -1331 1869 -1331 
Q 1566 -1331 1297 -1286 
Q 1028 -1241 775 -1147 
L 775 -588 
Q 1028 -725 1275 -790 
Q 1522 -856 1778 -856 
Q 2344 -856 2625 -561 
Q 2906 -266 2906 331 
L 2906 616 
Q 2728 306 2450 153 
Q 2172 0 1784 0 
Q 1141 0 747 490 
Q 353 981 353 1791 
Q 353 2603 747 3093 
Q 1141 3584 1784 3584 
Q 2172 3584 2450 3431 
Q 2728 3278 2906 2969 
L 2906 3500 
L 3481 3500 
L 3481 434 
z
" transform="scale(0.015625)"/>
       <path id="DejaVuSans-74" d="M 1172 4494 
L 1172 3500 
L 2356 3500 
L 2356 3053 
L 1172 3053 
L 1172 1153 
Q 1172 725 1289 603 
Q 1406 481 1766 481 
L 2356 481 
L 2356 0 
L 1766 0 
Q 1100 0 847 248 
Q 594 497 594 1153 
L 594 3053 
L 172 3053 
L 172 3500 
L 594 3500 
L 594 4494 
L 1172 4494 
z
" transform="scale(0.015625)"/>
       <path id="DejaVuSans-25" d="M 4653 2053 
Q 4381 2053 4226 1822 
Q 4072 1591 4072 1178 
Q 4072 772 4226 539 
Q 4381 306 4653 306 
Q 4919 306 5073 539 
Q 5228 772 5228 1178 
Q 5228 1588 5073 1820 
Q 4919 2053 4653 2053 
z
M 4653 2450 
Q 5147 2450 5437 2106 
Q 5728 1763 5728 1178 
Q 5728 594 5436 251 
Q 5144 -91 4653 -91 
Q 4153 -91 3862 251 
Q 3572 594 3572 1178 
Q 3572 1766 3864 2108 
Q 4156 2450 4653 2450 
z
M 1428 4353 
Q 1159 4353 1004 4120 
Q 850 3888 850 3481 
Q 850 3069 1003 2837 
Q 1156 2606 1428 2606 
Q 1700 2606 1854 2837 
Q 2009 3069 2009 3481 
Q 2009 3884 1853 4118 
Q 1697 4353 1428 4353 
z
M 4250 4750 
L 4750 4750 
L 1831 -91 
L 1331 -91 
L 4250 4750 
z
M 1428 4750 
Q 1922 4750 2215 4408 
Q 2509 4066 2509 3481 
Q 2509 2891 2217 2550 
Q 1925 2209 1428 2209 
Q 931 2209 642 2551 
Q 353 2894 353 3481 
Q 353 4063 643 4406 
Q 934 4750 1428 4750 
z
" transform="scale(0.015625)"/>
      </defs>
      <use xlink:href="#DejaVuSans-57"/>
      <use xlink:href="#DejaVuSans-65" transform="translate(93.001953 0)"/>
      <use xlink:href="#DejaVuSans-69" transform="translate(154.525391 0)"/>
      <use xlink:href="#DejaVuSans-67" transform="translate(182.308594 0)"/>
      <use xlink:href="#DejaVuSans-68" transform="translate(245.785156 0)"/>
      <use xlink:href="#DejaVuSans-74" transform="translate(309.164062 0)"/>
      <use xlink:href="#DejaVuSans-20" transform="translate(348.373047 0)"/>
      <use xlink:href="#DejaVuSans-25" transform="translate(380.160156 0)"/>
     </g>
    </g>
   </g>
   <g id="patch_7">
    <path d="M 40.298438 355.681037 
L 40.298438 47.899219 
" style="fill: none; stroke: #404040; stroke-width: 0.9; stroke-linejoin: miter; stroke-linecap: square"/>
   </g>
   <g id="patch_8">
    <path d="M 668.462074 355.681037 
L 668.462074 47.899219 
" style="fill: none; stroke: #404040; stroke-width: 0.9; stroke-linejoin: miter; stroke-linecap: square"/>
   </g>
   <g id="patch_9">
    <path d="M 40.298438 355.681037 
L 668.462074 355.681037 
" style="fill: none; stroke: #404040; stroke-width: 0.9; stroke-linejoin: miter; stroke-linecap: square"/>
   </g>
   <g id="patch_10">
    <path d="M 40.298438 47.899219 
L 668.462074 47.899219 
" style="fill: none; stroke: #404040; stroke-width: 0.9; stroke-linejoin: miter; stroke-linecap: square"/>
   </g>
   <g id="patch_11">
    <path d="M 59.104571 355.681037 
L 68.022944 355.681037 
L 68.022944 355.681037 
L 59.104571 355.681037 
z
" clip-path="url(#p8f6f0c1a18)" style="fill: #c49464; stroke: #333333; stroke-width: 0.6; stroke-linejoin: miter"/>
   </g>
   <g id="patch_12">
    <path d="M 68.798454 355.681037 
L 77.716827 355.681037 
L 77.716827 355.681037 
L 68.798454 355.681037 
z
" clip-path="url(#p8f6f0c1a18)" style="fill: #c49464; stroke: #333333; stroke-width: 0.6; stroke-linejoin: miter"/>
   </g>
   <g id="patch_13">
    <path d="M 78.492338 355.681037 
L 87.41071 355.681037 
L 87.41071 355.681037 
L 78.492338 355.681037 
z
" clip-path="url(#p8f6f0c1a18)" style="fill: #c49464; stroke: #333333; stroke-width: 0.6; stroke-linejoin: miter"/>
   </g>
   <g id="patch_14">
    <path d="M 88.186221 355.681037 
L 97.104594 355.681037 
L 97.104594 355.681037 
L 88.186221 355.681037 
z
" clip-path="url(#p8f6f0c1a18)" style="fill: #c49464; stroke: #333333; stroke-width: 0.6; stroke-linejoin: miter"/>
   </g>
   <g id="patch_15">
    <path d="M 97.880104 355.681037 
L 106.798477 355.681037 
L 106.798477 355.681037 
L 97.880104 355.681037 
z
" clip-path="url(#p8f6f0c1a18)" style="fill: #c49464; stroke: #333333; stroke-width: 0.6; stroke-linejoin: miter"/>
   </g>
   <g id="patch_16">
    <path d="M 107.573987 355.681037 
L 116.49236 355.681037 
L 116.49236 355.681037 
L 107.573987 355.681037 
z
" clip-path="url(#p8f6f0c1a18)" style="fill: #c49464; stroke: #333333; stroke-width: 0.6; stroke-linejoin: miter"/>
   </g>
   <g id="patch_17">
    <path d="M 117.267871 355.681037 
L 126.186243 355.681037 
L 126.186243 355.681037 
L 117.267871 355.681037 
z
" clip-path="url(#p8f6f0c1a18)" style="fill: #c49464; stroke: #333333; stroke-width: 0.6; stroke-linejoin: miter"/>
   </g>
   <g id="patch_18">
    <path d="M 126.961754 355.681037 
L 135.880127 355.681037 
L 135.880127 355.681037 
L 126.961754 355.681037 
z
" clip-path="url(#p8f6f0c1a18)" style="fill: #c49464; stroke: #333333; stroke-width: 0.6; stroke-linejoin: miter"/>
   </g>
   <g id="patch_19">
    <path d="M 136.655637 355.681037 
L 145.57401 355.681037 
L 145.57401 355.681037 
L 136.655637 355.681037 
z
" clip-path="url(#p8f6f0c1a18)" style="fill: #c49464; stroke: #333333; stroke-width: 0.6; stroke-linejoin: miter"/>
   </g>
   <g id="patch_20">
    <path d="M 146.349521 355.681037 
L 155.267893 355.681037 
L 155.267893 355.681037 
L 146.349521 355.681037 
z
" clip-path="url(#p8f6f0c1a18)" style="fill: #c49464; stroke: #333333; stroke-width: 0.6; stroke-linejoin: miter"/>
   </g>
   <g id="patch_21">
    <path d="M 156.043404 355.681037 
L 164.961776 355.681037 
L 164.961776 355.681037 
L 156.043404 355.681037 
z
" clip-path="url(#p8f6f0c1a18)" style="fill: #c49464; stroke: #333333; stroke-width: 0.6; stroke-linejoin: miter"/>
   </g>
   <g id="patch_22">
    <path d="M 165.737287 355.681037 
L 174.65566 355.681037 
L 174.65566 355.681037 
L 165.737287 355.681037 
z
" clip-path="url(#p8f6f0c1a18)" style="fill: #c49464; stroke: #333333; stroke-width: 0.6; stroke-linejoin: miter"/>
   </g>
   <g id="patch_23">
    <path d="M 175.43117 355.681037 
L 184.349543 355.681037 
L 184.349543 355.681037 
L 175.43117 355.681037 
z
" clip-path="url(#p8f6f0c1a18)" style="fill: #f4c95d; stroke: #333333; stroke-width: 0.6; stroke-linejoin: miter"/>
   </g>
   <g id="patch_24">
    <path d="M 185.125054 355.681037 
L 194.043426 355.681037 
L 194.043426 355.681037 
L 185.125054 355.681037 
z
" clip-path="url(#p8f6f0c1a18)" style="fill: #f4c95d; stroke: #333333; stroke-width: 0.6; stroke-linejoin: miter"/>
   </g>
   <g id="patch_25">
    <path d="M 194.818937 355.681037 
L 203.73731 355.681037 
L 203.73731 355.681037 
L 194.818937 355.681037 
z
" clip-path="url(#p8f6f0c1a18)" style="fill: #f4c95d; stroke: #333333; stroke-width: 0.6; stroke-linejoin: miter"/>
   </g>
   <g id="patch_26">
    <path d="M 204.51282 355.681037 
L 213.431193 355.681037 
L 213.431193 355.681037 
L 204.51282 355.681037 
z
" clip-path="url(#p8f6f0c1a18)" style="fill: #f4c95d; stroke: #333333; stroke-width: 0.6; stroke-linejoin: miter"/>
   </g>
   <g id="patch_27">
    <path d="M 214.206703 355.681037 
L 223.125076 355.681037 
L 223.125076 355.681037 
L 214.206703 355.681037 
z
" clip-path="url(#p8f6f0c1a18)" style="fill: #f4c95d; stroke: #333333; stroke-width: 0.6; stroke-linejoin: miter"/>
   </g>
   <g id="patch_28">
    <path d="M 223.900587 355.681037 
L 232.818959 355.681037 
L 232.818959 355.680293 
L 223.900587 355.680293 
z
" clip-path="url(#p8f6f0c1a18)" style="fill: #f4c95d; stroke: #333333; stroke-width: 0.6; stroke-linejoin: miter"/>
   </g>
   <g id="patch_29">
    <path d="M 233.59447 355.681037 
L 242.512843 355.681037 
L 242.512843 355.651277 
L 233.59447 355.651277 
z
" clip-path="url(#p8f6f0c1a18)" style="fill: #f4c95d; stroke: #333333; stroke-width: 0.6; stroke-linejoin: miter"/>
   </g>
   <g id="patch_30">
    <path d="M 243.288353 355.681037 
L 252.206726 355.681037 
L 252.206726 354.955627 
L 243.288353 354.955627 
z
" clip-path="url(#p8f6f0c1a18)" style="fill: #f4c95d; stroke: #333333; stroke-width: 0.6; stroke-linejoin: miter"/>
   </g>
   <g id="patch_31">
    <path d="M 252.982237 355.681037 
L 261.900609 355.681037 
L 261.900609 346.232852 
L 252.982237 346.232852 
z
" clip-path="url(#p8f6f0c1a18)" style="fill: #f4c95d; stroke: #333333; stroke-width: 0.6; stroke-linejoin: miter"/>
   </g>
   <g id="patch_32">
    <path d="M 262.67612 355.681037 
L 271.594492 355.681037 
L 271.594492 298.151941 
L 262.67612 298.151941 
z
" clip-path="url(#p8f6f0c1a18)" style="fill: #f4c95d; stroke: #333333; stroke-width: 0.6; stroke-linejoin: miter"/>
   </g>
   <g id="patch_33">
    <path d="M 272.370003 355.681037 
L 281.288376 355.681037 
L 281.288376 201.130042 
L 272.370003 201.130042 
z
" clip-path="url(#p8f6f0c1a18)" style="fill: #f4c95d; stroke: #333333; stroke-width: 0.6; stroke-linejoin: miter"/>
   </g>
   <g id="patch_34">
    <path d="M 282.063886 355.681037 
L 290.982259 355.681037 
L 290.982259 99.196188 
L 282.063886 99.196188 
z
" clip-path="url(#p8f6f0c1a18)" style="fill: #f4c95d; stroke: #ff0000; stroke-width: 2.2; stroke-linejoin: miter"/>
   </g>
   <g id="patch_35">
    <path d="M 291.75777 355.681037 
L 300.676142 355.681037 
L 300.676142 181.15709 
L 291.75777 181.15709 
z
" clip-path="url(#p8f6f0c1a18)" style="fill: #f4c95d; stroke: #333333; stroke-width: 0.6; stroke-linejoin: miter"/>
   </g>
   <g id="patch_36">
    <path d="M 301.451653 355.681037 
L 310.370026 355.681037 
L 310.370026 285.273869 
L 301.451653 285.273869 
z
" clip-path="url(#p8f6f0c1a18)" style="fill: #f4c95d; stroke: #333333; stroke-width: 0.6; stroke-linejoin: miter"/>
   </g>
   <g id="patch_37">
    <path d="M 311.145536 355.681037 
L 320.063909 355.681037 
L 320.063909 343.69429 
L 311.145536 343.69429 
z
" clip-path="url(#p8f6f0c1a18)" style="fill: #f4c95d; stroke: #333333; stroke-width: 0.6; stroke-linejoin: miter"/>
   </g>
   <g id="patch_38">
    <path d="M 320.83942 355.681037 
L 329.757792 355.681037 
L 329.757792 354.480205 
L 320.83942 354.480205 
z
" clip-path="url(#p8f6f0c1a18)" style="fill: #f4c95d; stroke: #333333; stroke-width: 0.6; stroke-linejoin: miter"/>
   </g>
   <g id="patch_39">
    <path d="M 330.533303 355.681037 
L 339.451675 355.681037 
L 339.451675 355.472714 
L 330.533303 355.472714 
z
" clip-path="url(#p8f6f0c1a18)" style="fill: #f4c95d; stroke: #333333; stroke-width: 0.6; stroke-linejoin: miter"/>
   </g>
   <g id="patch_40">
    <path d="M 340.227186 355.681037 
L 349.145559 355.681037 
L 349.145559 355.375993 
L 340.227186 355.375993 
z
" clip-path="url(#p8f6f0c1a18)" style="fill: #f4c95d; stroke: #333333; stroke-width: 0.6; stroke-linejoin: miter"/>
   </g>
   <g id="patch_41">
    <path d="M 349.921069 355.681037 
L 358.839442 355.681037 
L 358.839442 355.256951 
L 349.921069 355.256951 
z
" clip-path="url(#p8f6f0c1a18)" style="fill: #f4c95d; stroke: #333333; stroke-width: 0.6; stroke-linejoin: miter"/>
   </g>
   <g id="patch_42">
    <path d="M 359.614953 355.681037 
L 368.533325 355.681037 
L 368.533325 355.128237 
L 359.614953 355.128237 
z
" clip-path="url(#p8f6f0c1a18)" style="fill: #f4c95d; stroke: #333333; stroke-width: 0.6; stroke-linejoin: miter"/>
   </g>
   <g id="patch_43">
    <path d="M 369.308836 355.681037 
L 378.227209 355.681037 
L 378.227209 354.914706 
L 369.308836 354.914706 
z
" clip-path="url(#p8f6f0c1a18)" style="fill: #94bd7a; stroke: #333333; stroke-width: 0.6; stroke-linejoin: miter"/>
   </g>
   <g id="patch_44">
    <path d="M 379.002719 355.681037 
L 387.921092 355.681037 
L 387.921092 354.849978 
L 379.002719 354.849978 
z
" clip-path="url(#p8f6f0c1a18)" style="fill: #94bd7a; stroke: #333333; stroke-width: 0.6; stroke-linejoin: miter"/>
   </g>
   <g id="patch_45">
    <path d="M 388.696602 355.681037 
L 397.614975 355.681037 
L 397.614975 354.814265 
L 388.696602 354.814265 
z
" clip-path="url(#p8f6f0c1a18)" style="fill: #94bd7a; stroke: #333333; stroke-width: 0.6; stroke-linejoin: miter"/>
   </g>
   <g id="patch_46">
    <path d="M 398.390486 355.681037 
L 407.308858 355.681037 
L 407.308858 354.796409 
L 398.390486 354.796409 
z
" clip-path="url(#p8f6f0c1a18)" style="fill: #94bd7a; stroke: #333333; stroke-width: 0.6; stroke-linejoin: miter"/>
   </g>
   <g id="patch_47">
    <path d="M 408.084369 355.681037 
L 417.002742 355.681037 
L 417.002742 354.948931 
L 408.084369 354.948931 
z
" clip-path="url(#p8f6f0c1a18)" style="fill: #94bd7a; stroke: #333333; stroke-width: 0.6; stroke-linejoin: miter"/>
   </g>
   <g id="patch_48">
    <path d="M 417.778252 355.681037 
L 426.696625 355.681037 
L 426.696625 355.100709 
L 417.778252 355.100709 
z
" clip-path="url(#p8f6f0c1a18)" style="fill: #94bd7a; stroke: #333333; stroke-width: 0.6; stroke-linejoin: miter"/>
   </g>
   <g id="patch_49">
    <path d="M 427.472136 355.681037 
L 436.390508 355.681037 
L 436.390508 355.274063 
L 427.472136 355.274063 
z
" clip-path="url(#p8f6f0c1a18)" style="fill: #94bd7a; stroke: #333333; stroke-width: 0.6; stroke-linejoin: miter"/>
   </g>
   <g id="patch_50">
    <path d="M 437.166019 355.681037 
L 446.084391 355.681037 
L 446.084391 355.414681 
L 437.166019 355.414681 
z
" clip-path="url(#p8f6f0c1a18)" style="fill: #94bd7a; stroke: #333333; stroke-width: 0.6; stroke-linejoin: miter"/>
   </g>
   <g id="patch_51">
    <path d="M 446.859902 355.681037 
L 455.778275 355.681037 
L 455.778275 355.524795 
L 446.859902 355.524795 
z
" clip-path="url(#p8f6f0c1a18)" style="fill: #94bd7a; stroke: #333333; stroke-width: 0.6; stroke-linejoin: miter"/>
   </g>
   <g id="patch_52">
    <path d="M 456.553785 355.681037 
L 465.472158 355.681037 
L 465.472158 355.60738 
L 456.553785 355.60738 
z
" clip-path="url(#p8f6f0c1a18)" style="fill: #94bd7a; stroke: #333333; stroke-width: 0.6; stroke-linejoin: miter"/>
   </g>
   <g id="patch_53">
    <path d="M 466.247669 355.681037 
L 475.166041 355.681037 
L 475.166041 355.64086 
L 466.247669 355.64086 
z
" clip-path="url(#p8f6f0c1a18)" style="fill: #94bd7a; stroke: #333333; stroke-width: 0.6; stroke-linejoin: miter"/>
   </g>
   <g id="patch_54">
    <path d="M 475.941552 355.681037 
L 484.859925 355.681037 
L 484.859925 355.664669 
L 475.941552 355.664669 
z
" clip-path="url(#p8f6f0c1a18)" style="fill: #94bd7a; stroke: #333333; stroke-width: 0.6; stroke-linejoin: miter"/>
   </g>
   <g id="patch_55">
    <path d="M 485.635435 355.681037 
L 494.553808 355.681037 
L 494.553808 355.675085 
L 485.635435 355.675085 
z
" clip-path="url(#p8f6f0c1a18)" style="fill: #94bd7a; stroke: #333333; stroke-width: 0.6; stroke-linejoin: miter"/>
   </g>
   <g id="patch_56">
    <path d="M 495.329319 355.681037 
L 504.247691 355.681037 
L 504.247691 355.678805 
L 495.329319 355.678805 
z
" clip-path="url(#p8f6f0c1a18)" style="fill: #94bd7a; stroke: #333333; stroke-width: 0.6; stroke-linejoin: miter"/>
   </g>
   <g id="patch_57">
    <path d="M 505.023202 355.681037 
L 513.941574 355.681037 
L 513.941574 355.680293 
L 505.023202 355.680293 
z
" clip-path="url(#p8f6f0c1a18)" style="fill: #94bd7a; stroke: #333333; stroke-width: 0.6; stroke-linejoin: miter"/>
   </g>
   <g id="patch_58">
    <path d="M 514.717085 355.681037 
L 523.635458 355.681037 
L 523.635458 355.681037 
L 514.717085 355.681037 
z
" clip-path="url(#p8f6f0c1a18)" style="fill: #94bd7a; stroke: #333333; stroke-width: 0.6; stroke-linejoin: miter"/>
   </g>
   <g id="patch_59">
    <path d="M 524.410968 355.681037 
L 533.329341 355.681037 
L 533.329341 355.681037 
L 524.410968 355.681037 
z
" clip-path="url(#p8f6f0c1a18)" style="fill: #6fa8dc; stroke: #333333; stroke-width: 0.6; stroke-linejoin: miter"/>
   </g>
   <g id="patch_60">
    <path d="M 534.104852 355.681037 
L 543.023224 355.681037 
L 543.023224 355.681037 
L 534.104852 355.681037 
z
" clip-path="url(#p8f6f0c1a18)" style="fill: #6fa8dc; stroke: #333333; stroke-width: 0.6; stroke-linejoin: miter"/>
   </g>
   <g id="patch_61">
    <path d="M 543.798735 355.681037 
L 552.717108 355.681037 
L 552.717108 355.681037 
L 543.798735 355.681037 
z
" clip-path="url(#p8f6f0c1a18)" style="fill: #6fa8dc; stroke: #333333; stroke-width: 0.6; stroke-linejoin: miter"/>
   </g>
   <g id="patch_62">
    <path d="M 553.492618 355.681037 
L 562.410991 355.681037 
L 562.410991 355.681037 
L 553.492618 355.681037 
z
" clip-path="url(#p8f6f0c1a18)" style="fill: #6fa8dc; stroke: #333333; stroke-width: 0.6; stroke-linejoin: miter"/>
   </g>
   <g id="patch_63">
    <path d="M 563.186501 355.681037 
L 572.104874 355.681037 
L 572.104874 355.681037 
L 563.186501 355.681037 
z
" clip-path="url(#p8f6f0c1a18)" style="fill: #6fa8dc; stroke: #333333; stroke-width: 0.6; stroke-linejoin: miter"/>
   </g>
   <g id="patch_64">
    <path d="M 572.880385 355.681037 
L 581.798757 355.681037 
L 581.798757 355.681037 
L 572.880385 355.681037 
z
" clip-path="url(#p8f6f0c1a18)" style="fill: #6fa8dc; stroke: #333333; stroke-width: 0.6; stroke-linejoin: miter"/>
   </g>
   <g id="patch_65">
    <path d="M 582.574268 355.681037 
L 591.492641 355.681037 
L 591.492641 355.681037 
L 582.574268 355.681037 
z
" clip-path="url(#p8f6f0c1a18)" style="fill: #6fa8dc; stroke: #333333; stroke-width: 0.6; stroke-linejoin: miter"/>
   </g>
   <g id="patch_66">
    <path d="M 592.268151 355.681037 
L 601.186524 355.681037 
L 601.186524 355.681037 
L 592.268151 355.681037 
z
" clip-path="url(#p8f6f0c1a18)" style="fill: #6fa8dc; stroke: #333333; stroke-width: 0.6; stroke-linejoin: miter"/>
   </g>
   <g id="patch_67">
    <path d="M 601.962035 355.681037 
L 610.880407 355.681037 
L 610.880407 355.681037 
L 601.962035 355.681037 
z
" clip-path="url(#p8f6f0c1a18)" style="fill: #6fa8dc; stroke: #333333; stroke-width: 0.6; stroke-linejoin: miter"/>
   </g>
   <g id="patch_68">
    <path d="M 611.655918 355.681037 
L 620.57429 355.681037 
L 620.57429 355.681037 
L 611.655918 355.681037 
z
" clip-path="url(#p8f6f0c1a18)" style="fill: #6fa8dc; stroke: #333333; stroke-width: 0.6; stroke-linejoin: miter"/>
   </g>
   <g id="patch_69">
    <path d="M 621.349801 355.681037 
L 630.268174 355.681037 
L 630.268174 355.681037 
L 621.349801 355.681037 
z
" clip-path="url(#p8f6f0c1a18)" style="fill: #6fa8dc; stroke: #333333; stroke-width: 0.6; stroke-linejoin: miter"/>
   </g>
   <g id="patch_70">
    <path d="M 631.043684 355.681037 
L 639.962057 355.681037 
L 639.962057 355.681037 
L 631.043684 355.681037 
z
" clip-path="url(#p8f6f0c1a18)" style="fill: #6fa8dc; stroke: #333333; stroke-width: 0.6; stroke-linejoin: miter"/>
   </g>
   <g id="patch_71">
    <path d="M 640.737568 355.681037 
L 649.65594 355.681037 
L 649.65594 355.681037 
L 640.737568 355.681037 
z
" clip-path="url(#p8f6f0c1a18)" style="fill: #6fa8dc; stroke: #333333; stroke-width: 0.6; stroke-linejoin: miter"/>
   </g>
   <g id="text_20">
    <!-- BCH-04 - Grain-size histogram -->
    <g transform="translate(252.402756 16.318125) scale(0.12 -0.12)">
     <defs>
      <path id="DejaVuSans-Bold-42" d="M 2456 2859 
Q 2741 2859 2887 2984 
Q 3034 3109 3034 3353 
Q 3034 3594 2887 3720 
Q 2741 3847 2456 3847 
L 1791 3847 
L 1791 2859 
L 2456 2859 
z
M 2497 819 
Q 2859 819 3042 972 
Q 3225 1125 3225 1434 
Q 3225 1738 3044 1889 
Q 2863 2041 2497 2041 
L 1791 2041 
L 1791 819 
L 2497 819 
z
M 3616 2497 
Q 4003 2384 4215 2081 
Q 4428 1778 4428 1338 
Q 4428 663 3972 331 
Q 3516 0 2584 0 
L 588 0 
L 588 4666 
L 2394 4666 
Q 3366 4666 3802 4372 
Q 4238 4078 4238 3431 
Q 4238 3091 4078 2852 
Q 3919 2613 3616 2497 
z
" transform="scale(0.015625)"/>
      <path id="DejaVuSans-Bold-43" d="M 4288 256 
Q 3956 84 3597 -3 
Q 3238 -91 2847 -91 
Q 1681 -91 1000 561 
Q 319 1213 319 2328 
Q 319 3447 1000 4098 
Q 1681 4750 2847 4750 
Q 3238 4750 3597 4662 
Q 3956 4575 4288 4403 
L 4288 3438 
Q 3953 3666 3628 3772 
Q 3303 3878 2944 3878 
Q 2300 3878 1931 3465 
Q 1563 3053 1563 2328 
Q 1563 1606 1931 1193 
Q 2300 781 2944 781 
Q 3303 781 3628 887 
Q 3953 994 4288 1222 
L 4288 256 
z
" transform="scale(0.015625)"/>
      <path id="DejaVuSans-Bold-48" d="M 588 4666 
L 1791 4666 
L 1791 2888 
L 3566 2888 
L 3566 4666 
L 4769 4666 
L 4769 0 
L 3566 0 
L 3566 1978 
L 1791 1978 
L 1791 0 
L 588 0 
L 588 4666 
z
" transform="scale(0.015625)"/>
      <path id="DejaVuSans-Bold-2d" d="M 347 2297 
L 2309 2297 
L 2309 1388 
L 347 1388 
L 347 2297 
z
" transform="scale(0.015625)"/>
      <path id="DejaVuSans-Bold-30" d="M 2944 2338 
Q 2944 3213 2780 3570 
Q 2616 3928 2228 3928 
Q 1841 3928 1675 3570 
Q 1509 3213 1509 2338 
Q 1509 1453 1675 1090 
Q 1841 728 2228 728 
Q 2613 728 2778 1090 
Q 2944 1453 2944 2338 
z
M 4147 2328 
Q 4147 1169 3647 539 
Q 3147 -91 2228 -91 
Q 1306 -91 806 539 
Q 306 1169 306 2328 
Q 306 3491 806 4120 
Q 1306 4750 2228 4750 
Q 3147 4750 3647 4120 
Q 4147 3491 4147 2328 
z
" transform="scale(0.015625)"/>
      <path id="DejaVuSans-Bold-34" d="M 2356 3675 
L 1038 1722 
L 2356 1722 
L 2356 3675 
z
M 2156 4666 
L 3494 4666 
L 3494 1722 
L 4159 1722 
L 4159 850 
L 3494 850 
L 3494 0 
L 2356 0 
L 2356 850 
L 288 850 
L 288 1881 
L 2156 4666 
z
" transform="scale(0.015625)"/>
      <path id="DejaVuSans-Bold-20" transform="scale(0.015625)"/>
      <path id="DejaVuSans-Bold-47" d="M 4781 347 
Q 4331 128 3847 18 
Q 3363 -91 2847 -91 
Q 1681 -91 1000 561 
Q 319 1213 319 2328 
Q 319 3456 1012 4103 
Q 1706 4750 2913 4750 
Q 3378 4750 3804 4662 
Q 4231 4575 4609 4403 
L 4609 3438 
Q 4219 3659 3833 3768 
Q 3447 3878 3059 3878 
Q 2341 3878 1952 3476 
Q 1563 3075 1563 2328 
Q 1563 1588 1938 1184 
Q 2313 781 3003 781 
Q 3191 781 3352 804 
Q 3513 828 3641 878 
L 3641 1784 
L 2906 1784 
L 2906 2591 
L 4781 2591 
L 4781 347 
z
" transform="scale(0.015625)"/>
      <path id="DejaVuSans-Bold-72" d="M 3138 2547 
Q 2991 2616 2845 2648 
Q 2700 2681 2553 2681 
Q 2122 2681 1889 2404 
Q 1656 2128 1656 1613 
L 1656 0 
L 538 0 
L 538 3500 
L 1656 3500 
L 1656 2925 
Q 1872 3269 2151 3426 
Q 2431 3584 2822 3584 
Q 2878 3584 2943 3579 
Q 3009 3575 3134 3559 
L 3138 2547 
z
" transform="scale(0.015625)"/>
      <path id="DejaVuSans-Bold-61" d="M 2106 1575 
Q 1756 1575 1579 1456 
Q 1403 1338 1403 1106 
Q 1403 894 1545 773 
Q 1688 653 1941 653 
Q 2256 653 2472 879 
Q 2688 1106 2688 1447 
L 2688 1575 
L 2106 1575 
z
M 3816 1997 
L 3816 0 
L 2688 0 
L 2688 519 
Q 2463 200 2181 54 
Q 1900 -91 1497 -91 
Q 953 -91 614 226 
Q 275 544 275 1050 
Q 275 1666 698 1953 
Q 1122 2241 2028 2241 
L 2688 2241 
L 2688 2328 
Q 2688 2594 2478 2717 
Q 2269 2841 1825 2841 
Q 1466 2841 1156 2769 
Q 847 2697 581 2553 
L 581 3406 
Q 941 3494 1303 3539 
Q 1666 3584 2028 3584 
Q 2975 3584 3395 3211 
Q 3816 2838 3816 1997 
z
" transform="scale(0.015625)"/>
      <path id="DejaVuSans-Bold-69" d="M 538 3500 
L 1656 3500 
L 1656 0 
L 538 0 
L 538 3500 
z
M 538 4863 
L 1656 4863 
L 1656 3950 
L 538 3950 
L 538 4863 
z
" transform="scale(0.015625)"/>
      <path id="DejaVuSans-Bold-6e" d="M 4056 2131 
L 4056 0 
L 2931 0 
L 2931 347 
L 2931 1631 
Q 2931 2084 2911 2256 
Q 2891 2428 2841 2509 
Q 2775 2619 2662 2680 
Q 2550 2741 2406 2741 
Q 2056 2741 1856 2470 
Q 1656 2200 1656 1722 
L 1656 0 
L 538 0 
L 538 3500 
L 1656 3500 
L 1656 2988 
Q 1909 3294 2193 3439 
Q 2478 3584 2822 3584 
Q 3428 3584 3742 3212 
Q 4056 2841 4056 2131 
z
" transform="scale(0.015625)"/>
      <path id="DejaVuSans-Bold-73" d="M 3272 3391 
L 3272 2541 
Q 2913 2691 2578 2766 
Q 2244 2841 1947 2841 
Q 1628 2841 1473 2761 
Q 1319 2681 1319 2516 
Q 1319 2381 1436 2309 
Q 1553 2238 1856 2203 
L 2053 2175 
Q 2913 2066 3209 1816 
Q 3506 1566 3506 1031 
Q 3506 472 3093 190 
Q 2681 -91 1863 -91 
Q 1516 -91 1145 -36 
Q 775 19 384 128 
L 384 978 
Q 719 816 1070 734 
Q 1422 653 1784 653 
Q 2113 653 2278 743 
Q 2444 834 2444 1013 
Q 2444 1163 2330 1236 
Q 2216 1309 1875 1350 
L 1678 1375 
Q 931 1469 631 1722 
Q 331 1975 331 2491 
Q 331 3047 712 3315 
Q 1094 3584 1881 3584 
Q 2191 3584 2531 3537 
Q 2872 3491 3272 3391 
z
" transform="scale(0.015625)"/>
      <path id="DejaVuSans-Bold-7a" d="M 366 3500 
L 3419 3500 
L 3419 2719 
L 1575 800 
L 3419 800 
L 3419 0 
L 288 0 
L 288 781 
L 2131 2700 
L 366 2700 
L 366 3500 
z
" transform="scale(0.015625)"/>
      <path id="DejaVuSans-Bold-65" d="M 4031 1759 
L 4031 1441 
L 1416 1441 
Q 1456 1047 1700 850 
Q 1944 653 2381 653 
Q 2734 653 3104 758 
Q 3475 863 3866 1075 
L 3866 213 
Q 3469 63 3072 -14 
Q 2675 -91 2278 -91 
Q 1328 -91 801 392 
Q 275 875 275 1747 
Q 275 2603 792 3093 
Q 1309 3584 2216 3584 
Q 3041 3584 3536 3087 
Q 4031 2591 4031 1759 
z
M 2881 2131 
Q 2881 2450 2695 2645 
Q 2509 2841 2209 2841 
Q 1884 2841 1681 2658 
Q 1478 2475 1428 2131 
L 2881 2131 
z
" transform="scale(0.015625)"/>
      <path id="DejaVuSans-Bold-68" d="M 4056 2131 
L 4056 0 
L 2931 0 
L 2931 347 
L 2931 1625 
Q 2931 2084 2911 2256 
Q 2891 2428 2841 2509 
Q 2775 2619 2662 2680 
Q 2550 2741 2406 2741 
Q 2056 2741 1856 2470 
Q 1656 2200 1656 1722 
L 1656 0 
L 538 0 
L 538 4863 
L 1656 4863 
L 1656 2988 
Q 1909 3294 2193 3439 
Q 2478 3584 2822 3584 
Q 3428 3584 3742 3212 
Q 4056 2841 4056 2131 
z
" transform="scale(0.015625)"/>
      <path id="DejaVuSans-Bold-74" d="M 1759 4494 
L 1759 3500 
L 2913 3500 
L 2913 2700 
L 1759 2700 
L 1759 1216 
Q 1759 972 1856 886 
Q 1953 800 2241 800 
L 2816 800 
L 2816 0 
L 1856 0 
Q 1194 0 917 276 
Q 641 553 641 1216 
L 641 2700 
L 84 2700 
L 84 3500 
L 641 3500 
L 641 4494 
L 1759 4494 
z
" transform="scale(0.015625)"/>
      <path id="DejaVuSans-Bold-6f" d="M 2203 2784 
Q 1831 2784 1636 2517 
Q 1441 2250 1441 1747 
Q 1441 1244 1636 976 
Q 1831 709 2203 709 
Q 2569 709 2762 976 
Q 2956 1244 2956 1747 
Q 2956 2250 2762 2517 
Q 2569 2784 2203 2784 
z
M 2203 3584 
Q 3106 3584 3614 3096 
Q 4122 2609 4122 1747 
Q 4122 884 3614 396 
Q 3106 -91 2203 -91 
Q 1297 -91 786 396 
Q 275 884 275 1747 
Q 275 2609 786 3096 
Q 1297 3584 2203 3584 
z
" transform="scale(0.015625)"/>
      <path id="DejaVuSans-Bold-67" d="M 2919 594 
Q 2688 288 2409 144 
Q 2131 0 1766 0 
Q 1125 0 706 504 
Q 288 1009 288 1791 
Q 288 2575 706 3076 
Q 1125 3578 1766 3578 
Q 2131 3578 2409 3434 
Q 2688 3291 2919 2981 
L 2919 3500 
L 4044 3500 
L 4044 353 
Q 4044 -491 3511 -936 
Q 2978 -1381 1966 -1381 
Q 1638 -1381 1331 -1331 
Q 1025 -1281 716 -1178 
L 716 -306 
Q 1009 -475 1290 -558 
Q 1572 -641 1856 -641 
Q 2406 -641 2662 -400 
Q 2919 -159 2919 353 
L 2919 594 
z
M 2181 2772 
Q 1834 2772 1640 2515 
Q 1447 2259 1447 1791 
Q 1447 1309 1634 1061 
Q 1822 813 2181 813 
Q 2531 813 2725 1069 
Q 2919 1325 2919 1791 
Q 2919 2259 2725 2515 
Q 2531 2772 2181 2772 
z
" transform="scale(0.015625)"/>
      <path id="DejaVuSans-Bold-6d" d="M 3781 2919 
Q 3994 3244 4286 3414 
Q 4578 3584 4928 3584 
Q 5531 3584 5847 3212 
Q 6163 2841 6163 2131 
L 6163 0 
L 5038 0 
L 5038 1825 
Q 5041 1866 5042 1909 
Q 5044 1953 5044 2034 
Q 5044 2406 4934 2573 
Q 4825 2741 4581 2741 
Q 4263 2741 4089 2478 
Q 3916 2216 3909 1719 
L 3909 0 
L 2784 0 
L 2784 1825 
Q 2784 2406 2684 2573 
Q 2584 2741 2328 2741 
Q 2006 2741 1831 2477 
Q 1656 2213 1656 1722 
L 1656 0 
L 531 0 
L 531 3500 
L 1656 3500 
L 1656 2988 
Q 1863 3284 2130 3434 
Q 2397 3584 2719 3584 
Q 3081 3584 3359 3409 
Q 3638 3234 3781 2919 
z
" transform="scale(0.015625)"/>
     </defs>
     <use xlink:href="#DejaVuSans-Bold-42"/>
     <use xlink:href="#DejaVuSans-Bold-43" transform="translate(76.220703 0)"/>
     <use xlink:href="#DejaVuSans-Bold-48" transform="translate(149.609375 0)"/>
     <use xlink:href="#DejaVuSans-Bold-2d" transform="translate(233.300781 0)"/>
     <use xlink:href="#DejaVuSans-Bold-30" transform="translate(274.804688 0)"/>
     <use xlink:href="#DejaVuSans-Bold-34" transform="translate(344.384766 0)"/>
     <use xlink:href="#DejaVuSans-Bold-20" transform="translate(413.964844 0)"/>
     <use xlink:href="#DejaVuSans-Bold-2d" transform="translate(448.779297 0)"/>
     <use xlink:href="#DejaVuSans-Bold-20" transform="translate(490.283203 0)"/>
     <use xlink:href="#DejaVuSans-Bold-47" transform="translate(525.097656 0)"/>
     <use xlink:href="#DejaVuSans-Bold-72" transform="translate(607.177734 0)"/>
     <use xlink:href="#DejaVuSans-Bold-61" transform="translate(656.494141 0)"/>
     <use xlink:href="#DejaVuSans-Bold-69" transform="translate(723.974609 0)"/>
     <use xlink:href="#DejaVuSans-Bold-6e" transform="translate(758.251953 0)"/>
     <use xlink:href="#DejaVuSans-Bold-2d" transform="translate(829.443359 0)"/>
     <use xlink:href="#DejaVuSans-Bold-73" transform="translate(870.947266 0)"/>
     <use xlink:href="#DejaVuSans-Bold-69" transform="translate(930.46875 0)"/>
     <use xlink:href="#DejaVuSans-Bold-7a" transform="translate(964.746094 0)"/>
     <use xlink:href="#DejaVuSans-Bold-65" transform="translate(1022.949219 0)"/>
     <use xlink:href="#DejaVuSans-Bold-20" transform="translate(1090.771484 0)"/>
     <use xlink:href="#DejaVuSans-Bold-68" transform="translate(1125.585938 0)"/>
     <use xlink:href="#DejaVuSans-Bold-69" transform="translate(1196.777344 0)"/>
     <use xlink:href="#DejaVuSans-Bold-73" transform="translate(1231.054688 0)"/>
     <use xlink:href="#DejaVuSans-Bold-74" transform="translate(1290.576172 0)"/>
     <use xlink:href="#DejaVuSans-Bold-6f" transform="translate(1338.378906 0)"/>
     <use xlink:href="#DejaVuSans-Bold-67" transform="translate(1407.080078 0)"/>
     <use xlink:href="#DejaVuSans-Bold-72" transform="translate(1478.662109 0)"/>
     <use xlink:href="#DejaVuSans-Bold-61" transform="translate(1527.978516 0)"/>
     <use xlink:href="#DejaVuSans-Bold-6d" transform="translate(1595.458984 0)"/>
    </g>
   </g>
   <g id="line2d_30">
    <path d="M 282.494981 355.681037 
L 282.494981 47.899219 
" clip-path="url(#p8f6f0c1a18)" style="fill: none; stroke-dasharray: 5.55,2.4; stroke-dashoffset: 0; stroke: #000000; stroke-width: 1.5"/>
   </g>
   <g id="line2d_31">
    <path d="M 282.48787 355.681037 
L 282.48787 47.899219 
" clip-path="url(#p8f6f0c1a18)" style="fill: none; stroke-dasharray: 1.5,2.475; stroke-dashoffset: 0; stroke: #800080; stroke-width: 1.5"/>
   </g>
   <g id="legend_1">
    <g id="patch_72">
     <path d="M 46.248438 79.652031 
L 185.831719 79.652031 
Q 187.531719 79.652031 187.531719 77.952031 
L 187.531719 53.849219 
Q 187.531719 52.149219 185.831719 52.149219 
L 46.248438 52.149219 
Q 44.548438 52.149219 44.548438 53.849219 
L 44.548438 77.952031 
Q 44.548438 79.652031 46.248438 79.652031 
z
" style="fill: #ffffff; opacity: 0.92; stroke: #cccccc; stroke-linejoin: miter"/>
    </g>
    <g id="line2d_32">
     <path d="M 47.948438 59.032891 
L 56.448438 59.032891 
L 64.948438 59.032891 
" style="fill: none; stroke-dasharray: 5.55,2.4; stroke-dashoffset: 0; stroke: #000000; stroke-width: 1.5"/>
    </g>
    <g id="text_21">
     <!-- Mean = 1.65 phi (319 um) -->
     <g transform="translate(71.748438 62.007891) scale(0.085 -0.085)">
      <defs>
       <path id="DejaVuSans-4d" d="M 628 4666 
L 1569 4666 
L 2759 1491 
L 3956 4666 
L 4897 4666 
L 4897 0 
L 4281 0 
L 4281 4097 
L 3078 897 
L 2444 897 
L 1241 4097 
L 1241 0 
L 628 0 
L 628 4666 
z
" transform="scale(0.015625)"/>
       <path id="DejaVuSans-3d" d="M 678 2906 
L 4684 2906 
L 4684 2381 
L 678 2381 
L 678 2906 
z
M 678 1631 
L 4684 1631 
L 4684 1100 
L 678 1100 
L 678 1631 
z
" transform="scale(0.015625)"/>
       <path id="DejaVuSans-2e" d="M 684 794 
L 1344 794 
L 1344 0 
L 684 0 
L 684 794 
z
" transform="scale(0.015625)"/>
       <path id="DejaVuSans-39" d="M 703 97 
L 703 672 
Q 941 559 1184 500 
Q 1428 441 1663 441 
Q 2288 441 2617 861 
Q 2947 1281 2994 2138 
Q 2813 1869 2534 1725 
Q 2256 1581 1919 1581 
Q 1219 1581 811 2004 
Q 403 2428 403 3163 
Q 403 3881 828 4315 
Q 1253 4750 1959 4750 
Q 2769 4750 3195 4129 
Q 3622 3509 3622 2328 
Q 3622 1225 3098 567 
Q 2575 -91 1691 -91 
Q 1453 -91 1209 -44 
Q 966 3 703 97 
z
M 1959 2075 
Q 2384 2075 2632 2365 
Q 2881 2656 2881 3163 
Q 2881 3666 2632 3958 
Q 2384 4250 1959 4250 
Q 1534 4250 1286 3958 
Q 1038 3666 1038 3163 
Q 1038 2656 1286 2365 
Q 1534 2075 1959 2075 
z
" transform="scale(0.015625)"/>
       <path id="DejaVuSans-75" d="M 544 1381 
L 544 3500 
L 1119 3500 
L 1119 1403 
Q 1119 906 1312 657 
Q 1506 409 1894 409 
Q 2359 409 2629 706 
Q 2900 1003 2900 1516 
L 2900 3500 
L 3475 3500 
L 3475 0 
L 2900 0 
L 2900 538 
Q 2691 219 2414 64 
Q 2138 -91 1772 -91 
Q 1169 -91 856 284 
Q 544 659 544 1381 
z
M 1991 3584 
L 1991 3584 
z
" transform="scale(0.015625)"/>
       <path id="DejaVuSans-6d" d="M 3328 2828 
Q 3544 3216 3844 3400 
Q 4144 3584 4550 3584 
Q 5097 3584 5394 3201 
Q 5691 2819 5691 2113 
L 5691 0 
L 5113 0 
L 5113 2094 
Q 5113 2597 4934 2840 
Q 4756 3084 4391 3084 
Q 3944 3084 3684 2787 
Q 3425 2491 3425 1978 
L 3425 0 
L 2847 0 
L 2847 2094 
Q 2847 2600 2669 2842 
Q 2491 3084 2119 3084 
Q 1678 3084 1418 2786 
Q 1159 2488 1159 1978 
L 1159 0 
L 581 0 
L 581 3500 
L 1159 3500 
L 1159 2956 
Q 1356 3278 1631 3431 
Q 1906 3584 2284 3584 
Q 2666 3584 2933 3390 
Q 3200 3197 3328 2828 
z
" transform="scale(0.015625)"/>
      </defs>
      <use xlink:href="#DejaVuSans-4d"/>
      <use xlink:href="#DejaVuSans-65" transform="translate(86.279297 0)"/>
      <use xlink:href="#DejaVuSans-61" transform="translate(147.802734 0)"/>
      <use xlink:href="#DejaVuSans-6e" transform="translate(209.082031 0)"/>
      <use xlink:href="#DejaVuSans-20" transform="translate(272.460938 0)"/>
      <use xlink:href="#DejaVuSans-3d" transform="translate(304.248047 0)"/>
      <use xlink:href="#DejaVuSans-20" transform="translate(388.037109 0)"/>
      <use xlink:href="#DejaVuSans-31" transform="translate(419.824219 0)"/>
      <use xlink:href="#DejaVuSans-2e" transform="translate(483.447266 0)"/>
      <use xlink:href="#DejaVuSans-36" transform="translate(515.234375 0)"/>
      <use xlink:href="#DejaVuSans-35" transform="translate(578.857422 0)"/>
      <use xlink:href="#DejaVuSans-20" transform="translate(642.480469 0)"/>
      <use xlink:href="#DejaVuSans-70" transform="translate(674.267578 0)"/>
      <use xlink:href="#DejaVuSans-68" transform="translate(737.744141 0)"/>
      <use xlink:href="#DejaVuSans-69" transform="translate(801.123047 0)"/>
      <use xlink:href="#DejaVuSans-20" transform="translate(828.90625 0)"/>
      <use xlink:href="#DejaVuSans-28" transform="translate(860.693359 0)"/>
      <use xlink:href="#DejaVuSans-33" transform="translate(899.707031 0)"/>
      <use xlink:href="#DejaVuSans-31" transform="translate(963.330078 0)"/>
      <use xlink:href="#DejaVuSans-39" transform="translate(1026.953125 0)"/>
      <use xlink:href="#DejaVuSans-20" transform="translate(1090.576172 0)"/>
      <use xlink:href="#DejaVuSans-75" transform="translate(1122.363281 0)"/>
      <use xlink:href="#DejaVuSans-6d" transform="translate(1185.742188 0)"/>
      <use xlink:href="#DejaVuSans-29" transform="translate(1283.154297 0)"/>
     </g>
    </g>
    <g id="line2d_33">
     <path d="M 47.948438 71.509297 
L 56.448438 71.509297 
L 64.948438 71.509297 
" style="fill: none; stroke-dasharray: 1.5,2.475; stroke-dashoffset: 0; stroke: #800080; stroke-width: 1.5"/>
    </g>
    <g id="text_22">
     <!-- Median = 1.65 phi -->
     <g transform="translate(71.748438 74.484297) scale(0.085 -0.085)">
      <defs>
       <path id="DejaVuSans-64" d="M 2906 2969 
L 2906 4863 
L 3481 4863 
L 3481 0 
L 2906 0 
L 2906 525 
Q 2725 213 2448 61 
Q 2172 -91 1784 -91 
Q 1150 -91 751 415 
Q 353 922 353 1747 
Q 353 2572 751 3078 
Q 1150 3584 1784 3584 
Q 2172 3584 2448 3432 
Q 2725 3281 2906 2969 
z
M 947 1747 
Q 947 1113 1208 752 
Q 1469 391 1925 391 
Q 2381 391 2643 752 
Q 2906 1113 2906 1747 
Q 2906 2381 2643 2742 
Q 2381 3103 1925 3103 
Q 1469 3103 1208 2742 
Q 947 2381 947 1747 
z
" transform="scale(0.015625)"/>
      </defs>
      <use xlink:href="#DejaVuSans-4d"/>
      <use xlink:href="#DejaVuSans-65" transform="translate(86.279297 0)"/>
      <use xlink:href="#DejaVuSans-64" transform="translate(147.802734 0)"/>
      <use xlink:href="#DejaVuSans-69" transform="translate(211.279297 0)"/>
      <use xlink:href="#DejaVuSans-61" transform="translate(239.0625 0)"/>
      <use xlink:href="#DejaVuSans-6e" transform="translate(300.341797 0)"/>
      <use xlink:href="#DejaVuSans-20" transform="translate(363.720703 0)"/>
      <use xlink:href="#DejaVuSans-3d" transform="translate(395.507812 0)"/>
      <use xlink:href="#DejaVuSans-20" transform="translate(479.296875 0)"/>
      <use xlink:href="#DejaVuSans-31" transform="translate(511.083984 0)"/>
      <use xlink:href="#DejaVuSans-2e" transform="translate(574.707031 0)"/>
      <use xlink:href="#DejaVuSans-36" transform="translate(606.494141 0)"/>
      <use xlink:href="#DejaVuSans-35" transform="translate(670.117188 0)"/>
      <use xlink:href="#DejaVuSans-20" transform="translate(733.740234 0)"/>
      <use xlink:href="#DejaVuSans-70" transform="translate(765.527344 0)"/>
      <use xlink:href="#DejaVuSans-68" transform="translate(829.003906 0)"/>
      <use xlink:href="#DejaVuSans-69" transform="translate(892.382812 0)"/>
     </g>
    </g>
   </g>
   <g id="legend_2">
    <g id="patch_73">
     <path d="M 563.694886 114.947344 
L 662.862074 114.947344 
Q 664.462074 114.947344 664.462074 113.347344 
L 664.462074 53.499219 
Q 664.462074 51.899219 662.862074 51.899219 
L 563.694886 51.899219 
Q 562.094886 51.899219 562.094886 53.499219 
L 562.094886 113.347344 
Q 562.094886 114.947344 563.694886 114.947344 
z
" style="fill: #ffffff; opacity: 0.92; stroke: #cccccc; stroke-linejoin: miter"/>
    </g>
    <g id="text_23">
     <!-- Wentworth fraction -->
     <g transform="translate(565.294886 62.697656) scale(0.1 -0.1)">
      <defs>
       <path id="DejaVuSans-77" d="M 269 3500 
L 844 3500 
L 1563 769 
L 2278 3500 
L 2956 3500 
L 3675 769 
L 4391 3500 
L 4966 3500 
L 4050 0 
L 3372 0 
L 2619 2869 
L 1863 0 
L 1184 0 
L 269 3500 
z
" transform="scale(0.015625)"/>
       <path id="DejaVuSans-6f" d="M 1959 3097 
Q 1497 3097 1228 2736 
Q 959 2375 959 1747 
Q 959 1119 1226 758 
Q 1494 397 1959 397 
Q 2419 397 2687 759 
Q 2956 1122 2956 1747 
Q 2956 2369 2687 2733 
Q 2419 3097 1959 3097 
z
M 1959 3584 
Q 2709 3584 3137 3096 
Q 3566 2609 3566 1747 
Q 3566 888 3137 398 
Q 2709 -91 1959 -91 
Q 1206 -91 779 398 
Q 353 888 353 1747 
Q 353 2609 779 3096 
Q 1206 3584 1959 3584 
z
" transform="scale(0.015625)"/>
       <path id="DejaVuSans-66" d="M 2375 4863 
L 2375 4384 
L 1825 4384 
Q 1516 4384 1395 4259 
Q 1275 4134 1275 3809 
L 1275 3500 
L 2222 3500 
L 2222 3053 
L 1275 3053 
L 1275 0 
L 697 0 
L 697 3053 
L 147 3053 
L 147 3500 
L 697 3500 
L 697 3744 
Q 697 4328 969 4595 
Q 1241 4863 1831 4863 
L 2375 4863 
z
" transform="scale(0.015625)"/>
       <path id="DejaVuSans-63" d="M 3122 3366 
L 3122 2828 
Q 2878 2963 2633 3030 
Q 2388 3097 2138 3097 
Q 1578 3097 1268 2742 
Q 959 2388 959 1747 
Q 959 1106 1268 751 
Q 1578 397 2138 397 
Q 2388 397 2633 464 
Q 2878 531 3122 666 
L 3122 134 
Q 2881 22 2623 -34 
Q 2366 -91 2075 -91 
Q 1284 -91 818 406 
Q 353 903 353 1747 
Q 353 2603 823 3093 
Q 1294 3584 2113 3584 
Q 2378 3584 2631 3529 
Q 2884 3475 3122 3366 
z
" transform="scale(0.015625)"/>
      </defs>
      <use xlink:href="#DejaVuSans-57"/>
      <use xlink:href="#DejaVuSans-65" transform="translate(93.001953 0)"/>
      <use xlink:href="#DejaVuSans-6e" transform="translate(154.525391 0)"/>
      <use xlink:href="#DejaVuSans-74" transform="translate(217.904297 0)"/>
      <use xlink:href="#DejaVuSans-77" transform="translate(257.113281 0)"/>
      <use xlink:href="#DejaVuSans-6f" transform="translate(338.900391 0)"/>
      <use xlink:href="#DejaVuSans-72" transform="translate(400.082031 0)"/>
      <use xlink:href="#DejaVuSans-74" transform="translate(441.195312 0)"/>
      <use xlink:href="#DejaVuSans-68" transform="translate(480.404297 0)"/>
      <use xlink:href="#DejaVuSans-20" transform="translate(543.783203 0)"/>
      <use xlink:href="#DejaVuSans-66" transform="translate(575.570312 0)"/>
      <use xlink:href="#DejaVuSans-72" transform="translate(610.775391 0)"/>
      <use xlink:href="#DejaVuSans-61" transform="translate(651.888672 0)"/>
      <use xlink:href="#DejaVuSans-63" transform="translate(713.167969 0)"/>
      <use xlink:href="#DejaVuSans-74" transform="translate(768.148438 0)"/>
      <use xlink:href="#DejaVuSans-69" transform="translate(807.357422 0)"/>
      <use xlink:href="#DejaVuSans-6f" transform="translate(835.140625 0)"/>
      <use xlink:href="#DejaVuSans-6e" transform="translate(896.322266 0)"/>
     </g>
    </g>
    <g id="patch_74">
     <path d="M 588.94348 74.856094 
L 604.94348 74.856094 
L 604.94348 69.256094 
L 588.94348 69.256094 
z
" style="fill: #c49464; stroke: #4c4c4c; stroke-linejoin: miter"/>
    </g>
    <g id="text_24">
     <!-- Gravel -->
     <g transform="translate(611.34348 74.856094) scale(0.08 -0.08)">
      <defs>
       <path id="DejaVuSans-76" d="M 191 3500 
L 800 3500 
L 1894 563 
L 2988 3500 
L 3597 3500 
L 2284 0 
L 1503 0 
L 191 3500 
z
" transform="scale(0.015625)"/>
       <path id="DejaVuSans-6c" d="M 603 4863 
L 1178 4863 
L 1178 0 
L 603 0 
L 603 4863 
z
" transform="scale(0.015625)"/>
      </defs>
      <use xlink:href="#DejaVuSans-47"/>
      <use xlink:href="#DejaVuSans-72" transform="translate(77.490234 0)"/>
      <use xlink:href="#DejaVuSans-61" transform="translate(118.603516 0)"/>
      <use xlink:href="#DejaVuSans-76" transform="translate(179.882812 0)"/>
      <use xlink:href="#DejaVuSans-65" transform="translate(239.0625 0)"/>
      <use xlink:href="#DejaVuSans-6c" transform="translate(300.585938 0)"/>
     </g>
    </g>
    <g id="patch_75">
     <path d="M 588.94348 86.598594 
L 604.94348 86.598594 
L 604.94348 80.998594 
L 588.94348 80.998594 
z
" style="fill: #f4c95d; stroke: #4c4c4c; stroke-linejoin: miter"/>
    </g>
    <g id="text_25">
     <!-- Sand -->
     <g transform="translate(611.34348 86.598594) scale(0.08 -0.08)">
      <defs>
       <path id="DejaVuSans-53" d="M 3425 4513 
L 3425 3897 
Q 3066 4069 2747 4153 
Q 2428 4238 2131 4238 
Q 1616 4238 1336 4038 
Q 1056 3838 1056 3469 
Q 1056 3159 1242 3001 
Q 1428 2844 1947 2747 
L 2328 2669 
Q 3034 2534 3370 2195 
Q 3706 1856 3706 1288 
Q 3706 609 3251 259 
Q 2797 -91 1919 -91 
Q 1588 -91 1214 -16 
Q 841 59 441 206 
L 441 856 
Q 825 641 1194 531 
Q 1563 422 1919 422 
Q 2459 422 2753 634 
Q 3047 847 3047 1241 
Q 3047 1584 2836 1778 
Q 2625 1972 2144 2069 
L 1759 2144 
Q 1053 2284 737 2584 
Q 422 2884 422 3419 
Q 422 4038 858 4394 
Q 1294 4750 2059 4750 
Q 2388 4750 2728 4690 
Q 3069 4631 3425 4513 
z
" transform="scale(0.015625)"/>
      </defs>
      <use xlink:href="#DejaVuSans-53"/>
      <use xlink:href="#DejaVuSans-61" transform="translate(63.476562 0)"/>
      <use xlink:href="#DejaVuSans-6e" transform="translate(124.755859 0)"/>
      <use xlink:href="#DejaVuSans-64" transform="translate(188.134766 0)"/>
     </g>
    </g>
    <g id="patch_76">
     <path d="M 588.94348 98.341094 
L 604.94348 98.341094 
L 604.94348 92.741094 
L 588.94348 92.741094 
z
" style="fill: #94bd7a; stroke: #4c4c4c; stroke-linejoin: miter"/>
    </g>
    <g id="text_26">
     <!-- Silt -->
     <g transform="translate(611.34348 98.341094) scale(0.08 -0.08)">
      <use xlink:href="#DejaVuSans-53"/>
      <use xlink:href="#DejaVuSans-69" transform="translate(63.476562 0)"/>
      <use xlink:href="#DejaVuSans-6c" transform="translate(91.259766 0)"/>
      <use xlink:href="#DejaVuSans-74" transform="translate(119.042969 0)"/>
     </g>
    </g>
    <g id="patch_77">
     <path d="M 588.94348 110.083594 
L 604.94348 110.083594 
L 604.94348 104.483594 
L 588.94348 104.483594 
z
" style="fill: #6fa8dc; stroke: #4c4c4c; stroke-linejoin: miter"/>
    </g>
    <g id="text_27">
     <!-- Clay -->
     <g transform="translate(611.34348 110.083594) scale(0.08 -0.08)">
      <defs>
       <path id="DejaVuSans-43" d="M 4122 4306 
L 4122 3641 
Q 3803 3938 3442 4084 
Q 3081 4231 2675 4231 
Q 1875 4231 1450 3742 
Q 1025 3253 1025 2328 
Q 1025 1406 1450 917 
Q 1875 428 2675 428 
Q 3081 428 3442 575 
Q 3803 722 4122 1019 
L 4122 359 
Q 3791 134 3420 21 
Q 3050 -91 2638 -91 
Q 1578 -91 968 557 
Q 359 1206 359 2328 
Q 359 3453 968 4101 
Q 1578 4750 2638 4750 
Q 3056 4750 3426 4639 
Q 3797 4528 4122 4306 
z
" transform="scale(0.015625)"/>
       <path id="DejaVuSans-79" d="M 2059 -325 
Q 1816 -950 1584 -1140 
Q 1353 -1331 966 -1331 
L 506 -1331 
L 506 -850 
L 844 -850 
Q 1081 -850 1212 -737 
Q 1344 -625 1503 -206 
L 1606 56 
L 191 3500 
L 800 3500 
L 1894 763 
L 2988 3500 
L 3597 3500 
L 2059 -325 
z
" transform="scale(0.015625)"/>
      </defs>
      <use xlink:href="#DejaVuSans-43"/>
      <use xlink:href="#DejaVuSans-6c" transform="translate(69.824219 0)"/>
      <use xlink:href="#DejaVuSans-61" transform="translate(97.607422 0)"/>
      <use xlink:href="#DejaVuSans-79" transform="translate(158.886719 0)"/>
     </g>
    </g>
   </g>
  </g>
  <g id="axes_2">
   <g id="matplotlib.axis_3">
    <g id="xtick_9">
     <g id="line2d_34">
      <defs>
       <path id="m98820e5abc" d="M 0 0 
L 0 -3.5 
" style="stroke: #000000; stroke-width: 0.8"/>
      </defs>
      <g>
       <use xlink:href="#m98820e5abc" x="63.563757" y="47.899219" style="stroke: #000000; stroke-width: 0.8"/>
      </g>
     </g>
     <g id="text_28">
      <!-- 16.0 mm -->
      <g transform="translate(45.593757 39.235469) scale(0.08 -0.08)">
       <use xlink:href="#DejaVuSans-31"/>
       <use xlink:href="#DejaVuSans-36" transform="translate(63.623047 0)"/>
       <use xlink:href="#DejaVuSans-2e" transform="translate(127.246094 0)"/>
       <use xlink:href="#DejaVuSans-30" transform="translate(159.033203 0)"/>
       <use xlink:href="#DejaVuSans-20" transform="translate(222.65625 0)"/>
       <use xlink:href="#DejaVuSans-6d" transform="translate(254.443359 0)"/>
       <use xlink:href="#DejaVuSans-6d" transform="translate(351.855469 0)"/>
      </g>
     </g>
    </g>
    <g id="xtick_10">
     <g id="line2d_35">
      <g>
       <use xlink:href="#m98820e5abc" x="141.114824" y="47.899219" style="stroke: #000000; stroke-width: 0.8"/>
      </g>
     </g>
     <g id="text_29">
      <!-- 4.0 mm -->
      <g transform="translate(125.689824 39.235469) scale(0.08 -0.08)">
       <use xlink:href="#DejaVuSans-34"/>
       <use xlink:href="#DejaVuSans-2e" transform="translate(63.623047 0)"/>
       <use xlink:href="#DejaVuSans-30" transform="translate(95.410156 0)"/>
       <use xlink:href="#DejaVuSans-20" transform="translate(159.033203 0)"/>
       <use xlink:href="#DejaVuSans-6d" transform="translate(190.820312 0)"/>
       <use xlink:href="#DejaVuSans-6d" transform="translate(288.232422 0)"/>
      </g>
     </g>
    </g>
    <g id="xtick_11">
     <g id="line2d_36">
      <g>
       <use xlink:href="#m98820e5abc" x="218.66589" y="47.899219" style="stroke: #000000; stroke-width: 0.8"/>
      </g>
     </g>
     <g id="text_30">
      <!-- 1.0 mm -->
      <g transform="translate(203.24089 39.235469) scale(0.08 -0.08)">
       <use xlink:href="#DejaVuSans-31"/>
       <use xlink:href="#DejaVuSans-2e" transform="translate(63.623047 0)"/>
       <use xlink:href="#DejaVuSans-30" transform="translate(95.410156 0)"/>
       <use xlink:href="#DejaVuSans-20" transform="translate(159.033203 0)"/>
       <use xlink:href="#DejaVuSans-6d" transform="translate(190.820312 0)"/>
       <use xlink:href="#DejaVuSans-6d" transform="translate(288.232422 0)"/>
      </g>
     </g>
    </g>
    <g id="xtick_12">
     <g id="line2d_37">
      <g>
       <use xlink:href="#m98820e5abc" x="296.216956" y="47.899219" style="stroke: #000000; stroke-width: 0.8"/>
      </g>
     </g>
     <g id="text_31">
      <!-- 0.25 mm -->
      <g transform="translate(278.246956 39.235469) scale(0.08 -0.08)">
       <use xlink:href="#DejaVuSans-30"/>
       <use xlink:href="#DejaVuSans-2e" transform="translate(63.623047 0)"/>
       <use xlink:href="#DejaVuSans-32" transform="translate(95.410156 0)"/>
       <use xlink:href="#DejaVuSans-35" transform="translate(159.033203 0)"/>
       <use xlink:href="#DejaVuSans-20" transform="translate(222.65625 0)"/>
       <use xlink:href="#DejaVuSans-6d" transform="translate(254.443359 0)"/>
       <use xlink:href="#DejaVuSans-6d" transform="translate(351.855469 0)"/>
      </g>
     </g>
    </g>
    <g id="xtick_13">
     <g id="line2d_38">
      <g>
       <use xlink:href="#m98820e5abc" x="373.768022" y="47.899219" style="stroke: #000000; stroke-width: 0.8"/>
      </g>
     </g>
     <g id="text_32">
      <!-- 62 um -->
      <g transform="translate(360.975522 39.235469) scale(0.08 -0.08)">
       <use xlink:href="#DejaVuSans-36"/>
       <use xlink:href="#DejaVuSans-32" transform="translate(63.623047 0)"/>
       <use xlink:href="#DejaVuSans-20" transform="translate(127.246094 0)"/>
       <use xlink:href="#DejaVuSans-75" transform="translate(159.033203 0)"/>
       <use xlink:href="#DejaVuSans-6d" transform="translate(222.412109 0)"/>
      </g>
     </g>
    </g>
    <g id="xtick_14">
     <g id="line2d_39">
      <g>
       <use xlink:href="#m98820e5abc" x="451.319088" y="47.899219" style="stroke: #000000; stroke-width: 0.8"/>
      </g>
     </g>
     <g id="text_33">
      <!-- 16 um -->
      <g transform="translate(438.526588 39.235469) scale(0.08 -0.08)">
       <use xlink:href="#DejaVuSans-31"/>
       <use xlink:href="#DejaVuSans-36" transform="translate(63.623047 0)"/>
       <use xlink:href="#DejaVuSans-20" transform="translate(127.246094 0)"/>
       <use xlink:href="#DejaVuSans-75" transform="translate(159.033203 0)"/>
       <use xlink:href="#DejaVuSans-6d" transform="translate(222.412109 0)"/>
      </g>
     </g>
    </g>
    <g id="xtick_15">
     <g id="line2d_40">
      <g>
       <use xlink:href="#m98820e5abc" x="528.870155" y="47.899219" style="stroke: #000000; stroke-width: 0.8"/>
      </g>
     </g>
     <g id="text_34">
      <!-- 3.9 um -->
      <g transform="translate(514.806405 39.235469) scale(0.08 -0.08)">
       <use xlink:href="#DejaVuSans-33"/>
       <use xlink:href="#DejaVuSans-2e" transform="translate(63.623047 0)"/>
       <use xlink:href="#DejaVuSans-39" transform="translate(95.410156 0)"/>
       <use xlink:href="#DejaVuSans-20" transform="translate(159.033203 0)"/>
       <use xlink:href="#DejaVuSans-75" transform="translate(190.820312 0)"/>
       <use xlink:href="#DejaVuSans-6d" transform="translate(254.199219 0)"/>
      </g>
     </g>
    </g>
    <g id="xtick_16">
     <g id="line2d_41">
      <g>
       <use xlink:href="#m98820e5abc" x="606.421221" y="47.899219" style="stroke: #000000; stroke-width: 0.8"/>
      </g>
     </g>
     <g id="text_35">
      <!-- 0.98 um -->
      <g transform="translate(589.812471 39.235469) scale(0.08 -0.08)">
       <use xlink:href="#DejaVuSans-30"/>
       <use xlink:href="#DejaVuSans-2e" transform="translate(63.623047 0)"/>
       <use xlink:href="#DejaVuSans-39" transform="translate(95.410156 0)"/>
       <use xlink:href="#DejaVuSans-38" transform="translate(159.033203 0)"/>
       <use xlink:href="#DejaVuSans-20" transform="translate(222.65625 0)"/>
       <use xlink:href="#DejaVuSans-75" transform="translate(254.443359 0)"/>
       <use xlink:href="#DejaVuSans-6d" transform="translate(317.822266 0)"/>
      </g>
     </g>
    </g>
    <g id="text_36">
     <!-- Grain size (mm / um) -->
     <g transform="translate(306.709084 29.156719) scale(0.09 -0.09)">
      <defs>
       <path id="DejaVuSans-2f" d="M 1625 4666 
L 2156 4666 
L 531 -594 
L 0 -594 
L 1625 4666 
z
" transform="scale(0.015625)"/>
      </defs>
      <use xlink:href="#DejaVuSans-47"/>
      <use xlink:href="#DejaVuSans-72" transform="translate(77.490234 0)"/>
      <use xlink:href="#DejaVuSans-61" transform="translate(118.603516 0)"/>
      <use xlink:href="#DejaVuSans-69" transform="translate(179.882812 0)"/>
      <use xlink:href="#DejaVuSans-6e" transform="translate(207.666016 0)"/>
      <use xlink:href="#DejaVuSans-20" transform="translate(271.044922 0)"/>
      <use xlink:href="#DejaVuSans-73" transform="translate(302.832031 0)"/>
      <use xlink:href="#DejaVuSans-69" transform="translate(354.931641 0)"/>
      <use xlink:href="#DejaVuSans-7a" transform="translate(382.714844 0)"/>
      <use xlink:href="#DejaVuSans-65" transform="translate(435.205078 0)"/>
      <use xlink:href="#DejaVuSans-20" transform="translate(496.728516 0)"/>
      <use xlink:href="#DejaVuSans-28" transform="translate(528.515625 0)"/>
      <use xlink:href="#DejaVuSans-6d" transform="translate(567.529297 0)"/>
      <use xlink:href="#DejaVuSans-6d" transform="translate(664.941406 0)"/>
      <use xlink:href="#DejaVuSans-20" transform="translate(762.353516 0)"/>
      <use xlink:href="#DejaVuSans-2f" transform="translate(794.140625 0)"/>
      <use xlink:href="#DejaVuSans-20" transform="translate(827.832031 0)"/>
      <use xlink:href="#DejaVuSans-75" transform="translate(859.619141 0)"/>
      <use xlink:href="#DejaVuSans-6d" transform="translate(922.998047 0)"/>
      <use xlink:href="#DejaVuSans-29" transform="translate(1020.410156 0)"/>
     </g>
    </g>
   </g>
   <g id="patch_78">
    <path d="M 40.298438 355.681037 
L 40.298438 47.899219 
" style="fill: none; stroke: #404040; stroke-width: 0.9; stroke-linejoin: miter; stroke-linecap: square"/>
   </g>
   <g id="patch_79">
    <path d="M 668.462074 355.681037 
L 668.462074 47.899219 
" style="fill: none; stroke: #404040; stroke-width: 0.9; stroke-linejoin: miter; stroke-linecap: square"/>
   </g>
   <g id="patch_80">
    <path d="M 40.298438 355.681037 
L 668.462074 355.681037 
" style="fill: none; stroke: #404040; stroke-width: 0.9; stroke-linejoin: miter; stroke-linecap: square"/>
   </g>
   <g id="patch_81">
    <path d="M 40.298438 47.899219 
L 668.462074 47.899219 
" style="fill: none; stroke: #404040; stroke-width: 0.9; stroke-linejoin: miter; stroke-linecap: square"/>
   </g>
  </g>
 </g>
 <defs>
  <clipPath id="p8f6f0c1a18">
   <rect x="40.298438" y="47.899219" width="628.163636" height="307.781818"/>
  </clipPath>
 </defs>
</svg>
