<?xml version="1.0" encoding="utf-8" standalone="no"?>
<!DOCTYPE svg PUBLIC "-//W3C//DTD SVG 1.1//EN"
  "http://www.w3.org/Graphics/SVG/1.1/DTD/svg11.dtd">
<svg xmlns:xlink="http://www.w3.org/1999/xlink" width="711.662074pt" height="379.965284pt" viewBox="0 0 711.662074 379.965284" xmlns="http://www.w3.org/2000/svg" version="1.1">
 <metadata>
  <rdf:RDF xmlns:dc="http://purl.org/dc/elements/1.1/" xmlns:cc="http://creativecommons.org/ns#" xmlns:rdf="http://www.w3.org/1999/02/22-rdf-syntax-ns#">
   <cc:Work>
    <dc:type rdf:resource="http://purl.org/dc/dcmitype/StillImage"/>
    <dc:date>2026-07-01T03:09:57.131846</dc:date>
    <dc:format>image/svg+xml</dc:format>
    <dc:creator>
     <cc:Agent>
      <dc:title>Matplotlib v3.10.8, https://matplotlib.org/</dc:title>
     </cc:Agent>
    </dc:creator>
   </cc:Work>
  </rdf:RDF>
 </metadata>
 <defs>
  <style type="text/css">*{stroke-linejoin: round; stroke-linecap: butt}</style>
 </defs>
 <g id="figure_1">
  <g id="patch_1">
   <path d="M 0 379.965284 
L 711.662074 379.965284 
L 711.662074 0 
L 0 0 
z
" style="fill: #ffffff"/>
  </g>
  <g id="axes_1">
   <g id="patch_2">
    <path d="M 40.298438 342.409034 
L 704.462074 342.409034 
L 704.462074 22.318125 
L 40.298438 22.318125 
z
" style="fill: #ffffff"/>
   </g>
   <g id="patch_3">
    <path d="M 40.298437 342.409034 
L 192.335896 342.409034 
L 192.335896 22.318125 
L 40.298437 22.318125 
z
" clip-path="url(#p0ef3bcd2c2)" style="fill: #c49464; opacity: 0.3; stroke: #c49464; stroke-linejoin: miter"/>
   </g>
   <g id="patch_4">
    <path d="M 192.335896 342.409034 
L 392.385184 342.409034 
L 392.385184 22.318125 
L 192.335896 22.318125 
z
" clip-path="url(#p0ef3bcd2c2)" style="fill: #f4c95d; opacity: 0.3; stroke: #f4c95d; stroke-linejoin: miter"/>
   </g>
   <g id="patch_5">
    <path d="M 392.385184 342.409034 
L 552.424615 342.409034 
L 552.424615 22.318125 
L 392.385184 22.318125 
z
" clip-path="url(#p0ef3bcd2c2)" style="fill: #94bd7a; opacity: 0.3; stroke: #94bd7a; stroke-linejoin: miter"/>
   </g>
   <g id="patch_6">
    <path d="M 552.424615 342.409034 
L 704.462074 342.409034 
L 704.462074 22.318125 
L 552.424615 22.318125 
z
" clip-path="url(#p0ef3bcd2c2)" style="fill: #6fa8dc; opacity: 0.3; stroke: #6fa8dc; stroke-linejoin: miter"/>
   </g>
   <g id="line2d_1">
    <path d="M 192.335896 342.409034 
L 192.335896 22.318125 
" clip-path="url(#p0ef3bcd2c2)" style="fill: none; stroke-dasharray: 0.8,1.32; stroke-dashoffset: 0; stroke: #666666; stroke-width: 0.8"/>
   </g>
   <g id="line2d_2">
    <path d="M 392.385184 342.409034 
L 392.385184 22.318125 
" clip-path="url(#p0ef3bcd2c2)" style="fill: none; stroke-dasharray: 0.8,1.32; stroke-dashoffset: 0; stroke: #666666; stroke-width: 0.8"/>
   </g>
   <g id="line2d_3">
    <path d="M 552.424615 342.409034 
L 552.424615 22.318125 
" clip-path="url(#p0ef3bcd2c2)" style="fill: none; stroke-dasharray: 0.8,1.32; stroke-dashoffset: 0; stroke: #666666; stroke-width: 0.8"/>
   </g>
   <g id="matplotlib.axis_1">
    <g id="xtick_1">
     <g id="line2d_4">
      <path d="M 72.306324 342.409034 
L 72.306324 22.318125 
" clip-path="url(#p0ef3bcd2c2)" style="fill: none; stroke-dasharray: 0.4,0.66; stroke-dashoffset: 0; stroke: #b0b0b0; stroke-opacity: 0.5; stroke-width: 0.4"/>
     </g>
     <g id="line2d_5">
      <defs>
       <path id="m6e4f480d41" d="M 0 0 
L 0 3.5 
" style="stroke: #000000; stroke-width: 0.8"/>
      </defs>
      <g>
       <use xlink:href="#m6e4f480d41" x="72.306324" y="342.409034" style="stroke: #000000; stroke-width: 0.8"/>
      </g>
     </g>
     <g id="text_1">
      <!-- −4 -->
      <g transform="translate(65.672339 356.247628) scale(0.09 -0.09)">
       <defs>
        <path id="DejaVuSans-2212" d="M 678 2272 
L 4684 2272 
L 4684 1741 
L 678 1741 
L 678 2272 
z
" transform="scale(0.015625)"/>
        <path id="DejaVuSans-34" d="M 2419 4116 
L 825 1625 
L 2419 1625 
L 2419 4116 
z
M 2253 4666 
L 3047 4666 
L 3047 1625 
L 3713 1625 
L 3713 1100 
L 3047 1100 
L 3047 0 
L 2419 0 
L 2419 1100 
L 313 1100 
L 313 1709 
L 2253 4666 
z
" transform="scale(0.015625)"/>
       </defs>
       <use xlink:href="#DejaVuSans-2212"/>
       <use xlink:href="#DejaVuSans-34" transform="translate(83.789062 0)"/>
      </g>
     </g>
    </g>
    <g id="xtick_2">
     <g id="line2d_6">
      <path d="M 152.326039 342.409034 
L 152.326039 22.318125 
" clip-path="url(#p0ef3bcd2c2)" style="fill: none; stroke-dasharray: 0.4,0.66; stroke-dashoffset: 0; stroke: #b0b0b0; stroke-opacity: 0.5; stroke-width: 0.4"/>
     </g>
     <g id="line2d_7">
      <g>
       <use xlink:href="#m6e4f480d41" x="152.326039" y="342.409034" style="stroke: #000000; stroke-width: 0.8"/>
      </g>
     </g>
     <g id="text_2">
      <!-- −2 -->
      <g transform="translate(145.692054 356.247628) scale(0.09 -0.09)">
       <defs>
        <path id="DejaVuSans-32" d="M 1228 531 
L 3431 531 
L 3431 0 
L 469 0 
L 469 531 
Q 828 903 1448 1529 
Q 2069 2156 2228 2338 
Q 2531 2678 2651 2914 
Q 2772 3150 2772 3378 
Q 2772 3750 2511 3984 
Q 2250 4219 1831 4219 
Q 1534 4219 1204 4116 
Q 875 4013 500 3803 
L 500 4441 
Q 881 4594 1212 4672 
Q 1544 4750 1819 4750 
Q 2544 4750 2975 4387 
Q 3406 4025 3406 3419 
Q 3406 3131 3298 2873 
Q 3191 2616 2906 2266 
Q 2828 2175 2409 1742 
Q 1991 1309 1228 531 
z
" transform="scale(0.015625)"/>
       </defs>
       <use xlink:href="#DejaVuSans-2212"/>
       <use xlink:href="#DejaVuSans-32" transform="translate(83.789062 0)"/>
      </g>
     </g>
    </g>
    <g id="xtick_3">
     <g id="line2d_8">
      <path d="M 232.345754 342.409034 
L 232.345754 22.318125 
" clip-path="url(#p0ef3bcd2c2)" style="fill: none; stroke-dasharray: 0.4,0.66; stroke-dashoffset: 0; stroke: #b0b0b0; stroke-opacity: 0.5; stroke-width: 0.4"/>
     </g>
     <g id="line2d_9">
      <g>
       <use xlink:href="#m6e4f480d41" x="232.345754" y="342.409034" style="stroke: #000000; stroke-width: 0.8"/>
      </g>
     </g>
     <g id="text_3">
      <!-- 0 -->
      <g transform="translate(229.482629 356.247628) scale(0.09 -0.09)">
       <defs>
        <path id="DejaVuSans-30" d="M 2034 4250 
Q 1547 4250 1301 3770 
Q 1056 3291 1056 2328 
Q 1056 1369 1301 889 
Q 1547 409 2034 409 
Q 2525 409 2770 889 
Q 3016 1369 3016 2328 
Q 3016 3291 2770 3770 
Q 2525 4250 2034 4250 
z
M 2034 4750 
Q 2819 4750 3233 4129 
Q 3647 3509 3647 2328 
Q 3647 1150 3233 529 
Q 2819 -91 2034 -91 
Q 1250 -91 836 529 
Q 422 1150 422 2328 
Q 422 3509 836 4129 
Q 1250 4750 2034 4750 
z
" transform="scale(0.015625)"/>
       </defs>
       <use xlink:href="#DejaVuSans-30"/>
      </g>
     </g>
    </g>
    <g id="xtick_4">
     <g id="line2d_10">
      <path d="M 312.365469 342.409034 
L 312.365469 22.318125 
" clip-path="url(#p0ef3bcd2c2)" style="fill: none; stroke-dasharray: 0.4,0.66; stroke-dashoffset: 0; stroke: #b0b0b0; stroke-opacity: 0.5; stroke-width: 0.4"/>
     </g>
     <g id="line2d_11">
      <g>
       <use xlink:href="#m6e4f480d41" x="312.365469" y="342.409034" style="stroke: #000000; stroke-width: 0.8"/>
      </g>
     </g>
     <g id="text_4">
      <!-- 2 -->
      <g transform="translate(309.502344 356.247628) scale(0.09 -0.09)">
       <use xlink:href="#DejaVuSans-32"/>
      </g>
     </g>
    </g>
    <g id="xtick_5">
     <g id="line2d_12">
      <path d="M 392.385184 342.409034 
L 392.385184 22.318125 
" clip-path="url(#p0ef3bcd2c2)" style="fill: none; stroke-dasharray: 0.4,0.66; stroke-dashoffset: 0; stroke: #b0b0b0; stroke-opacity: 0.5; stroke-width: 0.4"/>
     </g>
     <g id="line2d_13">
      <g>
       <use xlink:href="#m6e4f480d41" x="392.385184" y="342.409034" style="stroke: #000000; stroke-width: 0.8"/>
      </g>
     </g>
     <g id="text_5">
      <!-- 4 -->
      <g transform="translate(389.522059 356.247628) scale(0.09 -0.09)">
       <use xlink:href="#DejaVuSans-34"/>
      </g>
     </g>
    </g>
    <g id="xtick_6">
     <g id="line2d_14">
      <path d="M 472.4049 342.409034 
L 472.4049 22.318125 
" clip-path="url(#p0ef3bcd2c2)" style="fill: none; stroke-dasharray: 0.4,0.66; stroke-dashoffset: 0; stroke: #b0b0b0; stroke-opacity: 0.5; stroke-width: 0.4"/>
     </g>
     <g id="line2d_15">
      <g>
       <use xlink:href="#m6e4f480d41" x="472.4049" y="342.409034" style="stroke: #000000; stroke-width: 0.8"/>
      </g>
     </g>
     <g id="text_6">
      <!-- 6 -->
      <g transform="translate(469.541775 356.247628) scale(0.09 -0.09)">
       <defs>
        <path id="DejaVuSans-36" d="M 2113 2584 
Q 1688 2584 1439 2293 
Q 1191 2003 1191 1497 
Q 1191 994 1439 701 
Q 1688 409 2113 409 
Q 2538 409 2786 701 
Q 3034 994 3034 1497 
Q 3034 2003 2786 2293 
Q 2538 2584 2113 2584 
z
M 3366 4563 
L 3366 3988 
Q 3128 4100 2886 4159 
Q 2644 4219 2406 4219 
Q 1781 4219 1451 3797 
Q 1122 3375 1075 2522 
Q 1259 2794 1537 2939 
Q 1816 3084 2150 3084 
Q 2853 3084 3261 2657 
Q 3669 2231 3669 1497 
Q 3669 778 3244 343 
Q 2819 -91 2113 -91 
Q 1303 -91 875 529 
Q 447 1150 447 2328 
Q 447 3434 972 4092 
Q 1497 4750 2381 4750 
Q 2619 4750 2861 4703 
Q 3103 4656 3366 4563 
z
" transform="scale(0.015625)"/>
       </defs>
       <use xlink:href="#DejaVuSans-36"/>
      </g>
     </g>
    </g>
    <g id="xtick_7">
     <g id="line2d_16">
      <path d="M 552.424615 342.409034 
L 552.424615 22.318125 
" clip-path="url(#p0ef3bcd2c2)" style="fill: none; stroke-dasharray: 0.4,0.66; stroke-dashoffset: 0; stroke: #b0b0b0; stroke-opacity: 0.5; stroke-width: 0.4"/>
     </g>
     <g id="line2d_17">
      <g>
       <use xlink:href="#m6e4f480d41" x="552.424615" y="342.409034" style="stroke: #000000; stroke-width: 0.8"/>
      </g>
     </g>
     <g id="text_7">
      <!-- 8 -->
      <g transform="translate(549.56149 356.247628) scale(0.09 -0.09)">
       <defs>
        <path id="DejaVuSans-38" d="M 2034 2216 
Q 1584 2216 1326 1975 
Q 1069 1734 1069 1313 
Q 1069 891 1326 650 
Q 1584 409 2034 409 
Q 2484 409 2743 651 
Q 3003 894 3003 1313 
Q 3003 1734 2745 1975 
Q 2488 2216 2034 2216 
z
M 1403 2484 
Q 997 2584 770 2862 
Q 544 3141 544 3541 
Q 544 4100 942 4425 
Q 1341 4750 2034 4750 
Q 2731 4750 3128 4425 
Q 3525 4100 3525 3541 
Q 3525 3141 3298 2862 
Q 3072 2584 2669 2484 
Q 3125 2378 3379 2068 
Q 3634 1759 3634 1313 
Q 3634 634 3220 271 
Q 2806 -91 2034 -91 
Q 1263 -91 848 271 
Q 434 634 434 1313 
Q 434 1759 690 2068 
Q 947 2378 1403 2484 
z
M 1172 3481 
Q 1172 3119 1398 2916 
Q 1625 2713 2034 2713 
Q 2441 2713 2670 2916 
Q 2900 3119 2900 3481 
Q 2900 3844 2670 4047 
Q 2441 4250 2034 4250 
Q 1625 4250 1398 4047 
Q 1172 3844 1172 3481 
z
" transform="scale(0.015625)"/>
       </defs>
       <use xlink:href="#DejaVuSans-38"/>
      </g>
     </g>
    </g>
    <g id="xtick_8">
     <g id="line2d_18">
      <path d="M 632.44433 342.409034 
L 632.44433 22.318125 
" clip-path="url(#p0ef3bcd2c2)" style="fill: none; stroke-dasharray: 0.4,0.66; stroke-dashoffset: 0; stroke: #b0b0b0; stroke-opacity: 0.5; stroke-width: 0.4"/>
     </g>
     <g id="line2d_19">
      <g>
       <use xlink:href="#m6e4f480d41" x="632.44433" y="342.409034" style="stroke: #000000; stroke-width: 0.8"/>
      </g>
     </g>
     <g id="text_8">
      <!-- 10 -->
      <g transform="translate(626.71808 356.247628) scale(0.09 -0.09)">
       <defs>
        <path id="DejaVuSans-31" d="M 794 531 
L 1825 531 
L 1825 4091 
L 703 3866 
L 703 4441 
L 1819 4666 
L 2450 4666 
L 2450 531 
L 3481 531 
L 3481 0 
L 794 0 
L 794 531 
z
" transform="scale(0.015625)"/>
       </defs>
       <use xlink:href="#DejaVuSans-31"/>
       <use xlink:href="#DejaVuSans-30" transform="translate(63.623047 0)"/>
      </g>
     </g>
    </g>
    <g id="text_9">
     <!-- Grain size (phi) -->
     <g transform="translate(330.516662 370.477628) scale(0.11 -0.11)">
      <defs>
       <path id="DejaVuSans-47" d="M 3809 666 
L 3809 1919 
L 2778 1919 
L 2778 2438 
L 4434 2438 
L 4434 434 
Q 4069 175 3628 42 
Q 3188 -91 2688 -91 
Q 1594 -91 976 548 
Q 359 1188 359 2328 
Q 359 3472 976 4111 
Q 1594 4750 2688 4750 
Q 3144 4750 3555 4637 
Q 3966 4525 4313 4306 
L 4313 3634 
Q 3963 3931 3569 4081 
Q 3175 4231 2741 4231 
Q 1884 4231 1454 3753 
Q 1025 3275 1025 2328 
Q 1025 1384 1454 906 
Q 1884 428 2741 428 
Q 3075 428 3337 486 
Q 3600 544 3809 666 
z
" transform="scale(0.015625)"/>
       <path id="DejaVuSans-72" d="M 2631 2963 
Q 2534 3019 2420 3045 
Q 2306 3072 2169 3072 
Q 1681 3072 1420 2755 
Q 1159 2438 1159 1844 
L 1159 0 
L 581 0 
L 581 3500 
L 1159 3500 
L 1159 2956 
Q 1341 3275 1631 3429 
Q 1922 3584 2338 3584 
Q 2397 3584 2469 3576 
Q 2541 3569 2628 3553 
L 2631 2963 
z
" transform="scale(0.015625)"/>
       <path id="DejaVuSans-61" d="M 2194 1759 
Q 1497 1759 1228 1600 
Q 959 1441 959 1056 
Q 959 750 1161 570 
Q 1363 391 1709 391 
Q 2188 391 2477 730 
Q 2766 1069 2766 1631 
L 2766 1759 
L 2194 1759 
z
M 3341 1997 
L 3341 0 
L 2766 0 
L 2766 531 
Q 2569 213 2275 61 
Q 1981 -91 1556 -91 
Q 1019 -91 701 211 
Q 384 513 384 1019 
Q 384 1609 779 1909 
Q 1175 2209 1959 2209 
L 2766 2209 
L 2766 2266 
Q 2766 2663 2505 2880 
Q 2244 3097 1772 3097 
Q 1472 3097 1187 3025 
Q 903 2953 641 2809 
L 641 3341 
Q 956 3463 1253 3523 
Q 1550 3584 1831 3584 
Q 2591 3584 2966 3190 
Q 3341 2797 3341 1997 
z
" transform="scale(0.015625)"/>
       <path id="DejaVuSans-69" d="M 603 3500 
L 1178 3500 
L 1178 0 
L 603 0 
L 603 3500 
z
M 603 4863 
L 1178 4863 
L 1178 4134 
L 603 4134 
L 603 4863 
z
" transform="scale(0.015625)"/>
       <path id="DejaVuSans-6e" d="M 3513 2113 
L 3513 0 
L 2938 0 
L 2938 2094 
Q 2938 2591 2744 2837 
Q 2550 3084 2163 3084 
Q 1697 3084 1428 2787 
Q 1159 2491 1159 1978 
L 1159 0 
L 581 0 
L 581 3500 
L 1159 3500 
L 1159 2956 
Q 1366 3272 1645 3428 
Q 1925 3584 2291 3584 
Q 2894 3584 3203 3211 
Q 3513 2838 3513 2113 
z
" transform="scale(0.015625)"/>
       <path id="DejaVuSans-20" transform="scale(0.015625)"/>
       <path id="DejaVuSans-73" d="M 2834 3397 
L 2834 2853 
Q 2591 2978 2328 3040 
Q 2066 3103 1784 3103 
Q 1356 3103 1142 2972 
Q 928 2841 928 2578 
Q 928 2378 1081 2264 
Q 1234 2150 1697 2047 
L 1894 2003 
Q 2506 1872 2764 1633 
Q 3022 1394 3022 966 
Q 3022 478 2636 193 
Q 2250 -91 1575 -91 
Q 1294 -91 989 -36 
Q 684 19 347 128 
L 347 722 
Q 666 556 975 473 
Q 1284 391 1588 391 
Q 1994 391 2212 530 
Q 2431 669 2431 922 
Q 2431 1156 2273 1281 
Q 2116 1406 1581 1522 
L 1381 1569 
Q 847 1681 609 1914 
Q 372 2147 372 2553 
Q 372 3047 722 3315 
Q 1072 3584 1716 3584 
Q 2034 3584 2315 3537 
Q 2597 3491 2834 3397 
z
" transform="scale(0.015625)"/>
       <path id="DejaVuSans-7a" d="M 353 3500 
L 3084 3500 
L 3084 2975 
L 922 459 
L 3084 459 
L 3084 0 
L 275 0 
L 275 525 
L 2438 3041 
L 353 3041 
L 353 3500 
z
" transform="scale(0.015625)"/>
       <path id="DejaVuSans-65" d="M 3597 1894 
L 3597 1613 
L 953 1613 
Q 991 1019 1311 708 
Q 1631 397 2203 397 
Q 2534 397 2845 478 
Q 3156 559 3463 722 
L 3463 178 
Q 3153 47 2828 -22 
Q 2503 -91 2169 -91 
Q 1331 -91 842 396 
Q 353 884 353 1716 
Q 353 2575 817 3079 
Q 1281 3584 2069 3584 
Q 2775 3584 3186 3129 
Q 3597 2675 3597 1894 
z
M 3022 2063 
Q 3016 2534 2758 2815 
Q 2500 3097 2075 3097 
Q 1594 3097 1305 2825 
Q 1016 2553 972 2059 
L 3022 2063 
z
" transform="scale(0.015625)"/>
       <path id="DejaVuSans-28" d="M 1984 4856 
Q 1566 4138 1362 3434 
Q 1159 2731 1159 2009 
Q 1159 1288 1364 580 
Q 1569 -128 1984 -844 
L 1484 -844 
Q 1016 -109 783 600 
Q 550 1309 550 2009 
Q 550 2706 781 3412 
Q 1013 4119 1484 4856 
L 1984 4856 
z
" transform="scale(0.015625)"/>
       <path id="DejaVuSans-70" d="M 1159 525 
L 1159 -1331 
L 581 -1331 
L 581 3500 
L 1159 3500 
L 1159 2969 
Q 1341 3281 1617 3432 
Q 1894 3584 2278 3584 
Q 2916 3584 3314 3078 
Q 3713 2572 3713 1747 
Q 3713 922 3314 415 
Q 2916 -91 2278 -91 
Q 1894 -91 1617 61 
Q 1341 213 1159 525 
z
M 3116 1747 
Q 3116 2381 2855 2742 
Q 2594 3103 2138 3103 
Q 1681 3103 1420 2742 
Q 1159 2381 1159 1747 
Q 1159 1113 1420 752 
Q 1681 391 2138 391 
Q 2594 391 2855 752 
Q 3116 1113 3116 1747 
z
" transform="scale(0.015625)"/>
       <path id="DejaVuSans-68" d="M 3513 2113 
L 3513 0 
L 2938 0 
L 2938 2094 
Q 2938 2591 2744 2837 
Q 2550 3084 2163 3084 
Q 1697 3084 1428 2787 
Q 1159 2491 1159 1978 
L 1159 0 
L 581 0 
L 581 4863 
L 1159 4863 
L 1159 2956 
Q 1366 3272 1645 3428 
Q 1925 3584 2291 3584 
Q 2894 3584 3203 3211 
Q 3513 2838 3513 2113 
z
" transform="scale(0.015625)"/>
       <path id="DejaVuSans-29" d="M 513 4856 
L 1013 4856 
Q 1481 4119 1714 3412 
Q 1947 2706 1947 2009 
Q 1947 1309 1714 600 
Q 1481 -109 1013 -844 
L 513 -844 
Q 928 -128 1133 580 
Q 1338 1288 1338 2009 
Q 1338 2731 1133 3434 
Q 928 4138 513 4856 
z
" transform="scale(0.015625)"/>
      </defs>
      <use xlink:href="#DejaVuSans-47"/>
      <use xlink:href="#DejaVuSans-72" transform="translate(77.490234 0)"/>
      <use xlink:href="#DejaVuSans-61" transform="translate(118.603516 0)"/>
      <use xlink:href="#DejaVuSans-69" transform="translate(179.882812 0)"/>
      <use xlink:href="#DejaVuSans-6e" transform="translate(207.666016 0)"/>
      <use xlink:href="#DejaVuSans-20" transform="translate(271.044922 0)"/>
      <use xlink:href="#DejaVuSans-73" transform="translate(302.832031 0)"/>
      <use xlink:href="#DejaVuSans-69" transform="translate(354.931641 0)"/>
      <use xlink:href="#DejaVuSans-7a" transform="translate(382.714844 0)"/>
      <use xlink:href="#DejaVuSans-65" transform="translate(435.205078 0)"/>
      <use xlink:href="#DejaVuSans-20" transform="translate(496.728516 0)"/>
      <use xlink:href="#DejaVuSans-28" transform="translate(528.515625 0)"/>
      <use xlink:href="#DejaVuSans-70" transform="translate(567.529297 0)"/>
      <use xlink:href="#DejaVuSans-68" transform="translate(631.005859 0)"/>
      <use xlink:href="#DejaVuSans-69" transform="translate(694.384766 0)"/>
      <use xlink:href="#DejaVuSans-29" transform="translate(722.167969 0)"/>
     </g>
    </g>
   </g>
   <g id="matplotlib.axis_2">
    <g id="ytick_1">
     <g id="line2d_20">
      <path d="M 40.298438 342.409034 
L 704.462074 342.409034 
" clip-path="url(#p0ef3bcd2c2)" style="fill: none; stroke-dasharray: 0.4,0.66; stroke-dashoffset: 0; stroke: #b0b0b0; stroke-opacity: 0.5; stroke-width: 0.4"/>
     </g>
     <g id="line2d_21">
      <defs>
       <path id="m5d51edc9da" d="M 0 0 
L -3.5 0 
" style="stroke: #000000; stroke-width: 0.8"/>
      </defs>
      <g>
       <use xlink:href="#m5d51edc9da" x="40.298438" y="342.409034" style="stroke: #000000; stroke-width: 0.8"/>
      </g>
     </g>
     <g id="text_10">
      <!-- 0 -->
      <g transform="translate(27.572188 345.828331) scale(0.09 -0.09)">
       <use xlink:href="#DejaVuSans-30"/>
      </g>
     </g>
    </g>
    <g id="ytick_2">
     <g id="line2d_22">
      <path d="M 40.298438 297.494783 
L 704.462074 297.494783 
" clip-path="url(#p0ef3bcd2c2)" style="fill: none; stroke-dasharray: 0.4,0.66; stroke-dashoffset: 0; stroke: #b0b0b0; stroke-opacity: 0.5; stroke-width: 0.4"/>
     </g>
     <g id="line2d_23">
      <g>
       <use xlink:href="#m5d51edc9da" x="40.298438" y="297.494783" style="stroke: #000000; stroke-width: 0.8"/>
      </g>
     </g>
     <g id="text_11">
      <!-- 5 -->
      <g transform="translate(27.572188 300.91408) scale(0.09 -0.09)">
       <defs>
        <path id="DejaVuSans-35" d="M 691 4666 
L 3169 4666 
L 3169 4134 
L 1269 4134 
L 1269 2991 
Q 1406 3038 1543 3061 
Q 1681 3084 1819 3084 
Q 2600 3084 3056 2656 
Q 3513 2228 3513 1497 
Q 3513 744 3044 326 
Q 2575 -91 1722 -91 
Q 1428 -91 1123 -41 
Q 819 9 494 109 
L 494 744 
Q 775 591 1075 516 
Q 1375 441 1709 441 
Q 2250 441 2565 725 
Q 2881 1009 2881 1497 
Q 2881 1984 2565 2268 
Q 2250 2553 1709 2553 
Q 1456 2553 1204 2497 
Q 953 2441 691 2322 
L 691 4666 
z
" transform="scale(0.015625)"/>
       </defs>
       <use xlink:href="#DejaVuSans-35"/>
      </g>
     </g>
    </g>
    <g id="ytick_3">
     <g id="line2d_24">
      <path d="M 40.298438 252.580532 
L 704.462074 252.580532 
" clip-path="url(#p0ef3bcd2c2)" style="fill: none; stroke-dasharray: 0.4,0.66; stroke-dashoffset: 0; stroke: #b0b0b0; stroke-opacity: 0.5; stroke-width: 0.4"/>
     </g>
     <g id="line2d_25">
      <g>
       <use xlink:href="#m5d51edc9da" x="40.298438" y="252.580532" style="stroke: #000000; stroke-width: 0.8"/>
      </g>
     </g>
     <g id="text_12">
      <!-- 10 -->
      <g transform="translate(21.845938 255.999829) scale(0.09 -0.09)">
       <use xlink:href="#DejaVuSans-31"/>
       <use xlink:href="#DejaVuSans-30" transform="translate(63.623047 0)"/>
      </g>
     </g>
    </g>
    <g id="ytick_4">
     <g id="line2d_26">
      <path d="M 40.298438 207.666282 
L 704.462074 207.666282 
" clip-path="url(#p0ef3bcd2c2)" style="fill: none; stroke-dasharray: 0.4,0.66; stroke-dashoffset: 0; stroke: #b0b0b0; stroke-opacity: 0.5; stroke-width: 0.4"/>
     </g>
     <g id="line2d_27">
      <g>
       <use xlink:href="#m5d51edc9da" x="40.298438" y="207.666282" style="stroke: #000000; stroke-width: 0.8"/>
      </g>
     </g>
     <g id="text_13">
      <!-- 15 -->
      <g transform="translate(21.845938 211.085578) scale(0.09 -0.09)">
       <use xlink:href="#DejaVuSans-31"/>
       <use xlink:href="#DejaVuSans-35" transform="translate(63.623047 0)"/>
      </g>
     </g>
    </g>
    <g id="ytick_5">
     <g id="line2d_28">
      <path d="M 40.298438 162.752031 
L 704.462074 162.752031 
" clip-path="url(#p0ef3bcd2c2)" style="fill: none; stroke-dasharray: 0.4,0.66; stroke-dashoffset: 0; stroke: #b0b0b0; stroke-opacity: 0.5; stroke-width: 0.4"/>
     </g>
     <g id="line2d_29">
      <g>
       <use xlink:href="#m5d51edc9da" x="40.298438" y="162.752031" style="stroke: #000000; stroke-width: 0.8"/>
      </g>
     </g>
     <g id="text_14">
      <!-- 20 -->
      <g transform="translate(21.845938 166.171328) scale(0.09 -0.09)">
       <use xlink:href="#DejaVuSans-32"/>
       <use xlink:href="#DejaVuSans-30" transform="translate(63.623047 0)"/>
      </g>
     </g>
    </g>
    <g id="ytick_6">
     <g id="line2d_30">
      <path d="M 40.298438 117.83778 
L 704.462074 117.83778 
" clip-path="url(#p0ef3bcd2c2)" style="fill: none; stroke-dasharray: 0.4,0.66; stroke-dashoffset: 0; stroke: #b0b0b0; stroke-opacity: 0.5; stroke-width: 0.4"/>
     </g>
     <g id="line2d_31">
      <g>
       <use xlink:href="#m5d51edc9da" x="40.298438" y="117.83778" style="stroke: #000000; stroke-width: 0.8"/>
      </g>
     </g>
     <g id="text_15">
      <!-- 25 -->
      <g transform="translate(21.845938 121.257077) scale(0.09 -0.09)">
       <use xlink:href="#DejaVuSans-32"/>
       <use xlink:href="#DejaVuSans-35" transform="translate(63.623047 0)"/>
      </g>
     </g>
    </g>
    <g id="ytick_7">
     <g id="line2d_32">
      <path d="M 40.298438 72.923529 
L 704.462074 72.923529 
" clip-path="url(#p0ef3bcd2c2)" style="fill: none; stroke-dasharray: 0.4,0.66; stroke-dashoffset: 0; stroke: #b0b0b0; stroke-opacity: 0.5; stroke-width: 0.4"/>
     </g>
     <g id="line2d_33">
      <g>
       <use xlink:href="#m5d51edc9da" x="40.298438" y="72.923529" style="stroke: #000000; stroke-width: 0.8"/>
      </g>
     </g>
     <g id="text_16">
      <!-- 30 -->
      <g transform="translate(21.845938 76.342826) scale(0.09 -0.09)">
       <defs>
        <path id="DejaVuSans-33" d="M 2597 2516 
Q 3050 2419 3304 2112 
Q 3559 1806 3559 1356 
Q 3559 666 3084 287 
Q 2609 -91 1734 -91 
Q 1441 -91 1130 -33 
Q 819 25 488 141 
L 488 750 
Q 750 597 1062 519 
Q 1375 441 1716 441 
Q 2309 441 2620 675 
Q 2931 909 2931 1356 
Q 2931 1769 2642 2001 
Q 2353 2234 1838 2234 
L 1294 2234 
L 1294 2753 
L 1863 2753 
Q 2328 2753 2575 2939 
Q 2822 3125 2822 3475 
Q 2822 3834 2567 4026 
Q 2313 4219 1838 4219 
Q 1578 4219 1281 4162 
Q 984 4106 628 3988 
L 628 4550 
Q 988 4650 1302 4700 
Q 1616 4750 1894 4750 
Q 2613 4750 3031 4423 
Q 3450 4097 3450 3541 
Q 3450 3153 3228 2886 
Q 3006 2619 2597 2516 
z
" transform="scale(0.015625)"/>
       </defs>
       <use xlink:href="#DejaVuSans-33"/>
       <use xlink:href="#DejaVuSans-30" transform="translate(63.623047 0)"/>
      </g>
     </g>
    </g>
    <g id="ytick_8">
     <g id="line2d_34">
      <path d="M 40.298438 28.009278 
L 704.462074 28.009278 
" clip-path="url(#p0ef3bcd2c2)" style="fill: none; stroke-dasharray: 0.4,0.66; stroke-dashoffset: 0; stroke: #b0b0b0; stroke-opacity: 0.5; stroke-width: 0.4"/>
     </g>
     <g id="line2d_35">
      <g>
       <use xlink:href="#m5d51edc9da" x="40.298438" y="28.009278" style="stroke: #000000; stroke-width: 0.8"/>
      </g>
     </g>
     <g id="text_17">
      <!-- 35 -->
      <g transform="translate(21.845938 31.428575) scale(0.09 -0.09)">
       <use xlink:href="#DejaVuSans-33"/>
       <use xlink:href="#DejaVuSans-35" transform="translate(63.623047 0)"/>
      </g>
     </g>
    </g>
    <g id="text_18">
     <!-- Weight % -->
     <g transform="translate(15.558281 208.498033) rotate(-90) scale(0.11 -0.11)">
      <defs>
       <path id="DejaVuSans-57" d="M 213 4666 
L 850 4666 
L 1831 722 
L 2809 4666 
L 3519 4666 
L 4500 722 
L 5478 4666 
L 6119 4666 
L 4947 0 
L 4153 0 
L 3169 4050 
L 2175 0 
L 1381 0 
L 213 4666 
z
" transform="scale(0.015625)"/>
       <path id="DejaVuSans-67" d="M 2906 1791 
Q 2906 2416 2648 2759 
Q 2391 3103 1925 3103 
Q 1463 3103 1205 2759 
Q 947 2416 947 1791 
Q 947 1169 1205 825 
Q 1463 481 1925 481 
Q 2391 481 2648 825 
Q 2906 1169 2906 1791 
z
M 3481 434 
Q 3481 -459 3084 -895 
Q 2688 -1331 1869 -1331 
Q 1566 -1331 1297 -1286 
Q 1028 -1241 775 -1147 
L 775 -588 
Q 1028 -725 1275 -790 
Q 1522 -856 1778 -856 
Q 2344 -856 2625 -561 
Q 2906 -266 2906 331 
L 2906 616 
Q 2728 306 2450 153 
Q 2172 0 1784 0 
Q 1141 0 747 490 
Q 353 981 353 1791 
Q 353 2603 747 3093 
Q 1141 3584 1784 3584 
Q 2172 3584 2450 3431 
Q 2728 3278 2906 2969 
L 2906 3500 
L 3481 3500 
L 3481 434 
z
" transform="scale(0.015625)"/>
       <path id="DejaVuSans-74" d="M 1172 4494 
L 1172 3500 
L 2356 3500 
L 2356 3053 
L 1172 3053 
L 1172 1153 
Q 1172 725 1289 603 
Q 1406 481 1766 481 
L 2356 481 
L 2356 0 
L 1766 0 
Q 1100 0 847 248 
Q 594 497 594 1153 
L 594 3053 
L 172 3053 
L 172 3500 
L 594 3500 
L 594 4494 
L 1172 4494 
z
" transform="scale(0.015625)"/>
       <path id="DejaVuSans-25" d="M 4653 2053 
Q 4381 2053 4226 1822 
Q 4072 1591 4072 1178 
Q 4072 772 4226 539 
Q 4381 306 4653 306 
Q 4919 306 5073 539 
Q 5228 772 5228 1178 
Q 5228 1588 5073 1820 
Q 4919 2053 4653 2053 
z
M 4653 2450 
Q 5147 2450 5437 2106 
Q 5728 1763 5728 1178 
Q 5728 594 5436 251 
Q 5144 -91 4653 -91 
Q 4153 -91 3862 251 
Q 3572 594 3572 1178 
Q 3572 1766 3864 2108 
Q 4156 2450 4653 2450 
z
M 1428 4353 
Q 1159 4353 1004 4120 
Q 850 3888 850 3481 
Q 850 3069 1003 2837 
Q 1156 2606 1428 2606 
Q 1700 2606 1854 2837 
Q 2009 3069 2009 3481 
Q 2009 3884 1853 4118 
Q 1697 4353 1428 4353 
z
M 4250 4750 
L 4750 4750 
L 1831 -91 
L 1331 -91 
L 4250 4750 
z
M 1428 4750 
Q 1922 4750 2215 4408 
Q 2509 4066 2509 3481 
Q 2509 2891 2217 2550 
Q 1925 2209 1428 2209 
Q 931 2209 642 2551 
Q 353 2894 353 3481 
Q 353 4063 643 4406 
Q 934 4750 1428 4750 
z
" transform="scale(0.015625)"/>
      </defs>
      <use xlink:href="#DejaVuSans-57"/>
      <use xlink:href="#DejaVuSans-65" transform="translate(93.001953 0)"/>
      <use xlink:href="#DejaVuSans-69" transform="translate(154.525391 0)"/>
      <use xlink:href="#DejaVuSans-67" transform="translate(182.308594 0)"/>
      <use xlink:href="#DejaVuSans-68" transform="translate(245.785156 0)"/>
      <use xlink:href="#DejaVuSans-74" transform="translate(309.164062 0)"/>
      <use xlink:href="#DejaVuSans-20" transform="translate(348.373047 0)"/>
      <use xlink:href="#DejaVuSans-25" transform="translate(380.160156 0)"/>
     </g>
    </g>
   </g>
   <g id="patch_7">
    <path d="M 68.055276 342.409034 
L 76.557371 342.409034 
L 76.557371 342.409034 
L 68.055276 342.409034 
z
" clip-path="url(#p0ef3bcd2c2)" style="fill: #ffffff; opacity: 0.65; stroke: #4c4c4c; stroke-width: 0.6; stroke-linejoin: miter"/>
   </g>
   <g id="patch_8">
    <path d="M 78.057741 342.409034 
L 86.559835 342.409034 
L 86.559835 342.409034 
L 78.057741 342.409034 
z
" clip-path="url(#p0ef3bcd2c2)" style="fill: #ffffff; opacity: 0.65; stroke: #4c4c4c; stroke-width: 0.6; stroke-linejoin: miter"/>
   </g>
   <g id="patch_9">
    <path d="M 88.060205 342.409034 
L 96.5623 342.409034 
L 96.5623 342.409034 
L 88.060205 342.409034 
z
" clip-path="url(#p0ef3bcd2c2)" style="fill: #ffffff; opacity: 0.65; stroke: #4c4c4c; stroke-width: 0.6; stroke-linejoin: miter"/>
   </g>
   <g id="patch_10">
    <path d="M 98.062669 342.409034 
L 106.564764 342.409034 
L 106.564764 342.409034 
L 98.062669 342.409034 
z
" clip-path="url(#p0ef3bcd2c2)" style="fill: #ffffff; opacity: 0.65; stroke: #4c4c4c; stroke-width: 0.6; stroke-linejoin: miter"/>
   </g>
   <g id="patch_11">
    <path d="M 108.065134 342.409034 
L 116.567229 342.409034 
L 116.567229 342.409034 
L 108.065134 342.409034 
z
" clip-path="url(#p0ef3bcd2c2)" style="fill: #ffffff; opacity: 0.65; stroke: #4c4c4c; stroke-width: 0.6; stroke-linejoin: miter"/>
   </g>
   <g id="patch_12">
    <path d="M 118.067598 342.409034 
L 126.569693 342.409034 
L 126.569693 342.409034 
L 118.067598 342.409034 
z
" clip-path="url(#p0ef3bcd2c2)" style="fill: #ffffff; opacity: 0.65; stroke: #4c4c4c; stroke-width: 0.6; stroke-linejoin: miter"/>
   </g>
   <g id="patch_13">
    <path d="M 128.070063 342.409034 
L 136.572157 342.409034 
L 136.572157 342.409034 
L 128.070063 342.409034 
z
" clip-path="url(#p0ef3bcd2c2)" style="fill: #ffffff; opacity: 0.65; stroke: #4c4c4c; stroke-width: 0.6; stroke-linejoin: miter"/>
   </g>
   <g id="patch_14">
    <path d="M 138.072527 342.409034 
L 146.574622 342.409034 
L 146.574622 342.409034 
L 138.072527 342.409034 
z
" clip-path="url(#p0ef3bcd2c2)" style="fill: #ffffff; opacity: 0.65; stroke: #4c4c4c; stroke-width: 0.6; stroke-linejoin: miter"/>
   </g>
   <g id="patch_15">
    <path d="M 148.074991 342.409034 
L 156.577086 342.409034 
L 156.577086 342.409034 
L 148.074991 342.409034 
z
" clip-path="url(#p0ef3bcd2c2)" style="fill: #ffffff; opacity: 0.65; stroke: #4c4c4c; stroke-width: 0.6; stroke-linejoin: miter"/>
   </g>
   <g id="patch_16">
    <path d="M 158.077456 342.409034 
L 166.579551 342.409034 
L 166.579551 342.409034 
L 158.077456 342.409034 
z
" clip-path="url(#p0ef3bcd2c2)" style="fill: #ffffff; opacity: 0.65; stroke: #4c4c4c; stroke-width: 0.6; stroke-linejoin: miter"/>
   </g>
   <g id="patch_17">
    <path d="M 168.07992 342.409034 
L 176.582015 342.409034 
L 176.582015 342.409034 
L 168.07992 342.409034 
z
" clip-path="url(#p0ef3bcd2c2)" style="fill: #ffffff; opacity: 0.65; stroke: #4c4c4c; stroke-width: 0.6; stroke-linejoin: miter"/>
   </g>
   <g id="patch_18">
    <path d="M 178.082385 342.409034 
L 186.584479 342.409034 
L 186.584479 342.409034 
L 178.082385 342.409034 
z
" clip-path="url(#p0ef3bcd2c2)" style="fill: #ffffff; opacity: 0.65; stroke: #4c4c4c; stroke-width: 0.6; stroke-linejoin: miter"/>
   </g>
   <g id="patch_19">
    <path d="M 188.084849 342.409034 
L 196.586944 342.409034 
L 196.586944 342.409034 
L 188.084849 342.409034 
z
" clip-path="url(#p0ef3bcd2c2)" style="fill: #ffffff; opacity: 0.65; stroke: #4c4c4c; stroke-width: 0.6; stroke-linejoin: miter"/>
   </g>
   <g id="patch_20">
    <path d="M 198.087313 342.409034 
L 206.589408 342.409034 
L 206.589408 342.409034 
L 198.087313 342.409034 
z
" clip-path="url(#p0ef3bcd2c2)" style="fill: #ffffff; opacity: 0.65; stroke: #4c4c4c; stroke-width: 0.6; stroke-linejoin: miter"/>
   </g>
   <g id="patch_21">
    <path d="M 208.089778 342.409034 
L 216.591873 342.409034 
L 216.591873 342.409034 
L 208.089778 342.409034 
z
" clip-path="url(#p0ef3bcd2c2)" style="fill: #ffffff; opacity: 0.65; stroke: #4c4c4c; stroke-width: 0.6; stroke-linejoin: miter"/>
   </g>
   <g id="patch_22">
    <path d="M 218.092242 342.409034 
L 226.594337 342.409034 
L 226.594337 342.409034 
L 218.092242 342.409034 
z
" clip-path="url(#p0ef3bcd2c2)" style="fill: #ffffff; opacity: 0.65; stroke: #4c4c4c; stroke-width: 0.6; stroke-linejoin: miter"/>
   </g>
   <g id="patch_23">
    <path d="M 228.094707 342.409034 
L 236.596801 342.409034 
L 236.596801 342.409034 
L 228.094707 342.409034 
z
" clip-path="url(#p0ef3bcd2c2)" style="fill: #ffffff; opacity: 0.65; stroke: #4c4c4c; stroke-width: 0.6; stroke-linejoin: miter"/>
   </g>
   <g id="patch_24">
    <path d="M 238.097171 342.409034 
L 246.599266 342.409034 
L 246.599266 342.404543 
L 238.097171 342.404543 
z
" clip-path="url(#p0ef3bcd2c2)" style="fill: #ffffff; opacity: 0.65; stroke: #4c4c4c; stroke-width: 0.6; stroke-linejoin: miter"/>
   </g>
   <g id="patch_25">
    <path d="M 248.099635 342.409034 
L 256.60173 342.409034 
L 256.60173 342.230275 
L 248.099635 342.230275 
z
" clip-path="url(#p0ef3bcd2c2)" style="fill: #ffffff; opacity: 0.65; stroke: #4c4c4c; stroke-width: 0.6; stroke-linejoin: miter"/>
   </g>
   <g id="patch_26">
    <path d="M 258.1021 342.409034 
L 266.604195 342.409034 
L 266.604195 339.501283 
L 258.1021 339.501283 
z
" clip-path="url(#p0ef3bcd2c2)" style="fill: #ffffff; opacity: 0.65; stroke: #4c4c4c; stroke-width: 0.6; stroke-linejoin: miter"/>
   </g>
   <g id="patch_27">
    <path d="M 268.104564 342.409034 
L 276.606659 342.409034 
L 276.606659 315.226004 
L 268.104564 315.226004 
z
" clip-path="url(#p0ef3bcd2c2)" style="fill: #ffffff; opacity: 0.65; stroke: #4c4c4c; stroke-width: 0.6; stroke-linejoin: miter"/>
   </g>
   <g id="patch_28">
    <path d="M 278.107029 342.409034 
L 286.609123 342.409034 
L 286.609123 223.207391 
L 278.107029 223.207391 
z
" clip-path="url(#p0ef3bcd2c2)" style="fill: #ffffff; opacity: 0.65; stroke: #4c4c4c; stroke-width: 0.6; stroke-linejoin: miter"/>
   </g>
   <g id="patch_29">
    <path d="M 288.109493 342.409034 
L 296.611588 342.409034 
L 296.611588 92.161849 
L 288.109493 92.161849 
z
" clip-path="url(#p0ef3bcd2c2)" style="fill: #ffffff; opacity: 0.65; stroke: #4c4c4c; stroke-width: 0.6; stroke-linejoin: miter"/>
   </g>
   <g id="patch_30">
    <path d="M 298.111957 342.409034 
L 306.614052 342.409034 
L 306.614052 71.145552 
L 298.111957 71.145552 
z
" clip-path="url(#p0ef3bcd2c2)" style="fill: #ffffff; opacity: 0.65; stroke: #4c4c4c; stroke-width: 0.6; stroke-linejoin: miter"/>
   </g>
   <g id="patch_31">
    <path d="M 308.114422 342.409034 
L 316.616517 342.409034 
L 316.616517 174.551735 
L 308.114422 174.551735 
z
" clip-path="url(#p0ef3bcd2c2)" style="fill: #ffffff; opacity: 0.65; stroke: #4c4c4c; stroke-width: 0.6; stroke-linejoin: miter"/>
   </g>
   <g id="patch_32">
    <path d="M 318.116886 342.409034 
L 326.618981 342.409034 
L 326.618981 298.480158 
L 318.116886 298.480158 
z
" clip-path="url(#p0ef3bcd2c2)" style="fill: #ffffff; opacity: 0.65; stroke: #4c4c4c; stroke-width: 0.6; stroke-linejoin: miter"/>
   </g>
   <g id="patch_33">
    <path d="M 328.119351 342.409034 
L 336.621445 342.409034 
L 336.621445 336.528854 
L 328.119351 336.528854 
z
" clip-path="url(#p0ef3bcd2c2)" style="fill: #ffffff; opacity: 0.65; stroke: #4c4c4c; stroke-width: 0.6; stroke-linejoin: miter"/>
   </g>
   <g id="patch_34">
    <path d="M 338.121815 342.409034 
L 346.62391 342.409034 
L 346.62391 341.882639 
L 338.121815 341.882639 
z
" clip-path="url(#p0ef3bcd2c2)" style="fill: #ffffff; opacity: 0.65; stroke: #4c4c4c; stroke-width: 0.6; stroke-linejoin: miter"/>
   </g>
   <g id="patch_35">
    <path d="M 348.12428 342.409034 
L 356.626374 342.409034 
L 356.626374 342.181768 
L 348.12428 342.181768 
z
" clip-path="url(#p0ef3bcd2c2)" style="fill: #ffffff; opacity: 0.65; stroke: #4c4c4c; stroke-width: 0.6; stroke-linejoin: miter"/>
   </g>
   <g id="patch_36">
    <path d="M 358.126744 342.409034 
L 366.628839 342.409034 
L 366.628839 342.104515 
L 358.126744 342.104515 
z
" clip-path="url(#p0ef3bcd2c2)" style="fill: #ffffff; opacity: 0.65; stroke: #4c4c4c; stroke-width: 0.6; stroke-linejoin: miter"/>
   </g>
   <g id="patch_37">
    <path d="M 368.129208 342.409034 
L 376.631303 342.409034 
L 376.631303 341.915875 
L 368.129208 341.915875 
z
" clip-path="url(#p0ef3bcd2c2)" style="fill: #ffffff; opacity: 0.65; stroke: #4c4c4c; stroke-width: 0.6; stroke-linejoin: miter"/>
   </g>
   <g id="patch_38">
    <path d="M 378.131673 342.409034 
L 386.633767 342.409034 
L 386.633767 341.6931 
L 378.131673 341.6931 
z
" clip-path="url(#p0ef3bcd2c2)" style="fill: #ffffff; opacity: 0.65; stroke: #4c4c4c; stroke-width: 0.6; stroke-linejoin: miter"/>
   </g>
   <g id="patch_39">
    <path d="M 388.134137 342.409034 
L 396.636232 342.409034 
L 396.636232 341.380497 
L 388.134137 341.380497 
z
" clip-path="url(#p0ef3bcd2c2)" style="fill: #ffffff; opacity: 0.65; stroke: #4c4c4c; stroke-width: 0.6; stroke-linejoin: miter"/>
   </g>
   <g id="patch_40">
    <path d="M 398.136602 342.409034 
L 406.638696 342.409034 
L 406.638696 341.283482 
L 398.136602 341.283482 
z
" clip-path="url(#p0ef3bcd2c2)" style="fill: #ffffff; opacity: 0.65; stroke: #4c4c4c; stroke-width: 0.6; stroke-linejoin: miter"/>
   </g>
   <g id="patch_41">
    <path d="M 408.139066 342.409034 
L 416.641161 342.409034 
L 416.641161 341.199043 
L 408.139066 341.199043 
z
" clip-path="url(#p0ef3bcd2c2)" style="fill: #ffffff; opacity: 0.65; stroke: #4c4c4c; stroke-width: 0.6; stroke-linejoin: miter"/>
   </g>
   <g id="patch_42">
    <path d="M 418.14153 342.409034 
L 426.643625 342.409034 
L 426.643625 341.362531 
L 418.14153 341.362531 
z
" clip-path="url(#p0ef3bcd2c2)" style="fill: #ffffff; opacity: 0.65; stroke: #4c4c4c; stroke-width: 0.6; stroke-linejoin: miter"/>
   </g>
   <g id="patch_43">
    <path d="M 428.143995 342.409034 
L 436.646089 342.409034 
L 436.646089 341.50446 
L 428.143995 341.50446 
z
" clip-path="url(#p0ef3bcd2c2)" style="fill: #ffffff; opacity: 0.65; stroke: #4c4c4c; stroke-width: 0.6; stroke-linejoin: miter"/>
   </g>
   <g id="patch_44">
    <path d="M 438.146459 342.409034 
L 446.648554 342.409034 
L 446.648554 341.641898 
L 438.146459 341.641898 
z
" clip-path="url(#p0ef3bcd2c2)" style="fill: #ffffff; opacity: 0.65; stroke: #4c4c4c; stroke-width: 0.6; stroke-linejoin: miter"/>
   </g>
   <g id="patch_45">
    <path d="M 448.148924 342.409034 
L 456.651018 342.409034 
L 456.651018 341.873656 
L 448.148924 341.873656 
z
" clip-path="url(#p0ef3bcd2c2)" style="fill: #ffffff; opacity: 0.65; stroke: #4c4c4c; stroke-width: 0.6; stroke-linejoin: miter"/>
   </g>
   <g id="patch_46">
    <path d="M 458.151388 342.409034 
L 466.653483 342.409034 
L 466.653483 342.056008 
L 458.151388 342.056008 
z
" clip-path="url(#p0ef3bcd2c2)" style="fill: #ffffff; opacity: 0.65; stroke: #4c4c4c; stroke-width: 0.6; stroke-linejoin: miter"/>
   </g>
   <g id="patch_47">
    <path d="M 468.153852 342.409034 
L 476.655947 342.409034 
L 476.655947 342.209615 
L 468.153852 342.209615 
z
" clip-path="url(#p0ef3bcd2c2)" style="fill: #ffffff; opacity: 0.65; stroke: #4c4c4c; stroke-width: 0.6; stroke-linejoin: miter"/>
   </g>
   <g id="patch_48">
    <path d="M 478.156317 342.409034 
L 486.658411 342.409034 
L 486.658411 342.30124 
L 478.156317 342.30124 
z
" clip-path="url(#p0ef3bcd2c2)" style="fill: #ffffff; opacity: 0.65; stroke: #4c4c4c; stroke-width: 0.6; stroke-linejoin: miter"/>
   </g>
   <g id="patch_49">
    <path d="M 488.158781 342.409034 
L 496.660876 342.409034 
L 496.660876 342.357832 
L 488.158781 342.357832 
z
" clip-path="url(#p0ef3bcd2c2)" style="fill: #ffffff; opacity: 0.65; stroke: #4c4c4c; stroke-width: 0.6; stroke-linejoin: miter"/>
   </g>
   <g id="patch_50">
    <path d="M 498.161246 342.409034 
L 506.66334 342.409034 
L 506.66334 342.385679 
L 498.161246 342.385679 
z
" clip-path="url(#p0ef3bcd2c2)" style="fill: #ffffff; opacity: 0.65; stroke: #4c4c4c; stroke-width: 0.6; stroke-linejoin: miter"/>
   </g>
   <g id="patch_51">
    <path d="M 508.16371 342.409034 
L 516.665805 342.409034 
L 516.665805 342.400051 
L 508.16371 342.400051 
z
" clip-path="url(#p0ef3bcd2c2)" style="fill: #ffffff; opacity: 0.65; stroke: #4c4c4c; stroke-width: 0.6; stroke-linejoin: miter"/>
   </g>
   <g id="patch_52">
    <path d="M 518.166174 342.409034 
L 526.668269 342.409034 
L 526.668269 342.406339 
L 518.166174 342.406339 
z
" clip-path="url(#p0ef3bcd2c2)" style="fill: #ffffff; opacity: 0.65; stroke: #4c4c4c; stroke-width: 0.6; stroke-linejoin: miter"/>
   </g>
   <g id="patch_53">
    <path d="M 528.168639 342.409034 
L 536.670734 342.409034 
L 536.670734 342.408136 
L 528.168639 342.408136 
z
" clip-path="url(#p0ef3bcd2c2)" style="fill: #ffffff; opacity: 0.65; stroke: #4c4c4c; stroke-width: 0.6; stroke-linejoin: miter"/>
   </g>
   <g id="patch_54">
    <path d="M 538.171103 342.409034 
L 546.673198 342.409034 
L 546.673198 342.409034 
L 538.171103 342.409034 
z
" clip-path="url(#p0ef3bcd2c2)" style="fill: #ffffff; opacity: 0.65; stroke: #4c4c4c; stroke-width: 0.6; stroke-linejoin: miter"/>
   </g>
   <g id="patch_55">
    <path d="M 548.173568 342.409034 
L 556.675662 342.409034 
L 556.675662 342.409034 
L 548.173568 342.409034 
z
" clip-path="url(#p0ef3bcd2c2)" style="fill: #ffffff; opacity: 0.65; stroke: #4c4c4c; stroke-width: 0.6; stroke-linejoin: miter"/>
   </g>
   <g id="patch_56">
    <path d="M 558.176032 342.409034 
L 566.678127 342.409034 
L 566.678127 342.409034 
L 558.176032 342.409034 
z
" clip-path="url(#p0ef3bcd2c2)" style="fill: #ffffff; opacity: 0.65; stroke: #4c4c4c; stroke-width: 0.6; stroke-linejoin: miter"/>
   </g>
   <g id="patch_57">
    <path d="M 568.178496 342.409034 
L 576.680591 342.409034 
L 576.680591 342.409034 
L 568.178496 342.409034 
z
" clip-path="url(#p0ef3bcd2c2)" style="fill: #ffffff; opacity: 0.65; stroke: #4c4c4c; stroke-width: 0.6; stroke-linejoin: miter"/>
   </g>
   <g id="patch_58">
    <path d="M 578.180961 342.409034 
L 586.683056 342.409034 
L 586.683056 342.409034 
L 578.180961 342.409034 
z
" clip-path="url(#p0ef3bcd2c2)" style="fill: #ffffff; opacity: 0.65; stroke: #4c4c4c; stroke-width: 0.6; stroke-linejoin: miter"/>
   </g>
   <g id="patch_59">
    <path d="M 588.183425 342.409034 
L 596.68552 342.409034 
L 596.68552 342.409034 
L 588.183425 342.409034 
z
" clip-path="url(#p0ef3bcd2c2)" style="fill: #ffffff; opacity: 0.65; stroke: #4c4c4c; stroke-width: 0.6; stroke-linejoin: miter"/>
   </g>
   <g id="patch_60">
    <path d="M 598.18589 342.409034 
L 606.687984 342.409034 
L 606.687984 342.409034 
L 598.18589 342.409034 
z
" clip-path="url(#p0ef3bcd2c2)" style="fill: #ffffff; opacity: 0.65; stroke: #4c4c4c; stroke-width: 0.6; stroke-linejoin: miter"/>
   </g>
   <g id="patch_61">
    <path d="M 608.188354 342.409034 
L 616.690449 342.409034 
L 616.690449 342.409034 
L 608.188354 342.409034 
z
" clip-path="url(#p0ef3bcd2c2)" style="fill: #ffffff; opacity: 0.65; stroke: #4c4c4c; stroke-width: 0.6; stroke-linejoin: miter"/>
   </g>
   <g id="patch_62">
    <path d="M 618.190818 342.409034 
L 626.692913 342.409034 
L 626.692913 342.409034 
L 618.190818 342.409034 
z
" clip-path="url(#p0ef3bcd2c2)" style="fill: #ffffff; opacity: 0.65; stroke: #4c4c4c; stroke-width: 0.6; stroke-linejoin: miter"/>
   </g>
   <g id="patch_63">
    <path d="M 628.193283 342.409034 
L 636.695378 342.409034 
L 636.695378 342.409034 
L 628.193283 342.409034 
z
" clip-path="url(#p0ef3bcd2c2)" style="fill: #ffffff; opacity: 0.65; stroke: #4c4c4c; stroke-width: 0.6; stroke-linejoin: miter"/>
   </g>
   <g id="patch_64">
    <path d="M 638.195747 342.409034 
L 646.697842 342.409034 
L 646.697842 342.409034 
L 638.195747 342.409034 
z
" clip-path="url(#p0ef3bcd2c2)" style="fill: #ffffff; opacity: 0.65; stroke: #4c4c4c; stroke-width: 0.6; stroke-linejoin: miter"/>
   </g>
   <g id="patch_65">
    <path d="M 648.198212 342.409034 
L 656.700306 342.409034 
L 656.700306 342.409034 
L 648.198212 342.409034 
z
" clip-path="url(#p0ef3bcd2c2)" style="fill: #ffffff; opacity: 0.65; stroke: #4c4c4c; stroke-width: 0.6; stroke-linejoin: miter"/>
   </g>
   <g id="patch_66">
    <path d="M 658.200676 342.409034 
L 666.702771 342.409034 
L 666.702771 342.409034 
L 658.200676 342.409034 
z
" clip-path="url(#p0ef3bcd2c2)" style="fill: #ffffff; opacity: 0.65; stroke: #4c4c4c; stroke-width: 0.6; stroke-linejoin: miter"/>
   </g>
   <g id="patch_67">
    <path d="M 668.20314 342.409034 
L 676.705235 342.409034 
L 676.705235 342.409034 
L 668.20314 342.409034 
z
" clip-path="url(#p0ef3bcd2c2)" style="fill: #ffffff; opacity: 0.65; stroke: #4c4c4c; stroke-width: 0.6; stroke-linejoin: miter"/>
   </g>
   <g id="patch_68">
    <path d="M 40.298438 342.409034 
L 40.298438 22.318125 
" style="fill: none; stroke: #404040; stroke-width: 0.9; stroke-linejoin: miter; stroke-linecap: square"/>
   </g>
   <g id="patch_69">
    <path d="M 704.462074 342.409034 
L 704.462074 22.318125 
" style="fill: none; stroke: #404040; stroke-width: 0.9; stroke-linejoin: miter; stroke-linecap: square"/>
   </g>
   <g id="patch_70">
    <path d="M 40.298437 342.409034 
L 704.462074 342.409034 
" style="fill: none; stroke: #404040; stroke-width: 0.9; stroke-linejoin: miter; stroke-linecap: square"/>
   </g>
   <g id="patch_71">
    <path d="M 40.298437 22.318125 
L 704.462074 22.318125 
" style="fill: none; stroke: #404040; stroke-width: 0.9; stroke-linejoin: miter; stroke-linecap: square"/>
   </g>
   <g id="FillBetweenPolyCollection_1">
    <defs>
     <path id="m2cdbe20fa9" d="M 52.301395 -37.55625 
L 52.301395 -37.55625 
L 53.9058 -37.55625 
L 55.510205 -37.55625 
L 57.114611 -37.55625 
L 58.719016 -37.55625 
L 60.323421 -37.55625 
L 61.927827 -37.55625 
L 63.532232 -37.55625 
L 65.136637 -37.55625 
L 66.741043 -37.55625 
L 68.345448 -37.55625 
L 69.949853 -37.55625 
L 71.554259 -37.55625 
L 73.158664 -37.55625 
L 74.763069 -37.55625 
L 76.367475 -37.55625 
L 77.97188 -37.55625 
L 79.576285 -37.55625 
L 81.180691 -37.55625 
L 82.785096 -37.55625 
L 84.389501 -37.55625 
L 85.993906 -37.55625 
L 87.598312 -37.55625 
L 89.202717 -37.55625 
L 90.807122 -37.55625 
L 92.411528 -37.55625 
L 94.015933 -37.55625 
L 95.620338 -37.55625 
L 97.224744 -37.55625 
L 98.829149 -37.55625 
L 100.433554 -37.55625 
L 102.03796 -37.55625 
L 103.642365 -37.55625 
L 105.24677 -37.55625 
L 106.851176 -37.55625 
L 108.455581 -37.55625 
L 110.059986 -37.55625 
L 111.664392 -37.55625 
L 113.268797 -37.55625 
L 114.873202 -37.55625 
L 116.477607 -37.55625 
L 118.082013 -37.55625 
L 119.686418 -37.55625 
L 121.290823 -37.55625 
L 122.895229 -37.55625 
L 124.499634 -37.55625 
L 126.104039 -37.55625 
L 127.708445 -37.55625 
L 129.31285 -37.55625 
L 130.917255 -37.55625 
L 132.521661 -37.55625 
L 134.126066 -37.55625 
L 135.730471 -37.55625 
L 137.334877 -37.55625 
L 138.939282 -37.55625 
L 140.543687 -37.55625 
L 142.148093 -37.55625 
L 143.752498 -37.55625 
L 145.356903 -37.55625 
L 146.961309 -37.55625 
L 148.565714 -37.55625 
L 150.170119 -37.55625 
L 151.774524 -37.55625 
L 153.37893 -37.55625 
L 154.983335 -37.55625 
L 156.58774 -37.55625 
L 158.192146 -37.55625 
L 159.796551 -37.55625 
L 161.400956 -37.55625 
L 163.005362 -37.55625 
L 164.609767 -37.55625 
L 166.214172 -37.55625 
L 167.818578 -37.55625 
L 169.422983 -37.55625 
L 171.027388 -37.55625 
L 172.631794 -37.55625 
L 174.236199 -37.55625 
L 175.840604 -37.55625 
L 177.44501 -37.55625 
L 179.049415 -37.55625 
L 180.65382 -37.55625 
L 182.258226 -37.55625 
L 183.862631 -37.55625 
L 185.467036 -37.55625 
L 187.071441 -37.55625 
L 188.675847 -37.55625 
L 190.280252 -37.55625 
L 191.884657 -37.55625 
L 193.489063 -37.55625 
L 195.093468 -37.55625 
L 196.697873 -37.55625 
L 198.302279 -37.55625 
L 199.906684 -37.55625 
L 201.511089 -37.55625 
L 203.115495 -37.55625 
L 204.7199 -37.55625 
L 206.324305 -37.55625 
L 207.928711 -37.55625 
L 209.533116 -37.55625 
L 211.137521 -37.55625 
L 212.741927 -37.55625 
L 214.346332 -37.55625 
L 215.950737 -37.55625 
L 217.555143 -37.55625 
L 219.159548 -37.55625 
L 220.763953 -37.55625 
L 222.368358 -37.55625 
L 223.972764 -37.55625 
L 225.577169 -37.55625 
L 227.181574 -37.55625 
L 228.78598 -37.55625 
L 230.390385 -37.55625 
L 231.99479 -37.55625 
L 233.599196 -37.55625 
L 235.203601 -37.55625 
L 236.808006 -37.55625 
L 238.412412 -37.55625 
L 240.016817 -37.55625 
L 241.621222 -37.55625 
L 243.225628 -37.55625 
L 244.830033 -37.55625 
L 246.434438 -37.55625 
L 248.038844 -37.55625 
L 249.643249 -37.55625 
L 251.247654 -37.55625 
L 252.85206 -37.55625 
L 254.456465 -37.55625 
L 256.06087 -37.55625 
L 257.665275 -37.55625 
L 259.269681 -37.55625 
L 260.874086 -37.55625 
L 262.478491 -37.55625 
L 264.082897 -37.55625 
L 265.687302 -37.55625 
L 267.291707 -37.55625 
L 268.896113 -37.55625 
L 270.500518 -37.55625 
L 272.104923 -37.55625 
L 273.709329 -37.55625 
L 275.313734 -37.55625 
L 276.918139 -37.55625 
L 278.522545 -37.55625 
L 280.12695 -37.55625 
L 281.731355 -37.55625 
L 283.335761 -37.55625 
L 284.940166 -37.55625 
L 286.544571 -37.55625 
L 288.148976 -37.55625 
L 289.753382 -37.55625 
L 291.357787 -37.55625 
L 292.962192 -37.55625 
L 294.566598 -37.55625 
L 296.171003 -37.55625 
L 297.775408 -37.55625 
L 299.379814 -37.55625 
L 300.984219 -37.55625 
L 302.588624 -37.55625 
L 304.19303 -37.55625 
L 305.797435 -37.55625 
L 307.40184 -37.55625 
L 309.006246 -37.55625 
L 310.610651 -37.55625 
L 312.215056 -37.55625 
L 313.819462 -37.55625 
L 315.423867 -37.55625 
L 317.028272 -37.55625 
L 318.632678 -37.55625 
L 320.237083 -37.55625 
L 321.841488 -37.55625 
L 323.445893 -37.55625 
L 325.050299 -37.55625 
L 326.654704 -37.55625 
L 328.259109 -37.55625 
L 329.863515 -37.55625 
L 331.46792 -37.55625 
L 333.072325 -37.55625 
L 334.676731 -37.55625 
L 336.281136 -37.55625 
L 337.885541 -37.55625 
L 339.489947 -37.55625 
L 341.094352 -37.55625 
L 342.698757 -37.55625 
L 344.303163 -37.55625 
L 345.907568 -37.55625 
L 347.511973 -37.55625 
L 349.116379 -37.55625 
L 350.720784 -37.55625 
L 352.325189 -37.55625 
L 353.929595 -37.55625 
L 355.534 -37.55625 
L 357.138405 -37.55625 
L 358.74281 -37.55625 
L 360.347216 -37.55625 
L 361.951621 -37.55625 
L 363.556026 -37.55625 
L 365.160432 -37.55625 
L 366.764837 -37.55625 
L 368.369242 -37.55625 
L 369.973648 -37.55625 
L 371.578053 -37.55625 
L 373.182458 -37.55625 
L 374.786864 -37.55625 
L 376.391269 -37.55625 
L 377.995674 -37.55625 
L 379.60008 -37.55625 
L 381.204485 -37.55625 
L 382.80889 -37.55625 
L 384.413296 -37.55625 
L 386.017701 -37.55625 
L 387.622106 -37.55625 
L 389.226512 -37.55625 
L 390.830917 -37.55625 
L 392.435322 -37.55625 
L 394.039727 -37.55625 
L 395.644133 -37.55625 
L 397.248538 -37.55625 
L 398.852943 -37.55625 
L 400.457349 -37.55625 
L 402.061754 -37.55625 
L 403.666159 -37.55625 
L 405.270565 -37.55625 
L 406.87497 -37.55625 
L 408.479375 -37.55625 
L 410.083781 -37.55625 
L 411.688186 -37.55625 
L 413.292591 -37.55625 
L 414.896997 -37.55625 
L 416.501402 -37.55625 
L 418.105807 -37.55625 
L 419.710213 -37.55625 
L 421.314618 -37.55625 
L 422.919023 -37.55625 
L 424.523429 -37.55625 
L 426.127834 -37.55625 
L 427.732239 -37.55625 
L 429.336644 -37.55625 
L 430.94105 -37.55625 
L 432.545455 -37.55625 
L 434.14986 -37.55625 
L 435.754266 -37.55625 
L 437.358671 -37.55625 
L 438.963076 -37.55625 
L 440.567482 -37.55625 
L 442.171887 -37.55625 
L 443.776292 -37.55625 
L 445.380698 -37.55625 
L 446.985103 -37.55625 
L 448.589508 -37.55625 
L 450.193914 -37.55625 
L 451.798319 -37.55625 
L 453.402724 -37.55625 
L 455.00713 -37.55625 
L 456.611535 -37.55625 
L 458.21594 -37.55625 
L 459.820346 -37.55625 
L 461.424751 -37.55625 
L 463.029156 -37.55625 
L 464.633561 -37.55625 
L 466.237967 -37.55625 
L 467.842372 -37.55625 
L 469.446777 -37.55625 
L 471.051183 -37.55625 
L 472.655588 -37.55625 
L 474.259993 -37.55625 
L 475.864399 -37.55625 
L 477.468804 -37.55625 
L 479.073209 -37.55625 
L 480.677615 -37.55625 
L 482.28202 -37.55625 
L 483.886425 -37.55625 
L 485.490831 -37.55625 
L 487.095236 -37.55625 
L 488.699641 -37.55625 
L 490.304047 -37.55625 
L 491.908452 -37.55625 
L 493.512857 -37.55625 
L 495.117262 -37.55625 
L 496.721668 -37.55625 
L 498.326073 -37.55625 
L 499.930478 -37.55625 
L 501.534884 -37.55625 
L 503.139289 -37.55625 
L 504.743694 -37.55625 
L 506.3481 -37.55625 
L 507.952505 -37.55625 
L 509.55691 -37.55625 
L 511.161316 -37.55625 
L 512.765721 -37.55625 
L 514.370126 -37.55625 
L 515.974532 -37.55625 
L 517.578937 -37.55625 
L 519.183342 -37.55625 
L 520.787748 -37.55625 
L 522.392153 -37.55625 
L 523.996558 -37.55625 
L 525.600964 -37.55625 
L 527.205369 -37.55625 
L 528.809774 -37.55625 
L 530.414179 -37.55625 
L 532.018585 -37.55625 
L 533.62299 -37.55625 
L 535.227395 -37.55625 
L 536.831801 -37.55625 
L 538.436206 -37.55625 
L 540.040611 -37.55625 
L 541.645017 -37.55625 
L 543.249422 -37.55625 
L 544.853827 -37.55625 
L 546.458233 -37.55625 
L 548.062638 -37.55625 
L 549.667043 -37.55625 
L 551.271449 -37.55625 
L 552.875854 -37.55625 
L 554.480259 -37.55625 
L 556.084665 -37.55625 
L 557.68907 -37.55625 
L 559.293475 -37.55625 
L 560.897881 -37.55625 
L 562.502286 -37.55625 
L 564.106691 -37.55625 
L 565.711096 -37.55625 
L 567.315502 -37.55625 
L 568.919907 -37.55625 
L 570.524312 -37.55625 
L 572.128718 -37.55625 
L 573.733123 -37.55625 
L 575.337528 -37.55625 
L 576.941934 -37.55625 
L 578.546339 -37.55625 
L 580.150744 -37.55625 
L 581.75515 -37.55625 
L 583.359555 -37.55625 
L 584.96396 -37.55625 
L 586.568366 -37.55625 
L 588.172771 -37.55625 
L 589.777176 -37.55625 
L 591.381582 -37.55625 
L 592.985987 -37.55625 
L 594.590392 -37.55625 
L 596.194798 -37.55625 
L 597.799203 -37.55625 
L 599.403608 -37.55625 
L 601.008013 -37.55625 
L 602.612419 -37.55625 
L 604.216824 -37.55625 
L 605.821229 -37.55625 
L 607.425635 -37.55625 
L 609.03004 -37.55625 
L 610.634445 -37.55625 
L 612.238851 -37.55625 
L 613.843256 -37.55625 
L 615.447661 -37.55625 
L 617.052067 -37.55625 
L 618.656472 -37.55625 
L 620.260877 -37.55625 
L 621.865283 -37.55625 
L 623.469688 -37.55625 
L 625.074093 -37.55625 
L 626.678499 -37.55625 
L 628.282904 -37.55625 
L 629.887309 -37.55625 
L 631.491715 -37.55625 
L 633.09612 -37.55625 
L 634.700525 -37.55625 
L 636.30493 -37.55625 
L 637.909336 -37.55625 
L 639.513741 -37.55625 
L 641.118146 -37.55625 
L 642.722552 -37.55625 
L 644.326957 -37.55625 
L 645.931362 -37.55625 
L 647.535768 -37.55625 
L 649.140173 -37.55625 
L 650.744578 -37.55625 
L 652.348984 -37.55625 
L 653.953389 -37.55625 
L 655.557794 -37.55625 
L 657.1622 -37.55625 
L 658.766605 -37.55625 
L 660.37101 -37.55625 
L 661.975416 -37.55625 
L 663.579821 -37.55625 
L 665.184226 -37.55625 
L 666.788631 -37.55625 
L 668.393037 -37.55625 
L 669.997442 -37.55625 
L 671.601847 -37.55625 
L 673.206253 -37.55625 
L 674.810658 -37.55625 
L 676.415063 -37.55625 
L 678.019469 -37.55625 
L 679.623874 -37.55625 
L 681.228279 -37.55625 
L 682.832685 -37.55625 
L 684.43709 -37.55625 
L 686.041495 -37.55625 
L 687.645901 -37.55625 
L 689.250306 -37.55625 
L 690.854711 -37.55625 
L 692.459117 -37.55625 
L 692.459117 -37.55625 
L 692.459117 -37.55625 
L 690.854711 -37.55625 
L 689.250306 -37.55625 
L 687.645901 -37.55625 
L 686.041495 -37.55625 
L 684.43709 -37.55625 
L 682.832685 -37.55625 
L 681.228279 -37.55625 
L 679.623874 -37.55625 
L 678.019469 -37.55625 
L 676.415063 -37.55625 
L 674.810658 -37.55625 
L 673.206253 -37.55625 
L 671.601847 -37.55625 
L 669.997442 -37.55625 
L 668.393037 -37.55625 
L 666.788631 -37.55625 
L 665.184226 -37.55625 
L 663.579821 -37.55625 
L 661.975416 -37.55625 
L 660.37101 -37.55625 
L 658.766605 -37.55625 
L 657.1622 -37.55625 
L 655.557794 -37.55625 
L 653.953389 -37.55625 
L 652.348984 -37.55625 
L 650.744578 -37.55625 
L 649.140173 -37.55625 
L 647.535768 -37.55625 
L 645.931362 -37.55625 
L 644.326957 -37.55625 
L 642.722552 -37.55625 
L 641.118146 -37.55625 
L 639.513741 -37.55625 
L 637.909336 -37.55625 
L 636.30493 -37.55625 
L 634.700525 -37.55625 
L 633.09612 -37.55625 
L 631.491715 -37.55625 
L 629.887309 -37.55625 
L 628.282904 -37.55625 
L 626.678499 -37.55625 
L 625.074093 -37.55625 
L 623.469688 -37.55625 
L 621.865283 -37.55625 
L 620.260877 -37.55625 
L 618.656472 -37.55625 
L 617.052067 -37.55625 
L 615.447661 -37.55625 
L 613.843256 -37.55625 
L 612.238851 -37.55625 
L 610.634445 -37.55625 
L 609.03004 -37.55625 
L 607.425635 -37.55625 
L 605.821229 -37.55625 
L 604.216824 -37.55625 
L 602.612419 -37.556251 
L 601.008013 -37.556251 
L 599.403608 -37.556251 
L 597.799203 -37.556252 
L 596.194798 -37.556252 
L 594.590392 -37.556253 
L 592.985987 -37.556254 
L 591.381582 -37.556255 
L 589.777176 -37.556256 
L 588.172771 -37.556258 
L 586.568366 -37.55626 
L 584.96396 -37.556263 
L 583.359555 -37.556267 
L 581.75515 -37.556272 
L 580.150744 -37.556278 
L 578.546339 -37.556285 
L 576.941934 -37.556294 
L 575.337528 -37.556305 
L 573.733123 -37.556319 
L 572.128718 -37.556336 
L 570.524312 -37.556356 
L 568.919907 -37.556381 
L 567.315502 -37.556411 
L 565.711096 -37.556446 
L 564.106691 -37.556489 
L 562.502286 -37.55654 
L 560.897881 -37.556601 
L 559.293475 -37.556673 
L 557.68907 -37.556758 
L 556.084665 -37.556859 
L 554.480259 -37.556977 
L 552.875854 -37.557115 
L 551.271449 -37.557276 
L 549.667043 -37.557463 
L 548.062638 -37.557681 
L 546.458233 -37.557933 
L 544.853827 -37.558223 
L 543.249422 -37.558558 
L 541.645017 -37.558942 
L 540.040611 -37.559382 
L 538.436206 -37.559885 
L 536.831801 -37.560459 
L 535.227395 -37.561111 
L 533.62299 -37.56185 
L 532.018585 -37.562687 
L 530.414179 -37.563633 
L 528.809774 -37.564699 
L 527.205369 -37.565897 
L 525.600964 -37.567241 
L 523.996558 -37.568747 
L 522.392153 -37.570429 
L 520.787748 -37.572305 
L 519.183342 -37.574392 
L 517.578937 -37.576709 
L 515.974532 -37.579278 
L 514.370126 -37.582118 
L 512.765721 -37.585253 
L 511.161316 -37.588705 
L 509.55691 -37.5925 
L 507.952505 -37.596663 
L 506.3481 -37.601221 
L 504.743694 -37.606199 
L 503.139289 -37.611626 
L 501.534884 -37.61753 
L 499.930478 -37.62394 
L 498.326073 -37.630882 
L 496.721668 -37.638387 
L 495.117262 -37.646481 
L 493.512857 -37.655192 
L 491.908452 -37.664545 
L 490.304047 -37.674566 
L 488.699641 -37.685276 
L 487.095236 -37.696698 
L 485.490831 -37.70885 
L 483.886425 -37.721746 
L 482.28202 -37.735401 
L 480.677615 -37.749824 
L 479.073209 -37.765019 
L 477.468804 -37.780989 
L 475.864399 -37.797731 
L 474.259993 -37.815236 
L 472.655588 -37.833494 
L 471.051183 -37.852486 
L 469.446777 -37.87219 
L 467.842372 -37.892579 
L 466.237967 -37.91362 
L 464.633561 -37.935276 
L 463.029156 -37.957504 
L 461.424751 -37.980256 
L 459.820346 -38.003481 
L 458.21594 -38.027121 
L 456.611535 -38.051117 
L 455.00713 -38.075403 
L 453.402724 -38.099911 
L 451.798319 -38.12457 
L 450.193914 -38.149304 
L 448.589508 -38.174037 
L 446.985103 -38.198688 
L 445.380698 -38.223176 
L 443.776292 -38.247415 
L 442.171887 -38.271321 
L 440.567482 -38.294806 
L 438.963076 -38.317781 
L 437.358671 -38.340156 
L 435.754266 -38.361841 
L 434.14986 -38.382745 
L 432.545455 -38.402777 
L 430.94105 -38.421845 
L 429.336644 -38.43986 
L 427.732239 -38.456734 
L 426.127834 -38.472378 
L 424.523429 -38.486711 
L 422.919023 -38.499653 
L 421.314618 -38.511128 
L 419.710213 -38.521068 
L 418.105807 -38.529413 
L 416.501402 -38.536111 
L 414.896997 -38.541122 
L 413.292591 -38.544422 
L 411.688186 -38.545998 
L 410.083781 -38.545861 
L 408.479375 -38.544043 
L 406.87497 -38.540602 
L 405.270565 -38.53563 
L 403.666159 -38.529254 
L 402.061754 -38.521649 
L 400.457349 -38.513044 
L 398.852943 -38.503732 
L 397.248538 -38.494084 
L 395.644133 -38.484565 
L 394.039727 -38.475752 
L 392.435322 -38.468358 
L 390.830917 -38.463255 
L 389.226512 -38.461508 
L 387.622106 -38.464414 
L 386.017701 -38.473536 
L 384.413296 -38.490758 
L 382.80889 -38.518334 
L 381.204485 -38.558952 
L 379.60008 -38.615798 
L 377.995674 -38.692624 
L 376.391269 -38.793833 
L 374.786864 -38.924547 
L 373.182458 -39.0907 
L 371.578053 -39.299107 
L 369.973648 -39.557551 
L 368.369242 -39.87485 
L 366.764837 -40.260914 
L 365.160432 -40.726796 
L 363.556026 -41.284713 
L 361.951621 -41.94805 
L 360.347216 -42.731325 
L 358.74281 -43.650126 
L 357.138405 -44.721003 
L 355.534 -45.961314 
L 353.929595 -47.389017 
L 352.325189 -49.022418 
L 350.720784 -50.879855 
L 349.116379 -52.979328 
L 347.511973 -55.338085 
L 345.907568 -57.972144 
L 344.303163 -60.895786 
L 342.698757 -64.121008 
L 341.094352 -67.656957 
L 339.489947 -71.509357 
L 337.885541 -75.67994 
L 336.281136 -80.165912 
L 334.676731 -84.959459 
L 333.072325 -90.047319 
L 331.46792 -95.410448 
L 329.863515 -101.023778 
L 328.259109 -106.856118 
L 326.654704 -112.870172 
L 325.050299 -119.022724 
L 323.445893 -125.264979 
L 321.841488 -131.543056 
L 320.237083 -137.798657 
L 318.632678 -143.969874 
L 317.028272 -149.992147 
L 315.423867 -155.79934 
L 313.819462 -161.324909 
L 312.215056 -166.50315 
L 310.610651 -171.270479 
L 309.006246 -175.566717 
L 307.40184 -179.336341 
L 305.797435 -182.529672 
L 304.19303 -185.103954 
L 302.588624 -187.024302 
L 300.984219 -188.264478 
L 299.379814 -188.807484 
L 297.775408 -188.645949 
L 296.171003 -187.782287 
L 294.566598 -186.228639 
L 292.962192 -184.00659 
L 291.357787 -181.146669 
L 289.753382 -177.68766 
L 288.148976 -173.675725 
L 286.544571 -169.163391 
L 284.940166 -164.208411 
L 283.335761 -158.872545 
L 281.731355 -153.22029 
L 280.12695 -147.317605 
L 278.522545 -141.230651 
L 276.918139 -135.024593 
L 275.313734 -128.762481 
L 273.709329 -122.504245 
L 272.104923 -116.305823 
L 270.500518 -110.218429 
L 268.896113 -104.287982 
L 267.291707 -98.554688 
L 265.687302 -93.052792 
L 264.082897 -87.810468 
L 262.478491 -82.849866 
L 260.874086 -78.187278 
L 259.269681 -73.833423 
L 257.665275 -69.793822 
L 256.06087 -66.069253 
L 254.456465 -62.656255 
L 252.85206 -59.547676 
L 251.247654 -56.733231 
L 249.643249 -54.200066 
L 248.038844 -51.933308 
L 246.434438 -49.916585 
L 244.830033 -48.132514 
L 243.225628 -46.563141 
L 241.621222 -45.190334 
L 240.016817 -43.996123 
L 238.412412 -42.962983 
L 236.808006 -42.07407 
L 235.203601 -41.313398 
L 233.599196 -40.665977 
L 231.99479 -40.117902 
L 230.390385 -39.656405 
L 228.78598 -39.269873 
L 227.181574 -38.947841 
L 225.577169 -38.680958 
L 223.972764 -38.460939 
L 222.368358 -38.280503 
L 220.763953 -38.133299 
L 219.159548 -38.013829 
L 217.555143 -37.91737 
L 215.950737 -37.83989 
L 214.346332 -37.777976 
L 212.741927 -37.728753 
L 211.137521 -37.68982 
L 209.533116 -37.659182 
L 207.928711 -37.635196 
L 206.324305 -37.616512 
L 204.7199 -37.602031 
L 203.115495 -37.590865 
L 201.511089 -37.582298 
L 199.906684 -37.575759 
L 198.302279 -37.570792 
L 196.697873 -37.567038 
L 195.093468 -37.564215 
L 193.489063 -37.562103 
L 191.884657 -37.560531 
L 190.280252 -37.559366 
L 188.675847 -37.558508 
L 187.071441 -37.557878 
L 185.467036 -37.557418 
L 183.862631 -37.557084 
L 182.258226 -37.556843 
L 180.65382 -37.55667 
L 179.049415 -37.556545 
L 177.44501 -37.556457 
L 175.840604 -37.556394 
L 174.236199 -37.55635 
L 172.631794 -37.556319 
L 171.027388 -37.556298 
L 169.422983 -37.556283 
L 167.818578 -37.556272 
L 166.214172 -37.556265 
L 164.609767 -37.55626 
L 163.005362 -37.556257 
L 161.400956 -37.556255 
L 159.796551 -37.556253 
L 158.192146 -37.556252 
L 156.58774 -37.556251 
L 154.983335 -37.556251 
L 153.37893 -37.556251 
L 151.774524 -37.55625 
L 150.170119 -37.55625 
L 148.565714 -37.55625 
L 146.961309 -37.55625 
L 145.356903 -37.55625 
L 143.752498 -37.55625 
L 142.148093 -37.55625 
L 140.543687 -37.55625 
L 138.939282 -37.55625 
L 137.334877 -37.55625 
L 135.730471 -37.55625 
L 134.126066 -37.55625 
L 132.521661 -37.55625 
L 130.917255 -37.55625 
L 129.31285 -37.55625 
L 127.708445 -37.55625 
L 126.104039 -37.55625 
L 124.499634 -37.55625 
L 122.895229 -37.55625 
L 121.290823 -37.55625 
L 119.686418 -37.55625 
L 118.082013 -37.55625 
L 116.477607 -37.55625 
L 114.873202 -37.55625 
L 113.268797 -37.55625 
L 111.664392 -37.55625 
L 110.059986 -37.55625 
L 108.455581 -37.55625 
L 106.851176 -37.55625 
L 105.24677 -37.55625 
L 103.642365 -37.55625 
L 102.03796 -37.55625 
L 100.433554 -37.55625 
L 98.829149 -37.55625 
L 97.224744 -37.55625 
L 95.620338 -37.55625 
L 94.015933 -37.55625 
L 92.411528 -37.55625 
L 90.807122 -37.55625 
L 89.202717 -37.55625 
L 87.598312 -37.55625 
L 85.993906 -37.55625 
L 84.389501 -37.55625 
L 82.785096 -37.55625 
L 81.180691 -37.55625 
L 79.576285 -37.55625 
L 77.97188 -37.55625 
L 76.367475 -37.55625 
L 74.763069 -37.55625 
L 73.158664 -37.55625 
L 71.554259 -37.55625 
L 69.949853 -37.55625 
L 68.345448 -37.55625 
L 66.741043 -37.55625 
L 65.136637 -37.55625 
L 63.532232 -37.55625 
L 61.927827 -37.55625 
L 60.323421 -37.55625 
L 58.719016 -37.55625 
L 57.114611 -37.55625 
L 55.510205 -37.55625 
L 53.9058 -37.55625 
L 52.301395 -37.55625 
z
" style="stroke: #1f4e79; stroke-opacity: 0.1"/>
    </defs>
    <g clip-path="url(#p0ef3bcd2c2)">
     <use xlink:href="#m2cdbe20fa9" x="0" y="379.965284" style="fill: #1f4e79; fill-opacity: 0.1; stroke: #1f4e79; stroke-opacity: 0.1"/>
    </g>
   </g>
   <g id="text_19">
    <!-- BCH-02 - Frequency distribution curve (unimodal) -->
    <g transform="translate(204.173068 16.318125) scale(0.12 -0.12)">
     <defs>
      <path id="DejaVuSans-Bold-42" d="M 2456 2859 
Q 2741 2859 2887 2984 
Q 3034 3109 3034 3353 
Q 3034 3594 2887 3720 
Q 2741 3847 2456 3847 
L 1791 3847 
L 1791 2859 
L 2456 2859 
z
M 2497 819 
Q 2859 819 3042 972 
Q 3225 1125 3225 1434 
Q 3225 1738 3044 1889 
Q 2863 2041 2497 2041 
L 1791 2041 
L 1791 819 
L 2497 819 
z
M 3616 2497 
Q 4003 2384 4215 2081 
Q 4428 1778 4428 1338 
Q 4428 663 3972 331 
Q 3516 0 2584 0 
L 588 0 
L 588 4666 
L 2394 4666 
Q 3366 4666 3802 4372 
Q 4238 4078 4238 3431 
Q 4238 3091 4078 2852 
Q 3919 2613 3616 2497 
z
" transform="scale(0.015625)"/>
      <path id="DejaVuSans-Bold-43" d="M 4288 256 
Q 3956 84 3597 -3 
Q 3238 -91 2847 -91 
Q 1681 -91 1000 561 
Q 319 1213 319 2328 
Q 319 3447 1000 4098 
Q 1681 4750 2847 4750 
Q 3238 4750 3597 4662 
Q 3956 4575 4288 4403 
L 4288 3438 
Q 3953 3666 3628 3772 
Q 3303 3878 2944 3878 
Q 2300 3878 1931 3465 
Q 1563 3053 1563 2328 
Q 1563 1606 1931 1193 
Q 2300 781 2944 781 
Q 3303 781 3628 887 
Q 3953 994 4288 1222 
L 4288 256 
z
" transform="scale(0.015625)"/>
      <path id="DejaVuSans-Bold-48" d="M 588 4666 
L 1791 4666 
L 1791 2888 
L 3566 2888 
L 3566 4666 
L 4769 4666 
L 4769 0 
L 3566 0 
L 3566 1978 
L 1791 1978 
L 1791 0 
L 588 0 
L 588 4666 
z
" transform="scale(0.015625)"/>
      <path id="DejaVuSans-Bold-2d" d="M 347 2297 
L 2309 2297 
L 2309 1388 
L 347 1388 
L 347 2297 
z
" transform="scale(0.015625)"/>
      <path id="DejaVuSans-Bold-30" d="M 2944 2338 
Q 2944 3213 2780 3570 
Q 2616 3928 2228 3928 
Q 1841 3928 1675 3570 
Q 1509 3213 1509 2338 
Q 1509 1453 1675 1090 
Q 1841 728 2228 728 
Q 2613 728 2778 1090 
Q 2944 1453 2944 2338 
z
M 4147 2328 
Q 4147 1169 3647 539 
Q 3147 -91 2228 -91 
Q 1306 -91 806 539 
Q 306 1169 306 2328 
Q 306 3491 806 4120 
Q 1306 4750 2228 4750 
Q 3147 4750 3647 4120 
Q 4147 3491 4147 2328 
z
" transform="scale(0.015625)"/>
      <path id="DejaVuSans-Bold-32" d="M 1844 884 
L 3897 884 
L 3897 0 
L 506 0 
L 506 884 
L 2209 2388 
Q 2438 2594 2547 2791 
Q 2656 2988 2656 3200 
Q 2656 3528 2436 3728 
Q 2216 3928 1850 3928 
Q 1569 3928 1234 3808 
Q 900 3688 519 3450 
L 519 4475 
Q 925 4609 1322 4679 
Q 1719 4750 2100 4750 
Q 2938 4750 3402 4381 
Q 3866 4013 3866 3353 
Q 3866 2972 3669 2642 
Q 3472 2313 2841 1759 
L 1844 884 
z
" transform="scale(0.015625)"/>
      <path id="DejaVuSans-Bold-20" transform="scale(0.015625)"/>
      <path id="DejaVuSans-Bold-46" d="M 588 4666 
L 3834 4666 
L 3834 3756 
L 1791 3756 
L 1791 2888 
L 3713 2888 
L 3713 1978 
L 1791 1978 
L 1791 0 
L 588 0 
L 588 4666 
z
" transform="scale(0.015625)"/>
      <path id="DejaVuSans-Bold-72" d="M 3138 2547 
Q 2991 2616 2845 2648 
Q 2700 2681 2553 2681 
Q 2122 2681 1889 2404 
Q 1656 2128 1656 1613 
L 1656 0 
L 538 0 
L 538 3500 
L 1656 3500 
L 1656 2925 
Q 1872 3269 2151 3426 
Q 2431 3584 2822 3584 
Q 2878 3584 2943 3579 
Q 3009 3575 3134 3559 
L 3138 2547 
z
" transform="scale(0.015625)"/>
      <path id="DejaVuSans-Bold-65" d="M 4031 1759 
L 4031 1441 
L 1416 1441 
Q 1456 1047 1700 850 
Q 1944 653 2381 653 
Q 2734 653 3104 758 
Q 3475 863 3866 1075 
L 3866 213 
Q 3469 63 3072 -14 
Q 2675 -91 2278 -91 
Q 1328 -91 801 392 
Q 275 875 275 1747 
Q 275 2603 792 3093 
Q 1309 3584 2216 3584 
Q 3041 3584 3536 3087 
Q 4031 2591 4031 1759 
z
M 2881 2131 
Q 2881 2450 2695 2645 
Q 2509 2841 2209 2841 
Q 1884 2841 1681 2658 
Q 1478 2475 1428 2131 
L 2881 2131 
z
" transform="scale(0.015625)"/>
      <path id="DejaVuSans-Bold-71" d="M 2181 2772 
Q 1825 2772 1636 2509 
Q 1447 2247 1447 1747 
Q 1447 1247 1636 984 
Q 1825 722 2181 722 
Q 2541 722 2730 984 
Q 2919 1247 2919 1747 
Q 2919 2247 2730 2509 
Q 2541 2772 2181 2772 
z
M 2919 506 
Q 2688 197 2409 53 
Q 2131 -91 1766 -91 
Q 1119 -91 703 423 
Q 288 938 288 1747 
Q 288 2556 703 3067 
Q 1119 3578 1766 3578 
Q 2131 3578 2409 3434 
Q 2688 3291 2919 2981 
L 2919 3500 
L 4044 3500 
L 4044 -1331 
L 2919 -1331 
L 2919 506 
z
" transform="scale(0.015625)"/>
      <path id="DejaVuSans-Bold-75" d="M 500 1363 
L 500 3500 
L 1625 3500 
L 1625 3150 
Q 1625 2866 1622 2436 
Q 1619 2006 1619 1863 
Q 1619 1441 1641 1255 
Q 1663 1069 1716 984 
Q 1784 875 1895 815 
Q 2006 756 2150 756 
Q 2500 756 2700 1025 
Q 2900 1294 2900 1772 
L 2900 3500 
L 4019 3500 
L 4019 0 
L 2900 0 
L 2900 506 
Q 2647 200 2364 54 
Q 2081 -91 1741 -91 
Q 1134 -91 817 281 
Q 500 653 500 1363 
z
" transform="scale(0.015625)"/>
      <path id="DejaVuSans-Bold-6e" d="M 4056 2131 
L 4056 0 
L 2931 0 
L 2931 347 
L 2931 1631 
Q 2931 2084 2911 2256 
Q 2891 2428 2841 2509 
Q 2775 2619 2662 2680 
Q 2550 2741 2406 2741 
Q 2056 2741 1856 2470 
Q 1656 2200 1656 1722 
L 1656 0 
L 538 0 
L 538 3500 
L 1656 3500 
L 1656 2988 
Q 1909 3294 2193 3439 
Q 2478 3584 2822 3584 
Q 3428 3584 3742 3212 
Q 4056 2841 4056 2131 
z
" transform="scale(0.015625)"/>
      <path id="DejaVuSans-Bold-63" d="M 3366 3391 
L 3366 2478 
Q 3138 2634 2908 2709 
Q 2678 2784 2431 2784 
Q 1963 2784 1702 2511 
Q 1441 2238 1441 1747 
Q 1441 1256 1702 982 
Q 1963 709 2431 709 
Q 2694 709 2930 787 
Q 3166 866 3366 1019 
L 3366 103 
Q 3103 6 2833 -42 
Q 2563 -91 2291 -91 
Q 1344 -91 809 395 
Q 275 881 275 1747 
Q 275 2613 809 3098 
Q 1344 3584 2291 3584 
Q 2566 3584 2833 3536 
Q 3100 3488 3366 3391 
z
" transform="scale(0.015625)"/>
      <path id="DejaVuSans-Bold-79" d="M 78 3500 
L 1197 3500 
L 2138 1125 
L 2938 3500 
L 4056 3500 
L 2584 -331 
Q 2363 -916 2067 -1148 
Q 1772 -1381 1288 -1381 
L 641 -1381 
L 641 -647 
L 991 -647 
Q 1275 -647 1404 -556 
Q 1534 -466 1606 -231 
L 1638 -134 
L 78 3500 
z
" transform="scale(0.015625)"/>
      <path id="DejaVuSans-Bold-64" d="M 2919 2988 
L 2919 4863 
L 4044 4863 
L 4044 0 
L 2919 0 
L 2919 506 
Q 2688 197 2409 53 
Q 2131 -91 1766 -91 
Q 1119 -91 703 423 
Q 288 938 288 1747 
Q 288 2556 703 3070 
Q 1119 3584 1766 3584 
Q 2128 3584 2408 3439 
Q 2688 3294 2919 2988 
z
M 2181 722 
Q 2541 722 2730 984 
Q 2919 1247 2919 1747 
Q 2919 2247 2730 2509 
Q 2541 2772 2181 2772 
Q 1825 2772 1636 2509 
Q 1447 2247 1447 1747 
Q 1447 1247 1636 984 
Q 1825 722 2181 722 
z
" transform="scale(0.015625)"/>
      <path id="DejaVuSans-Bold-69" d="M 538 3500 
L 1656 3500 
L 1656 0 
L 538 0 
L 538 3500 
z
M 538 4863 
L 1656 4863 
L 1656 3950 
L 538 3950 
L 538 4863 
z
" transform="scale(0.015625)"/>
      <path id="DejaVuSans-Bold-73" d="M 3272 3391 
L 3272 2541 
Q 2913 2691 2578 2766 
Q 2244 2841 1947 2841 
Q 1628 2841 1473 2761 
Q 1319 2681 1319 2516 
Q 1319 2381 1436 2309 
Q 1553 2238 1856 2203 
L 2053 2175 
Q 2913 2066 3209 1816 
Q 3506 1566 3506 1031 
Q 3506 472 3093 190 
Q 2681 -91 1863 -91 
Q 1516 -91 1145 -36 
Q 775 19 384 128 
L 384 978 
Q 719 816 1070 734 
Q 1422 653 1784 653 
Q 2113 653 2278 743 
Q 2444 834 2444 1013 
Q 2444 1163 2330 1236 
Q 2216 1309 1875 1350 
L 1678 1375 
Q 931 1469 631 1722 
Q 331 1975 331 2491 
Q 331 3047 712 3315 
Q 1094 3584 1881 3584 
Q 2191 3584 2531 3537 
Q 2872 3491 3272 3391 
z
" transform="scale(0.015625)"/>
      <path id="DejaVuSans-Bold-74" d="M 1759 4494 
L 1759 3500 
L 2913 3500 
L 2913 2700 
L 1759 2700 
L 1759 1216 
Q 1759 972 1856 886 
Q 1953 800 2241 800 
L 2816 800 
L 2816 0 
L 1856 0 
Q 1194 0 917 276 
Q 641 553 641 1216 
L 641 2700 
L 84 2700 
L 84 3500 
L 641 3500 
L 641 4494 
L 1759 4494 
z
" transform="scale(0.015625)"/>
      <path id="DejaVuSans-Bold-62" d="M 2400 722 
Q 2759 722 2948 984 
Q 3138 1247 3138 1747 
Q 3138 2247 2948 2509 
Q 2759 2772 2400 2772 
Q 2041 2772 1848 2508 
Q 1656 2244 1656 1747 
Q 1656 1250 1848 986 
Q 2041 722 2400 722 
z
M 1656 2988 
Q 1888 3294 2169 3439 
Q 2450 3584 2816 3584 
Q 3463 3584 3878 3070 
Q 4294 2556 4294 1747 
Q 4294 938 3878 423 
Q 3463 -91 2816 -91 
Q 2450 -91 2169 54 
Q 1888 200 1656 506 
L 1656 0 
L 538 0 
L 538 4863 
L 1656 4863 
L 1656 2988 
z
" transform="scale(0.015625)"/>
      <path id="DejaVuSans-Bold-6f" d="M 2203 2784 
Q 1831 2784 1636 2517 
Q 1441 2250 1441 1747 
Q 1441 1244 1636 976 
Q 1831 709 2203 709 
Q 2569 709 2762 976 
Q 2956 1244 2956 1747 
Q 2956 2250 2762 2517 
Q 2569 2784 2203 2784 
z
M 2203 3584 
Q 3106 3584 3614 3096 
Q 4122 2609 4122 1747 
Q 4122 884 3614 396 
Q 3106 -91 2203 -91 
Q 1297 -91 786 396 
Q 275 884 275 1747 
Q 275 2609 786 3096 
Q 1297 3584 2203 3584 
z
" transform="scale(0.015625)"/>
      <path id="DejaVuSans-Bold-76" d="M 97 3500 
L 1216 3500 
L 2088 1081 
L 2956 3500 
L 4078 3500 
L 2700 0 
L 1472 0 
L 97 3500 
z
" transform="scale(0.015625)"/>
      <path id="DejaVuSans-Bold-28" d="M 2413 -844 
L 1484 -844 
Q 1006 -72 778 623 
Q 550 1319 550 2003 
Q 550 2688 779 3389 
Q 1009 4091 1484 4856 
L 2413 4856 
Q 2013 4116 1813 3408 
Q 1613 2700 1613 2009 
Q 1613 1319 1811 609 
Q 2009 -100 2413 -844 
z
" transform="scale(0.015625)"/>
      <path id="DejaVuSans-Bold-6d" d="M 3781 2919 
Q 3994 3244 4286 3414 
Q 4578 3584 4928 3584 
Q 5531 3584 5847 3212 
Q 6163 2841 6163 2131 
L 6163 0 
L 5038 0 
L 5038 1825 
Q 5041 1866 5042 1909 
Q 5044 1953 5044 2034 
Q 5044 2406 4934 2573 
Q 4825 2741 4581 2741 
Q 4263 2741 4089 2478 
Q 3916 2216 3909 1719 
L 3909 0 
L 2784 0 
L 2784 1825 
Q 2784 2406 2684 2573 
Q 2584 2741 2328 2741 
Q 2006 2741 1831 2477 
Q 1656 2213 1656 1722 
L 1656 0 
L 531 0 
L 531 3500 
L 1656 3500 
L 1656 2988 
Q 1863 3284 2130 3434 
Q 2397 3584 2719 3584 
Q 3081 3584 3359 3409 
Q 3638 3234 3781 2919 
z
" transform="scale(0.015625)"/>
      <path id="DejaVuSans-Bold-61" d="M 2106 1575 
Q 1756 1575 1579 1456 
Q 1403 1338 1403 1106 
Q 1403 894 1545 773 
Q 1688 653 1941 653 
Q 2256 653 2472 879 
Q 2688 1106 2688 1447 
L 2688 1575 
L 2106 1575 
z
M 3816 1997 
L 3816 0 
L 2688 0 
L 2688 519 
Q 2463 200 2181 54 
Q 1900 -91 1497 -91 
Q 953 -91 614 226 
Q 275 544 275 1050 
Q 275 1666 698 1953 
Q 1122 2241 2028 2241 
L 2688 2241 
L 2688 2328 
Q 2688 2594 2478 2717 
Q 2269 2841 1825 2841 
Q 1466 2841 1156 2769 
Q 847 2697 581 2553 
L 581 3406 
Q 941 3494 1303 3539 
Q 1666 3584 2028 3584 
Q 2975 3584 3395 3211 
Q 3816 2838 3816 1997 
z
" transform="scale(0.015625)"/>
      <path id="DejaVuSans-Bold-6c" d="M 538 4863 
L 1656 4863 
L 1656 0 
L 538 0 
L 538 4863 
z
" transform="scale(0.015625)"/>
      <path id="DejaVuSans-Bold-29" d="M 513 -844 
Q 913 -100 1113 609 
Q 1313 1319 1313 2009 
Q 1313 2700 1113 3408 
Q 913 4116 513 4856 
L 1441 4856 
Q 1916 4091 2145 3389 
Q 2375 2688 2375 2003 
Q 2375 1319 2147 623 
Q 1919 -72 1441 -844 
L 513 -844 
z
" transform="scale(0.015625)"/>
     </defs>
     <use xlink:href="#DejaVuSans-Bold-42"/>
     <use xlink:href="#DejaVuSans-Bold-43" transform="translate(76.220703 0)"/>
     <use xlink:href="#DejaVuSans-Bold-48" transform="translate(149.609375 0)"/>
     <use xlink:href="#DejaVuSans-Bold-2d" transform="translate(233.300781 0)"/>
     <use xlink:href="#DejaVuSans-Bold-30" transform="translate(274.804688 0)"/>
     <use xlink:href="#DejaVuSans-Bold-32" transform="translate(344.384766 0)"/>
     <use xlink:href="#DejaVuSans-Bold-20" transform="translate(413.964844 0)"/>
     <use xlink:href="#DejaVuSans-Bold-2d" transform="translate(448.779297 0)"/>
     <use xlink:href="#DejaVuSans-Bold-20" transform="translate(490.283203 0)"/>
     <use xlink:href="#DejaVuSans-Bold-46" transform="translate(525.097656 0)"/>
     <use xlink:href="#DejaVuSans-Bold-72" transform="translate(587.033203 0)"/>
     <use xlink:href="#DejaVuSans-Bold-65" transform="translate(636.349609 0)"/>
     <use xlink:href="#DejaVuSans-Bold-71" transform="translate(704.171875 0)"/>
     <use xlink:href="#DejaVuSans-Bold-75" transform="translate(775.753906 0)"/>
     <use xlink:href="#DejaVuSans-Bold-65" transform="translate(846.945312 0)"/>
     <use xlink:href="#DejaVuSans-Bold-6e" transform="translate(914.767578 0)"/>
     <use xlink:href="#DejaVuSans-Bold-63" transform="translate(985.958984 0)"/>
     <use xlink:href="#DejaVuSans-Bold-79" transform="translate(1045.236328 0)"/>
     <use xlink:href="#DejaVuSans-Bold-20" transform="translate(1110.421875 0)"/>
     <use xlink:href="#DejaVuSans-Bold-64" transform="translate(1145.236328 0)"/>
     <use xlink:href="#DejaVuSans-Bold-69" transform="translate(1216.818359 0)"/>
     <use xlink:href="#DejaVuSans-Bold-73" transform="translate(1251.095703 0)"/>
     <use xlink:href="#DejaVuSans-Bold-74" transform="translate(1310.617188 0)"/>
     <use xlink:href="#DejaVuSans-Bold-72" transform="translate(1358.419922 0)"/>
     <use xlink:href="#DejaVuSans-Bold-69" transform="translate(1407.736328 0)"/>
     <use xlink:href="#DejaVuSans-Bold-62" transform="translate(1442.013672 0)"/>
     <use xlink:href="#DejaVuSans-Bold-75" transform="translate(1513.595703 0)"/>
     <use xlink:href="#DejaVuSans-Bold-74" transform="translate(1584.787109 0)"/>
     <use xlink:href="#DejaVuSans-Bold-69" transform="translate(1632.589844 0)"/>
     <use xlink:href="#DejaVuSans-Bold-6f" transform="translate(1666.867188 0)"/>
     <use xlink:href="#DejaVuSans-Bold-6e" transform="translate(1735.568359 0)"/>
     <use xlink:href="#DejaVuSans-Bold-20" transform="translate(1806.759766 0)"/>
     <use xlink:href="#DejaVuSans-Bold-63" transform="translate(1841.574219 0)"/>
     <use xlink:href="#DejaVuSans-Bold-75" transform="translate(1900.851562 0)"/>
     <use xlink:href="#DejaVuSans-Bold-72" transform="translate(1972.042969 0)"/>
     <use xlink:href="#DejaVuSans-Bold-76" transform="translate(2021.359375 0)"/>
     <use xlink:href="#DejaVuSans-Bold-65" transform="translate(2086.544922 0)"/>
     <use xlink:href="#DejaVuSans-Bold-20" transform="translate(2154.367188 0)"/>
     <use xlink:href="#DejaVuSans-Bold-28" transform="translate(2189.181641 0)"/>
     <use xlink:href="#DejaVuSans-Bold-75" transform="translate(2234.884766 0)"/>
     <use xlink:href="#DejaVuSans-Bold-6e" transform="translate(2306.076172 0)"/>
     <use xlink:href="#DejaVuSans-Bold-69" transform="translate(2377.267578 0)"/>
     <use xlink:href="#DejaVuSans-Bold-6d" transform="translate(2411.544922 0)"/>
     <use xlink:href="#DejaVuSans-Bold-6f" transform="translate(2515.744141 0)"/>
     <use xlink:href="#DejaVuSans-Bold-64" transform="translate(2584.445312 0)"/>
     <use xlink:href="#DejaVuSans-Bold-61" transform="translate(2656.027344 0)"/>
     <use xlink:href="#DejaVuSans-Bold-6c" transform="translate(2723.507812 0)"/>
     <use xlink:href="#DejaVuSans-Bold-29" transform="translate(2757.785156 0)"/>
    </g>
   </g>
   <g id="line2d_36">
    <path d="M 52.301395 342.409034 
L 209.533116 342.306102 
L 217.555143 342.047914 
L 222.368358 341.684781 
L 225.577169 341.284326 
L 228.78598 340.695411 
L 231.99479 339.847382 
L 235.203601 338.651886 
L 236.808006 337.891215 
L 238.412412 337.002301 
L 240.016817 335.969161 
L 241.621222 334.77495 
L 243.225628 333.402143 
L 244.830033 331.83277 
L 246.434438 330.048699 
L 248.038844 328.031976 
L 249.643249 325.765218 
L 251.247654 323.232053 
L 252.85206 320.417608 
L 254.456465 317.309029 
L 256.06087 313.896031 
L 257.665275 310.171462 
L 259.269681 306.131861 
L 262.478491 297.115418 
L 265.687302 286.912492 
L 268.896113 275.677302 
L 273.709329 257.461039 
L 280.12695 232.647679 
L 283.335761 221.092739 
L 286.544571 210.801893 
L 288.148976 206.289559 
L 289.753382 202.277625 
L 291.357787 198.818615 
L 292.962192 195.958695 
L 294.566598 193.736645 
L 296.171003 192.182997 
L 297.775408 191.319335 
L 299.379814 191.1578 
L 300.984219 191.700806 
L 302.588624 192.940982 
L 304.19303 194.86133 
L 305.797435 197.435612 
L 307.40184 200.628943 
L 309.006246 204.398567 
L 310.610651 208.694805 
L 312.215056 213.462134 
L 315.423867 224.165944 
L 318.632678 235.99541 
L 329.863515 278.941506 
L 333.072325 289.917965 
L 336.281136 299.799372 
L 339.489947 308.455927 
L 341.094352 312.308327 
L 342.698757 315.844276 
L 344.303163 319.069498 
L 345.907568 321.99314 
L 347.511973 324.627199 
L 349.116379 326.985956 
L 350.720784 329.08543 
L 352.325189 330.942866 
L 353.929595 332.576267 
L 355.534 334.003971 
L 357.138405 335.244281 
L 358.74281 336.315158 
L 360.347216 337.23396 
L 363.556026 338.680571 
L 366.764837 339.70437 
L 369.973648 340.407733 
L 373.182458 340.874585 
L 377.995674 341.27266 
L 384.413296 341.474526 
L 394.039727 341.489532 
L 419.710213 341.444216 
L 442.171887 341.693963 
L 488.699641 342.280008 
L 522.392153 342.394855 
L 641.118146 342.409034 
L 692.459117 342.409034 
L 692.459117 342.409034 
" clip-path="url(#p0ef3bcd2c2)" style="fill: none; stroke: #1f4e79; stroke-width: 2.2; stroke-linecap: square"/>
   </g>
   <g id="legend_1">
    <g id="patch_72">
     <path d="M 46.248438 54.070937 
L 143.87625 54.070937 
Q 145.57625 54.070937 145.57625 52.370937 
L 145.57625 28.268125 
Q 145.57625 26.568125 143.87625 26.568125 
L 46.248438 26.568125 
Q 44.548438 26.568125 44.548438 28.268125 
L 44.548438 52.370937 
Q 44.548438 54.070937 46.248438 54.070937 
z
" style="fill: #ffffff; opacity: 0.92; stroke: #cccccc; stroke-linejoin: miter"/>
    </g>
    <g id="line2d_37">
     <path d="M 47.948438 33.451797 
L 56.448438 33.451797 
L 64.948438 33.451797 
" style="fill: none; stroke: #1f4e79; stroke-width: 2.2; stroke-linecap: square"/>
    </g>
    <g id="text_20">
     <!-- Frequency curve -->
     <g transform="translate(71.748438 36.426797) scale(0.085 -0.085)">
      <defs>
       <path id="DejaVuSans-46" d="M 628 4666 
L 3309 4666 
L 3309 4134 
L 1259 4134 
L 1259 2759 
L 3109 2759 
L 3109 2228 
L 1259 2228 
L 1259 0 
L 628 0 
L 628 4666 
z
" transform="scale(0.015625)"/>
       <path id="DejaVuSans-71" d="M 947 1747 
Q 947 1113 1208 752 
Q 1469 391 1925 391 
Q 2381 391 2643 752 
Q 2906 1113 2906 1747 
Q 2906 2381 2643 2742 
Q 2381 3103 1925 3103 
Q 1469 3103 1208 2742 
Q 947 2381 947 1747 
z
M 2906 525 
Q 2725 213 2448 61 
Q 2172 -91 1784 -91 
Q 1150 -91 751 415 
Q 353 922 353 1747 
Q 353 2572 751 3078 
Q 1150 3584 1784 3584 
Q 2172 3584 2448 3432 
Q 2725 3281 2906 2969 
L 2906 3500 
L 3481 3500 
L 3481 -1331 
L 2906 -1331 
L 2906 525 
z
" transform="scale(0.015625)"/>
       <path id="DejaVuSans-75" d="M 544 1381 
L 544 3500 
L 1119 3500 
L 1119 1403 
Q 1119 906 1312 657 
Q 1506 409 1894 409 
Q 2359 409 2629 706 
Q 2900 1003 2900 1516 
L 2900 3500 
L 3475 3500 
L 3475 0 
L 2900 0 
L 2900 538 
Q 2691 219 2414 64 
Q 2138 -91 1772 -91 
Q 1169 -91 856 284 
Q 544 659 544 1381 
z
M 1991 3584 
L 1991 3584 
z
" transform="scale(0.015625)"/>
       <path id="DejaVuSans-63" d="M 3122 3366 
L 3122 2828 
Q 2878 2963 2633 3030 
Q 2388 3097 2138 3097 
Q 1578 3097 1268 2742 
Q 959 2388 959 1747 
Q 959 1106 1268 751 
Q 1578 397 2138 397 
Q 2388 397 2633 464 
Q 2878 531 3122 666 
L 3122 134 
Q 2881 22 2623 -34 
Q 2366 -91 2075 -91 
Q 1284 -91 818 406 
Q 353 903 353 1747 
Q 353 2603 823 3093 
Q 1294 3584 2113 3584 
Q 2378 3584 2631 3529 
Q 2884 3475 3122 3366 
z
" transform="scale(0.015625)"/>
       <path id="DejaVuSans-79" d="M 2059 -325 
Q 1816 -950 1584 -1140 
Q 1353 -1331 966 -1331 
L 506 -1331 
L 506 -850 
L 844 -850 
Q 1081 -850 1212 -737 
Q 1344 -625 1503 -206 
L 1606 56 
L 191 3500 
L 800 3500 
L 1894 763 
L 2988 3500 
L 3597 3500 
L 2059 -325 
z
" transform="scale(0.015625)"/>
       <path id="DejaVuSans-76" d="M 191 3500 
L 800 3500 
L 1894 563 
L 2988 3500 
L 3597 3500 
L 2284 0 
L 1503 0 
L 191 3500 
z
" transform="scale(0.015625)"/>
      </defs>
      <use xlink:href="#DejaVuSans-46"/>
      <use xlink:href="#DejaVuSans-72" transform="translate(50.269531 0)"/>
      <use xlink:href="#DejaVuSans-65" transform="translate(89.132812 0)"/>
      <use xlink:href="#DejaVuSans-71" transform="translate(150.65625 0)"/>
      <use xlink:href="#DejaVuSans-75" transform="translate(214.132812 0)"/>
      <use xlink:href="#DejaVuSans-65" transform="translate(277.511719 0)"/>
      <use xlink:href="#DejaVuSans-6e" transform="translate(339.035156 0)"/>
      <use xlink:href="#DejaVuSans-63" transform="translate(402.414062 0)"/>
      <use xlink:href="#DejaVuSans-79" transform="translate(457.394531 0)"/>
      <use xlink:href="#DejaVuSans-20" transform="translate(516.574219 0)"/>
      <use xlink:href="#DejaVuSans-63" transform="translate(548.361328 0)"/>
      <use xlink:href="#DejaVuSans-75" transform="translate(603.341797 0)"/>
      <use xlink:href="#DejaVuSans-72" transform="translate(666.720703 0)"/>
      <use xlink:href="#DejaVuSans-76" transform="translate(707.833984 0)"/>
      <use xlink:href="#DejaVuSans-65" transform="translate(767.013672 0)"/>
     </g>
    </g>
    <g id="patch_73">
     <path d="M 47.948438 48.903203 
L 64.948438 48.903203 
L 64.948438 42.953203 
L 47.948438 42.953203 
z
" style="fill: #ffffff; opacity: 0.65; stroke: #4c4c4c; stroke-width: 0.6; stroke-linejoin: miter"/>
    </g>
    <g id="text_21">
     <!-- Histogram -->
     <g transform="translate(71.748438 48.903203) scale(0.085 -0.085)">
      <defs>
       <path id="DejaVuSans-48" d="M 628 4666 
L 1259 4666 
L 1259 2753 
L 3553 2753 
L 3553 4666 
L 4184 4666 
L 4184 0 
L 3553 0 
L 3553 2222 
L 1259 2222 
L 1259 0 
L 628 0 
L 628 4666 
z
" transform="scale(0.015625)"/>
       <path id="DejaVuSans-6f" d="M 1959 3097 
Q 1497 3097 1228 2736 
Q 959 2375 959 1747 
Q 959 1119 1226 758 
Q 1494 397 1959 397 
Q 2419 397 2687 759 
Q 2956 1122 2956 1747 
Q 2956 2369 2687 2733 
Q 2419 3097 1959 3097 
z
M 1959 3584 
Q 2709 3584 3137 3096 
Q 3566 2609 3566 1747 
Q 3566 888 3137 398 
Q 2709 -91 1959 -91 
Q 1206 -91 779 398 
Q 353 888 353 1747 
Q 353 2609 779 3096 
Q 1206 3584 1959 3584 
z
" transform="scale(0.015625)"/>
       <path id="DejaVuSans-6d" d="M 3328 2828 
Q 3544 3216 3844 3400 
Q 4144 3584 4550 3584 
Q 5097 3584 5394 3201 
Q 5691 2819 5691 2113 
L 5691 0 
L 5113 0 
L 5113 2094 
Q 5113 2597 4934 2840 
Q 4756 3084 4391 3084 
Q 3944 3084 3684 2787 
Q 3425 2491 3425 1978 
L 3425 0 
L 2847 0 
L 2847 2094 
Q 2847 2600 2669 2842 
Q 2491 3084 2119 3084 
Q 1678 3084 1418 2786 
Q 1159 2488 1159 1978 
L 1159 0 
L 581 0 
L 581 3500 
L 1159 3500 
L 1159 2956 
Q 1356 3278 1631 3431 
Q 1906 3584 2284 3584 
Q 2666 3584 2933 3390 
Q 3200 3197 3328 2828 
z
" transform="scale(0.015625)"/>
      </defs>
      <use xlink:href="#DejaVuSans-48"/>
      <use xlink:href="#DejaVuSans-69" transform="translate(75.195312 0)"/>
      <use xlink:href="#DejaVuSans-73" transform="translate(102.978516 0)"/>
      <use xlink:href="#DejaVuSans-74" transform="translate(155.078125 0)"/>
      <use xlink:href="#DejaVuSans-6f" transform="translate(194.287109 0)"/>
      <use xlink:href="#DejaVuSans-67" transform="translate(255.46875 0)"/>
      <use xlink:href="#DejaVuSans-72" transform="translate(318.945312 0)"/>
      <use xlink:href="#DejaVuSans-61" transform="translate(360.058594 0)"/>
      <use xlink:href="#DejaVuSans-6d" transform="translate(421.337891 0)"/>
     </g>
    </g>
   </g>
   <g id="line2d_38">
    <defs>
     <path id="m64af868617" d="M -0 5 
L 5 -5 
L -5 -5 
z
" style="stroke: #000000; stroke-linejoin: miter"/>
    </defs>
    <g clip-path="url(#p0ef3bcd2c2)">
     <use xlink:href="#m64af868617" x="299.379814" y="191.1578" style="fill: #ff0000; stroke: #000000; stroke-linejoin: miter"/>
    </g>
   </g>
   <g id="text_22">
    <g id="patch_74">
     <path d="M 283.016689 182.82155 
L 315.742939 182.82155 
Q 317.742939 182.82155 317.742939 180.82155 
L 317.742939 164.1208 
Q 317.742939 162.1208 315.742939 162.1208 
L 283.016689 162.1208 
Q 281.016689 162.1208 281.016689 164.1208 
L 281.016689 180.82155 
Q 281.016689 182.82155 283.016689 182.82155 
z
" style="fill: #ffffff; stroke: #808080; stroke-linejoin: miter"/>
    </g>
    <!-- Mode 1 -->
    <g transform="translate(284.664189 170.19955) scale(0.08 -0.08)">
     <defs>
      <path id="DejaVuSans-4d" d="M 628 4666 
L 1569 4666 
L 2759 1491 
L 3956 4666 
L 4897 4666 
L 4897 0 
L 4281 0 
L 4281 4097 
L 3078 897 
L 2444 897 
L 1241 4097 
L 1241 0 
L 628 0 
L 628 4666 
z
" transform="scale(0.015625)"/>
      <path id="DejaVuSans-64" d="M 2906 2969 
L 2906 4863 
L 3481 4863 
L 3481 0 
L 2906 0 
L 2906 525 
Q 2725 213 2448 61 
Q 2172 -91 1784 -91 
Q 1150 -91 751 415 
Q 353 922 353 1747 
Q 353 2572 751 3078 
Q 1150 3584 1784 3584 
Q 2172 3584 2448 3432 
Q 2725 3281 2906 2969 
z
M 947 1747 
Q 947 1113 1208 752 
Q 1469 391 1925 391 
Q 2381 391 2643 752 
Q 2906 1113 2906 1747 
Q 2906 2381 2643 2742 
Q 2381 3103 1925 3103 
Q 1469 3103 1208 2742 
Q 947 2381 947 1747 
z
" transform="scale(0.015625)"/>
     </defs>
     <use xlink:href="#DejaVuSans-4d"/>
     <use xlink:href="#DejaVuSans-6f" transform="translate(86.279297 0)"/>
     <use xlink:href="#DejaVuSans-64" transform="translate(147.460938 0)"/>
     <use xlink:href="#DejaVuSans-65" transform="translate(210.9375 0)"/>
     <use xlink:href="#DejaVuSans-20" transform="translate(272.460938 0)"/>
     <use xlink:href="#DejaVuSans-31" transform="translate(304.248047 0)"/>
    </g>
    <!-- 1.68 phi -->
    <g transform="translate(283.016689 179.1578) scale(0.08 -0.08)">
     <defs>
      <path id="DejaVuSans-2e" d="M 684 794 
L 1344 794 
L 1344 0 
L 684 0 
L 684 794 
z
" transform="scale(0.015625)"/>
     </defs>
     <use xlink:href="#DejaVuSans-31"/>
     <use xlink:href="#DejaVuSans-2e" transform="translate(63.623047 0)"/>
     <use xlink:href="#DejaVuSans-36" transform="translate(95.410156 0)"/>
     <use xlink:href="#DejaVuSans-38" transform="translate(159.033203 0)"/>
     <use xlink:href="#DejaVuSans-20" transform="translate(222.65625 0)"/>
     <use xlink:href="#DejaVuSans-70" transform="translate(254.443359 0)"/>
     <use xlink:href="#DejaVuSans-68" transform="translate(317.919922 0)"/>
     <use xlink:href="#DejaVuSans-69" transform="translate(381.298828 0)"/>
    </g>
   </g>
  </g>
 </g>
 <defs>
  <clipPath id="p0ef3bcd2c2">
   <rect x="40.298438" y="22.318125" width="664.163636" height="320.090909"/>
  </clipPath>
 </defs>
</svg>
